G04 #@! TF.FileFunction,Legend,Bot*
%FSLAX46Y46*%
G04 Gerber Fmt 4.6, Leading zero omitted, Abs format (unit mm)*
G04 Created by KiCad (PCBNEW 0.201508170901+6097~28~ubuntu14.04.1-product) date So 05 Jun 2016 18:42:39 CEST*
%MOMM*%
G01*
G04 APERTURE LIST*
%ADD10C,0.100000*%
%ADD11C,0.150000*%
G04 APERTURE END LIST*
D10*
D11*
X5205476Y-2117619D02*
X5157857Y-2070000D01*
X5062619Y-2022381D01*
X4824523Y-2022381D01*
X4729285Y-2070000D01*
X4681666Y-2117619D01*
X4634047Y-2212857D01*
X4634047Y-2308095D01*
X4681666Y-2450952D01*
X5253095Y-3022381D01*
X4634047Y-3022381D01*
X4300714Y-3022381D02*
X3776904Y-2355714D01*
X4300714Y-2355714D02*
X3776904Y-3022381D01*
X6610238Y-4832143D02*
X6657857Y-4879762D01*
X6800714Y-4927381D01*
X6895952Y-4927381D01*
X7038810Y-4879762D01*
X7134048Y-4784524D01*
X7181667Y-4689286D01*
X7229286Y-4498810D01*
X7229286Y-4355952D01*
X7181667Y-4165476D01*
X7134048Y-4070238D01*
X7038810Y-3975000D01*
X6895952Y-3927381D01*
X6800714Y-3927381D01*
X6657857Y-3975000D01*
X6610238Y-4022619D01*
X5610238Y-4927381D02*
X5943572Y-4451190D01*
X6181667Y-4927381D02*
X6181667Y-3927381D01*
X5800714Y-3927381D01*
X5705476Y-3975000D01*
X5657857Y-4022619D01*
X5610238Y-4117857D01*
X5610238Y-4260714D01*
X5657857Y-4355952D01*
X5705476Y-4403571D01*
X5800714Y-4451190D01*
X6181667Y-4451190D01*
X5229286Y-4022619D02*
X5181667Y-3975000D01*
X5086429Y-3927381D01*
X4848333Y-3927381D01*
X4753095Y-3975000D01*
X4705476Y-4022619D01*
X4657857Y-4117857D01*
X4657857Y-4213095D01*
X4705476Y-4355952D01*
X5276905Y-4927381D01*
X4657857Y-4927381D01*
X4038810Y-3927381D02*
X3943571Y-3927381D01*
X3848333Y-3975000D01*
X3800714Y-4022619D01*
X3753095Y-4117857D01*
X3705476Y-4308333D01*
X3705476Y-4546429D01*
X3753095Y-4736905D01*
X3800714Y-4832143D01*
X3848333Y-4879762D01*
X3943571Y-4927381D01*
X4038810Y-4927381D01*
X4134048Y-4879762D01*
X4181667Y-4832143D01*
X4229286Y-4736905D01*
X4276905Y-4546429D01*
X4276905Y-4308333D01*
X4229286Y-4117857D01*
X4181667Y-4022619D01*
X4134048Y-3975000D01*
X4038810Y-3927381D01*
X2753095Y-4927381D02*
X3324524Y-4927381D01*
X3038810Y-4927381D02*
X3038810Y-3927381D01*
X3134048Y-4070238D01*
X3229286Y-4165476D01*
X3324524Y-4213095D01*
X1895952Y-3927381D02*
X2086429Y-3927381D01*
X2181667Y-3975000D01*
X2229286Y-4022619D01*
X2324524Y-4165476D01*
X2372143Y-4355952D01*
X2372143Y-4736905D01*
X2324524Y-4832143D01*
X2276905Y-4879762D01*
X2181667Y-4927381D01*
X1991190Y-4927381D01*
X1895952Y-4879762D01*
X1848333Y-4832143D01*
X1800714Y-4736905D01*
X1800714Y-4498810D01*
X1848333Y-4403571D01*
X1895952Y-4355952D01*
X1991190Y-4308333D01*
X2181667Y-4308333D01*
X2276905Y-4355952D01*
X2324524Y-4403571D01*
X2372143Y-4498810D01*
X8000000Y-370000D02*
X8000000Y-5670000D01*
X15000000Y-370000D02*
X15000000Y-5670000D01*
X15000000Y-370000D02*
X8000000Y-370000D01*
X22900000Y-16570000D02*
G75*
G03X22900000Y-16570000I-11400000J0D01*
G01*
X19905714Y-2498571D02*
X19762857Y-2546190D01*
X19715238Y-2593810D01*
X19667619Y-2689048D01*
X19667619Y-2831905D01*
X19715238Y-2927143D01*
X19762857Y-2974762D01*
X19858095Y-3022381D01*
X20239048Y-3022381D01*
X20239048Y-2022381D01*
X19905714Y-2022381D01*
X19810476Y-2070000D01*
X19762857Y-2117619D01*
X19715238Y-2212857D01*
X19715238Y-2308095D01*
X19762857Y-2403333D01*
X19810476Y-2450952D01*
X19905714Y-2498571D01*
X20239048Y-2498571D01*
X19381905Y-2022381D02*
X18810476Y-2022381D01*
X19096191Y-3022381D02*
X19096191Y-2022381D01*
X17953333Y-3022381D02*
X18524762Y-3022381D01*
X18239048Y-3022381D02*
X18239048Y-2022381D01*
X18334286Y-2165238D01*
X18429524Y-2260476D01*
X18524762Y-2308095D01*
X20715238Y-4022619D02*
X20667619Y-3975000D01*
X20572381Y-3927381D01*
X20334285Y-3927381D01*
X20239047Y-3975000D01*
X20191428Y-4022619D01*
X20143809Y-4117857D01*
X20143809Y-4213095D01*
X20191428Y-4355952D01*
X20762857Y-4927381D01*
X20143809Y-4927381D01*
X19810476Y-4927381D02*
X19286666Y-4260714D01*
X19810476Y-4260714D02*
X19286666Y-4927381D01*
X19000952Y-3927381D02*
X18381904Y-3927381D01*
X18715238Y-4308333D01*
X18572380Y-4308333D01*
X18477142Y-4355952D01*
X18429523Y-4403571D01*
X18381904Y-4498810D01*
X18381904Y-4736905D01*
X18429523Y-4832143D01*
X18477142Y-4879762D01*
X18572380Y-4927381D01*
X18858095Y-4927381D01*
X18953333Y-4879762D01*
X19000952Y-4832143D01*
X18096190Y-3927381D02*
X17762857Y-4927381D01*
X17429523Y-3927381D01*
M02*
