G04 #@! TF.FileFunction,Copper,L2,Bot,Signal*
%FSLAX46Y46*%
G04 Gerber Fmt 4.6, Leading zero omitted, Abs format (unit mm)*
G04 Created by KiCad (PCBNEW 0.201508170901+6097~28~ubuntu14.04.1-product) date So 05 Jun 2016 18:42:39 CEST*
%MOMM*%
G01*
G04 APERTURE LIST*
%ADD10C,0.100000*%
%ADD11C,2.200000*%
%ADD12C,0.254000*%
G04 APERTURE END LIST*
D10*
D11*
X11500000Y-23070000D03*
X11500000Y-2570000D03*
D12*
G36*
X22544000Y-27544000D02*
X456000Y-27544000D01*
X456000Y-24156153D01*
X10593452Y-24156153D01*
X10718325Y-24361948D01*
X11272234Y-24562739D01*
X11860818Y-24536274D01*
X12281675Y-24361948D01*
X12406548Y-24156153D01*
X11500000Y-23249605D01*
X10593452Y-24156153D01*
X456000Y-24156153D01*
X456000Y-22842234D01*
X10007261Y-22842234D01*
X10033726Y-23430818D01*
X10208052Y-23851675D01*
X10413847Y-23976548D01*
X11320395Y-23070000D01*
X11679605Y-23070000D01*
X12586153Y-23976548D01*
X12791948Y-23851675D01*
X12992739Y-23297766D01*
X12966274Y-22709182D01*
X12791948Y-22288325D01*
X12586153Y-22163452D01*
X11679605Y-23070000D01*
X11320395Y-23070000D01*
X10413847Y-22163452D01*
X10208052Y-22288325D01*
X10007261Y-22842234D01*
X456000Y-22842234D01*
X456000Y-21983847D01*
X10593452Y-21983847D01*
X11500000Y-22890395D01*
X12406548Y-21983847D01*
X12281675Y-21778052D01*
X11727766Y-21577261D01*
X11139182Y-21603726D01*
X10718325Y-21778052D01*
X10593452Y-21983847D01*
X456000Y-21983847D01*
X456000Y-2863297D01*
X10018743Y-2863297D01*
X10243737Y-3407823D01*
X10659985Y-3824799D01*
X11204118Y-4050743D01*
X11793297Y-4051257D01*
X12337823Y-3826263D01*
X12754799Y-3410015D01*
X12980743Y-2865882D01*
X12981257Y-2276703D01*
X12756263Y-1732177D01*
X12340015Y-1315201D01*
X11795882Y-1089257D01*
X11206703Y-1088743D01*
X10662177Y-1313737D01*
X10245201Y-1729985D01*
X10019257Y-2274118D01*
X10018743Y-2863297D01*
X456000Y-2863297D01*
X456000Y-456000D01*
X22544000Y-456000D01*
X22544000Y-27544000D01*
X22544000Y-27544000D01*
G37*
X22544000Y-27544000D02*
X456000Y-27544000D01*
X456000Y-24156153D01*
X10593452Y-24156153D01*
X10718325Y-24361948D01*
X11272234Y-24562739D01*
X11860818Y-24536274D01*
X12281675Y-24361948D01*
X12406548Y-24156153D01*
X11500000Y-23249605D01*
X10593452Y-24156153D01*
X456000Y-24156153D01*
X456000Y-22842234D01*
X10007261Y-22842234D01*
X10033726Y-23430818D01*
X10208052Y-23851675D01*
X10413847Y-23976548D01*
X11320395Y-23070000D01*
X11679605Y-23070000D01*
X12586153Y-23976548D01*
X12791948Y-23851675D01*
X12992739Y-23297766D01*
X12966274Y-22709182D01*
X12791948Y-22288325D01*
X12586153Y-22163452D01*
X11679605Y-23070000D01*
X11320395Y-23070000D01*
X10413847Y-22163452D01*
X10208052Y-22288325D01*
X10007261Y-22842234D01*
X456000Y-22842234D01*
X456000Y-21983847D01*
X10593452Y-21983847D01*
X11500000Y-22890395D01*
X12406548Y-21983847D01*
X12281675Y-21778052D01*
X11727766Y-21577261D01*
X11139182Y-21603726D01*
X10718325Y-21778052D01*
X10593452Y-21983847D01*
X456000Y-21983847D01*
X456000Y-2863297D01*
X10018743Y-2863297D01*
X10243737Y-3407823D01*
X10659985Y-3824799D01*
X11204118Y-4050743D01*
X11793297Y-4051257D01*
X12337823Y-3826263D01*
X12754799Y-3410015D01*
X12980743Y-2865882D01*
X12981257Y-2276703D01*
X12756263Y-1732177D01*
X12340015Y-1315201D01*
X11795882Y-1089257D01*
X11206703Y-1088743D01*
X10662177Y-1313737D01*
X10245201Y-1729985D01*
X10019257Y-2274118D01*
X10018743Y-2863297D01*
X456000Y-2863297D01*
X456000Y-456000D01*
X22544000Y-456000D01*
X22544000Y-27544000D01*
M02*
