G04 #@! TF.FileFunction,Copper,L1,Top,Signal*
%FSLAX46Y46*%
G04 Gerber Fmt 4.6, Leading zero omitted, Abs format (unit mm)*
G04 Created by KiCad (PCBNEW 0.201508170901+6097~28~ubuntu14.04.1-product) date So 05 Jun 2016 18:42:39 CEST*
%MOMM*%
G01*
G04 APERTURE LIST*
%ADD10C,0.100000*%
%ADD11C,2.200000*%
%ADD12R,1.250000X1.500000*%
%ADD13R,1.500000X1.300000*%
%ADD14R,0.600000X1.550000*%
%ADD15R,1.600000X1.000000*%
%ADD16R,2.500000X3.000000*%
%ADD17R,4.000000X1.000000*%
%ADD18R,1.168400X1.600200*%
%ADD19R,1.700000X2.000000*%
%ADD20C,0.508000*%
%ADD21C,0.254000*%
G04 APERTURE END LIST*
D10*
D11*
X11500000Y-23070000D03*
X11500000Y-2570000D03*
D12*
X7690000Y-12750000D03*
X7690000Y-15250000D03*
D13*
X20470000Y-3840000D03*
X17770000Y-3840000D03*
X20470000Y-6380000D03*
X17770000Y-6380000D03*
X20470000Y-8920000D03*
X17770000Y-8920000D03*
D14*
X10865000Y-17970000D03*
X12135000Y-17970000D03*
X13405000Y-17970000D03*
X14675000Y-17970000D03*
X14675000Y-12570000D03*
X13405000Y-12570000D03*
X12135000Y-12570000D03*
X10865000Y-12570000D03*
D15*
X8490000Y-21650000D03*
X8490000Y-19050000D03*
D16*
X2240000Y-20350000D03*
D17*
X20390000Y-24160000D03*
X20390000Y-21620000D03*
X20390000Y-19080000D03*
X20390000Y-16540000D03*
X20390000Y-14000000D03*
D18*
X10484000Y-8920000D03*
X8960000Y-8920000D03*
X7436000Y-8920000D03*
D19*
X6420000Y-5840000D03*
X6420000Y-1840000D03*
X2610000Y-5840000D03*
X2610000Y-1840000D03*
D20*
X6420000Y-1840000D02*
X10770000Y-1840000D01*
X10770000Y-1840000D02*
X11500000Y-2570000D01*
X11500000Y-2570000D02*
X10484000Y-3586000D01*
X10484000Y-3586000D02*
X10484000Y-8920000D01*
X7436000Y-8920000D02*
X7690000Y-9174000D01*
X7690000Y-9174000D02*
X7690000Y-12750000D01*
X2610000Y-5840000D02*
X5690000Y-8920000D01*
X5690000Y-8920000D02*
X7436000Y-8920000D01*
X10865000Y-12570000D02*
X7870000Y-12570000D01*
X7870000Y-12570000D02*
X7690000Y-12750000D01*
X20470000Y-3840000D02*
X20470000Y-6380000D01*
X20470000Y-6380000D02*
X20470000Y-8920000D01*
X20470000Y-8920000D02*
X20390000Y-9000000D01*
X20390000Y-9000000D02*
X20390000Y-14000000D01*
X14675000Y-12570000D02*
X14675000Y-10190000D01*
X15945000Y-8920000D02*
X17770000Y-8920000D01*
X14675000Y-10190000D02*
X15945000Y-8920000D01*
X20390000Y-16540000D02*
X17850000Y-16540000D01*
X14675000Y-13365000D02*
X14675000Y-12570000D01*
X17850000Y-16540000D02*
X14675000Y-13365000D01*
X20390000Y-19080000D02*
X17850000Y-19080000D01*
X17215000Y-18445000D02*
X17215000Y-17175000D01*
X17850000Y-19080000D02*
X17215000Y-18445000D01*
X19120000Y-19080000D02*
X20390000Y-19080000D01*
X13405000Y-12570000D02*
X13405000Y-8285000D01*
X15310000Y-6380000D02*
X17770000Y-6380000D01*
X13405000Y-8285000D02*
X15310000Y-6380000D01*
X13405000Y-13365000D02*
X13405000Y-12570000D01*
X17215000Y-17175000D02*
X13405000Y-13365000D01*
X20390000Y-21620000D02*
X17850000Y-21620000D01*
X15945000Y-19715000D02*
X15945000Y-19080000D01*
X17850000Y-21620000D02*
X15945000Y-19715000D01*
X20390000Y-21620000D02*
X18485000Y-21620000D01*
X12135000Y-12570000D02*
X12135000Y-6380000D01*
X14675000Y-3840000D02*
X17770000Y-3840000D01*
X12135000Y-6380000D02*
X14675000Y-3840000D01*
X15945000Y-17175000D02*
X13405000Y-14635000D01*
X13405000Y-14635000D02*
X12135000Y-13365000D01*
X12135000Y-13365000D02*
X12135000Y-12570000D01*
X15945000Y-19080000D02*
X15945000Y-17175000D01*
X10865000Y-17970000D02*
X9785000Y-19050000D01*
X9785000Y-19050000D02*
X8490000Y-19050000D01*
X12135000Y-17970000D02*
X12135000Y-19715000D01*
X10200000Y-21650000D02*
X8490000Y-21650000D01*
X12135000Y-19715000D02*
X10200000Y-21650000D01*
X6420000Y-5840000D02*
X6515000Y-5745000D01*
X6515000Y-5745000D02*
X7690000Y-5745000D01*
X8960000Y-7015000D02*
X8960000Y-8920000D01*
X7690000Y-5745000D02*
X8960000Y-7015000D01*
X2610000Y-1840000D02*
X6420000Y-5650000D01*
X6420000Y-5650000D02*
X6420000Y-5840000D01*
D21*
G36*
X7055000Y-11613418D02*
X6923810Y-11638103D01*
X6794135Y-11721546D01*
X6707141Y-11848866D01*
X6676536Y-12000000D01*
X6676536Y-13500000D01*
X6703103Y-13641190D01*
X6786546Y-13770865D01*
X6913866Y-13857859D01*
X7065000Y-13888464D01*
X8315000Y-13888464D01*
X8456190Y-13861897D01*
X8585865Y-13778454D01*
X8672859Y-13651134D01*
X8703464Y-13500000D01*
X8703464Y-13205000D01*
X10176536Y-13205000D01*
X10176536Y-13345000D01*
X10203103Y-13486190D01*
X10286546Y-13615865D01*
X10413866Y-13702859D01*
X10565000Y-13733464D01*
X11165000Y-13733464D01*
X11306190Y-13706897D01*
X11435865Y-13623454D01*
X11500530Y-13528813D01*
X11546926Y-13600915D01*
X11548336Y-13608004D01*
X11685987Y-13814013D01*
X12955987Y-15084013D01*
X14802000Y-16930025D01*
X14802000Y-17843000D01*
X14822000Y-17843000D01*
X14822000Y-18097000D01*
X14802000Y-18097000D01*
X14802000Y-19030750D01*
X14897250Y-19126000D01*
X15050785Y-19126000D01*
X15190819Y-19067996D01*
X15297996Y-18960820D01*
X15310000Y-18931840D01*
X15310000Y-19715000D01*
X15358336Y-19958004D01*
X15495987Y-20164013D01*
X17400987Y-22069013D01*
X17606996Y-22206664D01*
X17850000Y-22255000D01*
X18026938Y-22255000D01*
X18028103Y-22261190D01*
X18111546Y-22390865D01*
X18238866Y-22477859D01*
X18390000Y-22508464D01*
X22390000Y-22508464D01*
X22531190Y-22481897D01*
X22544000Y-22473654D01*
X22544000Y-23311397D01*
X22465786Y-23279000D01*
X20612250Y-23279000D01*
X20517000Y-23374250D01*
X20517000Y-24033000D01*
X20537000Y-24033000D01*
X20537000Y-24287000D01*
X20517000Y-24287000D01*
X20517000Y-24945750D01*
X20612250Y-25041000D01*
X22465786Y-25041000D01*
X22544000Y-25008603D01*
X22544000Y-27544000D01*
X456000Y-27544000D01*
X456000Y-24156153D01*
X10593452Y-24156153D01*
X10718325Y-24361948D01*
X11272234Y-24562739D01*
X11860818Y-24536274D01*
X12232662Y-24382250D01*
X18009000Y-24382250D01*
X18009000Y-24735785D01*
X18067004Y-24875819D01*
X18174180Y-24982996D01*
X18314214Y-25041000D01*
X20167750Y-25041000D01*
X20263000Y-24945750D01*
X20263000Y-24287000D01*
X18104250Y-24287000D01*
X18009000Y-24382250D01*
X12232662Y-24382250D01*
X12281675Y-24361948D01*
X12406548Y-24156153D01*
X11500000Y-23249605D01*
X10593452Y-24156153D01*
X456000Y-24156153D01*
X456000Y-20572250D01*
X609000Y-20572250D01*
X609000Y-21925785D01*
X667004Y-22065819D01*
X774180Y-22172996D01*
X914214Y-22231000D01*
X2017750Y-22231000D01*
X2113000Y-22135750D01*
X2113000Y-20477000D01*
X2367000Y-20477000D01*
X2367000Y-22135750D01*
X2462250Y-22231000D01*
X3565786Y-22231000D01*
X3705820Y-22172996D01*
X3812996Y-22065819D01*
X3871000Y-21925785D01*
X3871000Y-20572250D01*
X3775750Y-20477000D01*
X2367000Y-20477000D01*
X2113000Y-20477000D01*
X704250Y-20477000D01*
X609000Y-20572250D01*
X456000Y-20572250D01*
X456000Y-18774215D01*
X609000Y-18774215D01*
X609000Y-20127750D01*
X704250Y-20223000D01*
X2113000Y-20223000D01*
X2113000Y-18564250D01*
X2367000Y-18564250D01*
X2367000Y-20223000D01*
X3775750Y-20223000D01*
X3871000Y-20127750D01*
X3871000Y-18774215D01*
X3812996Y-18634181D01*
X3728816Y-18550000D01*
X7301536Y-18550000D01*
X7301536Y-19550000D01*
X7328103Y-19691190D01*
X7411546Y-19820865D01*
X7538866Y-19907859D01*
X7690000Y-19938464D01*
X9290000Y-19938464D01*
X9431190Y-19911897D01*
X9560865Y-19828454D01*
X9647859Y-19701134D01*
X9651126Y-19685000D01*
X9785000Y-19685000D01*
X10028004Y-19636664D01*
X10234013Y-19499013D01*
X10599562Y-19133464D01*
X11165000Y-19133464D01*
X11306190Y-19106897D01*
X11435865Y-19023454D01*
X11500000Y-18929589D01*
X11500000Y-19451974D01*
X9936974Y-21015000D01*
X9653062Y-21015000D01*
X9651897Y-21008810D01*
X9568454Y-20879135D01*
X9441134Y-20792141D01*
X9290000Y-20761536D01*
X7690000Y-20761536D01*
X7548810Y-20788103D01*
X7419135Y-20871546D01*
X7332141Y-20998866D01*
X7301536Y-21150000D01*
X7301536Y-22150000D01*
X7328103Y-22291190D01*
X7411546Y-22420865D01*
X7538866Y-22507859D01*
X7690000Y-22538464D01*
X9290000Y-22538464D01*
X9431190Y-22511897D01*
X9560865Y-22428454D01*
X9647859Y-22301134D01*
X9651126Y-22285000D01*
X10200000Y-22285000D01*
X10220131Y-22280996D01*
X10208052Y-22288325D01*
X10007261Y-22842234D01*
X10033726Y-23430818D01*
X10208052Y-23851675D01*
X10413847Y-23976548D01*
X11320395Y-23070000D01*
X11679605Y-23070000D01*
X12586153Y-23976548D01*
X12791948Y-23851675D01*
X12888901Y-23584215D01*
X18009000Y-23584215D01*
X18009000Y-23937750D01*
X18104250Y-24033000D01*
X20263000Y-24033000D01*
X20263000Y-23374250D01*
X20167750Y-23279000D01*
X18314214Y-23279000D01*
X18174180Y-23337004D01*
X18067004Y-23444181D01*
X18009000Y-23584215D01*
X12888901Y-23584215D01*
X12992739Y-23297766D01*
X12966274Y-22709182D01*
X12791948Y-22288325D01*
X12586153Y-22163452D01*
X11679605Y-23070000D01*
X11320395Y-23070000D01*
X11306253Y-23055858D01*
X11485858Y-22876253D01*
X11500000Y-22890395D01*
X12406548Y-21983847D01*
X12281675Y-21778052D01*
X11727766Y-21577261D01*
X11144541Y-21603485D01*
X12584013Y-20164013D01*
X12721664Y-19958004D01*
X12770000Y-19715000D01*
X12770000Y-18931840D01*
X12782004Y-18960820D01*
X12889181Y-19067996D01*
X13029215Y-19126000D01*
X13182750Y-19126000D01*
X13278000Y-19030750D01*
X13278000Y-18097000D01*
X13532000Y-18097000D01*
X13532000Y-19030750D01*
X13627250Y-19126000D01*
X13780785Y-19126000D01*
X13920819Y-19067996D01*
X14027996Y-18960820D01*
X14040000Y-18931840D01*
X14052004Y-18960820D01*
X14159181Y-19067996D01*
X14299215Y-19126000D01*
X14452750Y-19126000D01*
X14548000Y-19030750D01*
X14548000Y-18097000D01*
X14089250Y-18097000D01*
X14040000Y-18146250D01*
X13990750Y-18097000D01*
X13532000Y-18097000D01*
X13278000Y-18097000D01*
X13258000Y-18097000D01*
X13258000Y-17843000D01*
X13278000Y-17843000D01*
X13278000Y-16909250D01*
X13532000Y-16909250D01*
X13532000Y-17843000D01*
X13990750Y-17843000D01*
X14040000Y-17793750D01*
X14089250Y-17843000D01*
X14548000Y-17843000D01*
X14548000Y-16909250D01*
X14452750Y-16814000D01*
X14299215Y-16814000D01*
X14159181Y-16872004D01*
X14052004Y-16979180D01*
X14040000Y-17008160D01*
X14027996Y-16979180D01*
X13920819Y-16872004D01*
X13780785Y-16814000D01*
X13627250Y-16814000D01*
X13532000Y-16909250D01*
X13278000Y-16909250D01*
X13182750Y-16814000D01*
X13029215Y-16814000D01*
X12889181Y-16872004D01*
X12782004Y-16979180D01*
X12769030Y-17010503D01*
X12713454Y-16924135D01*
X12586134Y-16837141D01*
X12435000Y-16806536D01*
X11835000Y-16806536D01*
X11693810Y-16833103D01*
X11564135Y-16916546D01*
X11499470Y-17011187D01*
X11443454Y-16924135D01*
X11316134Y-16837141D01*
X11165000Y-16806536D01*
X10565000Y-16806536D01*
X10423810Y-16833103D01*
X10294135Y-16916546D01*
X10207141Y-17043866D01*
X10176536Y-17195000D01*
X10176536Y-17760438D01*
X9603451Y-18333523D01*
X9568454Y-18279135D01*
X9441134Y-18192141D01*
X9290000Y-18161536D01*
X7690000Y-18161536D01*
X7548810Y-18188103D01*
X7419135Y-18271546D01*
X7332141Y-18398866D01*
X7301536Y-18550000D01*
X3728816Y-18550000D01*
X3705820Y-18527004D01*
X3565786Y-18469000D01*
X2462250Y-18469000D01*
X2367000Y-18564250D01*
X2113000Y-18564250D01*
X2017750Y-18469000D01*
X914214Y-18469000D01*
X774180Y-18527004D01*
X667004Y-18634181D01*
X609000Y-18774215D01*
X456000Y-18774215D01*
X456000Y-15472250D01*
X6684000Y-15472250D01*
X6684000Y-16075786D01*
X6742004Y-16215820D01*
X6849181Y-16322996D01*
X6989215Y-16381000D01*
X7467750Y-16381000D01*
X7563000Y-16285750D01*
X7563000Y-15377000D01*
X7817000Y-15377000D01*
X7817000Y-16285750D01*
X7912250Y-16381000D01*
X8390785Y-16381000D01*
X8530819Y-16322996D01*
X8637996Y-16215820D01*
X8696000Y-16075786D01*
X8696000Y-15472250D01*
X8600750Y-15377000D01*
X7817000Y-15377000D01*
X7563000Y-15377000D01*
X6779250Y-15377000D01*
X6684000Y-15472250D01*
X456000Y-15472250D01*
X456000Y-14424214D01*
X6684000Y-14424214D01*
X6684000Y-15027750D01*
X6779250Y-15123000D01*
X7563000Y-15123000D01*
X7563000Y-14214250D01*
X7817000Y-14214250D01*
X7817000Y-15123000D01*
X8600750Y-15123000D01*
X8696000Y-15027750D01*
X8696000Y-14424214D01*
X8637996Y-14284180D01*
X8530819Y-14177004D01*
X8390785Y-14119000D01*
X7912250Y-14119000D01*
X7817000Y-14214250D01*
X7563000Y-14214250D01*
X7467750Y-14119000D01*
X6989215Y-14119000D01*
X6849181Y-14177004D01*
X6742004Y-14284180D01*
X6684000Y-14424214D01*
X456000Y-14424214D01*
X456000Y-10627000D01*
X7055000Y-10627000D01*
X7055000Y-11613418D01*
X7055000Y-11613418D01*
G37*
X7055000Y-11613418D02*
X6923810Y-11638103D01*
X6794135Y-11721546D01*
X6707141Y-11848866D01*
X6676536Y-12000000D01*
X6676536Y-13500000D01*
X6703103Y-13641190D01*
X6786546Y-13770865D01*
X6913866Y-13857859D01*
X7065000Y-13888464D01*
X8315000Y-13888464D01*
X8456190Y-13861897D01*
X8585865Y-13778454D01*
X8672859Y-13651134D01*
X8703464Y-13500000D01*
X8703464Y-13205000D01*
X10176536Y-13205000D01*
X10176536Y-13345000D01*
X10203103Y-13486190D01*
X10286546Y-13615865D01*
X10413866Y-13702859D01*
X10565000Y-13733464D01*
X11165000Y-13733464D01*
X11306190Y-13706897D01*
X11435865Y-13623454D01*
X11500530Y-13528813D01*
X11546926Y-13600915D01*
X11548336Y-13608004D01*
X11685987Y-13814013D01*
X12955987Y-15084013D01*
X14802000Y-16930025D01*
X14802000Y-17843000D01*
X14822000Y-17843000D01*
X14822000Y-18097000D01*
X14802000Y-18097000D01*
X14802000Y-19030750D01*
X14897250Y-19126000D01*
X15050785Y-19126000D01*
X15190819Y-19067996D01*
X15297996Y-18960820D01*
X15310000Y-18931840D01*
X15310000Y-19715000D01*
X15358336Y-19958004D01*
X15495987Y-20164013D01*
X17400987Y-22069013D01*
X17606996Y-22206664D01*
X17850000Y-22255000D01*
X18026938Y-22255000D01*
X18028103Y-22261190D01*
X18111546Y-22390865D01*
X18238866Y-22477859D01*
X18390000Y-22508464D01*
X22390000Y-22508464D01*
X22531190Y-22481897D01*
X22544000Y-22473654D01*
X22544000Y-23311397D01*
X22465786Y-23279000D01*
X20612250Y-23279000D01*
X20517000Y-23374250D01*
X20517000Y-24033000D01*
X20537000Y-24033000D01*
X20537000Y-24287000D01*
X20517000Y-24287000D01*
X20517000Y-24945750D01*
X20612250Y-25041000D01*
X22465786Y-25041000D01*
X22544000Y-25008603D01*
X22544000Y-27544000D01*
X456000Y-27544000D01*
X456000Y-24156153D01*
X10593452Y-24156153D01*
X10718325Y-24361948D01*
X11272234Y-24562739D01*
X11860818Y-24536274D01*
X12232662Y-24382250D01*
X18009000Y-24382250D01*
X18009000Y-24735785D01*
X18067004Y-24875819D01*
X18174180Y-24982996D01*
X18314214Y-25041000D01*
X20167750Y-25041000D01*
X20263000Y-24945750D01*
X20263000Y-24287000D01*
X18104250Y-24287000D01*
X18009000Y-24382250D01*
X12232662Y-24382250D01*
X12281675Y-24361948D01*
X12406548Y-24156153D01*
X11500000Y-23249605D01*
X10593452Y-24156153D01*
X456000Y-24156153D01*
X456000Y-20572250D01*
X609000Y-20572250D01*
X609000Y-21925785D01*
X667004Y-22065819D01*
X774180Y-22172996D01*
X914214Y-22231000D01*
X2017750Y-22231000D01*
X2113000Y-22135750D01*
X2113000Y-20477000D01*
X2367000Y-20477000D01*
X2367000Y-22135750D01*
X2462250Y-22231000D01*
X3565786Y-22231000D01*
X3705820Y-22172996D01*
X3812996Y-22065819D01*
X3871000Y-21925785D01*
X3871000Y-20572250D01*
X3775750Y-20477000D01*
X2367000Y-20477000D01*
X2113000Y-20477000D01*
X704250Y-20477000D01*
X609000Y-20572250D01*
X456000Y-20572250D01*
X456000Y-18774215D01*
X609000Y-18774215D01*
X609000Y-20127750D01*
X704250Y-20223000D01*
X2113000Y-20223000D01*
X2113000Y-18564250D01*
X2367000Y-18564250D01*
X2367000Y-20223000D01*
X3775750Y-20223000D01*
X3871000Y-20127750D01*
X3871000Y-18774215D01*
X3812996Y-18634181D01*
X3728816Y-18550000D01*
X7301536Y-18550000D01*
X7301536Y-19550000D01*
X7328103Y-19691190D01*
X7411546Y-19820865D01*
X7538866Y-19907859D01*
X7690000Y-19938464D01*
X9290000Y-19938464D01*
X9431190Y-19911897D01*
X9560865Y-19828454D01*
X9647859Y-19701134D01*
X9651126Y-19685000D01*
X9785000Y-19685000D01*
X10028004Y-19636664D01*
X10234013Y-19499013D01*
X10599562Y-19133464D01*
X11165000Y-19133464D01*
X11306190Y-19106897D01*
X11435865Y-19023454D01*
X11500000Y-18929589D01*
X11500000Y-19451974D01*
X9936974Y-21015000D01*
X9653062Y-21015000D01*
X9651897Y-21008810D01*
X9568454Y-20879135D01*
X9441134Y-20792141D01*
X9290000Y-20761536D01*
X7690000Y-20761536D01*
X7548810Y-20788103D01*
X7419135Y-20871546D01*
X7332141Y-20998866D01*
X7301536Y-21150000D01*
X7301536Y-22150000D01*
X7328103Y-22291190D01*
X7411546Y-22420865D01*
X7538866Y-22507859D01*
X7690000Y-22538464D01*
X9290000Y-22538464D01*
X9431190Y-22511897D01*
X9560865Y-22428454D01*
X9647859Y-22301134D01*
X9651126Y-22285000D01*
X10200000Y-22285000D01*
X10220131Y-22280996D01*
X10208052Y-22288325D01*
X10007261Y-22842234D01*
X10033726Y-23430818D01*
X10208052Y-23851675D01*
X10413847Y-23976548D01*
X11320395Y-23070000D01*
X11679605Y-23070000D01*
X12586153Y-23976548D01*
X12791948Y-23851675D01*
X12888901Y-23584215D01*
X18009000Y-23584215D01*
X18009000Y-23937750D01*
X18104250Y-24033000D01*
X20263000Y-24033000D01*
X20263000Y-23374250D01*
X20167750Y-23279000D01*
X18314214Y-23279000D01*
X18174180Y-23337004D01*
X18067004Y-23444181D01*
X18009000Y-23584215D01*
X12888901Y-23584215D01*
X12992739Y-23297766D01*
X12966274Y-22709182D01*
X12791948Y-22288325D01*
X12586153Y-22163452D01*
X11679605Y-23070000D01*
X11320395Y-23070000D01*
X11306253Y-23055858D01*
X11485858Y-22876253D01*
X11500000Y-22890395D01*
X12406548Y-21983847D01*
X12281675Y-21778052D01*
X11727766Y-21577261D01*
X11144541Y-21603485D01*
X12584013Y-20164013D01*
X12721664Y-19958004D01*
X12770000Y-19715000D01*
X12770000Y-18931840D01*
X12782004Y-18960820D01*
X12889181Y-19067996D01*
X13029215Y-19126000D01*
X13182750Y-19126000D01*
X13278000Y-19030750D01*
X13278000Y-18097000D01*
X13532000Y-18097000D01*
X13532000Y-19030750D01*
X13627250Y-19126000D01*
X13780785Y-19126000D01*
X13920819Y-19067996D01*
X14027996Y-18960820D01*
X14040000Y-18931840D01*
X14052004Y-18960820D01*
X14159181Y-19067996D01*
X14299215Y-19126000D01*
X14452750Y-19126000D01*
X14548000Y-19030750D01*
X14548000Y-18097000D01*
X14089250Y-18097000D01*
X14040000Y-18146250D01*
X13990750Y-18097000D01*
X13532000Y-18097000D01*
X13278000Y-18097000D01*
X13258000Y-18097000D01*
X13258000Y-17843000D01*
X13278000Y-17843000D01*
X13278000Y-16909250D01*
X13532000Y-16909250D01*
X13532000Y-17843000D01*
X13990750Y-17843000D01*
X14040000Y-17793750D01*
X14089250Y-17843000D01*
X14548000Y-17843000D01*
X14548000Y-16909250D01*
X14452750Y-16814000D01*
X14299215Y-16814000D01*
X14159181Y-16872004D01*
X14052004Y-16979180D01*
X14040000Y-17008160D01*
X14027996Y-16979180D01*
X13920819Y-16872004D01*
X13780785Y-16814000D01*
X13627250Y-16814000D01*
X13532000Y-16909250D01*
X13278000Y-16909250D01*
X13182750Y-16814000D01*
X13029215Y-16814000D01*
X12889181Y-16872004D01*
X12782004Y-16979180D01*
X12769030Y-17010503D01*
X12713454Y-16924135D01*
X12586134Y-16837141D01*
X12435000Y-16806536D01*
X11835000Y-16806536D01*
X11693810Y-16833103D01*
X11564135Y-16916546D01*
X11499470Y-17011187D01*
X11443454Y-16924135D01*
X11316134Y-16837141D01*
X11165000Y-16806536D01*
X10565000Y-16806536D01*
X10423810Y-16833103D01*
X10294135Y-16916546D01*
X10207141Y-17043866D01*
X10176536Y-17195000D01*
X10176536Y-17760438D01*
X9603451Y-18333523D01*
X9568454Y-18279135D01*
X9441134Y-18192141D01*
X9290000Y-18161536D01*
X7690000Y-18161536D01*
X7548810Y-18188103D01*
X7419135Y-18271546D01*
X7332141Y-18398866D01*
X7301536Y-18550000D01*
X3728816Y-18550000D01*
X3705820Y-18527004D01*
X3565786Y-18469000D01*
X2462250Y-18469000D01*
X2367000Y-18564250D01*
X2113000Y-18564250D01*
X2017750Y-18469000D01*
X914214Y-18469000D01*
X774180Y-18527004D01*
X667004Y-18634181D01*
X609000Y-18774215D01*
X456000Y-18774215D01*
X456000Y-15472250D01*
X6684000Y-15472250D01*
X6684000Y-16075786D01*
X6742004Y-16215820D01*
X6849181Y-16322996D01*
X6989215Y-16381000D01*
X7467750Y-16381000D01*
X7563000Y-16285750D01*
X7563000Y-15377000D01*
X7817000Y-15377000D01*
X7817000Y-16285750D01*
X7912250Y-16381000D01*
X8390785Y-16381000D01*
X8530819Y-16322996D01*
X8637996Y-16215820D01*
X8696000Y-16075786D01*
X8696000Y-15472250D01*
X8600750Y-15377000D01*
X7817000Y-15377000D01*
X7563000Y-15377000D01*
X6779250Y-15377000D01*
X6684000Y-15472250D01*
X456000Y-15472250D01*
X456000Y-14424214D01*
X6684000Y-14424214D01*
X6684000Y-15027750D01*
X6779250Y-15123000D01*
X7563000Y-15123000D01*
X7563000Y-14214250D01*
X7817000Y-14214250D01*
X7817000Y-15123000D01*
X8600750Y-15123000D01*
X8696000Y-15027750D01*
X8696000Y-14424214D01*
X8637996Y-14284180D01*
X8530819Y-14177004D01*
X8390785Y-14119000D01*
X7912250Y-14119000D01*
X7817000Y-14214250D01*
X7563000Y-14214250D01*
X7467750Y-14119000D01*
X6989215Y-14119000D01*
X6849181Y-14177004D01*
X6742004Y-14284180D01*
X6684000Y-14424214D01*
X456000Y-14424214D01*
X456000Y-10627000D01*
X7055000Y-10627000D01*
X7055000Y-11613418D01*
M02*
