<?xml version="1.0" encoding="UTF-8"?>
<!DOCTYPE svg PUBLIC "-//W3C//DTD SVG 1.1//EN" "http://www.w3.org/Graphics/SVG/1.1/DTD/svg11.dtd">
<svg width="509mm" height="217mm" viewBox="0 0 50900 21700" version="1.1" baseProfile="tiny" xmlns="http://www.w3.org/2000/svg" stroke-width="28.222" stroke-linejoin="round" xml:space="preserve">
 <path fill="rgb(255,255,255)" stroke="none" d="M 25464,21673 L 0,21673 0,0 50928,0 50928,21673 25464,21673 Z"/>
 <path fill="none" stroke="rgb(179,179,179)" stroke-linejoin="round" d="M 24487,20058 L 2671,20058 2671,632 46303,632 46303,20058 24487,20058 Z"/>
 <path fill="none" stroke="rgb(179,179,179)" stroke-linejoin="round" d="M 46303,20057 L 2671,20057"/>
 <path fill="none" stroke="rgb(179,179,179)" stroke-linejoin="round" d="M 46303,16171 L 2671,16171"/>
 <path fill="none" stroke="rgb(179,179,179)" stroke-linejoin="round" d="M 46303,12286 L 2671,12286"/>
 <path fill="none" stroke="rgb(179,179,179)" stroke-linejoin="round" d="M 46303,8401 L 2671,8401"/>
 <path fill="none" stroke="rgb(179,179,179)" stroke-linejoin="round" d="M 46303,4516 L 2671,4516"/>
 <path fill="none" stroke="rgb(179,179,179)" stroke-linejoin="round" d="M 46303,630 L 2671,630"/>
 <path fill="none" stroke="rgb(179,179,179)" stroke-linejoin="round" d="M 2671,20207 L 2671,20057"/>
 <path fill="none" stroke="rgb(179,179,179)" stroke-linejoin="round" d="M 2671,20207 L 2671,20057"/>
 <path fill="none" stroke="rgb(179,179,179)" stroke-linejoin="round" d="M 4287,20207 L 4287,20057"/>
 <path fill="none" stroke="rgb(179,179,179)" stroke-linejoin="round" d="M 4287,20207 L 4287,20057"/>
 <path fill="none" stroke="rgb(179,179,179)" stroke-linejoin="round" d="M 5903,20207 L 5903,20057"/>
 <path fill="none" stroke="rgb(179,179,179)" stroke-linejoin="round" d="M 5903,20207 L 5903,20057"/>
 <path fill="none" stroke="rgb(179,179,179)" stroke-linejoin="round" d="M 7519,20207 L 7519,20057"/>
 <path fill="none" stroke="rgb(179,179,179)" stroke-linejoin="round" d="M 7519,20207 L 7519,20057"/>
 <path fill="none" stroke="rgb(179,179,179)" stroke-linejoin="round" d="M 9135,20207 L 9135,20057"/>
 <path fill="none" stroke="rgb(179,179,179)" stroke-linejoin="round" d="M 9135,20207 L 9135,20057"/>
 <path fill="none" stroke="rgb(179,179,179)" stroke-linejoin="round" d="M 10751,20207 L 10751,20057"/>
 <path fill="none" stroke="rgb(179,179,179)" stroke-linejoin="round" d="M 10751,20207 L 10751,20057"/>
 <path fill="none" stroke="rgb(179,179,179)" stroke-linejoin="round" d="M 12367,20207 L 12367,20057"/>
 <path fill="none" stroke="rgb(179,179,179)" stroke-linejoin="round" d="M 12367,20207 L 12367,20057"/>
 <path fill="none" stroke="rgb(179,179,179)" stroke-linejoin="round" d="M 13983,20207 L 13983,20057"/>
 <path fill="none" stroke="rgb(179,179,179)" stroke-linejoin="round" d="M 13983,20207 L 13983,20057"/>
 <path fill="none" stroke="rgb(179,179,179)" stroke-linejoin="round" d="M 15599,20207 L 15599,20057"/>
 <path fill="none" stroke="rgb(179,179,179)" stroke-linejoin="round" d="M 15599,20207 L 15599,20057"/>
 <path fill="none" stroke="rgb(179,179,179)" stroke-linejoin="round" d="M 17215,20207 L 17215,20057"/>
 <path fill="none" stroke="rgb(179,179,179)" stroke-linejoin="round" d="M 17215,20207 L 17215,20057"/>
 <path fill="none" stroke="rgb(179,179,179)" stroke-linejoin="round" d="M 18831,20207 L 18831,20057"/>
 <path fill="none" stroke="rgb(179,179,179)" stroke-linejoin="round" d="M 18831,20207 L 18831,20057"/>
 <path fill="none" stroke="rgb(179,179,179)" stroke-linejoin="round" d="M 20447,20207 L 20447,20057"/>
 <path fill="none" stroke="rgb(179,179,179)" stroke-linejoin="round" d="M 20447,20207 L 20447,20057"/>
 <path fill="none" stroke="rgb(179,179,179)" stroke-linejoin="round" d="M 22063,20207 L 22063,20057"/>
 <path fill="none" stroke="rgb(179,179,179)" stroke-linejoin="round" d="M 22063,20207 L 22063,20057"/>
 <path fill="none" stroke="rgb(179,179,179)" stroke-linejoin="round" d="M 23679,20207 L 23679,20057"/>
 <path fill="none" stroke="rgb(179,179,179)" stroke-linejoin="round" d="M 23679,20207 L 23679,20057"/>
 <path fill="none" stroke="rgb(179,179,179)" stroke-linejoin="round" d="M 25295,20207 L 25295,20057"/>
 <path fill="none" stroke="rgb(179,179,179)" stroke-linejoin="round" d="M 25295,20207 L 25295,20057"/>
 <path fill="none" stroke="rgb(179,179,179)" stroke-linejoin="round" d="M 26910,20207 L 26910,20057"/>
 <path fill="none" stroke="rgb(179,179,179)" stroke-linejoin="round" d="M 26910,20207 L 26910,20057"/>
 <path fill="none" stroke="rgb(179,179,179)" stroke-linejoin="round" d="M 28526,20207 L 28526,20057"/>
 <path fill="none" stroke="rgb(179,179,179)" stroke-linejoin="round" d="M 28526,20207 L 28526,20057"/>
 <path fill="none" stroke="rgb(179,179,179)" stroke-linejoin="round" d="M 30142,20207 L 30142,20057"/>
 <path fill="none" stroke="rgb(179,179,179)" stroke-linejoin="round" d="M 30142,20207 L 30142,20057"/>
 <path fill="none" stroke="rgb(179,179,179)" stroke-linejoin="round" d="M 31758,20207 L 31758,20057"/>
 <path fill="none" stroke="rgb(179,179,179)" stroke-linejoin="round" d="M 31758,20207 L 31758,20057"/>
 <path fill="none" stroke="rgb(179,179,179)" stroke-linejoin="round" d="M 33374,20207 L 33374,20057"/>
 <path fill="none" stroke="rgb(179,179,179)" stroke-linejoin="round" d="M 33374,20207 L 33374,20057"/>
 <path fill="none" stroke="rgb(179,179,179)" stroke-linejoin="round" d="M 34990,20207 L 34990,20057"/>
 <path fill="none" stroke="rgb(179,179,179)" stroke-linejoin="round" d="M 34990,20207 L 34990,20057"/>
 <path fill="none" stroke="rgb(179,179,179)" stroke-linejoin="round" d="M 36606,20207 L 36606,20057"/>
 <path fill="none" stroke="rgb(179,179,179)" stroke-linejoin="round" d="M 36606,20207 L 36606,20057"/>
 <path fill="none" stroke="rgb(179,179,179)" stroke-linejoin="round" d="M 38222,20207 L 38222,20057"/>
 <path fill="none" stroke="rgb(179,179,179)" stroke-linejoin="round" d="M 38222,20207 L 38222,20057"/>
 <path fill="none" stroke="rgb(179,179,179)" stroke-linejoin="round" d="M 39838,20207 L 39838,20057"/>
 <path fill="none" stroke="rgb(179,179,179)" stroke-linejoin="round" d="M 39838,20207 L 39838,20057"/>
 <path fill="none" stroke="rgb(179,179,179)" stroke-linejoin="round" d="M 41454,20207 L 41454,20057"/>
 <path fill="none" stroke="rgb(179,179,179)" stroke-linejoin="round" d="M 41454,20207 L 41454,20057"/>
 <path fill="none" stroke="rgb(179,179,179)" stroke-linejoin="round" d="M 43070,20207 L 43070,20057"/>
 <path fill="none" stroke="rgb(179,179,179)" stroke-linejoin="round" d="M 43070,20207 L 43070,20057"/>
 <path fill="none" stroke="rgb(179,179,179)" stroke-linejoin="round" d="M 44686,20207 L 44686,20057"/>
 <path fill="none" stroke="rgb(179,179,179)" stroke-linejoin="round" d="M 44686,20207 L 44686,20057"/>
 <path fill="none" stroke="rgb(179,179,179)" stroke-linejoin="round" d="M 46303,20207 L 46303,20057"/>
 <path fill="none" stroke="rgb(179,179,179)" stroke-linejoin="round" d="M 46303,20207 L 46303,20057"/>
 <path fill="none" stroke="rgb(179,179,179)" stroke-linejoin="round" d="M 2671,20057 L 46303,20057"/>
 <path fill="none" stroke="rgb(179,179,179)" stroke-linejoin="round" d="M 2521,20057 L 2671,20057"/>
 <path fill="none" stroke="rgb(179,179,179)" stroke-linejoin="round" d="M 2521,20057 L 2671,20057"/>
 <path fill="none" stroke="rgb(179,179,179)" stroke-linejoin="round" d="M 2521,16171 L 2671,16171"/>
 <path fill="none" stroke="rgb(179,179,179)" stroke-linejoin="round" d="M 2521,16171 L 2671,16171"/>
 <path fill="none" stroke="rgb(179,179,179)" stroke-linejoin="round" d="M 2521,12286 L 2671,12286"/>
 <path fill="none" stroke="rgb(179,179,179)" stroke-linejoin="round" d="M 2521,12286 L 2671,12286"/>
 <path fill="none" stroke="rgb(179,179,179)" stroke-linejoin="round" d="M 2521,8401 L 2671,8401"/>
 <path fill="none" stroke="rgb(179,179,179)" stroke-linejoin="round" d="M 2521,8401 L 2671,8401"/>
 <path fill="none" stroke="rgb(179,179,179)" stroke-linejoin="round" d="M 2521,4516 L 2671,4516"/>
 <path fill="none" stroke="rgb(179,179,179)" stroke-linejoin="round" d="M 2521,4516 L 2671,4516"/>
 <path fill="none" stroke="rgb(179,179,179)" stroke-linejoin="round" d="M 2521,630 L 2671,630"/>
 <path fill="none" stroke="rgb(179,179,179)" stroke-linejoin="round" d="M 2521,630 L 2671,630"/>
 <path fill="none" stroke="rgb(179,179,179)" stroke-linejoin="round" d="M 2671,20057 L 2671,630"/>
 <path fill="none" stroke="rgb(179,179,179)" stroke-linejoin="round" d="M 46453,20057 L 46303,20057"/>
 <path fill="none" stroke="rgb(179,179,179)" stroke-linejoin="round" d="M 46453,20057 L 46303,20057"/>
 <path fill="none" stroke="rgb(179,179,179)" stroke-linejoin="round" d="M 46453,16819 L 46303,16819"/>
 <path fill="none" stroke="rgb(179,179,179)" stroke-linejoin="round" d="M 46453,16819 L 46303,16819"/>
 <path fill="none" stroke="rgb(179,179,179)" stroke-linejoin="round" d="M 46453,13581 L 46303,13581"/>
 <path fill="none" stroke="rgb(179,179,179)" stroke-linejoin="round" d="M 46453,13581 L 46303,13581"/>
 <path fill="none" stroke="rgb(179,179,179)" stroke-linejoin="round" d="M 46453,10344 L 46303,10344"/>
 <path fill="none" stroke="rgb(179,179,179)" stroke-linejoin="round" d="M 46453,10344 L 46303,10344"/>
 <path fill="none" stroke="rgb(179,179,179)" stroke-linejoin="round" d="M 46453,7106 L 46303,7106"/>
 <path fill="none" stroke="rgb(179,179,179)" stroke-linejoin="round" d="M 46453,7106 L 46303,7106"/>
 <path fill="none" stroke="rgb(179,179,179)" stroke-linejoin="round" d="M 46453,3868 L 46303,3868"/>
 <path fill="none" stroke="rgb(179,179,179)" stroke-linejoin="round" d="M 46453,3868 L 46303,3868"/>
 <path fill="none" stroke="rgb(179,179,179)" stroke-linejoin="round" d="M 46453,631 L 46303,631"/>
 <path fill="none" stroke="rgb(179,179,179)" stroke-linejoin="round" d="M 46453,631 L 46303,631"/>
 <path fill="none" stroke="rgb(179,179,179)" stroke-linejoin="round" d="M 46303,20057 L 46303,631"/>
 <path fill="none" stroke="rgb(75,31,111)" stroke-width="80" stroke-linejoin="round" d="M 3705,19693 L 3716,19693 3742,19692 3769,19692 3796,19692 3818,19693 3845,19692 3872,19692 3893,19692 3920,19693 3947,19692 3974,19692 3996,19692 4023,19692 4050,19693 4076,19692 4098,19692 4125,19692 4152,19692 4173,19692 4200,19692 4227,19693 4254,19693 4270,19685 4276,19689 4303,19692 4330,19692 4357,19692 4378,19692 4405,19690 4416,19670 4427,19689 4432,19689 4454,19688 4464,19689 4480,19689 4507,19688 4513,19688 4534,19689 4550,19688 4556,19688 4583,19689 4610,19688 4637,19689 4658,19689 4685,19689 4712,19690 4739,19692 4761,19691 4788,19690 4814,19691 4836,19692 4863,19692 4890,19692 4917,19692 4938,19692 4965,19692 4992,19692 5019,19692 5041,19692 5068,19692 5095,19692 5116,19692 5143,19692 5170,19692 5197,19692 5218,19692 5245,19692 5272,19692 5299,19692 5321,19693 5348,19692 5375,19692 5396,19692 5423,19692 5450,19692 5477,19692 5499,19692 5525,19692 5552,19691 5579,19693 5601,19692 5628,19692 5655,19692 5676,19693 5703,19692 5730,19693 5757,19694 5779,19694 5806,19693 5833,19693 5859,19694 5881,19694 5908,19693 5940,19693 5956,19693 5983,19694 6010,19694 6037,19694 6059,19693 6086,19693 6113,19693 6140,19693 6161,19693 6188,19694 6215,19693 6237,19693 6263,19693 6290,19693 6317,19693 6339,19694 6366,19693 6393,19694 6420,19693 6441,19694 6468,19694 6495,19694 6522,19693 6544,19693 6571,19693 6597,19694 6619,19693 6646,19693 6673,19694 6700,19694 6721,19694 6748,19693 6775,19694 6802,19694 6824,19694 6851,19694 6878,19694 6899,19694 6926,19694 6953,19694 6980,19694 7001,19694 7028,19694 7055,19694 7082,19694 7104,19693 7131,19693 7158,19693 7179,19693 7206,19694 7233,19693 7260,19694 7282,19693 7309,19693 7335,19694 7362,19694 7384,19693 7411,19693 7438,19694 7459,19693 7486,19694 7513,19694 7540,19693 7562,19694 7589,19693 7616,19693 7643,19693 7664,19694 7691,19693 7718,19693 7739,19693 7766,19693 7793,19693 7820,19693 7842,19693 7869,19693 7896,19694 7923,19693 7944,19693 7971,19694 7998,19694 8020,19693 8047,19693 8073,19693 8100,19693 8122,19693 8149,19693 8176,19693 8203,19693 8224,19693 8251,19693 8278,19694 8305,19694 8327,19693 8354,19693 8380,19693 8402,19694 8429,19693 8456,19693 8483,19693 8504,19694 8531,19693 8558,19693 8585,19693 8607,19694 8634,19693 8661,19693 8682,19693 8709,19693 8736,19693 8763,19693 8785,19694 8811,19693 8838,19693 8865,19694 8887,19693 8914,19693 8941,19693 8962,19693 8989,19693 9016,19693 9043,19694 9065,19693 9092,19694 9118,19694 9145,19693 9167,19694 9194,19693 9221,19693 9242,19694 9269,19694 9296,19693 9323,19693 9345,19694 9372,19693 9399,19693 9426,19693 9447,19693 9474,19693 9501,19693 9522,19693 9549,19693 9576,19693 9603,19693 9625,19693 9652,19693 9679,19693 9706,19693 9727,19693 9754,19693 9781,19693 9803,19694 9830,19692 9856,19693 9883,19693 9905,19693 9932,19693 9959,19693 9986,19693 10007,19694 10034,19693 10061,19694 10088,19694 10110,19693 10137,19694 10164,19693 10185,19694 10212,19693 10239,19693 10266,19693 10287,19694 10314,19693 10341,19693 10368,19693 10390,19694 10417,19693 10444,19694 10465,19693 10492,19694 10519,19693 10546,19693 10568,19694 10594,19693 10621,19694 10648,19693 10670,19693 10697,19693 10724,19694 10745,19694 10772,19693 10799,19693 10826,19693 10848,19693 10875,19693 10902,19693 10928,19693 10950,19693 10977,19694 11004,19693 11025,19694 11052,19693 11079,19694 11106,19694 11128,19693 11155,19694 11182,19693 11209,19693 11230,19694 11257,19693 11284,19694 11306,19693 11332,19693 11359,19694 11386,19694 11408,19694 11435,19694 11462,19693 11489,19693 11510,19693 11537,19694 11564,19693 11586,19694 11613,19694 11640,19694 11666,19694 11688,19694 11715,19693 11742,19693 11769,19694 11790,19693 11817,19693 11844,19694 11871,19693 11893,19693 11920,19693 11947,19693 11968,19694 11995,19693 12022,19693 12049,19693 12070,19693 12097,19693 12124,19694 12151,19694 12173,19693 12200,19693 12227,19693 12248,19693 12275,19694 12302,19694 12329,19693 12351,19694 12377,19694 12404,19693 12431,19694 12453,19693 12480,19692 12507,19693 12528,19693 12555,19693 12582,19693 12609,19693 12631,19693 12658,19693 12685,19693 12711,19693 12733,19693 12760,19693 12776,19687 12787,19681 12792,19675 12803,19666 12808,19663 12819,19654 12835,19643 12862,19636 12868,19633 12889,19621 12911,19610 12927,19601 12938,19594 12954,19586 12965,19580 12970,19578 12986,19566 12992,19563 13008,19555 13013,19554 13029,19544 13040,19537 13045,19535 13062,19523 13067,19521 13083,19513 13089,19512 13115,19501 13137,19492 13142,19490 13159,19482 13169,19476 13180,19469 13191,19463 13196,19459 13212,19449 13218,19447 13239,19438 13245,19436 13261,19427 13272,19422 13282,19417 13293,19412 13304,19406 13320,19395 13347,19383 13363,19373 13369,19372 13396,19361 13423,19353 13428,19350 13449,19343 13455,19340 13471,19333 13482,19327 13498,19319 13503,19314 13514,19308 13525,19305 13546,19296 13552,19293 13568,19284 13573,19282 13584,19275 13600,19264 13616,19254 13627,19247 13633,19241 13649,19232 13654,19227 13665,19220 13676,19212 13681,19209 13697,19198 13708,19195 13719,19188 13730,19181 13735,19177 13751,19167 13767,19156 13778,19149 13783,19145 13800,19134 13805,19132 13821,19121 13832,19113 13837,19111 13853,19097 13864,19088 13875,19081 13880,19077 13891,19069 13907,19055 13918,19048 13934,19035 13950,19021 13956,19018 13961,19013 13972,19004 13983,18996 13988,18992 13999,18983 14010,18975 14015,18970 14031,18959 14042,18950 14058,18937 14074,18928 14085,18919 14090,18916 14107,18906 14112,18902 14123,18896 14134,18891 14144,18883 14161,18874 14182,18862 14187,18858 14198,18853 14214,18844 14220,18840 14236,18832 14241,18829 14263,18820 14284,18808 14290,18805 14311,18797 14338,18787 14365,18774 14387,18765 14392,18761 14403,18755 14414,18750 14430,18742 14441,18738 14446,18734 14468,18723 14495,18711 14516,18699 14538,18690 14543,18687 14559,18679 14570,18674 14586,18668 14591,18665 14613,18656 14618,18653 14629,18647 14645,18641 14651,18636 14672,18625 14694,18614 14721,18603 14737,18591 14748,18587 14764,18580 14775,18574 14780,18571 14796,18563 14802,18560 14823,18549 14845,18538 14850,18535 14866,18527 14872,18524 14888,18516 14899,18509 14909,18505 14925,18496 14931,18493 14952,18484 14974,18471 14995,18463 15001,18460 15017,18450 15028,18445 15039,18440 15055,18432 15060,18428 15076,18421 15082,18418 15103,18405 15119,18398 15130,18390 15141,18386 15152,18380 15162,18375 15179,18366 15184,18364 15206,18353 15222,18343 15232,18337 15243,18331 15254,18326 15265,18321 15281,18313 15286,18311 15308,18298 15324,18288 15335,18282 15340,18277 15356,18272 15362,18267 15383,18256 15405,18244 15410,18241 15426,18233 15437,18227 15448,18221 15459,18215 15470,18210 15486,18203 15507,18191 15513,18187 15529,18180 15534,18176 15550,18169 15561,18164 15572,18159 15588,18148 15610,18136 15615,18133 15631,18124 15637,18122 15647,18115 15663,18106 15669,18104 15685,18092 15690,18090 15701,18083 15717,18074 15723,18073 15739,18062 15750,18056 15760,18050 15766,18048 15782,18038 15793,18033 15803,18025 15814,18021 15820,18017 15836,18005 15841,18002 15857,17995 15868,17990 15874,17986 15895,17973 15911,17963 15917,17961 15933,17949 15944,17943 15949,17942 15970,17929 15987,17920 15997,17914 16008,17908 16019,17903 16030,17898 16046,17891 16051,17886 16073,17874 16089,17866 16094,17863 16116,17852 16121,17850 16137,17843 16148,17837 16159,17832 16175,17824 16181,17820 16197,17814 16202,17808 16213,17801 16224,17796 16234,17790 16251,17783 16256,17779 16278,17768 16299,17757 16326,17744 16342,17733 16353,17728 16364,17722 16374,17716 16380,17714 16396,17701 16401,17699 16412,17693 16428,17681 16445,17671 16455,17666 16466,17660 16477,17655 16488,17648 16504,17638 16525,17627 16531,17625 16547,17613 16558,17609 16568,17603 16579,17597 16585,17595 16601,17584 16606,17582 16622,17573 16633,17566 16644,17562 16655,17555 16665,17549 16682,17541 16703,17528 16708,17525 16725,17517 16735,17512 16741,17508 16757,17500 16762,17497 16784,17485 16805,17474 16811,17470 16822,17465 16838,17454 16859,17441 16881,17431 16886,17429 16902,17420 16913,17414 16924,17408 16935,17402 16940,17399 16962,17387 16978,17378 16989,17370 16999,17367 17016,17358 17021,17355 17037,17344 17059,17334 17064,17330 17080,17323 17091,17317 17096,17313 17118,17300 17134,17291 17139,17288 17156,17279 17166,17272 17172,17267 17188,17259 17193,17256 17209,17249 17215,17245 17226,17238 17242,17230 17247,17226 17269,17214 17285,17204 17301,17199 17306,17194 17317,17188 17328,17183 17344,17174 17350,17170 17366,17162 17371,17158 17387,17149 17398,17144 17403,17140 17420,17131 17425,17128 17446,17115 17468,17104 17473,17101 17484,17094 17500,17086 17522,17072 17543,17061 17549,17059 17560,17053 17576,17043 17581,17040 17597,17031 17619,17019 17624,17018 17640,17008 17651,17004 17662,16996 17678,16989 17683,16985 17700,16975 17716,16964 17727,16959 17737,16953 17754,16944 17775,16934 17780,16929 17797,16922 17802,16916 17813,16909 17829,16900 17845,16889 17856,16884 17867,16878 17877,16872 17888,16866 17904,16858 17926,16847 17931,16843 17947,16835 17958,16830 17964,16826 17980,16818 17991,16812 18007,16806 18017,16802 18034,16791 18055,16782 18061,16778 18082,16771 18104,16760 18109,16759 18125,16750 18136,16746 18152,16737 18158,16735 18174,16727 18184,16721 18201,16715 18211,16708 18217,16706 18238,16697 18244,16693 18260,16685 18265,16681 18281,16671 18287,16666 18298,16661 18314,16650 18330,16641 18341,16635 18351,16630 18362,16625 18378,16619 18389,16613 18405,16607 18416,16600 18427,16596 18438,16590 18443,16587 18465,16577 18470,16574 18492,16563 18513,16551 18518,16549 18529,16542 18540,16538 18551,16533 18567,16524 18572,16521 18588,16511 18594,16508 18610,16497 18621,16490 18642,16477 18658,16465 18669,16459 18675,16455 18691,16446 18696,16442 18707,16436 18718,16428 18729,16420 18745,16413 18766,16401 18772,16397 18782,16389 18799,16379 18815,16366 18820,16363 18831,16357 18847,16350 18852,16348 18874,16337 18896,16325 18901,16322 18912,16316 18922,16309 18933,16305 18949,16297 18960,16293 18976,16283 18998,16271 19014,16262 19025,16257 19041,16249 19052,16242 19057,16240 19079,16228 19100,16217 19116,16208 19127,16203 19143,16195 19154,16190 19170,16183 19181,16178 19192,16172 19203,16168 19213,16162 19229,16154 19235,16152 19251,16142 19256,16140 19273,16131 19283,16126 19300,16119 19305,16116 19321,16108 19332,16101 19337,16099 19353,16088 19359,16086 19375,16074 19380,16070 19386,16066 19407,16056 19429,16043 19434,16040 19440,16033 19461,16020 19483,16009 19504,15999 19510,15998 19526,15990 19537,15984 19547,15978 19563,15970 19569,15967 19585,15959 19590,15957 19612,15948 19617,15947 19639,15937 19660,15927 19666,15924 19687,15911 19704,15902 19714,15896 19720,15891 19736,15882 19741,15878 19752,15870 19763,15863 19768,15861 19790,15849 19806,15839 19817,15831 19827,15824 19838,15816 19844,15816 19865,15806 19887,15795 19892,15792 19908,15785 19919,15779 19930,15773 19941,15766 19946,15763 19967,15750 19989,15741 19994,15739 20011,15729 20021,15723 20032,15718 20043,15712 20054,15708 20070,15699 20075,15695 20097,15685 20118,15674 20124,15671 20134,15665 20145,15659 20156,15654 20172,15644 20178,15642 20199,15632 20215,15622 20221,15619 20242,15611 20248,15606 20264,15601 20275,15593 20285,15587 20301,15579 20323,15568 20345,15557 20350,15553 20366,15544 20377,15539 20388,15534 20404,15526 20409,15522 20425,15514 20452,15501 20468,15491 20479,15487 20495,15479 20501,15478 20517,15469 20528,15463 20533,15460 20555,15451 20560,15448 20582,15436 20598,15425 20603,15423 20614,15416 20630,15408 20635,15403 20657,15392 20679,15380 20684,15377 20695,15373 20705,15366 20711,15362 20732,15352 20738,15350 20754,15340 20759,15338 20776,15328 20781,15327 20797,15316 20808,15310 20819,15304 20835,15299 20840,15293 20862,15283 20878,15275 20883,15270 20894,15264 20910,15259 20921,15252 20937,15246 20942,15242 20959,15232 20964,15226 20980,15220 20986,15217 21002,15209 21013,15205 21023,15197 21039,15187 21061,15177 21066,15175 21083,15165 21088,15163 21104,15154 21115,15149 21126,15144 21142,15136 21147,15132 21163,15124 21190,15110 21206,15100 21217,15095 21228,15091 21244,15081 21255,15077 21266,15074 21276,15066 21293,15059 21320,15046 21341,15035 21347,15033 21363,15025 21368,15022 21379,15015 21395,15007 21406,15002 21422,14995 21427,14992 21443,14985 21449,14981 21470,14971 21492,14961 21497,14957 21513,14949 21524,14945 21535,14937 21546,14932 21557,14927 21573,14921 21578,14917 21600,14905 21621,14895 21627,14893 21643,14884 21648,14881 21664,14874 21675,14868 21686,14863 21702,14856 21707,14851 21724,14848 21729,14841 21751,14831 21772,14819 21777,14819 21794,14809 21804,14803 21815,14798 21826,14792 21837,14787 21853,14779 21858,14775 21874,14765 21880,14761 21896,14753 21907,14749 21923,14743 21928,14740 21944,14731 21955,14727 21966,14722 21982,14712 21988,14710 22004,14702 22009,14699 22031,14687 22052,14678 22058,14675 22074,14668 22084,14661 22095,14654 22106,14651 22122,14643 22133,14640 22144,14635 22160,14624 22187,14614 22208,14603 22235,14589 22257,14581 22262,14580 22278,14570 22284,14569 22305,14557 22311,14554 22327,14548 22338,14545 22348,14538 22365,14530 22375,14526 22386,14522 22402,14515 22413,14510 22424,14503 22440,14493 22451,14483 22467,14474 22472,14469 22489,14462 22515,14450 22537,14439 22542,14436 22559,14429 22564,14427 22580,14417 22591,14412 22602,14408 22618,14400 22623,14396 22639,14386 22645,14382 22666,14373 22688,14364 22693,14363 22715,14353 22720,14349 22742,14341 22747,14339 22763,14330 22769,14329 22790,14319 22796,14316 22812,14311 22822,14306 22839,14299 22849,14293 22860,14289 22871,14282 22893,14275 22898,14274 22914,14265 22925,14261 22936,14255 22946,14250 22957,14244 22973,14239 22979,14234 23000,14225 23006,14224 23027,14214 23033,14209 23049,14203 23054,14200 23076,14192 23097,14179 23103,14179 23124,14169 23130,14167 23151,14156 23167,14148 23178,14143 23189,14136 23205,14127 23216,14122 23226,14117 23232,14115 23253,14104 23270,14094 23280,14087 23291,14082 23307,14076 23313,14070 23329,14063 23334,14061 23356,14049 23383,14036 23399,14027 23410,14022 23420,14016 23431,14011 23442,14006 23458,14000 23464,13995 23485,13985 23507,13972 23528,13962 23534,13958 23544,13951 23560,13943 23566,13941 23587,13930 23604,13920 23609,13921 23614,13918 23636,13908 23657,13897 23663,13893 23679,13885 23690,13880 23695,13877 23711,13868 23717,13865 23738,13856 23744,13850 23760,13843 23765,13841 23781,13832 23787,13829 23808,13819 23814,13816 23824,13811 23841,13803 23846,13799 23868,13789 23889,13779 23911,13768 23916,13765 23938,13754 23943,13751 23954,13746 23970,13737 23975,13734 23991,13725 24018,13714 24035,13704 24045,13699 24056,13692 24067,13686 24078,13680 24094,13673 24099,13670 24121,13660 24148,13649 24164,13639 24169,13636 24185,13628 24196,13621 24207,13617 24223,13609 24228,13603 24250,13592 24272,13580 24293,13570 24298,13569 24315,13561 24325,13553 24336,13549 24347,13543 24352,13541 24374,13532 24379,13526 24401,13518 24422,13505 24428,13503 24444,13494 24449,13493 24460,13486 24476,13478 24487,13475 24503,13467 24509,13463 24530,13453 24546,13442 24552,13443 24562,13432 24579,13427 24589,13419 24606,13412 24611,13408 24632,13398 24654,13386 24676,13376 24681,13376 24697,13364 24708,13360 24719,13355 24729,13348 24740,13344 24756,13337 24762,13334 24783,13322 24799,13313 24810,13308 24821,13300 24832,13296 24848,13287 24859,13282 24864,13280 24886,13269 24902,13259 24913,13256 24929,13246 24934,13242 24950,13234 24961,13228 24966,13225 24988,13213 25004,13205 25010,13201 25031,13189 25036,13187 25047,13183 25063,13170 25080,13160 25090,13155 25096,13151 25112,13143 25117,13138 25139,13126 25150,13118 25166,13110 25171,13106 25193,13092 25203,13086 25214,13082 25230,13073 25241,13066 25247,13062 25268,13052 25290,13041 25306,13031 25317,13028 25333,13016 25343,13013 25349,13010 25370,12997 25392,12986 25414,12974 25419,12972 25430,12965 25446,12959 25451,12955 25472,12943 25493,12933 25515,12920 25520,12920 25531,12911 25547,12902 25553,12898 25569,12891 25574,12888 25590,12880 25596,12874 25612,12866 25623,12857 25644,12846 25650,12844 25666,12834 25671,12831 25687,12822 25698,12813 25720,12801 25725,12797 25730,12793 25752,12777 25768,12766 25773,12764 25779,12760 25795,12749 25800,12746 25817,12735 25827,12729 25833,12727 25849,12715 25870,12702 25876,12701 25887,12693 25903,12683 25919,12674 25930,12666 25940,12661 25951,12653 25957,12651 25978,12643 25984,12638 25994,12630 26005,12626 26016,12618 26032,12609 26037,12605 26054,12597 26070,12586 26080,12580 26086,12576 26107,12568 26118,12559 26129,12554 26151,12541 26156,12538 26167,12531 26183,12522 26188,12520 26204,12510 26210,12508 26226,12499 26231,12496 26247,12487 26258,12482 26269,12474 26285,12466 26301,12456 26312,12449 26323,12443 26334,12435 26361,12422 26377,12411 26388,12406 26398,12400 26414,12394 26420,12391 26436,12379 26458,12368 26463,12368 26479,12356 26490,12352 26495,12348 26511,12341 26517,12336 26538,12325 26560,12313 26565,12312 26576,12305 26592,12296 26598,12293 26614,12283 26635,12272 26641,12270 26657,12259 26668,12254 26673,12249 26695,12240 26716,12229 26722,12223 26738,12217 26743,12213 26754,12205 26770,12199 26775,12193 26786,12184 26792,12183 26808,12174 26818,12170 26829,12162 26845,12154 26851,12149 26872,12138 26889,12130 26894,12128 26910,12119 26921,12111 26926,12108 26948,12097 26969,12085 26975,12083 26991,12073 26996,12072 27007,12065 27023,12054 27045,12042 27050,12042 27066,12032 27072,12031 27088,12021 27099,12016 27109,12010 27126,12004 27131,12000 27152,11989 27174,11977 27196,11969 27201,11965 27217,11955 27228,11950 27239,11947 27255,11937 27260,11933 27276,11928 27282,11924 27303,11913 27319,11904 27330,11899 27336,11893 27352,11883 27357,11882 27379,11869 27400,11859 27406,11854 27411,11846 27433,11838 27454,11826 27476,11812 27481,11809 27486,11806 27508,11796 27530,11784 27535,11784 27556,11774 27578,11762 27583,11759 27594,11751 27610,11744 27616,11739 27632,11732 27637,11730 27659,11718 27675,11709 27686,11707 27697,11697 27713,11689 27723,11685 27734,11681 27745,11674 27761,11668 27772,11663 27788,11655 27793,11653 27815,11646 27820,11642 27837,11635 27842,11631 27864,11622 27885,11609 27890,11609 27907,11600 27912,11597 27928,11587 27939,11581 27944,11578 27966,11568 27971,11566 27993,11555 28014,11544 28036,11534 28041,11530 28047,11523 28052,11526 28057,11521 28068,11519 28079,11513 28095,11505 28106,11500 28117,11495 28127,11487 28144,11481 28149,11476 28171,11469 28192,11456 28197,11455 28214,11447 28219,11445 28235,11436 28246,11430 28251,11427 28273,11416 28289,11403 28294,11403 28311,11390 28321,11386 28327,11383 28348,11371 28364,11360 28375,11357 28386,11351 28397,11344 28408,11339 28424,11331 28429,11326 28451,11316 28472,11307 28478,11306 28494,11296 28499,11295 28521,11284 28526,11280 28537,11272 28553,11266 28558,11261 28575,11256 28580,11252 28602,11241 28618,11231 28628,11226 28639,11219 28655,11211 28661,11208 28677,11199 28698,11186 28704,11186 28720,11175 28731,11172 28742,11164 28758,11157 28763,11154 28779,11145 28806,11131 28833,11120 28849,11110 28855,11110 28871,11097 28882,11091 28892,11079 28909,11070 28914,11065 28930,11055 28935,11053 28946,11044 28957,11037 28962,11034 28979,11026 28984,11024 29000,11015 29011,11007 29022,11000 29038,10989 29059,10980 29076,10970 29086,10962 29092,10956 29113,10946 29129,10934 29135,10934 29146,10928 29162,10915 29178,10905 29189,10901 29199,10893 29216,10882 29237,10875 29243,10870 29259,10862 29264,10859 29269,10851 29291,10839 29307,10832 29318,10825 29329,10818 29339,10814 29350,10804 29356,10798 29366,10794 29372,10788 29393,10774 29410,10764 29415,10762 29431,10751 29442,10746 29453,10743 29469,10733 29485,10723 29496,10720 29517,10712 29539,10699 29544,10698 29566,10690 29571,10682 29582,10677 29598,10672 29603,10666 29620,10660 29630,10651 29647,10646 29663,10637 29673,10633 29690,10622 29695,10619 29706,10614 29722,10605 29727,10602 29749,10594 29754,10586 29765,10582 29770,10584 29776,10579 29792,10569 29797,10567 29819,10556 29824,10555 29835,10549 29851,10540 29857,10537 29878,10528 29889,10521 29900,10516 29927,10504 29948,10493 29954,10491 29964,10484 29981,10476 29986,10473 30002,10467 30013,10458 30029,10453 30034,10452 30051,10440 30056,10440 30077,10429 30094,10420 30104,10416 30121,10409 30131,10401 30148,10396 30158,10389 30164,10385 30180,10376 30207,10365 30228,10354 30234,10353 30250,10340 30261,10339 30277,10332 30282,10329 30293,10322 30309,10316 30320,10309 30336,10301 30347,10298 30358,10292 30363,10288 30385,10279 30411,10266 30428,10255 30438,10253 30449,10244 30460,10240 30471,10232 30487,10225 30492,10224 30508,10213 30514,10211 30535,10200 30541,10199 30552,10190 30562,10183 30573,10181 30589,10175 30595,10168 30616,10156 30632,10148 30638,10148 30659,10134 30665,10136 30681,10125 30692,10120 30702,10114 30719,10109 30724,10104 30740,10095 30745,10094 30767,10083 30794,10073 30815,10060 30821,10056 30842,10048 30859,10039 30869,10031 30875,10029 30896,10018 30918,10008 30939,9996 30945,9996 30961,9984 30972,9979 30982,9974 30999,9964 31020,9956 31026,9952 31047,9937 31069,9929 31074,9925 31090,9919 31101,9914 31112,9909 31123,9903 31128,9898 31149,9892 31160,9886 31176,9876 31198,9865 31219,9855 31225,9850 31241,9844 31252,9835 31263,9832 31279,9824 31284,9819 31300,9813 31327,9799 31343,9790 31354,9789 31365,9780 31381,9770 31386,9767 31403,9756 31424,9748 31430,9745 31451,9734 31457,9729 31462,9725 31478,9721 31489,9712 31505,9706 31510,9700 31527,9693 31532,9689 31543,9681 31559,9676 31570,9667 31580,9664 31591,9658 31607,9651 31613,9647 31623,9639 31629,9640 31634,9635 31656,9626 31661,9624 31672,9616 31683,9613 31704,9601 31710,9597 31720,9591 31731,9583 31737,9584 31753,9574 31758,9573 31785,9559 31801,9550 31812,9548 31817,9540 31839,9532 31844,9530 31861,9518 31882,9508 31887,9505 31909,9498 31914,9491 31920,9487 31941,9478 31947,9472 31963,9464 31990,9450 32011,9440 32017,9437 32033,9429 32044,9425 32054,9418 32065,9415 32076,9407 32092,9401 32098,9398 32114,9390 32119,9386 32141,9375 32162,9363 32168,9361 32178,9357 32194,9346 32200,9347 32205,9340 32221,9334 32243,9321 32259,9313 32270,9307 32286,9299 32297,9298 32302,9290 32324,9282 32345,9271 32351,9270 32367,9259 32372,9257 32394,9249 32399,9246 32415,9237 32421,9236 32432,9226 32448,9220 32458,9215 32475,9207 32480,9205 32502,9192 32518,9183 32523,9183 32550,9171 32566,9162 32577,9163 32582,9159 32593,9150 32604,9145 32615,9141 32625,9134 32647,9125 32652,9124 32663,9119 32679,9109 32685,9108 32701,9099 32712,9091 32728,9084 32755,9076 32760,9071 32776,9063 32782,9061 32798,9051 32803,9048 32814,9041 32830,9035 32841,9029 32852,9021 32857,9019 32879,9009 32884,9006 32900,8999 32906,8995 32922,8988 32932,8983 32938,8978 32943,8979 32949,8976 32959,8966 32981,8956 33003,8944 33008,8944 33029,8932 33035,8930 33051,8924 33062,8921 33078,8912 33083,8909 33099,8900 33105,8902 33110,8898 33121,8891 33126,8891 33132,8888 33137,8885 33153,8874 33164,8870 33170,8867 33186,8858 33207,8848 33213,8846 33234,8832 33240,8831 33250,8825 33261,8822 33272,8813 33288,8808 33293,8804 33315,8792 33336,8781 33342,8780 33358,8769 33363,8768 33380,8761 33390,8756 33407,8749 33417,8744 33423,8739 33444,8732 33455,8726 33466,8723 33477,8716 33493,8712 33498,8704 33520,8693 33541,8685 33563,8673 33568,8672 33584,8659 33595,8652 33622,8641 33644,8633 33649,8627 33660,8620 33670,8613 33687,8609 33697,8603 33708,8596 33724,8585 33746,8574 33767,8564 33773,8559 33784,8552 33800,8547 33811,8543 33827,8534 33832,8532 33848,8523 33854,8520 33875,8512 33897,8496 33902,8496 33918,8487 33924,8488 33940,8475 33951,8470 33956,8467 33978,8458 33983,8456 34004,8443 34015,8435 34026,8433 34048,8420 34053,8419 34069,8409 34080,8401 34107,8391 34123,8381 34128,8379 34145,8369 34155,8362 34166,8358 34182,8350 34188,8344 34204,8340 34209,8335 34220,8326 34231,8323 34252,8312 34258,8311 34263,8305 34285,8296 34290,8294 34306,8284 34328,8272 34333,8269 34338,8262 34344,8265 34349,8260 34360,8254 34371,8245 34382,8240 34387,8241 34392,8237 34403,8229 34408,8226 34419,8219 34435,8212 34452,8207 34462,8199 34468,8196 34484,8187 34495,8180 34505,8175 34511,8171 34532,8163 34538,8160 34554,8149 34565,8142 34586,8134 34597,8126 34608,8121 34613,8121 34635,8110 34640,8109 34651,8100 34667,8094 34678,8085 34689,8075 34716,8068 34721,8063 34737,8055 34742,8053 34759,8043 34764,8042 34775,8034 34791,8029 34802,8023 34818,8013 34823,8011 34845,7997 34861,7991 34866,7990 34888,7976 34893,7976 34904,7967 34920,7958 34942,7948 34947,7948 34969,7939 34974,7933 34996,7922 35017,7909 35023,7902 35044,7893 35049,7896 35055,7891 35071,7884 35076,7882 35098,7869 35109,7860 35125,7853 35130,7848 35146,7843 35152,7838 35173,7828 35200,7819 35206,7814 35216,7806 35233,7797 35238,7796 35243,7797 35249,7795 35270,7783 35276,7778 35281,7773 35287,7775 35292,7773 35303,7765 35308,7763 35324,7758 35330,7753 35351,7744 35357,7739 35373,7731 35378,7730 35394,7720 35405,7716 35416,7708 35427,7707 35437,7698 35454,7691 35464,7686 35480,7678 35486,7673 35507,7663 35529,7653 35545,7643 35556,7639 35577,7633 35583,7626 35599,7617 35610,7615 35626,7605 35631,7605 35642,7601 35658,7593 35664,7590 35685,7582 35691,7579 35707,7570 35712,7567 35734,7561 35739,7554 35755,7546 35761,7540 35777,7532 35787,7533 35798,7524 35809,7518 35820,7513 35836,7504 35863,7496 35874,7489 35890,7480 35911,7472 35917,7464 35928,7458 35938,7454 35949,7449 35965,7441 35971,7436 35987,7427 36014,7416 36025,7406 36030,7407 36035,7402 36041,7402 36057,7391 36068,7387 36078,7380 36089,7375 36095,7368 36111,7361 36116,7361 36132,7350 36143,7343 36148,7340 36170,7333 36175,7327 36186,7318 36191,7319 36213,7307 36218,7309 36224,7300 36235,7296 36245,7289 36251,7287 36267,7278 36272,7275 36294,7259 36315,7252 36321,7249 36337,7240 36348,7239 36358,7230 36369,7222 36396,7213 36402,7209 36423,7194 36439,7187 36450,7180 36461,7178 36466,7179 36472,7174 36482,7166 36488,7169 36493,7161 36499,7161 36504,7156 36525,7149 36531,7145 36547,7133 36574,7124 36579,7122 36601,7111 36622,7100 36628,7099 36639,7091 36649,7090 36666,7077 36676,7074 36692,7067 36703,7062 36714,7058 36730,7049 36736,7046 36752,7043 36757,7036 36779,7027 36784,7023 36806,7010 36827,7001 36843,6994 36849,6994 36854,6991 36870,6983 36881,6971 36886,6974 36892,6967 36908,6961 36924,6951 36929,6948 36951,6939 36956,6936 36967,6928 36983,6917 37010,6904 37032,6897 37037,6892 37048,6883 37059,6880 37070,6874 37086,6868 37091,6856 37107,6853 37113,6852 37134,6838 37145,6830 37161,6827 37167,6818 37188,6809 37210,6792 37226,6786 37237,6782 37253,6774 37263,6760 37269,6769 37274,6758 37290,6752 37307,6744 37312,6741 37317,6733 37323,6738 37328,6733 37339,6727 37350,6723 37366,6714 37371,6710 37393,6706 37404,6695 37409,6690 37414,6687 37436,6677 37441,6676 37463,6664 37468,6663 37479,6656 37490,6653 37500,6647 37506,6650 37511,6641 37517,6640 37533,6630 37544,6628 37554,6619 37571,6614 37592,6602 37619,6591 37641,6578 37646,6577 37662,6566 37673,6561 37678,6556 37694,6553 37700,6547 37711,6539 37716,6540 37721,6537 37738,6526 37748,6523 37764,6516 37770,6513 37786,6504 37797,6500 37808,6491 37824,6487 37829,6478 37834,6473 37840,6475 37845,6470 37851,6469 37856,6461 37861,6470 37872,6458 37899,6443 37904,6440 37921,6430 37926,6430 37937,6419 37942,6421 37948,6419 37953,6417 37975,6407 38001,6391 38012,6386 38018,6388 38023,6381 38028,6375 38034,6380 38039,6372 38050,6372 38055,6362 38066,6353 38077,6352 38088,6342 38093,6345 38104,6338 38109,6331 38120,6334 38125,6326 38131,6319 38152,6312 38163,6307 38179,6292 38201,6289 38206,6286 38222,6275 38233,6269 38238,6267 38249,6269 38255,6261 38265,6249 38282,6251 38287,6244 38303,6234 38309,6235 38314,6232 38330,6224 38352,6212 38357,6210 38373,6200 38384,6193 38395,6190 38411,6183 38416,6179 38427,6169 38432,6172 38438,6166 38449,6156 38459,6156 38470,6146 38475,6149 38486,6147 38497,6135 38513,6128 38519,6126 38524,6128 38529,6121 38535,6118 38546,6113 38562,6104 38567,6109 38572,6099 38583,6093 38589,6088 38610,6084 38616,6083 38626,6071 38637,6067 38642,6061 38648,6064 38653,6059 38664,6052 38675,6046 38691,6041 38696,6036 38713,6029 38734,6018 38739,6018 38766,6006 38788,5992 38793,5994 38815,5983 38842,5972 38853,5964 38869,5955 38880,5953 38890,5949 38896,5942 38917,5937 38923,5931 38944,5923 38960,5917 38971,5902 38987,5899 38993,5895 38998,5888 39020,5884 39046,5874 39057,5866 39073,5861 39084,5852 39095,5852 39100,5845 39122,5834 39143,5819 39149,5815 39160,5812 39176,5808 39187,5797 39197,5792 39208,5790 39224,5777 39246,5766 39251,5769 39257,5760 39267,5758 39273,5752 39284,5745 39300,5740 39316,5730 39321,5722 39327,5722 39354,5707 39370,5704 39375,5704 39386,5691 39391,5694 39397,5687 39402,5683 39413,5679 39424,5670 39429,5674 39434,5668 39451,5659 39456,5657 39472,5649 39477,5645 39488,5635 39504,5630 39510,5626 39515,5630 39521,5620 39526,5616 39531,5611 39553,5605 39564,5595 39580,5582 39585,5594 39596,5578 39607,5580 39612,5572 39634,5567 39639,5559 39644,5551 39655,5553 39661,5547 39666,5541 39682,5531 39704,5525 39709,5522 39714,5516 39720,5520 39725,5516 39736,5508 39752,5496 39758,5493 39779,5485 39784,5481 39806,5475 39811,5469 39822,5461 39833,5461 39844,5453 39860,5447 39865,5443 39887,5427 39903,5421 39914,5417 39925,5411 39935,5407 39951,5396 39962,5393 39973,5387 39989,5383 39995,5375 40000,5379 40005,5365 40011,5371 40016,5371 40022,5367 40038,5354 40043,5359 40048,5353 40065,5345 40070,5347 40075,5345 40081,5332 40086,5339 40092,5332 40108,5324 40113,5320 40124,5312 40129,5318 40135,5306 40140,5310 40156,5300 40167,5297 40178,5291 40183,5279 40188,5281 40194,5279 40210,5265 40215,5267 40242,5263 40248,5250 40259,5246 40269,5244 40280,5238 40296,5232 40307,5226 40318,5219 40329,5208 40334,5219 40339,5211 40345,5206 40350,5202 40372,5190 40382,5183 40393,5177 40409,5171 40420,5173 40426,5165 40431,5160 40447,5155 40452,5144 40458,5140 40463,5146 40469,5135 40474,5144 40479,5137 40496,5129 40512,5116 40522,5120 40528,5116 40544,5101 40549,5103 40560,5094 40576,5092 40582,5086 40587,5088 40593,5086 40598,5077 40603,5070 40619,5063 40625,5068 40630,5061 40652,5052 40673,5041 40679,5043 40684,5034 40695,5032 40700,5032 40711,5016 40727,5015 40749,4999 40754,4997 40770,4988 40776,4986 40792,4975 40797,4981 40803,4968 40813,4966 40830,4956 40856,4937 40862,4949 40867,4937 40878,4934 40883,4942 40889,4933 40905,4920 40921,4911 40932,4911 40948,4898 40959,4897 40970,4889 40980,4889 40986,4877 41007,4866 41013,4870 41018,4861 41034,4861 41045,4852 41056,4848 41061,4846 41067,4835 41072,4841 41077,4833 41083,4828 41093,4826 41110,4819 41126,4809 41137,4801 41158,4796 41164,4787 41180,4782 41185,4780 41201,4770 41212,4775 41217,4766 41228,4759 41234,4762 41239,4752 41244,4745 41255,4738 41260,4745 41266,4738 41287,4728 41293,4727 41304,4716 41309,4724 41314,4720 41320,4711 41336,4709 41341,4706 41357,4694 41363,4689 41368,4685 41374,4692 41379,4685 41390,4685 41401,4673 41406,4661 41411,4669 41417,4666 41427,4657 41438,4649 41465,4640 41471,4642 41476,4635 41481,4630 41492,4626 41514,4616 41519,4621 41524,4616 41530,4609 41541,4601 41546,4597 41551,4601 41557,4595 41568,4590 41584,4583 41594,4571 41605,4581 41611,4571 41616,4574 41632,4559 41638,4551 41643,4561 41654,4554 41670,4544 41686,4532 41697,4541 41708,4525 41718,4522 41729,4515 41745,4512 41751,4505 41772,4492 41794,4486 41799,4483 41815,4476 41821,4474 41831,4461 41837,4474 41842,4464 41848,4459 41853,4452 41869,4442 41875,4447 41880,4442 41891,4432 41896,4440 41901,4429 41912,4422 41923,4412 41928,4414 41945,4409 41950,4404 41955,4399 41977,4394 41988,4389 41998,4382 42015,4379 42025,4371 42036,4366 42052,4361 42063,4354 42079,4345 42095,4352 42101,4339 42106,4337 42128,4326 42139,4316 42144,4319 42155,4319 42160,4313 42171,4306 42176,4304 42192,4288 42203,4291 42219,4283 42230,4283 42246,4267 42257,4267 42268,4252 42279,4256 42289,4244 42306,4241 42311,4239 42332,4223 42343,4216 42349,4223 42354,4216 42359,4216 42370,4208 42386,4209 42392,4202 42402,4193 42408,4211 42413,4190 42424,4185 42435,4176 42446,4174 42456,4171 42467,4163 42478,4152 42483,4148 42510,4145 42516,4137 42537,4129 42559,4118 42564,4123 42569,4104 42575,4118 42586,4112 42596,4104 42602,4097 42613,4097 42639,4084 42656,4073 42661,4073 42683,4054 42688,4057 42699,4052 42704,4043 42710,4046 42715,4057 42720,4043 42731,4029 42736,4038 42742,4024 42763,4015 42769,4027 42774,4018 42780,4011 42790,4005 42801,3991 42812,4002 42817,3997 42828,3983 42839,3988 42844,3977 42850,3969 42855,3971 42866,3960 42893,3966 42898,3955 42920,3945 42941,3939 42952,3937 42963,3925 42968,3922 42995,3922 43000,3905 43017,3896 43022,3911 43033,3900 43043,3892 43049,3903 43054,3883 43070,3883 43076,3880 43087,3869 43092,3877 43097,3869 43108,3860 43119,3860 43135,3848 43140,3851 43146,3848 43157,3838 43162,3843 43167,3835 43173,3843 43178,3832 43184,3826 43189,3835 43194,3820 43200,3820 43216,3814 43221,3814 43232,3801 43237,3809 43243,3806 43248,3798 43259,3795 43275,3790 43291,3772 43297,3775 43302,3784 43313,3772 43318,3778 43324,3760 43329,3769 43340,3757 43351,3748 43372,3737 43377,3746 43383,3740 43399,3728 43404,3734 43410,3726 43426,3717 43453,3705 43458,3692 43464,3702 43474,3690 43480,3687 43485,3690 43496,3684 43501,3684 43512,3672 43523,3678 43528,3672 43544,3661 43550,3672 43555,3655 43566,3637 43571,3652 43577,3640 43582,3640 43593,3631 43598,3640 43604,3629 43609,3620 43614,3626 43620,3620 43631,3616 43647,3610 43658,3604 43674,3592 43679,3589 43701,3595 43706,3576 43711,3579 43717,3577 43728,3565 43733,3559 43760,3546 43776,3549 43781,3543 43798,3534 43803,3524 43808,3524 43814,3531 43819,3537 43825,3518 43835,3519 43846,3510 43852,3516 43857,3513 43862,3510 43873,3501 43878,3510 43884,3495 43900,3492 43911,3489 43922,3473 43927,3486 43932,3473 43938,3467 43943,3476 43948,3468 43959,3458 43986,3449 43992,3452 43997,3449 44002,3436 44008,3439 44013,3439 44019,3433 44029,3426 44040,3426 44045,3413 44051,3429 44056,3410 44062,3410 44072,3405 44078,3407 44083,3401 44089,3407 44099,3398 44115,3385 44126,3379 44132,3385 44137,3382 44142,3375 44159,3362 44164,3372 44169,3359 44175,3362 44180,3354 44191,3347 44196,3356 44202,3339 44207,3351 44212,3356 44218,3342 44234,3329 44239,3329 44256,3315 44261,3325 44266,3315 44277,3302 44282,3309 44293,3309 44304,3299 44309,3292 44315,3306 44320,3286 44326,3292 44336,3280 44342,3280 44358,3267 44369,3277 44374,3270 44385,3264 44390,3254 44396,3264 44401,3274 44406,3250 44417,3257 44423,3250 44433,3240 44439,3230 44444,3233 44455,3223 44460,3233 44466,3221 44471,3221 44476,3204 44482,3221 44493,3208 44498,3214 44509,3201 44514,3197 44525,3197 44536,3181 44541,3178 44546,3181 44568,3178 44573,3171 44579,3164 44584,3155 44590,3164 44600,3152 44606,3166 44611,3152 44622,3148 44627,3142 44633,3148 44643,3128 44649,3138 44654,3135 44670,3121 44676,3114 44697,3111 44703,3114 44708,3097 44713,3114 44719,3104 44724,3104 44730,3097 44740,3087 44751,3091 44767,3070 44778,3066 44800,3070 44805,3049 44816,3045 44821,3056 44827,3059 44832,3042 44837,3052 44843,3045 44848,3031 44853,3031 44875,3025 44880,3031 44886,3025 44897,3012 44902,3016 44913,3005 44929,3002 44950,2991 44956,2991 44961,2980 44967,2987 44977,2980 44983,2980 44988,2970 44994,2977 44999,2970 45004,2962 45020,2960 45031,2956 45042,2949 45058,2942 45064,2938 45069,2953 45074,2938 45085,2928 45090,2931 45096,2917 45101,2920 45107,2913 45112,2928 45123,2909"/>
 <path fill="none" stroke="rgb(49,64,4)" stroke-width="80" stroke-linejoin="round" d="M 3705,4544 L 3710,4545 3716,4543 3721,4546 3726,4544 3732,4545 3742,4546 3769,4545 3786,4543 3791,4545 3796,4546 3818,4544 3845,4545 3872,4545 3893,4545 3909,4544 3915,4547 3920,4544 3926,4544 3947,4546 3974,4546 3996,4545 4023,4546 4050,4545 4076,4546 4098,4547 4114,4544 4120,4545 4125,4545 4152,4545 4173,4545 4200,4547 4227,4545 4254,4544 4260,4545 4270,4563 4276,4554 4303,4546 4330,4546 4357,4547 4378,4545 4394,4544 4400,4544 4405,4550 4416,4597 4421,4584 4427,4552 4432,4553 4454,4556 4464,4553 4480,4552 4502,4555 4507,4556 4513,4554 4534,4554 4550,4556 4556,4555 4583,4552 4610,4555 4637,4552 4658,4552 4685,4553 4712,4551 4739,4547 4761,4549 4788,4551 4814,4548 4836,4546 4863,4545 4879,4544 4884,4546 4890,4545 4911,4544 4917,4545 4938,4547 4944,4544 4949,4547 4965,4546 4992,4545 5019,4546 5041,4545 5068,4545 5095,4545 5116,4546 5143,4545 5165,4544 5170,4545 5197,4546 5218,4546 5245,4546 5272,4546 5299,4545 5321,4545 5348,4546 5375,4546 5396,4546 5423,4545 5450,4545 5477,4547 5499,4545 5504,4544 5509,4546 5525,4545 5552,4547 5579,4544 5601,4546 5628,4545 5644,4543 5649,4546 5655,4546 5676,4543 5682,4546 5703,4546 5730,4542 5757,4541 5779,4541 5806,4542 5833,4543 5859,4542 5881,4541 5908,4543 5930,4545 5940,4544 5956,4543 5983,4542 6010,4541 6037,4542 6059,4543 6086,4543 6113,4543 6140,4542 6161,4542 6188,4542 6210,4544 6215,4542 6220,4544 6226,4543 6237,4543 6263,4542 6290,4543 6317,4543 6339,4542 6366,4543 6393,4541 6420,4542 6441,4542 6468,4541 6495,4542 6522,4542 6544,4543 6549,4545 6554,4543 6571,4543 6597,4541 6619,4544 6646,4543 6673,4541 6700,4541 6721,4541 6748,4542 6775,4541 6802,4540 6824,4541 6851,4542 6878,4542 6899,4541 6926,4542 6942,4545 6948,4542 6953,4542 6980,4542 7001,4541 7028,4542 7055,4541 7082,4541 7104,4542 7109,4544 7115,4542 7131,4543 7158,4542 7179,4542 7206,4541 7233,4543 7260,4542 7282,4543 7309,4543 7319,4544 7325,4542 7335,4542 7362,4542 7384,4545 7389,4541 7411,4544 7438,4542 7459,4543 7486,4540 7513,4541 7540,4543 7562,4541 7589,4543 7616,4543 7626,4544 7632,4542 7643,4544 7648,4543 7664,4542 7691,4543 7718,4542 7739,4542 7766,4543 7793,4543 7820,4543 7842,4543 7869,4543 7896,4542 7923,4543 7944,4543 7971,4542 7998,4541 8020,4543 8047,4543 8073,4542 8084,4546 8090,4542 8100,4543 8122,4542 8149,4543 8176,4544 8203,4543 8224,4544 8251,4543 8278,4541 8305,4541 8327,4542 8354,4542 8380,4542 8402,4542 8429,4543 8456,4544 8483,4543 8504,4541 8531,4543 8558,4543 8569,4546 8574,4542 8585,4544 8591,4542 8607,4541 8623,4544 8634,4542 8639,4544 8644,4544 8661,4542 8682,4542 8709,4543 8736,4543 8758,4544 8763,4543 8785,4542 8811,4543 8838,4543 8865,4542 8887,4543 8914,4543 8941,4544 8951,4544 8957,4542 8962,4542 8989,4543 9016,4542 9043,4541 9065,4542 9092,4542 9118,4541 9145,4543 9167,4541 9194,4543 9221,4543 9242,4541 9248,4544 9253,4543 9269,4542 9296,4542 9323,4543 9345,4541 9372,4543 9399,4543 9404,4545 9409,4543 9426,4543 9442,4545 9447,4544 9452,4544 9474,4544 9479,4545 9485,4543 9501,4544 9522,4544 9549,4545 9560,4543 9566,4546 9571,4543 9576,4542 9582,4545 9587,4543 9603,4544 9609,4545 9614,4542 9625,4544 9630,4545 9636,4544 9641,4545 9646,4543 9652,4543 9679,4543 9706,4543 9722,4544 9727,4543 9754,4544 9781,4544 9792,4545 9797,4543 9803,4541 9830,4545 9846,4542 9851,4545 9856,4544 9862,4545 9873,4543 9883,4544 9905,4544 9910,4543 9916,4544 9921,4543 9932,4543 9959,4544 9986,4542 10007,4542 10034,4543 10061,4542 10088,4542 10099,4544 10104,4543 10110,4542 10137,4542 10164,4542 10185,4542 10212,4542 10239,4543 10266,4543 10287,4541 10314,4542 10341,4543 10368,4544 10374,4542 10390,4542 10395,4544 10401,4543 10417,4543 10444,4541 10465,4542 10492,4542 10519,4543 10546,4543 10568,4540 10594,4542 10621,4542 10648,4542 10670,4543 10697,4544 10724,4542 10745,4542 10772,4543 10799,4543 10826,4543 10848,4542 10875,4543 10902,4543 10928,4542 10950,4543 10977,4542 11004,4543 11025,4540 11052,4542 11079,4541 11106,4542 11128,4543 11155,4542 11182,4543 11209,4543 11225,4545 11230,4541 11257,4544 11262,4544 11268,4542 11284,4541 11306,4543 11332,4543 11359,4542 11386,4541 11408,4542 11435,4542 11462,4544 11489,4543 11510,4542 11537,4542 11564,4543 11586,4542 11613,4541 11640,4542 11666,4542 11688,4541 11715,4543 11742,4542 11769,4542 11790,4543 11806,4546 11812,4542 11817,4542 11828,4545 11833,4543 11844,4542 11871,4544 11893,4544 11920,4544 11947,4543 11968,4542 11995,4543 12022,4542 12049,4543 12070,4544 12097,4542 12124,4542 12151,4542 12173,4543 12200,4543 12227,4544 12248,4542 12275,4542 12302,4542 12329,4542 12351,4541 12377,4542 12404,4543 12431,4541 12453,4543 12464,4545 12480,4545 12496,4543 12507,4543 12518,4544 12523,4544 12528,4544 12534,4543 12544,4545 12550,4543 12555,4543 12566,4544 12571,4544 12582,4543 12609,4544 12615,4545 12620,4542 12631,4543 12636,4544 12641,4542 12647,4544 12658,4542 12685,4543 12690,4544 12701,4542 12711,4543 12733,4543 12760,4544 12771,4549 12776,4557 12787,4572 12792,4586 12798,4595 12803,4608 12808,4616 12814,4630 12819,4636 12825,4649 12830,4655 12835,4664 12857,4676 12862,4679 12868,4686 12878,4701 12889,4714 12895,4721 12905,4734 12911,4740 12922,4758 12927,4763 12932,4773 12938,4778 12943,4786 12954,4797 12965,4811 12970,4816 12975,4827 12986,4846 12992,4851 12997,4860 13008,4871 13013,4873 13019,4882 13029,4895 13035,4904 13040,4913 13051,4927 13062,4946 13067,4950 13078,4963 13083,4969 13089,4971 13105,4987 13110,4989 13115,4998 13121,5001 13132,5013 13142,5022 13153,5033 13164,5048 13169,5056 13180,5072 13186,5078 13191,5085 13196,5095 13202,5104 13207,5109 13218,5123 13229,5132 13239,5143 13245,5149 13250,5156 13261,5169 13266,5177 13272,5181 13277,5188 13288,5199 13293,5205 13299,5214 13304,5218 13309,5228 13320,5244 13331,5253 13342,5265 13347,5271 13358,5287 13363,5293 13369,5295 13379,5305 13396,5321 13406,5331 13417,5339 13423,5341 13433,5350 13439,5357 13449,5363 13455,5369 13466,5380 13471,5385 13476,5390 13487,5405 13493,5414 13498,5417 13503,5430 13509,5436 13519,5446 13525,5451 13536,5461 13546,5471 13552,5477 13563,5489 13573,5502 13579,5512 13590,5529 13595,5536 13600,5543 13611,5560 13616,5565 13622,5576 13627,5582 13633,5594 13638,5601 13643,5611 13654,5626 13660,5633 13665,5643 13676,5659 13681,5667 13686,5677 13692,5683 13708,5697 13713,5708 13724,5723 13730,5731 13735,5739 13746,5751 13751,5760 13762,5776 13767,5786 13773,5793 13778,5801 13783,5810 13789,5817 13794,5825 13805,5840 13810,5852 13816,5857 13827,5870 13832,5880 13843,5900 13853,5916 13859,5924 13864,5936 13875,5953 13880,5961 13886,5971 13891,5980 13897,5992 13902,5999 13907,6010 13918,6027 13924,6034 13929,6044 13934,6054 13940,6065 13950,6085 13956,6091 13961,6103 13967,6112 13972,6123 13977,6127 13983,6140 13988,6149 13994,6163 14004,6179 14010,6186 14015,6197 14020,6203 14026,6214 14031,6221 14037,6233 14042,6239 14047,6248 14058,6268 14069,6283 14080,6302 14085,6308 14090,6314 14101,6329 14107,6336 14112,6345 14123,6357 14134,6369 14144,6385 14150,6393 14155,6401 14161,6406 14166,6416 14171,6420 14182,6430 14187,6440 14193,6447 14204,6459 14209,6464 14214,6469 14220,6477 14231,6490 14236,6495 14241,6501 14252,6513 14263,6522 14274,6534 14284,6546 14290,6552 14306,6565 14311,6569 14317,6577 14328,6586 14338,6592 14344,6598 14349,6604 14365,6619 14376,6626 14387,6638 14392,6646 14398,6650 14403,6660 14414,6671 14424,6681 14435,6692 14441,6697 14446,6705 14457,6717 14468,6728 14478,6737 14489,6747 14495,6752 14500,6758 14511,6772 14516,6777 14527,6788 14543,6804 14554,6818 14559,6821 14570,6830 14575,6835 14586,6844 14591,6849 14597,6854 14613,6868 14618,6875 14624,6879 14629,6888 14640,6897 14645,6901 14651,6910 14661,6920 14672,6933 14683,6944 14694,6956 14705,6965 14715,6978 14721,6980 14726,6989 14732,6995 14742,7005 14748,7014 14753,7018 14764,7028 14775,7040 14785,7054 14791,7059 14796,7064 14807,7072 14818,7085 14823,7091 14828,7095 14834,7104 14845,7113 14850,7120 14855,7128 14866,7138 14872,7142 14877,7150 14888,7161 14893,7168 14899,7174 14904,7180 14920,7195 14925,7200 14931,7206 14942,7217 14952,7226 14963,7239 14974,7252 14985,7259 14995,7269 15001,7276 15006,7282 15017,7295 15028,7306 15033,7309 15049,7326 15055,7332 15066,7345 15076,7355 15087,7366 15098,7377 15103,7386 15114,7397 15125,7412 15130,7417 15136,7421 15146,7434 15152,7438 15157,7442 15168,7456 15173,7463 15179,7467 15189,7480 15195,7483 15206,7493 15216,7506 15227,7517 15232,7524 15238,7526 15249,7539 15254,7546 15259,7550 15270,7562 15276,7569 15281,7573 15292,7583 15297,7594 15308,7602 15319,7617 15329,7628 15335,7635 15346,7646 15356,7655 15362,7665 15367,7670 15378,7681 15383,7686 15389,7692 15399,7699 15405,7711 15410,7717 15416,7721 15426,7733 15437,7744 15448,7756 15459,7768 15470,7778 15480,7791 15486,7793 15491,7801 15502,7813 15513,7824 15523,7833 15534,7844 15545,7855 15556,7867 15561,7869 15566,7875 15577,7890 15583,7894 15588,7901 15593,7906 15604,7919 15615,7929 15626,7940 15637,7952 15642,7960 15653,7971 15663,7981 15674,7996 15685,8009 15690,8014 15701,8027 15712,8037 15717,8044 15723,8047 15733,8060 15739,8068 15750,8079 15760,8091 15766,8095 15771,8101 15782,8114 15793,8125 15803,8139 15809,8145 15814,8148 15820,8155 15825,8166 15836,8179 15841,8183 15847,8190 15857,8198 15868,8208 15874,8216 15879,8222 15890,8235 15895,8240 15900,8246 15911,8258 15917,8264 15927,8276 15933,8285 15944,8297 15954,8307 15965,8318 15970,8324 15976,8331 15987,8342 15997,8352 16008,8363 16019,8373 16030,8383 16041,8394 16046,8396 16051,8406 16062,8416 16073,8429 16084,8438 16094,8449 16105,8460 16116,8470 16121,8474 16127,8480 16143,8492 16148,8498 16154,8503 16164,8514 16175,8524 16186,8534 16197,8542 16202,8552 16208,8557 16218,8569 16224,8576 16229,8579 16240,8593 16245,8599 16251,8600 16261,8610 16272,8622 16278,8627 16283,8632 16299,8648 16310,8656 16321,8665 16326,8672 16331,8681 16337,8686 16348,8697 16353,8702 16364,8714 16369,8719 16374,8725 16385,8739 16391,8744 16396,8752 16401,8757 16407,8763 16418,8774 16428,8790 16434,8795 16445,8808 16455,8818 16466,8829 16477,8838 16488,8850 16498,8860 16504,8869 16509,8872 16520,8883 16531,8893 16547,8914 16558,8922 16563,8926 16574,8936 16579,8943 16585,8947 16595,8957 16606,8970 16617,8982 16628,8990 16633,8999 16638,9002 16649,9011 16655,9020 16660,9024 16671,9033 16682,9045 16692,9054 16703,9068 16708,9074 16714,9078 16725,9088 16735,9099 16746,9110 16757,9119 16762,9126 16773,9137 16784,9147 16795,9159 16805,9166 16811,9174 16827,9194 16832,9197 16838,9203 16849,9213 16854,9218 16859,9225 16870,9236 16881,9244 16886,9248 16892,9251 16902,9263 16913,9273 16924,9285 16935,9296 16945,9307 16956,9316 16962,9321 16967,9327 16978,9338 16989,9352 16999,9358 17010,9372 17016,9374 17026,9385 17032,9393 17037,9398 17042,9403 17053,9413 17064,9422 17069,9426 17080,9435 17091,9445 17102,9457 17112,9466 17118,9475 17123,9481 17134,9491 17139,9496 17145,9502 17156,9512 17161,9521 17166,9525 17172,9533 17183,9544 17193,9552 17199,9557 17209,9565 17215,9572 17220,9576 17231,9587 17242,9598 17253,9612 17258,9618 17269,9626 17274,9630 17285,9642 17301,9651 17312,9662 17317,9671 17328,9679 17333,9685 17344,9695 17360,9714 17366,9716 17371,9722 17376,9726 17387,9738 17398,9746 17403,9754 17414,9764 17420,9768 17425,9774 17436,9785 17446,9796 17457,9803 17468,9816 17473,9820 17479,9824 17490,9837 17500,9846 17511,9858 17522,9869 17533,9879 17549,9891 17560,9901 17570,9912 17576,9918 17581,9923 17597,9939 17608,9948 17619,9960 17624,9961 17630,9969 17640,9979 17651,9985 17657,9992 17662,9998 17678,10010 17689,10021 17700,10034 17705,10041 17716,10051 17727,10060 17732,10062 17743,10075 17754,10085 17770,10100 17780,10110 17791,10119 17802,10132 17813,10143 17824,10154 17829,10159 17834,10163 17845,10176 17856,10186 17867,10195 17877,10206 17888,10216 17904,10229 17915,10238 17926,10247 17931,10253 17942,10263 17953,10271 17958,10275 17964,10282 17974,10290 17980,10294 17991,10304 18007,10315 18023,10325 18028,10334 18034,10339 18044,10346 18061,10360 18077,10368 18082,10372 18093,10382 18104,10389 18109,10391 18120,10402 18136,10413 18147,10423 18158,10430 18163,10434 18174,10444 18184,10453 18206,10467 18211,10474 18217,10477 18228,10485 18238,10491 18244,10498 18254,10507 18260,10511 18265,10518 18276,10529 18287,10542 18298,10551 18308,10563 18314,10567 18325,10576 18335,10587 18341,10591 18346,10594 18362,10607 18378,10617 18389,10626 18411,10642 18416,10648 18421,10649 18432,10659 18438,10663 18448,10673 18465,10684 18475,10694 18492,10706 18502,10715 18513,10725 18518,10729 18524,10735 18535,10746 18540,10746 18556,10760 18567,10769 18583,10783 18594,10793 18605,10803 18610,10810 18621,10822 18632,10832 18642,10841 18648,10847 18653,10855 18664,10868 18669,10870 18675,10876 18685,10887 18696,10896 18702,10900 18712,10911 18718,10918 18729,10930 18745,10941 18755,10950 18772,10967 18782,10979 18793,10989 18799,10994 18809,11006 18820,11018 18831,11028 18847,11039 18858,11048 18874,11059 18890,11074 18901,11081 18917,11095 18922,11102 18939,11113 18949,11120 18960,11126 18976,11142 18982,11145 18998,11160 19009,11171 19019,11179 19025,11181 19036,11190 19052,11204 19063,11213 19079,11225 19089,11234 19100,11241 19106,11246 19116,11256 19127,11263 19133,11267 19143,11275 19154,11282 19159,11287 19181,11301 19192,11310 19203,11316 19208,11320 19224,11332 19229,11337 19235,11340 19251,11354 19256,11358 19267,11367 19278,11376 19283,11379 19294,11385 19305,11393 19310,11398 19321,11406 19332,11417 19353,11436 19359,11439 19375,11457 19380,11462 19391,11471 19407,11483 19418,11494 19434,11507 19440,11518 19450,11528 19461,11535 19467,11539 19483,11552 19493,11559 19510,11569 19526,11581 19537,11590 19542,11592 19558,11604 19563,11609 19569,11613 19585,11625 19601,11636 19612,11641 19623,11648 19634,11655 19639,11658 19655,11669 19660,11672 19666,11677 19687,11695 19698,11704 19709,11712 19714,11717 19720,11724 19730,11733 19741,11743 19752,11754 19763,11765 19779,11777 19790,11785 19795,11788 19806,11800 19817,11811 19827,11821 19838,11832 19844,11833 19854,11841 19865,11847 19871,11850 19887,11862 19892,11866 19903,11874 19919,11885 19935,11897 19941,11903 19946,11908 19957,11918 19967,11926 19973,11929 19989,11939 19994,11942 20000,11948 20016,11959 20021,11965 20032,11972 20043,11980 20064,11995 20070,11998 20075,12004 20091,12013 20097,12018 20108,12024 20124,12038 20134,12046 20145,12055 20151,12058 20161,12067 20172,12075 20178,12078 20194,12089 20199,12092 20210,12102 20221,12110 20226,12115 20242,12122 20248,12128 20258,12135 20269,12144 20275,12146 20285,12155 20301,12166 20318,12178 20323,12180 20334,12189 20350,12202 20361,12208 20377,12221 20393,12232 20404,12239 20409,12244 20420,12252 20425,12255 20442,12267 20452,12273 20468,12287 20479,12292 20485,12297 20501,12305 20506,12310 20517,12317 20528,12325 20533,12329 20549,12339 20555,12341 20571,12354 20582,12362 20592,12372 20603,12380 20609,12384 20619,12393 20630,12399 20635,12406 20646,12414 20652,12414 20657,12421 20668,12429 20679,12437 20684,12441 20695,12446 20705,12456 20711,12461 20727,12470 20732,12475 20743,12483 20754,12491 20759,12493 20770,12502 20781,12508 20786,12515 20797,12523 20808,12531 20819,12538 20829,12545 20835,12545 20846,12557 20862,12567 20878,12578 20883,12585 20894,12592 20910,12599 20926,12611 20937,12616 20942,12621 20953,12631 20964,12642 20986,12654 21002,12665 21013,12670 21018,12676 21034,12688 21039,12693 21050,12699 21061,12707 21066,12709 21083,12722 21088,12724 21093,12730 21109,12740 21115,12743 21131,12753 21142,12760 21147,12765 21158,12773 21163,12776 21180,12787 21190,12794 21206,12806 21217,12813 21223,12816 21244,12830 21260,12838 21266,12841 21276,12850 21293,12859 21309,12871 21320,12876 21330,12883 21347,12892 21363,12903 21368,12907 21373,12912 21395,12926 21411,12936 21422,12941 21433,12949 21443,12954 21449,12959 21465,12968 21470,12971 21487,12981 21497,12989 21513,12999 21524,13004 21535,13014 21546,13020 21551,13021 21567,13032 21573,13035 21584,13044 21600,13054 21621,13067 21627,13070 21637,13077 21648,13084 21654,13088 21670,13098 21675,13101 21691,13108 21702,13116 21707,13122 21724,13127 21729,13134 21740,13141 21751,13147 21761,13154 21772,13162 21777,13162 21794,13174 21804,13182 21810,13184 21826,13195 21847,13210 21853,13211 21858,13217 21874,13228 21880,13233 21891,13241 21907,13248 21912,13251 21928,13260 21944,13270 21955,13276 21966,13282 21982,13293 22004,13306 22020,13316 22031,13324 22036,13325 22052,13335 22058,13339 22074,13347 22084,13356 22090,13359 22106,13368 22128,13379 22133,13382 22149,13390 22160,13400 22165,13399 22171,13403 22181,13412 22187,13413 22203,13424 22208,13426 22225,13433 22235,13443 22241,13444 22262,13454 22268,13458 22278,13465 22284,13466 22300,13477 22311,13485 22322,13490 22338,13495 22343,13501 22365,13514 22386,13523 22402,13530 22413,13537 22424,13545 22435,13553 22440,13558 22451,13569 22462,13577 22467,13580 22472,13585 22489,13594 22494,13597 22515,13608 22537,13620 22542,13624 22553,13630 22564,13635 22569,13639 22591,13652 22607,13662 22618,13666 22623,13671 22639,13683 22645,13687 22661,13694 22666,13698 22682,13705 22693,13709 22709,13719 22720,13725 22726,13727 22747,13737 22763,13748 22769,13749 22790,13760 22796,13763 22812,13770 22822,13775 22828,13780 22849,13790 22855,13792 22871,13802 22898,13812 22903,13817 22919,13824 22925,13827 22936,13834 22946,13839 22957,13846 22973,13852 22979,13857 23000,13868 23022,13879 23027,13880 23043,13891 23049,13893 23065,13901 23076,13906 23081,13910 23103,13920 23108,13922 23130,13933 23151,13946 23167,13955 23178,13960 23183,13966 23205,13979 23221,13986 23226,13990 23237,13997 23253,14004 23259,14009 23275,14020 23280,14023 23297,14031 23307,14035 23313,14041 23329,14050 23334,14052 23356,14065 23377,14075 23383,14079 23393,14084 23410,14095 23431,14107 23453,14118 23458,14120 23474,14130 23485,14136 23490,14140 23507,14151 23528,14161 23534,14166 23544,14173 23560,14181 23582,14194 23587,14195 23604,14206 23609,14206 23625,14215 23636,14220 23647,14226 23663,14236 23684,14247 23690,14250 23701,14257 23711,14263 23727,14270 23738,14276 23744,14282 23760,14290 23765,14292 23781,14301 23787,14304 23803,14311 23814,14319 23824,14324 23841,14333 23862,14344 23868,14348 23884,14355 23889,14358 23905,14368 23916,14373 23921,14376 23943,14388 23959,14398 23970,14403 23981,14409 23991,14415 24002,14421 24018,14427 24024,14434 24045,14442 24061,14452 24067,14456 24078,14463 24083,14462 24088,14468 24094,14470 24105,14475 24121,14484 24126,14486 24148,14495 24153,14501 24169,14509 24185,14517 24196,14524 24207,14528 24223,14537 24228,14543 24245,14551 24250,14554 24266,14561 24272,14567 24282,14571 24298,14578 24304,14583 24325,14594 24347,14604 24368,14615 24374,14616 24390,14627 24401,14631 24412,14638 24428,14645 24433,14649 24449,14656 24455,14661 24476,14671 24503,14683 24519,14691 24530,14696 24546,14708 24552,14706 24562,14718 24579,14722 24584,14725 24600,14735 24606,14738 24622,14747 24632,14751 24643,14758 24654,14763 24665,14768 24681,14774 24686,14779 24708,14790 24729,14801 24746,14810 24756,14812 24772,14823 24783,14827 24794,14834 24810,14842 24816,14843 24832,14853 24853,14864 24859,14867 24880,14877 24886,14880 24902,14890 24913,14892 24923,14900 24934,14906 24939,14909 24961,14920 24977,14930 24988,14935 24999,14941 25010,14947 25026,14953 25036,14960 25042,14963 25063,14976 25080,14986 25090,14991 25096,14995 25112,15002 25117,15008 25133,15016 25139,15019 25150,15027 25166,15035 25171,15038 25193,15051 25209,15059 25214,15062 25230,15070 25241,15076 25252,15083 25268,15090 25279,15095 25290,15101 25300,15107 25317,15112 25322,15118 25338,15125 25343,15127 25360,15136 25370,15142 25381,15146 25392,15152 25403,15157 25419,15165 25424,15168 25446,15178 25451,15181 25466,15191 25472,15192 25488,15200 25493,15202 25515,15214 25520,15214 25531,15223 25547,15231 25553,15235 25569,15241 25574,15244 25596,15257 25617,15265 25623,15272 25639,15278 25650,15284 25655,15288 25671,15296 25676,15298 25698,15313 25709,15319 25725,15328 25730,15332 25752,15346 25768,15356 25773,15358 25784,15365 25800,15374 25817,15384 25827,15389 25838,15397 25849,15402 25860,15406 25876,15415 25881,15419 25903,15431 25919,15439 25930,15446 25940,15450 25951,15458 25962,15463 25978,15467 25984,15471 26005,15482 26027,15494 26032,15497 26048,15505 26054,15507 26064,15515 26080,15523 26086,15526 26107,15534 26118,15541 26129,15546 26134,15548 26156,15560 26183,15573 26199,15581 26210,15586 26226,15594 26231,15597 26242,15601 26258,15609 26269,15616 26285,15623 26312,15637 26328,15645 26334,15649 26355,15658 26361,15661 26371,15666 26388,15674 26398,15679 26414,15685 26425,15690 26436,15697 26447,15700 26463,15707 26468,15711 26490,15720 26511,15730 26517,15734 26538,15744 26560,15753 26565,15754 26592,15768 26614,15779 26630,15785 26641,15790 26657,15799 26668,15804 26673,15807 26695,15815 26700,15819 26716,15824 26722,15829 26743,15837 26754,15845 26770,15849 26775,15854 26786,15862 26792,15862 26813,15872 26818,15874 26840,15884 26845,15887 26867,15895 26872,15900 26889,15907 26894,15908 26910,15916 26921,15922 26932,15926 26948,15933 26959,15938 26975,15945 26991,15953 26996,15954 27007,15960 27023,15968 27034,15973 27050,15978 27055,15981 27072,15987 27082,15992 27099,15999 27109,16004 27126,16009 27136,16014 27152,16021 27163,16026 27174,16031 27185,16035 27201,16040 27217,16048 27228,16053 27244,16059 27255,16063 27266,16067 27276,16070 27293,16078 27303,16082 27319,16089 27330,16093 27346,16102 27352,16106 27368,16111 27379,16116 27389,16121 27406,16128 27411,16135 27433,16141 27438,16145 27454,16150 27460,16154 27481,16164 27486,16166 27508,16174 27513,16177 27535,16183 27546,16188 27556,16191 27578,16200 27583,16202 27594,16208 27610,16214 27626,16223 27632,16223 27653,16232 27659,16234 27675,16241 27686,16243 27702,16252 27713,16256 27734,16262 27761,16272 27767,16273 27788,16282 27799,16284 27815,16290 27826,16295 27837,16298 27864,16308 27885,16318 27890,16318 27912,16326 27917,16330 27939,16339 27966,16348 27971,16350 27993,16358 28004,16363 28014,16367 28031,16372 28041,16377 28047,16382 28052,16380 28057,16384 28068,16385 28090,16393 28095,16395 28117,16403 28122,16403 28144,16413 28149,16417 28171,16422 28181,16427 28197,16432 28214,16438 28219,16439 28241,16449 28246,16451 28268,16460 28273,16461 28289,16470 28294,16471 28311,16480 28321,16483 28338,16490 28348,16493 28364,16502 28375,16504 28397,16513 28424,16522 28451,16533 28478,16541 28483,16544 28499,16549 28515,16555 28526,16559 28548,16568 28553,16570 28575,16577 28602,16587 28607,16590 28628,16598 28634,16601 28655,16609 28661,16611 28677,16617 28688,16620 28704,16627 28715,16631 28731,16636 28752,16647 28758,16647 28779,16655 28806,16665 28833,16672 28839,16676 28855,16680 28871,16688 28882,16693 28887,16696 28909,16707 28930,16718 28935,16719 28957,16730 28984,16739 28989,16743 29011,16751 29038,16763 29059,16769 29065,16773 29086,16781 29092,16785 29113,16792 29119,16795 29135,16800 29151,16809 29162,16813 29173,16818 29189,16822 29199,16828 29216,16835 29226,16839 29237,16840 29259,16849 29264,16851 29280,16859 29291,16864 29307,16869 29318,16874 29334,16881 29339,16881 29356,16892 29366,16894 29388,16905 29393,16908 29410,16914 29415,16915 29442,16926 29469,16935 29496,16943 29506,16947 29517,16948 29539,16956 29544,16957 29571,16968 29598,16974 29603,16978 29620,16982 29641,16989 29647,16991 29673,16999 29679,17002 29695,17008 29706,17011 29722,17017 29738,17021 29749,17024 29776,17034 29797,17041 29814,17045 29824,17049 29840,17054 29851,17058 29873,17065 29878,17066 29900,17073 29910,17075 29927,17081 29948,17088 29954,17089 29981,17099 30002,17104 30013,17110 30018,17108 30024,17112 30029,17113 30051,17121 30056,17121 30077,17128 30088,17131 30104,17136 30121,17140 30131,17145 30158,17153 30180,17160 30191,17163 30207,17168 30228,17174 30234,17175 30261,17183 30271,17186 30282,17189 30304,17196 30309,17197 30336,17206 30358,17212 30379,17218 30385,17220 30411,17228 30438,17236 30444,17239 30460,17243 30481,17249 30487,17252 30514,17260 30541,17268 30552,17273 30562,17277 30584,17282 30589,17282 30616,17293 30638,17298 30659,17306 30665,17305 30692,17315 30719,17321 30735,17327 30740,17329 30767,17336 30794,17342 30805,17348 30821,17352 30842,17356 30848,17360 30869,17366 30886,17371 30896,17374 30918,17380 30945,17387 30956,17391 30972,17397 30988,17402 30999,17405 31020,17409 31026,17412 31047,17420 31063,17423 31074,17427 31101,17433 31123,17440 31139,17446 31149,17446 31176,17455 31198,17461 31219,17467 31225,17470 31252,17478 31279,17484 31290,17488 31300,17490 31327,17498 31338,17502 31354,17504 31370,17511 31381,17514 31403,17522 31430,17528 31440,17531 31457,17537 31478,17541 31489,17546 31505,17549 31510,17553 31532,17559 31553,17565 31559,17566 31580,17572 31591,17575 31607,17579 31623,17586 31634,17588 31661,17594 31672,17598 31683,17600 31710,17608 31737,17615 31742,17619 31758,17621 31785,17628 31812,17635 31823,17640 31839,17643 31861,17650 31887,17657 31909,17661 31914,17665 31941,17671 31947,17675 31963,17679 31979,17683 31990,17686 32017,17693 32028,17695 32044,17699 32065,17704 32092,17712 32108,17717 32119,17719 32141,17725 32146,17726 32168,17732 32189,17738 32194,17740 32221,17746 32227,17749 32243,17753 32270,17760 32297,17765 32313,17770 32324,17773 32345,17778 32356,17782 32372,17785 32399,17791 32421,17796 32442,17803 32448,17804 32475,17810 32485,17814 32502,17818 32523,17822 32534,17825 32550,17828 32577,17832 32582,17834 32604,17841 32625,17847 32652,17852 32669,17856 32679,17859 32701,17864 32712,17868 32717,17866 32722,17868 32728,17871 32755,17875 32760,17878 32782,17882 32803,17889 32830,17895 32846,17900 32857,17903 32884,17909 32895,17911 32906,17915 32932,17920 32938,17923 32959,17929 32981,17933 33008,17939 33024,17943 33035,17946 33062,17950 33078,17954 33083,17955 33110,17961 33132,17965 33137,17967 33164,17974 33170,17976 33186,17980 33213,17985 33218,17986 33240,17992 33261,17996 33266,17998 33288,18003 33304,18009 33315,18011 33342,18016 33353,18018 33363,18021 33390,18027 33401,18030 33417,18032 33444,18038 33455,18041 33466,18042 33493,18047 33498,18051 33520,18056 33541,18060 33547,18062 33568,18065 33595,18074 33622,18080 33644,18083 33649,18086 33670,18092 33692,18095 33697,18096 33724,18105 33735,18106 33746,18109 33773,18116 33800,18122 33827,18127 33848,18132 33875,18137 33881,18139 33902,18144 33924,18147 33929,18150 33951,18155 33978,18161 34004,18167 34015,18171 34026,18172 34053,18178 34069,18182 34080,18185 34107,18190 34118,18192 34128,18195 34155,18202 34166,18204 34182,18207 34204,18212 34215,18215 34231,18219 34258,18224 34263,18226 34285,18230 34306,18235 34333,18242 34355,18247 34360,18248 34387,18253 34398,18257 34408,18260 34435,18265 34457,18269 34462,18271 34484,18276 34495,18279 34511,18283 34538,18287 34554,18291 34565,18294 34586,18298 34597,18301 34602,18300 34608,18303 34613,18303 34640,18308 34651,18312 34667,18314 34689,18322 34705,18322 34716,18325 34742,18331 34748,18333 34753,18332 34759,18335 34764,18335 34791,18340 34807,18344 34818,18347 34845,18353 34856,18355 34866,18356 34893,18361 34909,18366 34920,18369 34947,18373 34958,18376 34969,18376 34996,18383 35017,18388 35023,18391 35044,18394 35066,18398 35071,18398 35076,18399 35098,18404 35125,18410 35146,18414 35173,18420 35200,18423 35233,18432 35249,18433 35276,18439 35297,18443 35303,18444 35324,18447 35351,18452 35357,18454 35378,18457 35405,18463 35410,18463 35427,18466 35454,18472 35464,18474 35480,18477 35507,18483 35529,18486 35556,18491 35583,18496 35610,18501 35631,18504 35647,18506 35658,18509 35685,18513 35707,18517 35734,18521 35761,18528 35787,18531 35809,18536 35831,18540 35836,18542 35863,18544 35890,18550 35911,18553 35938,18559 35949,18561 35965,18564 35987,18569 36008,18572 36014,18573 36041,18578 36057,18582 36068,18584 36089,18588 36116,18593 36127,18594 36143,18599 36170,18603 36175,18604 36191,18607 36218,18611 36235,18615 36245,18618 36267,18622 36288,18626 36294,18628 36321,18632 36348,18635 36353,18636 36369,18641 36396,18644 36407,18648 36423,18651 36450,18655 36472,18657 36482,18660 36499,18662 36525,18666 36547,18672 36574,18674 36601,18679 36617,18681 36628,18683 36649,18686 36676,18691 36703,18695 36730,18700 36752,18702 36779,18707 36806,18713 36811,18712 36827,18716 36854,18719 36876,18724 36881,18725 36908,18729 36929,18733 36940,18734 36956,18737 36983,18743 37005,18746 37010,18747 37032,18750 37059,18755 37070,18757 37086,18759 37107,18763 37129,18767 37134,18768 37161,18772 37188,18778 37210,18783 37237,18786 37253,18789 37263,18793 37290,18796 37312,18799 37339,18803 37366,18807 37382,18810 37387,18809 37393,18810 37414,18816 37441,18819 37452,18821 37468,18823 37490,18826 37517,18830 37533,18833 37544,18834 37571,18838 37592,18842 37608,18844 37619,18845 37646,18850 37667,18854 37673,18854 37694,18857 37721,18862 37738,18865 37748,18866 37770,18869 37797,18873 37808,18875 37824,18877 37851,18882 37872,18885 37878,18886 37899,18890 37926,18893 37937,18897 37942,18896 37948,18897 37953,18897 37975,18900 38001,18905 38023,18908 38028,18909 38050,18910 38077,18916 38088,18919 38093,18918 38104,18920 38131,18926 38152,18927 38174,18930 38179,18933 38206,18935 38233,18940 38255,18942 38282,18945 38309,18949 38319,18951 38330,18953 38357,18956 38384,18961 38395,18962 38411,18964 38432,18967 38459,18972 38465,18973 38481,18972 38486,18974 38513,18979 38535,18982 38546,18983 38562,18986 38589,18990 38610,18991 38626,18995 38637,18996 38664,19000 38691,19003 38702,19005 38713,19006 38739,19009 38766,19013 38788,19016 38793,19016 38815,19019 38842,19022 38869,19026 38880,19027 38890,19028 38917,19031 38944,19035 38966,19038 38971,19040 38993,19042 39020,19045 39046,19048 39052,19049 39073,19051 39095,19053 39122,19058 39133,19060 39149,19063 39176,19065 39197,19069 39213,19070 39224,19073 39251,19075 39273,19079 39294,19083 39300,19082 39327,19087 39354,19090 39375,19091 39380,19094 39402,19096 39429,19099 39451,19103 39456,19103 39477,19106 39504,19110 39531,19115 39553,19116 39580,19122 39607,19122 39617,19125 39634,19125 39655,19129 39682,19134 39704,19135 39709,19136 39736,19140 39758,19143 39784,19146 39811,19149 39833,19151 39860,19154 39871,19157 39887,19159 39914,19162 39935,19164 39962,19167 39973,19169 39989,19169 40016,19172 40038,19176 40065,19179 40070,19178 40075,19179 40092,19181 40113,19184 40140,19187 40162,19190 40167,19190 40172,19189 40178,19191 40194,19194 40215,19197 40242,19198 40248,19200 40253,19199 40259,19201 40269,19202 40296,19205 40318,19208 40345,19210 40350,19211 40372,19214 40393,19217 40420,19218 40436,19222 40442,19221 40447,19222 40474,19225 40496,19228 40522,19230 40544,19234 40549,19234 40576,19236 40598,19239 40625,19241 40646,19244 40652,19245 40673,19247 40700,19249 40727,19253 40749,19256 40754,19257 40776,19259 40803,19263 40830,19266 40856,19270 40878,19271 40905,19273 40932,19275 40937,19276 40959,19278 40980,19280 41007,19285 41034,19286 41045,19288 41056,19289 41083,19293 41110,19295 41137,19299 41158,19299 41185,19303 41212,19304 41239,19309 41260,19310 41287,19313 41314,19315 41336,19317 41352,19320 41363,19321 41390,19322 41417,19326 41438,19329 41444,19330 41449,19329 41454,19330 41460,19330 41465,19331 41492,19334 41519,19335 41541,19339 41568,19341 41594,19345 41616,19345 41643,19347 41670,19350 41681,19352 41697,19351 41708,19354 41718,19355 41745,19356 41772,19360 41799,19362 41815,19364 41821,19364 41848,19367 41875,19369 41896,19371 41912,19374 41918,19373 41923,19376 41950,19377 41977,19379 41998,19382 42025,19384 42036,19384 42052,19385 42079,19389 42101,19390 42128,19392 42155,19393 42165,19396 42176,19396 42203,19399 42230,19400 42257,19403 42279,19405 42289,19407 42306,19408 42332,19411 42359,19412 42386,19414 42408,19413 42413,19417 42435,19419 42456,19420 42483,19425 42510,19425 42537,19428 42559,19430 42586,19431 42613,19434 42639,19436 42661,19438 42672,19439 42688,19441 42715,19441 42742,19446 42763,19448 42785,19450 42790,19450 42796,19449 42801,19452 42817,19451 42839,19453 42866,19458 42893,19457 42920,19460 42925,19461 42936,19460 42941,19461 42968,19464 42995,19464 43022,19466 43043,19469 43070,19471 43076,19471 43097,19473 43119,19474 43146,19476 43173,19477 43200,19481 43216,19482 43221,19482 43248,19485 43275,19486 43302,19487 43324,19491 43351,19493 43356,19492 43361,19494 43377,19493 43399,19496 43426,19498 43453,19500 43480,19503 43501,19503 43512,19505 43528,19505 43555,19508 43582,19510 43604,19512 43631,19514 43636,19515 43658,19516 43679,19519 43706,19520 43733,19523 43760,19525 43765,19526 43771,19525 43781,19526 43808,19529 43835,19529 43862,19531 43884,19533 43911,19534 43922,19537 43927,19535 43932,19537 43938,19537 43943,19536 43948,19537 43959,19539 43986,19540 44013,19542 44040,19544 44062,19546 44083,19547 44089,19547 44099,19548 44105,19547 44110,19548 44115,19550 44142,19551 44164,19552 44191,19555 44218,19556 44234,19558 44239,19558 44266,19560 44293,19561 44320,19565 44342,19565 44369,19566 44390,19569 44396,19568 44406,19570 44423,19570 44444,19572 44471,19574 44498,19575 44525,19577 44536,19580 44546,19580 44552,19579 44568,19580 44573,19581 44600,19584 44622,19584 44649,19586 44676,19589 44703,19589 44708,19592 44713,19589 44719,19591 44724,19591 44751,19592 44778,19596 44805,19598 44827,19597 44853,19601 44875,19601 44880,19601 44886,19601 44902,19603 44929,19605 44956,19606 44983,19608 45004,19610 45031,19611 45047,19612 45058,19613 45069,19611 45074,19613 45085,19615 45107,19617"/>
 <text class="TextShape"><tspan class="TextParagraph" font-family="Liberation Sans" font-size="353px" font-weight="400"><tspan class="TextPosition" x="1760" y="20178"><tspan fill="rgb(0,0,0)" stroke="none">0,00</tspan></tspan></tspan></text>
 <text class="TextShape"><tspan class="TextParagraph" font-family="Liberation Sans" font-size="353px" font-weight="400"><tspan class="TextPosition" x="1204" y="16292"><tspan fill="rgb(0,0,0)" stroke="none">5000,00</tspan></tspan></tspan></text>
 <text class="TextShape"><tspan class="TextParagraph" font-family="Liberation Sans" font-size="353px" font-weight="400"><tspan class="TextPosition" x="1019" y="12407"><tspan fill="rgb(0,0,0)" stroke="none">10000,00</tspan></tspan></tspan></text>
 <text class="TextShape"><tspan class="TextParagraph" font-family="Liberation Sans" font-size="353px" font-weight="400"><tspan class="TextPosition" x="1019" y="8521"><tspan fill="rgb(0,0,0)" stroke="none">15000,00</tspan></tspan></tspan></text>
 <text class="TextShape"><tspan class="TextParagraph" font-family="Liberation Sans" font-size="353px" font-weight="400"><tspan class="TextPosition" x="1019" y="4636"><tspan fill="rgb(0,0,0)" stroke="none">20000,00</tspan></tspan></tspan></text>
 <text class="TextShape"><tspan class="TextParagraph" font-family="Liberation Sans" font-size="353px" font-weight="400"><tspan class="TextPosition" x="1019" y="750"><tspan fill="rgb(0,0,0)" stroke="none">25000,00</tspan></tspan></tspan></text>
 <text class="TextShape"><tspan class="TextParagraph" font-family="Liberation Sans" font-size="353px" font-weight="400"><tspan class="TextPosition" x="46553" y="20178"><tspan fill="rgb(0,0,0)" stroke="none">0</tspan></tspan></tspan></text>
 <text class="TextShape"><tspan class="TextParagraph" font-family="Liberation Sans" font-size="353px" font-weight="400"><tspan class="TextPosition" x="46553" y="16940"><tspan fill="rgb(0,0,0)" stroke="none">20000</tspan></tspan></tspan></text>
 <text class="TextShape"><tspan class="TextParagraph" font-family="Liberation Sans" font-size="353px" font-weight="400"><tspan class="TextPosition" x="46553" y="13702"><tspan fill="rgb(0,0,0)" stroke="none">40000</tspan></tspan></tspan></text>
 <text class="TextShape"><tspan class="TextParagraph" font-family="Liberation Sans" font-size="353px" font-weight="400"><tspan class="TextPosition" x="46553" y="10464"><tspan fill="rgb(0,0,0)" stroke="none">60000</tspan></tspan></tspan></text>
 <text class="TextShape"><tspan class="TextParagraph" font-family="Liberation Sans" font-size="353px" font-weight="400"><tspan class="TextPosition" x="46553" y="7226"><tspan fill="rgb(0,0,0)" stroke="none">80000</tspan></tspan></tspan></text>
 <text class="TextShape"><tspan class="TextParagraph" font-family="Liberation Sans" font-size="353px" font-weight="400"><tspan class="TextPosition" x="46553" y="3988"><tspan fill="rgb(0,0,0)" stroke="none">100000</tspan></tspan></tspan></text>
 <text class="TextShape"><tspan class="TextParagraph" font-family="Liberation Sans" font-size="353px" font-weight="400"><tspan class="TextPosition" x="46553" y="751"><tspan fill="rgb(0,0,0)" stroke="none">120000</tspan></tspan></tspan></text>
 <path fill="none" stroke="rgb(49,64,4)" stroke-width="80" stroke-linejoin="round" d="M 48800,10587 L 49600,10587"/>
 <path fill="none" stroke="rgb(75,31,111)" stroke-width="80" stroke-linejoin="round" d="M 48800,11084 L 49600,11084"/>
 <text class="TextShape"><tspan class="TextParagraph" font-family="Liberation Sans" font-size="353px" font-weight="400"><tspan class="TextPosition" x="49700" y="10707"><tspan fill="rgb(0,0,0)" stroke="none">Druck</tspan></tspan></tspan></text>
 <text class="TextShape"><tspan class="TextParagraph" font-family="Liberation Sans" font-size="353px" font-weight="400"><tspan class="TextPosition" x="49700" y="11204"><tspan fill="rgb(0,0,0)" stroke="none">Hhe</tspan></tspan></tspan></text>
</svg>