<?xml version="1.0" encoding="UTF-8"?>
<!DOCTYPE svg PUBLIC "-//W3C//DTD SVG 1.1//EN" "http://www.w3.org/Graphics/SVG/1.1/DTD/svg11.dtd">
<svg width="511mm" height="217mm" viewBox="0 0 51100 21700" version="1.1" baseProfile="tiny" xmlns="http://www.w3.org/2000/svg" stroke-width="28.222" stroke-linejoin="round" xml:space="preserve">
 <path fill="rgb(255,255,255)" stroke="none" d="M 25538,21701 L 0,21701 0,0 51075,0 51075,21701 25538,21701 Z"/>
 <path fill="none" stroke="rgb(179,179,179)" stroke-linejoin="round" d="M 23343,20620 L 2582,20620 2582,1082 44104,1082 44104,20620 23343,20620 Z"/>
 <path fill="none" stroke="rgb(179,179,179)" stroke-linejoin="round" d="M 44104,20619 L 2582,20619"/>
 <path fill="none" stroke="rgb(179,179,179)" stroke-linejoin="round" d="M 44104,17827 L 2582,17827"/>
 <path fill="none" stroke="rgb(179,179,179)" stroke-linejoin="round" d="M 44104,15036 L 2582,15036"/>
 <path fill="none" stroke="rgb(179,179,179)" stroke-linejoin="round" d="M 44104,12245 L 2582,12245"/>
 <path fill="none" stroke="rgb(179,179,179)" stroke-linejoin="round" d="M 44104,9454 L 2582,9454"/>
 <path fill="none" stroke="rgb(179,179,179)" stroke-linejoin="round" d="M 44104,6663 L 2582,6663"/>
 <path fill="none" stroke="rgb(179,179,179)" stroke-linejoin="round" d="M 44104,3872 L 2582,3872"/>
 <path fill="none" stroke="rgb(179,179,179)" stroke-linejoin="round" d="M 44104,1081 L 2582,1081"/>
 <path fill="none" stroke="rgb(179,179,179)" stroke-linejoin="round" d="M 2582,20769 L 2582,20619"/>
 <path fill="none" stroke="rgb(179,179,179)" stroke-linejoin="round" d="M 2582,20769 L 2582,20619"/>
 <path fill="none" stroke="rgb(179,179,179)" stroke-linejoin="round" d="M 7772,20769 L 7772,20619"/>
 <path fill="none" stroke="rgb(179,179,179)" stroke-linejoin="round" d="M 7772,20769 L 7772,20619"/>
 <path fill="none" stroke="rgb(179,179,179)" stroke-linejoin="round" d="M 12962,20769 L 12962,20619"/>
 <path fill="none" stroke="rgb(179,179,179)" stroke-linejoin="round" d="M 12962,20769 L 12962,20619"/>
 <path fill="none" stroke="rgb(179,179,179)" stroke-linejoin="round" d="M 18153,20769 L 18153,20619"/>
 <path fill="none" stroke="rgb(179,179,179)" stroke-linejoin="round" d="M 18153,20769 L 18153,20619"/>
 <path fill="none" stroke="rgb(179,179,179)" stroke-linejoin="round" d="M 23343,20769 L 23343,20619"/>
 <path fill="none" stroke="rgb(179,179,179)" stroke-linejoin="round" d="M 23343,20769 L 23343,20619"/>
 <path fill="none" stroke="rgb(179,179,179)" stroke-linejoin="round" d="M 28532,20769 L 28532,20619"/>
 <path fill="none" stroke="rgb(179,179,179)" stroke-linejoin="round" d="M 28532,20769 L 28532,20619"/>
 <path fill="none" stroke="rgb(179,179,179)" stroke-linejoin="round" d="M 33723,20769 L 33723,20619"/>
 <path fill="none" stroke="rgb(179,179,179)" stroke-linejoin="round" d="M 33723,20769 L 33723,20619"/>
 <path fill="none" stroke="rgb(179,179,179)" stroke-linejoin="round" d="M 38913,20769 L 38913,20619"/>
 <path fill="none" stroke="rgb(179,179,179)" stroke-linejoin="round" d="M 38913,20769 L 38913,20619"/>
 <path fill="none" stroke="rgb(179,179,179)" stroke-linejoin="round" d="M 44104,20769 L 44104,20619"/>
 <path fill="none" stroke="rgb(179,179,179)" stroke-linejoin="round" d="M 44104,20769 L 44104,20619"/>
 <path fill="none" stroke="rgb(179,179,179)" stroke-linejoin="round" d="M 2582,20619 L 44104,20619"/>
 <path fill="none" stroke="rgb(179,179,179)" stroke-linejoin="round" d="M 2582,931 L 2582,1081"/>
 <path fill="none" stroke="rgb(179,179,179)" stroke-linejoin="round" d="M 2582,931 L 2582,1081"/>
 <path fill="none" stroke="rgb(179,179,179)" stroke-linejoin="round" d="M 7772,931 L 7772,1081"/>
 <path fill="none" stroke="rgb(179,179,179)" stroke-linejoin="round" d="M 7772,931 L 7772,1081"/>
 <path fill="none" stroke="rgb(179,179,179)" stroke-linejoin="round" d="M 12962,931 L 12962,1081"/>
 <path fill="none" stroke="rgb(179,179,179)" stroke-linejoin="round" d="M 12962,931 L 12962,1081"/>
 <path fill="none" stroke="rgb(179,179,179)" stroke-linejoin="round" d="M 18153,931 L 18153,1081"/>
 <path fill="none" stroke="rgb(179,179,179)" stroke-linejoin="round" d="M 18153,931 L 18153,1081"/>
 <path fill="none" stroke="rgb(179,179,179)" stroke-linejoin="round" d="M 23343,931 L 23343,1081"/>
 <path fill="none" stroke="rgb(179,179,179)" stroke-linejoin="round" d="M 23343,931 L 23343,1081"/>
 <path fill="none" stroke="rgb(179,179,179)" stroke-linejoin="round" d="M 28532,931 L 28532,1081"/>
 <path fill="none" stroke="rgb(179,179,179)" stroke-linejoin="round" d="M 28532,931 L 28532,1081"/>
 <path fill="none" stroke="rgb(179,179,179)" stroke-linejoin="round" d="M 33723,931 L 33723,1081"/>
 <path fill="none" stroke="rgb(179,179,179)" stroke-linejoin="round" d="M 33723,931 L 33723,1081"/>
 <path fill="none" stroke="rgb(179,179,179)" stroke-linejoin="round" d="M 38913,931 L 38913,1081"/>
 <path fill="none" stroke="rgb(179,179,179)" stroke-linejoin="round" d="M 38913,931 L 38913,1081"/>
 <path fill="none" stroke="rgb(179,179,179)" stroke-linejoin="round" d="M 44104,931 L 44104,1081"/>
 <path fill="none" stroke="rgb(179,179,179)" stroke-linejoin="round" d="M 44104,931 L 44104,1081"/>
 <path fill="none" stroke="rgb(179,179,179)" stroke-linejoin="round" d="M 2582,1081 L 44104,1081"/>
 <path fill="none" stroke="rgb(179,179,179)" stroke-linejoin="round" d="M 2432,20619 L 2582,20619"/>
 <path fill="none" stroke="rgb(179,179,179)" stroke-linejoin="round" d="M 2432,20619 L 2582,20619"/>
 <path fill="none" stroke="rgb(179,179,179)" stroke-linejoin="round" d="M 2432,17827 L 2582,17827"/>
 <path fill="none" stroke="rgb(179,179,179)" stroke-linejoin="round" d="M 2432,17827 L 2582,17827"/>
 <path fill="none" stroke="rgb(179,179,179)" stroke-linejoin="round" d="M 2432,15036 L 2582,15036"/>
 <path fill="none" stroke="rgb(179,179,179)" stroke-linejoin="round" d="M 2432,15036 L 2582,15036"/>
 <path fill="none" stroke="rgb(179,179,179)" stroke-linejoin="round" d="M 2432,12245 L 2582,12245"/>
 <path fill="none" stroke="rgb(179,179,179)" stroke-linejoin="round" d="M 2432,12245 L 2582,12245"/>
 <path fill="none" stroke="rgb(179,179,179)" stroke-linejoin="round" d="M 2432,9454 L 2582,9454"/>
 <path fill="none" stroke="rgb(179,179,179)" stroke-linejoin="round" d="M 2432,9454 L 2582,9454"/>
 <path fill="none" stroke="rgb(179,179,179)" stroke-linejoin="round" d="M 2432,6663 L 2582,6663"/>
 <path fill="none" stroke="rgb(179,179,179)" stroke-linejoin="round" d="M 2432,6663 L 2582,6663"/>
 <path fill="none" stroke="rgb(179,179,179)" stroke-linejoin="round" d="M 2432,3872 L 2582,3872"/>
 <path fill="none" stroke="rgb(179,179,179)" stroke-linejoin="round" d="M 2432,3872 L 2582,3872"/>
 <path fill="none" stroke="rgb(179,179,179)" stroke-linejoin="round" d="M 2432,1081 L 2582,1081"/>
 <path fill="none" stroke="rgb(179,179,179)" stroke-linejoin="round" d="M 2432,1081 L 2582,1081"/>
 <path fill="none" stroke="rgb(179,179,179)" stroke-linejoin="round" d="M 2582,20619 L 2582,1081"/>
 <path fill="none" stroke="rgb(255,66,14)" stroke-width="80" stroke-linejoin="round" d="M 12091,20154 L 12268,20154 12452,20154 12635,20165 12653,20163 12818,20235 12845,20107 13004,19988 13188,19816 13371,19816 13554,19660 13740,19660 13746,19544 13923,19421 14107,19296 14290,19166 14320,19025 14473,19025 14659,18896 14843,18759 15026,18625 15209,18487 15395,18349 15578,18212 15590,18094 15762,18094 15945,17963 16131,17815 16314,17690 16329,17690 16498,17556 16504,17421 16681,17293 16696,17170 16714,17170 16867,17037 17050,17037 17233,16904 17261,16904 17417,16904 17447,16784 17603,16661 17786,16543 17813,16543 17969,16420 18005,16306 18153,16194 18339,16194 18363,16069 18522,16069 18705,16194 18810,15942 18889,15819 19075,15819 19258,15694 19441,15568 19456,15568 19624,15430 19733,15300 19811,15152 19838,15013 19994,15013 20012,14878 20177,14878 20360,14742 20402,14742 20547,14613 20730,14613 20757,14483 20913,14362 21096,14240 21099,14111 21111,14111 21120,13985 21279,13985 21466,13836 21649,13836 21832,13836 22015,13685 22030,13559 22117,13434 22202,13434 22214,13307 22223,13174 22385,13174 22568,13174 22586,13041 22751,13041 22938,13041 22950,12906 22953,12767 23121,12629 23142,12496 23217,12496 23229,12496 23304,12496 23487,12367 23514,12367 23634,12629 23673,12367 23857,12235 23878,12098 24040,12098 24142,12098 24223,11962 24238,11822 24316,11822 24337,11675 24346,11528 24409,11528 24593,11528 24626,12098 24662,11962 24662,11822 24662,11386 24776,11247 24791,11247 24794,11675 24836,11528 24959,11386 24977,11112 25145,11112 25512,11528 25530,10966 25694,10966 25877,10966 25889,10815 26060,10528 26075,10528 26247,10372 26613,10223 26799,10223 26805,10223 26982,10071 27166,9917 27184,9615 27349,9456 27421,9290 27535,9133 27556,9133 27718,8975 27905,8975 27917,9133 27926,8817 28088,8817 28097,8654 28190,8484 28271,8484 28304,8484 28367,8326 28457,8326 28469,8326 28641,8166 28656,8166 28734,8166 28824,7843 29007,7843 29193,7843 29208,7686 29376,7527 29560,7361 29575,7192 29578,7026 29590,7026 29656,7026 29743,7026 29929,7026 29947,6850 30112,6679 30296,6679 30320,6679 30479,6514 30482,6346 30494,6173 30578,6173 30665,6173 30698,6173 30848,6002 30866,5828 30875,5828 31031,5828 31125,5828 31215,5655 31221,5482 31230,5482 31401,5482 31584,5482 31599,5314 31767,5141 31951,5141 31966,4966 32137,4789 32320,4789 32332,4631 32338,5776 32353,5776 32503,5776 32536,5776 32686,6691 32870,5776 32915,7525 33011,8272 33056,8272 33065,8272 33071,8995 33239,8995 33257,8995 33422,9623 33428,9623 33446,10220 33606,10220 33990,10220 34158,10770 34305,11743 34342,12143 34360,12143 34528,12553 34711,12553 34723,12929 34822,13300 34894,13300 34915,12929 35077,13300 35264,13640 35447,13640 35465,14233 35483,14509 35630,14509 35813,14509 36000,14774 36183,15036 36366,15298 36408,15545 36549,15770 36735,15770 37105,16032 37285,16278 37321,16749 37471,16972 37501,16972 37655,17196 37691,17196 37838,17417 37868,17643 38024,17643 38204,18080 38390,18277 38409,18277 38574,18463 38613,18463 38757,18641 38940,18823 38964,18823 39126,19002 39310,19173 39334,19173 39493,19343 39514,19343 39676,19495 39862,19661 40046,19872 40229,20041 40247,20041"/>
 <path fill="none" stroke="rgb(0,69,134)" stroke-width="80" stroke-linejoin="round" d="M 6727,20357 L 6748,20357 6775,20357 6799,20357 6826,20357 6850,20357 6877,20357 6901,20357 6928,20357 6952,20357 6979,20356 7003,20356 7030,20357 7054,20356 7081,20357 7105,20356 7123,20341 7129,20355 7132,20354 7156,20354 7183,20354 7207,20354 7234,20355 7258,20355 7285,20354 7309,20357 7336,20355 7360,20356 7387,20357 7411,20357 7438,20357 7462,20357 7490,20357 7514,20357 7541,20357 7565,20356 7592,20357 7616,20357 7643,20357 7667,20357 7694,20357 7718,20357 7745,20357 7769,20357 7796,20357 7820,20357 7847,20357 7868,20358 7871,20358 7895,20358 7898,20358 7922,20357 7931,20358 7934,20358 7949,20358 7952,20358 7955,20358 7973,20357 8000,20358 8003,20358 8021,20358 8027,20358 8033,20358 8036,20358 8051,20358 8054,20357 8078,20357 8093,20358 8096,20358 8102,20358 8105,20357 8129,20357 8153,20358 8180,20357 8186,20358 8189,20358 8204,20357 8207,20358 8210,20357 8231,20358 8234,20358 8237,20358 8255,20357 8267,20358 8270,20358 8283,20358 8307,20358 8334,20357 8340,20358 8343,20358 8346,20358 8349,20357 8358,20358 8382,20358 8385,20358 8388,20358 8391,20358 8397,20358 8400,20358 8409,20358 8412,20358 8436,20357 8445,20358 8448,20358 8451,20358 8457,20358 8460,20358 8466,20358 8469,20358 8487,20358 8499,20358 8502,20358 8511,20358 8514,20358 8520,20357 8538,20358 8541,20358 8544,20358 8562,20358 8574,20358 8577,20358 8583,20358 8586,20358 8589,20358 8595,20358 8598,20358 8610,20358 8613,20357 8640,20357 8661,20358 8664,20358 8670,20358 8673,20358 8679,20358 8682,20358 8688,20358 8691,20358 8715,20358 8742,20357 8754,20358 8757,20357 8766,20358 8772,20358 8775,20358 8781,20358 8784,20358 8793,20357 8796,20358 8799,20357 8802,20358 8805,20358 8817,20358 8835,20358 8838,20358 8844,20358 8850,20358 8853,20358 8868,20358 8877,20358 8883,20358 8886,20358 8889,20358 8895,20358 8919,20358 8946,20357 8970,20358 8997,20358 9021,20357 9045,20358 9048,20357 9066,20358 9069,20358 9072,20358 9100,20358 9121,20358 9124,20358 9145,20358 9148,20358 9151,20358 9160,20358 9163,20358 9175,20358 9202,20358 9226,20357 9244,20358 9247,20357 9253,20358 9277,20358 9292,20358 9295,20357 9304,20358 9328,20357 9355,20358 9379,20357 9403,20358 9406,20357 9430,20357 9436,20358 9439,20357 9457,20357 9481,20357 9508,20358 9532,20357 9559,20358 9583,20358 9610,20357 9634,20357 9661,20358 9685,20358 9703,20358 9706,20357 9712,20358 9736,20358 9745,20358 9748,20358 9751,20358 9754,20358 9763,20358 9775,20358 9778,20358 9787,20358 9793,20358 9796,20357 9814,20358 9841,20358 9844,20358 9865,20358 9871,20358 9874,20358 9892,20357 9917,20357 9944,20357 9953,20358 9956,20358 9968,20358 9995,20357 10019,20357 10046,20357 10070,20357 10097,20357 10121,20357 10148,20357 10172,20357 10199,20357 10223,20357 10247,20358 10250,20358 10274,20358 10301,20358 10310,20358 10313,20358 10325,20358 10352,20357 10376,20358 10388,20358 10391,20358 10403,20358 10427,20357 10454,20358 10478,20357 10481,20358 10487,20358 10493,20358 10496,20358 10505,20358 10508,20357 10529,20357 10553,20358 10556,20358 10577,20358 10580,20358 10589,20358 10592,20357 10595,20358 10598,20358 10601,20358 10607,20358 10628,20358 10631,20358 10637,20358 10658,20358 10661,20358 10682,20358 10709,20358 10734,20357 10746,20358 10749,20357 10761,20358 10785,20358 10800,20358 10803,20358 10809,20358 10812,20358 10836,20358 10839,20358 10842,20357 10863,20358 10887,20358 10908,20358 10911,20358 10914,20358 10923,20358 10926,20358 10932,20358 10935,20358 10938,20357 10953,20358 10956,20358 10965,20357 10989,20358 10992,20358 11007,20358 11013,20358 11016,20358 11040,20358 11067,20357 11091,20358 11112,20358 11115,20357 11118,20358 11121,20358 11124,20358 11130,20357 11136,20358 11142,20358 11169,20357 11178,20358 11181,20358 11193,20358 11205,20358 11208,20358 11220,20358 11244,20357 11271,20358 11295,20358 11322,20357 11346,20358 11373,20358 11397,20358 11412,20358 11415,20357 11424,20358 11448,20357 11454,20358 11457,20358 11475,20358 11499,20358 11526,20357 11548,20358 11551,20357 11578,20358 11602,20357 11629,20357 11656,20357 11680,20357 11707,20357 11731,20357 11758,20357 11782,20356 11794,20344 11803,20336 11809,20329 11815,20324 11833,20316 11836,20314 11854,20302 11860,20298 11866,20293 11884,20281 11899,20270 11911,20260 11914,20258 11929,20248 11935,20244 11944,20235 11959,20227 11962,20226 11980,20216 11986,20213 11998,20206 12013,20194 12028,20182 12037,20178 12046,20173 12064,20160 12079,20151 12088,20143 12094,20140 12109,20130 12115,20127 12130,20119 12139,20114 12154,20108 12166,20101 12175,20097 12190,20085 12208,20075 12217,20070 12226,20064 12238,20054 12241,20051 12253,20042 12265,20031 12268,20028 12277,20020 12289,20010 12292,20006 12307,19997 12319,19987 12331,19977 12343,19967 12356,19956 12371,19945 12383,19933 12392,19923 12395,19921 12404,19912 12416,19899 12422,19894 12428,19888 12437,19879 12446,19869 12458,19856 12467,19847 12473,19842 12479,19836 12488,19826 12497,19819 12500,19814 12512,19803 12524,19794 12527,19792 12542,19781 12548,19776 12554,19770 12569,19761 12575,19755 12584,19749 12599,19739 12620,19726 12626,19722 12635,19717 12650,19708 12656,19706 12674,19696 12677,19695 12692,19684 12701,19679 12710,19673 12725,19663 12728,19660 12743,19652 12752,19646 12758,19641 12776,19630 12779,19629 12797,19619 12803,19616 12815,19609 12830,19598 12833,19597 12848,19586 12854,19582 12866,19575 12881,19565 12899,19553 12905,19549 12914,19543 12932,19531 12947,19522 12956,19515 12965,19509 12980,19500 12983,19498 12998,19489 13007,19483 13016,19477 13031,19467 13034,19465 13049,19456 13058,19448 13064,19445 13082,19432 13085,19430 13094,19423 13109,19414 13112,19412 13127,19402 13136,19396 13145,19390 13160,19379 13176,19370 13188,19362 13191,19358 13206,19348 13212,19344 13221,19337 13239,19325 13254,19314 13263,19308 13269,19304 13287,19292 13290,19290 13302,19282 13314,19274 13317,19272 13335,19260 13341,19256 13350,19250 13365,19238 13380,19228 13392,19219 13395,19218 13410,19205 13419,19199 13425,19194 13440,19186 13443,19181 13455,19174 13470,19162 13485,19149 13494,19143 13497,19140 13512,19131 13521,19123 13527,19120 13542,19108 13545,19105 13557,19096 13569,19087 13572,19086 13587,19075 13596,19071 13602,19066 13617,19055 13623,19050 13635,19043 13647,19035 13650,19033 13668,19022 13674,19018 13683,19012 13698,19002 13701,18998 13713,18990 13725,18982 13731,18978 13749,18967 13764,18957 13776,18948 13779,18946 13794,18936 13800,18930 13806,18925 13821,18912 13827,18907 13833,18902 13851,18890 13863,18881 13878,18872 13881,18869 13896,18859 13902,18855 13911,18847 13926,18837 13929,18835 13941,18827 13953,18817 13956,18816 13971,18805 13981,18799 13987,18794 14002,18783 14005,18782 14020,18771 14032,18763 14035,18760 14047,18751 14056,18745 14062,18740 14080,18729 14083,18727 14095,18719 14107,18709 14110,18707 14125,18697 14134,18688 14140,18686 14155,18675 14158,18672 14170,18664 14185,18655 14188,18652 14203,18642 14209,18636 14215,18632 14230,18619 14236,18615 14242,18610 14260,18598 14275,18588 14287,18579 14290,18576 14308,18566 14311,18562 14323,18554 14335,18545 14338,18544 14353,18533 14362,18526 14365,18523 14383,18510 14389,18505 14398,18500 14410,18490 14413,18488 14425,18479 14440,18469 14443,18467 14455,18457 14464,18452 14473,18445 14485,18436 14491,18432 14503,18425 14515,18417 14518,18415 14533,18401 14542,18396 14548,18392 14563,18382 14566,18379 14578,18371 14593,18358 14605,18349 14617,18339 14620,18337 14635,18326 14644,18320 14650,18317 14665,18305 14668,18304 14683,18294 14695,18287 14701,18283 14716,18273 14719,18270 14734,18263 14746,18256 14755,18250 14770,18242 14773,18240 14791,18228 14798,18224 14810,18218 14822,18210 14825,18208 14843,18196 14849,18192 14855,18186 14870,18173 14873,18172 14882,18165 14900,18154 14918,18143 14924,18140 14936,18132 14951,18123 14954,18121 14972,18109 14975,18108 14987,18099 15002,18088 15020,18077 15026,18072 15032,18067 15044,18056 15053,18050 15059,18044 15068,18035 15077,18029 15086,18022 15098,18012 15104,18006 15110,18002 15128,17989 15140,17979 15152,17967 15155,17965 15164,17958 15179,17950 15182,17947 15200,17936 15206,17931 15212,17926 15233,17915 15248,17903 15257,17897 15260,17894 15281,17881 15284,17878 15296,17870 15308,17862 15311,17860 15326,17850 15335,17844 15344,17839 15359,17830 15362,17828 15380,17817 15386,17813 15395,17807 15410,17796 15413,17794 15431,17785 15437,17780 15446,17773 15458,17763 15461,17761 15470,17752 15488,17739 15500,17728 15512,17719 15530,17708 15539,17703 15545,17698 15563,17688 15566,17685 15581,17675 15590,17670 15602,17664 15615,17657 15621,17653 15639,17640 15642,17639 15651,17632 15663,17622 15666,17619 15675,17611 15690,17600 15693,17598 15705,17588 15717,17578 15732,17568 15744,17561 15750,17557 15768,17545 15783,17534 15795,17525 15798,17523 15813,17514 15819,17510 15831,17502 15846,17493 15849,17490 15861,17481 15870,17477 15879,17470 15894,17459 15897,17458 15909,17449 15921,17441 15927,17436 15945,17426 15948,17425 15963,17413 15972,17408 15978,17404 15993,17394 15999,17390 16008,17383 16023,17373 16026,17371 16041,17361 16050,17355 16059,17349 16074,17339 16092,17329 16101,17323 16110,17316 16125,17307 16143,17293 16152,17287 16155,17285 16170,17274 16176,17271 16185,17263 16203,17250 16218,17241 16227,17234 16233,17230 16248,17221 16254,17215 16263,17209 16278,17201 16281,17197 16296,17187 16305,17180 16311,17175 16329,17165 16344,17155 16356,17146 16359,17144 16374,17134 16380,17130 16389,17123 16407,17112 16423,17100 16432,17094 16441,17089 16456,17079 16459,17076 16471,17068 16483,17060 16486,17058 16507,17044 16510,17044 16522,17036 16534,17028 16537,17025 16558,17013 16561,17011 16573,17004 16585,16996 16591,16991 16609,16980 16612,16978 16624,16970 16636,16964 16642,16960 16657,16949 16663,16946 16675,16937 16687,16931 16693,16926 16708,16916 16714,16912 16726,16905 16738,16898 16741,16895 16759,16884 16765,16879 16777,16872 16789,16865 16795,16860 16810,16851 16816,16848 16825,16840 16840,16831 16843,16828 16855,16819 16867,16810 16873,16807 16891,16796 16909,16786 16918,16779 16927,16774 16942,16765 16960,16752 16969,16748 16975,16742 16993,16732 17014,16720 17020,16717 17029,16709 17047,16699 17065,16688 17071,16685 17083,16677 17098,16668 17101,16666 17119,16655 17122,16654 17137,16645 17149,16639 17158,16634 17173,16621 17182,16613 17194,16602 17200,16599 17215,16591 17224,16585 17233,16580 17252,16567 17267,16558 17276,16552 17282,16546 17300,16535 17303,16536 17318,16526 17327,16521 17336,16515 17354,16505 17357,16504 17378,16492 17396,16483 17405,16477 17414,16470 17429,16464 17438,16458 17453,16449 17456,16447 17471,16439 17480,16432 17489,16428 17507,16417 17528,16405 17531,16402 17546,16394 17558,16388 17564,16384 17579,16374 17582,16372 17594,16362 17609,16354 17612,16351 17630,16339 17633,16337 17642,16330 17660,16318 17678,16308 17684,16303 17696,16296 17708,16287 17711,16286 17726,16275 17735,16271 17744,16264 17759,16254 17762,16252 17777,16242 17786,16234 17789,16232 17807,16221 17813,16217 17822,16210 17837,16204 17843,16200 17858,16189 17864,16185 17876,16177 17888,16170 17894,16166 17906,16157 17915,16152 17924,16145 17939,16135 17957,16123 17966,16118 17975,16112 17990,16102 18008,16091 18017,16085 18023,16080 18038,16070 18041,16069 18057,16057 18069,16051 18075,16046 18087,16037 18090,16038 18093,16034 18105,16027 18120,16017 18126,16015 18141,16003 18144,16003 18159,15992 18171,15982 18186,15973 18195,15966 18207,15959 18222,15950 18237,15939 18246,15934 18255,15927 18270,15918 18273,15916 18288,15907 18297,15900 18306,15896 18324,15884 18339,15874 18348,15866 18354,15864 18372,15850 18375,15851 18387,15841 18399,15833 18402,15830 18420,15819 18426,15816 18438,15807 18450,15799 18453,15799 18471,15787 18477,15783 18486,15776 18501,15765 18519,15754 18528,15747 18537,15742 18552,15733 18567,15721 18579,15713 18582,15711 18597,15701 18603,15696 18615,15689 18630,15678 18639,15668 18654,15657 18669,15645 18681,15637 18684,15634 18699,15623 18705,15619 18711,15613 18726,15603 18732,15598 18741,15592 18756,15583 18759,15581 18774,15570 18783,15564 18789,15560 18804,15549 18807,15547 18822,15536 18834,15529 18837,15527 18855,15516 18861,15510 18871,15505 18886,15495 18901,15482 18913,15473 18916,15473 18934,15458 18937,15455 18949,15447 18961,15439 18964,15437 18976,15428 18988,15419 18991,15415 19003,15406 19015,15395 19027,15386 19039,15374 19054,15362 19066,15353 19078,15342 19090,15334 19093,15331 19108,15318 19117,15312 19120,15309 19132,15300 19141,15295 19153,15285 19165,15277 19168,15274 19180,15266 19192,15258 19195,15254 19207,15244 19219,15238 19225,15232 19240,15223 19243,15219 19252,15212 19270,15200 19285,15189 19294,15183 19300,15179 19315,15167 19321,15163 19327,15158 19342,15146 19345,15143 19357,15136 19369,15126 19372,15126 19387,15115 19396,15109 19402,15103 19420,15092 19423,15089 19435,15081 19447,15072 19450,15071 19468,15059 19474,15055 19483,15049 19498,15038 19513,15026 19525,15017 19540,15006 19549,14999 19558,14995 19573,14984 19576,14983 19588,14974 19597,14963 19600,14962 19618,14951 19627,14944 19630,14941 19645,14930 19651,14927 19663,14918 19675,14908 19678,14907 19694,14897 19703,14890 19712,14883 19724,14875 19730,14870 19739,14864 19754,14854 19772,14842 19781,14837 19790,14831 19805,14821 19820,14810 19832,14802 19838,14798 19853,14789 19856,14788 19874,14776 19883,14771 19889,14766 19904,14754 19907,14753 19919,14743 19934,14732 19946,14720 19958,14714 19961,14711 19973,14702 19985,14693 19988,14691 20006,14680 20009,14680 20024,14669 20036,14663 20042,14658 20054,14648 20060,14643 20072,14637 20087,14626 20102,14615 20111,14609 20120,14604 20138,14594 20141,14592 20156,14583 20162,14581 20177,14571 20189,14563 20195,14561 20210,14549 20213,14549 20228,14538 20240,14529 20243,14527 20261,14516 20264,14514 20276,14506 20291,14497 20294,14496 20312,14485 20315,14482 20330,14475 20342,14467 20345,14462 20363,14452 20366,14450 20381,14440 20393,14433 20399,14429 20414,14419 20417,14416 20429,14408 20444,14398 20456,14387 20468,14379 20474,14374 20489,14364 20496,14359 20505,14355 20520,14344 20538,14333 20547,14327 20556,14320 20571,14311 20586,14300 20598,14293 20604,14289 20619,14278 20622,14276 20634,14267 20649,14258 20652,14255 20664,14246 20676,14238 20685,14233 20697,14225 20700,14223 20718,14212 20727,14205 20730,14203 20748,14191 20751,14191 20763,14181 20772,14169 20778,14165 20784,14159 20802,14144 20811,14137 20826,14125 20829,14123 20841,14116 20853,14104 20868,14094 20880,14085 20883,14081 20898,14070 20904,14065 20910,14061 20925,14050 20931,14044 20940,14039 20952,14028 20955,14026 20970,14016 20982,14005 20994,13997 21006,13987 21009,13986 21012,13986 21015,13981 21027,13971 21033,13965 21036,13964 21048,13952 21057,13945 21060,13942 21078,13929 21084,13927 21093,13919 21108,13910 21111,13908 21129,13898 21135,13894 21150,13883 21159,13879 21165,13876 21180,13866 21186,13862 21198,13853 21210,13844 21228,13832 21237,13825 21243,13823 21258,13812 21261,13813 21264,13809 21276,13800 21288,13792 21294,13790 21310,13779 21313,13778 21328,13768 21340,13762 21349,13755 21364,13746 21379,13735 21391,13729 21397,13722 21415,13714 21433,13701 21442,13695 21448,13692 21463,13681 21466,13681 21481,13670 21493,13662 21499,13660 21517,13648 21529,13637 21532,13640 21535,13637 21544,13632 21550,13628 21568,13615 21589,13603 21595,13601 21604,13593 21619,13584 21631,13574 21634,13575 21637,13571 21646,13565 21652,13560 21667,13551 21670,13549 21685,13539 21697,13529 21715,13519 21721,13514 21733,13505 21748,13497 21763,13487 21772,13482 21781,13475 21799,13464 21817,13453 21823,13449 21835,13442 21850,13430 21868,13421 21874,13415 21883,13410 21901,13399 21919,13387 21925,13382 21931,13378 21949,13367 21952,13365 21967,13355 21976,13349 21982,13345 21997,13335 22000,13335 22003,13332 22015,13324 22027,13315 22036,13311 22051,13301 22054,13299 22069,13289 22078,13283 22084,13278 22102,13267 22105,13263 22114,13259 22130,13249 22136,13244 22148,13237 22157,13231 22163,13226 22181,13215 22196,13204 22208,13194 22214,13193 22229,13182 22232,13177 22244,13169 22259,13160 22274,13150 22283,13143 22292,13137 22304,13128 22310,13127 22322,13117 22334,13112 22340,13107 22355,13094 22361,13090 22373,13082 22385,13077 22388,13074 22403,13063 22412,13058 22424,13051 22436,13042 22439,13040 22457,13028 22463,13024 22469,13020 22484,13008 22490,13006 22499,12998 22514,12989 22520,12987 22535,12975 22541,12973 22553,12966 22565,12956 22568,12955 22586,12943 22592,12941 22601,12933 22616,12924 22619,12919 22631,12910 22634,12912 22637,12910 22643,12905 22649,12900 22667,12890 22670,12888 22685,12877 22694,12872 22703,12864 22718,12859 22721,12854 22736,12845 22745,12837 22751,12835 22769,12823 22784,12813 22796,12806 22808,12802 22820,12791 22841,12779 22847,12776 22859,12769 22871,12762 22877,12757 22895,12746 22898,12745 22910,12735 22922,12730 22928,12726 22944,12715 22950,12711 22959,12704 22974,12696 22977,12693 22992,12682 23001,12679 23010,12671 23013,12674 23016,12667 23022,12662 23025,12662 23028,12659 23040,12650 23052,12643 23058,12639 23076,12628 23097,12618 23103,12615 23118,12603 23127,12598 23130,12596 23133,12597 23136,12594 23148,12584 23154,12581 23166,12572 23178,12565 23181,12564 23199,12551 23205,12548 23214,12540 23229,12531 23247,12520 23256,12514 23262,12509 23277,12498 23280,12499 23283,12498 23298,12488 23307,12485 23319,12476 23331,12469 23340,12462 23352,12454 23358,12451 23367,12445 23382,12436 23385,12433 23403,12422 23409,12417 23418,12411 23433,12402 23436,12397 23451,12390 23460,12384 23466,12377 23484,12368 23499,12353 23511,12351 23514,12347 23532,12333 23535,12332 23550,12324 23562,12313 23580,12303 23583,12304 23586,12297 23595,12292 23613,12280 23628,12269 23637,12264 23646,12258 23664,12244 23679,12237 23688,12230 23694,12226 23706,12217 23715,12210 23724,12204 23739,12194 23752,12184 23758,12185 23761,12180 23767,12176 23773,12172 23788,12161 23791,12160 23806,12150 23818,12140 23830,12130 23842,12123 23848,12118 23869,12106 23881,12097 23893,12090 23896,12085 23911,12076 23920,12071 23929,12064 23944,12054 23947,12053 23965,12040 23971,12037 23980,12031 23995,12021 24004,12010 24007,12013 24013,12009 24022,12002 24028,11998 24043,11987 24046,11987 24061,11977 24073,11967 24091,11954 24097,11951 24112,11943 24124,11933 24145,11919 24148,11919 24154,11912 24175,11900 24190,11886 24199,11886 24202,11880 24205,11881 24208,11878 24223,11868 24226,11868 24238,11856 24250,11847 24253,11848 24256,11846 24274,11833 24277,11833 24292,11823 24301,11814 24307,11811 24322,11804 24328,11800 24334,11793 24337,11795 24340,11793 24355,11780 24376,11769 24379,11768 24391,11760 24406,11751 24409,11746 24421,11739 24430,11734 24439,11726 24457,11718 24460,11714 24475,11703 24481,11700 24490,11694 24508,11686 24511,11681 24526,11672 24532,11671 24547,11662 24559,11656 24569,11649 24584,11639 24599,11630 24611,11620 24614,11618 24617,11621 24620,11617 24632,11609 24635,11607 24650,11595 24662,11592 24668,11584 24686,11577 24689,11571 24698,11564 24713,11556 24719,11551 24731,11542 24737,11541 24749,11529 24764,11524 24767,11519 24779,11511 24788,11502 24797,11498 24815,11484 24824,11478 24827,11479 24830,11477 24839,11466 24860,11454 24866,11451 24869,11446 24890,11434 24893,11435 24896,11429 24899,11424 24902,11426 24905,11424 24917,11417 24923,11410 24941,11397 24956,11391 24968,11384 24971,11378 24986,11367 24989,11372 24992,11366 25004,11357 25007,11360 25010,11353 25019,11349 25022,11344 25040,11333 25043,11332 25058,11325 25070,11318 25079,11314 25091,11303 25094,11303 25106,11293 25121,11286 25127,11283 25130,11284 25133,11279 25145,11271 25163,11261 25172,11255 25184,11245 25196,11239 25214,11227 25223,11219 25226,11217 25229,11219 25232,11214 25244,11206 25247,11208 25250,11203 25262,11196 25274,11186 25277,11184 25295,11173 25298,11169 25313,11160 25325,11152 25343,11135 25349,11133 25358,11129 25373,11116 25376,11116 25386,11107 25401,11098 25413,11087 25416,11088 25419,11084 25428,11083 25434,11076 25440,11066 25443,11072 25446,11064 25452,11063 25464,11054 25479,11044 25497,11033 25503,11031 25518,11019 25530,11010 25550,10997 25553,10996 25565,10989 25580,10980 25583,10979 25601,10964 25604,10965 25613,10956 25616,10958 25619,10955 25631,10946 25649,10935 25655,10931 25664,10924 25682,10912 25697,10902 25706,10896 25718,10891 25730,10882 25733,10880 25748,10868 25757,10860 25760,10861 25763,10857 25778,10849 25784,10848 25793,10839 25808,10829 25814,10822 25832,10817 25835,10813 25850,10802 25859,10799 25862,10794 25880,10780 25886,10774 25889,10772 25910,10758 25922,10750 25937,10745 25940,10741 25961,10728 25973,10718 25988,10714 25991,10708 26009,10696 26012,10696 26027,10685 26039,10676 26045,10673 26057,10664 26066,10659 26075,10652 26087,10642 26090,10644 26093,10639 26099,10632 26102,10634 26105,10633 26117,10631 26126,10618 26141,10613 26144,10608 26156,10600 26168,10591 26174,10588 26193,10580 26196,10577 26208,10564 26220,10558 26226,10554 26241,10544 26244,10544 26259,10534 26271,10527 26280,10522 26298,10511 26319,10501 26322,10497 26334,10488 26346,10484 26349,10479 26367,10469 26373,10466 26388,10457 26397,10453 26400,10448 26412,10437 26415,10440 26418,10437 26424,10435 26439,10425 26448,10421 26454,10414 26466,10404 26475,10401 26487,10391 26499,10383 26514,10372 26526,10367 26532,10360 26535,10362 26538,10359 26550,10348 26565,10338 26577,10332 26583,10327 26598,10317 26601,10318 26604,10310 26619,10301 26628,10296 26643,10284 26646,10287 26649,10282 26652,10284 26661,10274 26679,10259 26691,10252 26694,10255 26697,10248 26703,10241 26721,10229 26730,10221 26739,10218 26751,10209 26754,10209 26766,10198 26772,10200 26775,10195 26781,10191 26787,10184 26805,10173 26820,10163 26832,10156 26835,10155 26856,10144 26865,10133 26883,10126 26889,10121 26901,10109 26904,10112 26907,10108 26922,10097 26934,10090 26952,10079 26958,10078 26967,10064 26970,10069 26976,10066 26985,10057 26988,10060 26991,10056 27010,10041 27025,10035 27037,10031 27040,10022 27061,10017 27064,10011 27067,10003 27070,10004 27073,10003 27088,9994 27100,9991 27109,9979 27112,9977 27124,9970 27139,9964 27142,9960 27160,9947 27163,9944 27175,9937 27190,9927 27208,9914 27214,9913 27217,9905 27223,9907 27226,9899 27241,9895 27265,9882 27277,9870 27292,9865 27298,9857 27310,9847 27316,9846 27328,9839 27343,9833 27346,9827 27361,9814 27367,9816 27382,9801 27394,9793 27406,9784 27409,9789 27412,9779 27418,9778 27424,9775 27442,9757 27445,9765 27448,9757 27463,9750 27469,9745 27472,9741 27475,9745 27478,9738 27493,9729 27496,9729 27514,9714 27520,9712 27526,9706 27547,9696 27559,9684 27571,9679 27574,9677 27592,9665 27598,9659 27601,9656 27604,9659 27610,9656 27622,9646 27625,9644 27637,9632 27640,9640 27643,9634 27646,9635 27649,9629 27658,9619 27673,9614 27676,9609 27679,9614 27682,9607 27688,9601 27694,9604 27697,9601 27700,9594 27715,9588 27724,9579 27730,9581 27733,9576 27742,9569 27751,9564 27760,9555 27763,9559 27766,9550 27769,9547 27772,9550 27775,9547 27778,9548 27781,9543 27790,9536 27793,9537 27796,9533 27802,9533 27817,9521 27827,9513 27830,9516 27833,9511 27848,9502 27854,9494 27869,9491 27878,9480 27881,9487 27887,9482 27902,9467 27905,9466 27911,9473 27914,9470 27920,9459 27926,9463 27929,9454 27932,9452 27941,9447 27947,9450 27950,9445 27953,9438 27956,9439 27959,9436 27977,9425 27983,9422 27986,9415 27989,9424 27992,9417 28004,9406 28007,9401 28019,9394 28022,9399 28025,9392 28034,9389 28037,9379 28046,9385 28049,9378 28055,9370 28058,9370 28079,9358 28085,9360 28091,9351 28109,9343 28115,9338 28127,9329 28133,9337 28136,9328 28151,9318 28160,9313 28172,9304 28187,9291 28205,9285 28208,9287 28211,9281 28217,9276 28229,9265 28232,9268 28238,9265 28262,9250 28268,9243 28274,9244 28277,9239 28289,9229 28295,9234 28298,9229 28307,9236 28310,9220 28313,9220 28322,9210 28325,9214 28328,9209 28340,9201 28343,9199 28364,9188 28379,9176 28391,9168 28397,9158 28400,9168 28406,9164 28415,9153 28436,9144 28442,9140 28451,9134 28460,9123 28463,9125 28466,9124 28469,9121 28478,9125 28481,9115 28484,9113 28493,9101 28496,9105 28505,9095 28508,9103 28511,9097 28517,9087 28526,9077 28532,9085 28538,9077 28544,9075 28550,9067 28562,9055 28565,9059 28568,9055 28574,9059 28580,9052 28592,9044 28595,9042 28613,9032 28619,9028 28638,9016 28647,9009 28650,9020 28656,9012 28668,9000 28671,9004 28686,8989 28689,8996 28692,8989 28698,8983 28701,8981 28704,8983 28710,8977 28722,8973 28725,8967 28740,8959 28743,8965 28746,8955 28749,8955 28758,8950 28773,8945 28776,8938 28800,8920 28818,8911 28821,8918 28824,8918 28827,8909 28833,8903 28845,8895 28848,8902 28851,8897 28854,8895 28869,8884 28875,8880 28890,8871 28893,8863 28896,8869 28902,8861 28923,8848 28926,8844 28929,8853 28932,8848 28941,8840 28944,8848 28947,8836 28953,8823 28956,8834 28959,8825 28968,8818 28971,8825 28974,8817 28977,8810 28989,8808 29004,8799 29013,8791 29019,8786 29028,8793 29031,8779 29040,8776 29055,8771 29061,8758 29079,8751 29085,8742 29091,8747 29097,8738 29106,8736 29109,8732 29112,8736 29118,8732 29130,8721 29133,8723 29139,8719 29151,8705 29154,8714 29157,8705 29160,8701 29163,8707 29169,8697 29181,8692 29187,8688 29196,8678 29199,8681 29205,8676 29208,8676 29214,8667 29217,8671 29220,8662 29223,8674 29226,8660 29232,8660 29235,8656 29238,8658 29241,8654 29244,8658 29250,8651 29259,8642 29274,8635 29283,8626 29289,8623 29292,8626 29295,8619 29307,8609 29310,8617 29316,8611 29322,8616 29325,8601 29334,8597 29337,8592 29340,8599 29343,8592 29361,8587 29364,8580 29370,8585 29373,8571 29382,8567 29385,8567 29394,8557 29400,8564 29403,8559 29412,8547 29415,8555 29418,8562 29421,8545 29427,8550 29430,8545 29436,8538 29449,8526 29452,8533 29455,8524 29461,8512 29464,8524 29470,8514 29473,8519 29479,8510 29488,8507 29491,8505 29497,8493 29500,8496 29512,8493 29515,8488 29518,8483 29533,8484 29536,8474 29539,8474 29542,8472 29554,8457 29557,8465 29563,8455 29566,8457 29572,8447 29590,8435 29593,8447 29596,8440 29608,8428 29611,8431 29617,8428 29623,8416 29641,8416 29644,8400 29656,8408 29659,8395 29662,8403 29668,8388 29680,8385 29686,8388 29689,8384 29695,8374 29698,8377 29704,8369 29716,8361 29719,8361 29731,8351 29734,8356 29740,8351 29746,8343 29755,8338 29761,8343 29764,8337 29770,8334 29773,8331 29797,8316 29806,8305 29815,8313 29818,8308 29821,8300"/>
 <text class="TextShape"><tspan class="TextParagraph" font-family="Liberation Sans" font-size="353px" font-weight="400"><tspan class="TextPosition" x="1021" y="21187"><tspan fill="rgb(0,0,0)" stroke="none">17.07.2016 13:55:12</tspan></tspan></tspan></text>
 <text class="TextShape"><tspan class="TextParagraph" font-family="Liberation Sans" font-size="353px" font-weight="400"><tspan class="TextPosition" x="6211" y="21187"><tspan fill="rgb(0,0,0)" stroke="none">17.07.2016 14:24:00</tspan></tspan></tspan></text>
 <text class="TextShape"><tspan class="TextParagraph" font-family="Liberation Sans" font-size="353px" font-weight="400"><tspan class="TextPosition" x="11401" y="21187"><tspan fill="rgb(0,0,0)" stroke="none">17.07.2016 14:52:48</tspan></tspan></tspan></text>
 <text class="TextShape"><tspan class="TextParagraph" font-family="Liberation Sans" font-size="353px" font-weight="400"><tspan class="TextPosition" x="16592" y="21187"><tspan fill="rgb(0,0,0)" stroke="none">17.07.2016 15:21:36</tspan></tspan></tspan></text>
 <text class="TextShape"><tspan class="TextParagraph" font-family="Liberation Sans" font-size="353px" font-weight="400"><tspan class="TextPosition" x="21782" y="21187"><tspan fill="rgb(0,0,0)" stroke="none">17.07.2016 15:50:24</tspan></tspan></tspan></text>
 <text class="TextShape"><tspan class="TextParagraph" font-family="Liberation Sans" font-size="353px" font-weight="400"><tspan class="TextPosition" x="26972" y="21187"><tspan fill="rgb(0,0,0)" stroke="none">17.07.2016 16:19:12</tspan></tspan></tspan></text>
 <text class="TextShape"><tspan class="TextParagraph" font-family="Liberation Sans" font-size="353px" font-weight="400"><tspan class="TextPosition" x="32163" y="21187"><tspan fill="rgb(0,0,0)" stroke="none">17.07.2016 16:48:00</tspan></tspan></tspan></text>
 <text class="TextShape"><tspan class="TextParagraph" font-family="Liberation Sans" font-size="353px" font-weight="400"><tspan class="TextPosition" x="37353" y="21187"><tspan fill="rgb(0,0,0)" stroke="none">17.07.2016 17:16:48</tspan></tspan></tspan></text>
 <text class="TextShape"><tspan class="TextParagraph" font-family="Liberation Sans" font-size="353px" font-weight="400"><tspan class="TextPosition" x="42544" y="21187"><tspan fill="rgb(0,0,0)" stroke="none">17.07.2016 17:45:36</tspan></tspan></tspan></text>
 <text class="TextShape"><tspan class="TextParagraph" font-family="Liberation Sans" font-size="353px" font-weight="400"><tspan class="TextPosition" x="1021" y="753"><tspan fill="rgb(0,0,0)" stroke="none">17.07.2016 13:55:12</tspan></tspan></tspan></text>
 <text class="TextShape"><tspan class="TextParagraph" font-family="Liberation Sans" font-size="353px" font-weight="400"><tspan class="TextPosition" x="6211" y="753"><tspan fill="rgb(0,0,0)" stroke="none">17.07.2016 14:24:00</tspan></tspan></tspan></text>
 <text class="TextShape"><tspan class="TextParagraph" font-family="Liberation Sans" font-size="353px" font-weight="400"><tspan class="TextPosition" x="11401" y="753"><tspan fill="rgb(0,0,0)" stroke="none">17.07.2016 14:52:48</tspan></tspan></tspan></text>
 <text class="TextShape"><tspan class="TextParagraph" font-family="Liberation Sans" font-size="353px" font-weight="400"><tspan class="TextPosition" x="16592" y="753"><tspan fill="rgb(0,0,0)" stroke="none">17.07.2016 15:21:36</tspan></tspan></tspan></text>
 <text class="TextShape"><tspan class="TextParagraph" font-family="Liberation Sans" font-size="353px" font-weight="400"><tspan class="TextPosition" x="21782" y="753"><tspan fill="rgb(0,0,0)" stroke="none">17.07.2016 15:50:24</tspan></tspan></tspan></text>
 <text class="TextShape"><tspan class="TextParagraph" font-family="Liberation Sans" font-size="353px" font-weight="400"><tspan class="TextPosition" x="26972" y="753"><tspan fill="rgb(0,0,0)" stroke="none">17.07.2016 16:19:12</tspan></tspan></tspan></text>
 <text class="TextShape"><tspan class="TextParagraph" font-family="Liberation Sans" font-size="353px" font-weight="400"><tspan class="TextPosition" x="32163" y="753"><tspan fill="rgb(0,0,0)" stroke="none">17.07.2016 16:48:00</tspan></tspan></tspan></text>
 <text class="TextShape"><tspan class="TextParagraph" font-family="Liberation Sans" font-size="353px" font-weight="400"><tspan class="TextPosition" x="37353" y="753"><tspan fill="rgb(0,0,0)" stroke="none">17.07.2016 17:16:48</tspan></tspan></tspan></text>
 <text class="TextShape"><tspan class="TextParagraph" font-family="Liberation Sans" font-size="353px" font-weight="400"><tspan class="TextPosition" x="42544" y="753"><tspan fill="rgb(0,0,0)" stroke="none">17.07.2016 17:45:36</tspan></tspan></tspan></text>
 <text class="TextShape"><tspan class="TextParagraph" font-family="Liberation Sans" font-size="353px" font-weight="400"><tspan class="TextPosition" x="2147" y="20740"><tspan fill="rgb(0,0,0)" stroke="none">0</tspan></tspan></tspan></text>
 <text class="TextShape"><tspan class="TextParagraph" font-family="Liberation Sans" font-size="353px" font-weight="400"><tspan class="TextPosition" x="1591" y="17948"><tspan fill="rgb(0,0,0)" stroke="none">5000</tspan></tspan></tspan></text>
 <text class="TextShape"><tspan class="TextParagraph" font-family="Liberation Sans" font-size="353px" font-weight="400"><tspan class="TextPosition" x="1406" y="15157"><tspan fill="rgb(0,0,0)" stroke="none">10000</tspan></tspan></tspan></text>
 <text class="TextShape"><tspan class="TextParagraph" font-family="Liberation Sans" font-size="353px" font-weight="400"><tspan class="TextPosition" x="1406" y="12366"><tspan fill="rgb(0,0,0)" stroke="none">15000</tspan></tspan></tspan></text>
 <text class="TextShape"><tspan class="TextParagraph" font-family="Liberation Sans" font-size="353px" font-weight="400"><tspan class="TextPosition" x="1406" y="9574"><tspan fill="rgb(0,0,0)" stroke="none">20000</tspan></tspan></tspan></text>
 <text class="TextShape"><tspan class="TextParagraph" font-family="Liberation Sans" font-size="353px" font-weight="400"><tspan class="TextPosition" x="1406" y="6783"><tspan fill="rgb(0,0,0)" stroke="none">25000</tspan></tspan></tspan></text>
 <text class="TextShape"><tspan class="TextParagraph" font-family="Liberation Sans" font-size="353px" font-weight="400"><tspan class="TextPosition" x="1406" y="3992"><tspan fill="rgb(0,0,0)" stroke="none">30000</tspan></tspan></tspan></text>
 <text class="TextShape"><tspan class="TextParagraph" font-family="Liberation Sans" font-size="353px" font-weight="400"><tspan class="TextPosition" x="1406" y="1201"><tspan fill="rgb(0,0,0)" stroke="none">35000</tspan></tspan></tspan></text>
 <path fill="none" stroke="rgb(0,69,134)" stroke-width="80" stroke-linejoin="round" d="M 46804,10601 L 47604,10601"/>
 <path fill="none" stroke="rgb(255,66,14)" stroke-width="80" stroke-linejoin="round" d="M 46804,11098 L 47604,11098"/>
 <text class="TextShape"><tspan class="TextParagraph" font-family="Liberation Sans" font-size="353px" font-weight="400"><tspan class="TextPosition" x="47704" y="10721"><tspan fill="rgb(0,0,0)" stroke="none">Höhe</tspan></tspan></tspan></text>
 <text class="TextShape"><tspan class="TextParagraph" font-family="Liberation Sans" font-size="353px" font-weight="400"><tspan class="TextPosition" x="47704" y="11218"><tspan fill="rgb(0,0,0)" stroke="none">APRS Höhe (Meter)</tspan></tspan></tspan></text>
</svg>