G04 #@! TF.FileFunction,Soldermask,Bot*
%FSLAX46Y46*%
G04 Gerber Fmt 4.6, Leading zero omitted, Abs format (unit mm)*
G04 Created by KiCad (PCBNEW 0.201508170901+6097~28~ubuntu14.04.1-product) date Sa 22 Aug 2015 10:06:58 CEST*
%MOMM*%
G01*
G04 APERTURE LIST*
%ADD10C,0.100000*%
%ADD11R,2.432000X2.127200*%
%ADD12O,2.432000X2.127200*%
%ADD13C,5.400000*%
%ADD14R,2.000200X1.568400*%
%ADD15R,2.432000X2.432000*%
%ADD16O,2.432000X2.432000*%
%ADD17R,2.127200X2.127200*%
%ADD18O,2.127200X2.127200*%
%ADD19R,2.127200X2.432000*%
%ADD20O,2.127200X2.432000*%
%ADD21C,1.901140*%
%ADD22C,6.400000*%
%ADD23C,1.200000*%
G04 APERTURE END LIST*
D10*
D11*
X134290000Y-80480000D03*
D12*
X134290000Y-83020000D03*
X134290000Y-85560000D03*
X134290000Y-88100000D03*
X134290000Y-90640000D03*
X134290000Y-93180000D03*
X134290000Y-95720000D03*
X134290000Y-98260000D03*
D13*
X146990000Y-81160000D03*
D14*
X130800000Y-97124000D03*
X130800000Y-95600000D03*
X130800000Y-94076000D03*
D15*
X107620000Y-60160000D03*
D16*
X105080000Y-60160000D03*
D17*
X107620000Y-88100000D03*
D18*
X105080000Y-88100000D03*
X107620000Y-85560000D03*
X105080000Y-85560000D03*
X107620000Y-83020000D03*
X105080000Y-83020000D03*
D19*
X120320000Y-57620000D03*
D20*
X117780000Y-57620000D03*
X115240000Y-57620000D03*
D19*
X140640000Y-52540000D03*
D20*
X138100000Y-52540000D03*
X135560000Y-52540000D03*
X133020000Y-52540000D03*
X130480000Y-52540000D03*
X127940000Y-52540000D03*
X125400000Y-52540000D03*
D19*
X120320000Y-52540000D03*
D20*
X117780000Y-52540000D03*
X115240000Y-52540000D03*
X112700000Y-52540000D03*
X110160000Y-52540000D03*
X107620000Y-52540000D03*
X105080000Y-52540000D03*
X102540000Y-52540000D03*
D15*
X140640000Y-60160000D03*
D16*
X140640000Y-57620000D03*
D11*
X138100000Y-65240000D03*
D12*
X138100000Y-67780000D03*
X138100000Y-70320000D03*
X138100000Y-72860000D03*
X138100000Y-75400000D03*
D11*
X143180000Y-65240000D03*
D12*
X143180000Y-67780000D03*
X143180000Y-70320000D03*
X143180000Y-72860000D03*
X143180000Y-75400000D03*
D11*
X148260000Y-65240000D03*
D12*
X148260000Y-67780000D03*
X148260000Y-70320000D03*
X148260000Y-72860000D03*
X148260000Y-75400000D03*
D21*
X105159060Y-78400000D03*
X110040940Y-78400000D03*
D19*
X117780000Y-77940000D03*
D20*
X120320000Y-77940000D03*
X122860000Y-77940000D03*
X125400000Y-77940000D03*
X127940000Y-77940000D03*
X130480000Y-77940000D03*
D22*
X145000000Y-55000000D03*
X105000000Y-95000000D03*
D23*
X119200000Y-63200000D03*
X110800000Y-83200000D03*
M02*
