G04 #@! TF.FileFunction,Legend,Bot*
%FSLAX46Y46*%
G04 Gerber Fmt 4.6, Leading zero omitted, Abs format (unit mm)*
G04 Created by KiCad (PCBNEW 0.201508170901+6097~28~ubuntu14.04.1-product) date Sa 22 Aug 2015 10:06:58 CEST*
%MOMM*%
G01*
G04 APERTURE LIST*
%ADD10C,0.100000*%
%ADD11C,0.300000*%
%ADD12C,0.150000*%
%ADD13C,0.066040*%
%ADD14C,0.152400*%
%ADD15C,1.270000*%
%ADD16C,0.004445*%
%ADD17C,0.088900*%
G04 APERTURE END LIST*
D10*
D11*
X138154762Y-83028570D02*
X139773810Y-83028570D01*
X139964286Y-83123809D01*
X140059524Y-83219047D01*
X140154762Y-83409523D01*
X140154762Y-83790475D01*
X140059524Y-83980951D01*
X139964286Y-84076190D01*
X139773810Y-84171428D01*
X138154762Y-84171428D01*
X138821429Y-85980951D02*
X140440476Y-85980951D01*
X140630952Y-85885713D01*
X140726190Y-85790475D01*
X140821429Y-85599999D01*
X140821429Y-85314285D01*
X140726190Y-85123808D01*
X140059524Y-85980951D02*
X140154762Y-85790475D01*
X140154762Y-85409523D01*
X140059524Y-85219047D01*
X139964286Y-85123808D01*
X139773810Y-85028570D01*
X139202381Y-85028570D01*
X139011905Y-85123808D01*
X138916667Y-85219047D01*
X138821429Y-85409523D01*
X138821429Y-85790475D01*
X138916667Y-85980951D01*
X140154762Y-87219047D02*
X140059524Y-87028571D01*
X139964286Y-86933332D01*
X139773810Y-86838094D01*
X139202381Y-86838094D01*
X139011905Y-86933332D01*
X138916667Y-87028571D01*
X138821429Y-87219047D01*
X138821429Y-87504761D01*
X138916667Y-87695237D01*
X139011905Y-87790475D01*
X139202381Y-87885713D01*
X139773810Y-87885713D01*
X139964286Y-87790475D01*
X140059524Y-87695237D01*
X140154762Y-87504761D01*
X140154762Y-87219047D01*
X140059524Y-89504761D02*
X140154762Y-89314285D01*
X140154762Y-88933333D01*
X140059524Y-88742856D01*
X139869048Y-88647618D01*
X139107143Y-88647618D01*
X138916667Y-88742856D01*
X138821429Y-88933333D01*
X138821429Y-89314285D01*
X138916667Y-89504761D01*
X139107143Y-89599999D01*
X139297619Y-89599999D01*
X139488095Y-88647618D01*
X140059524Y-90361904D02*
X140154762Y-90552381D01*
X140154762Y-90933333D01*
X140059524Y-91123809D01*
X139869048Y-91219047D01*
X139773810Y-91219047D01*
X139583333Y-91123809D01*
X139488095Y-90933333D01*
X139488095Y-90647619D01*
X139392857Y-90457142D01*
X139202381Y-90361904D01*
X139107143Y-90361904D01*
X138916667Y-90457142D01*
X138821429Y-90647619D01*
X138821429Y-90933333D01*
X138916667Y-91123809D01*
X140059524Y-91980952D02*
X140154762Y-92266667D01*
X140154762Y-92742857D01*
X140059524Y-92933333D01*
X139964286Y-93028571D01*
X139773810Y-93123810D01*
X139583333Y-93123810D01*
X139392857Y-93028571D01*
X139297619Y-92933333D01*
X139202381Y-92742857D01*
X139107143Y-92361905D01*
X139011905Y-92171429D01*
X138916667Y-92076190D01*
X138726190Y-91980952D01*
X138535714Y-91980952D01*
X138345238Y-92076190D01*
X138250000Y-92171429D01*
X138154762Y-92361905D01*
X138154762Y-92838095D01*
X138250000Y-93123810D01*
X140154762Y-93980952D02*
X138154762Y-93980952D01*
X139392857Y-94171429D02*
X140154762Y-94742857D01*
X138821429Y-94742857D02*
X139583333Y-93980952D01*
X138821429Y-95409524D02*
X140154762Y-95885715D01*
X138821429Y-96361905D02*
X140154762Y-95885715D01*
X140630952Y-95695239D01*
X140726190Y-95600000D01*
X140821429Y-95409524D01*
X143254762Y-81980952D02*
X141254762Y-81980952D01*
X141254762Y-82457143D01*
X141350000Y-82742857D01*
X141540476Y-82933333D01*
X141730952Y-83028572D01*
X142111905Y-83123810D01*
X142397619Y-83123810D01*
X142778571Y-83028572D01*
X142969048Y-82933333D01*
X143159524Y-82742857D01*
X143254762Y-82457143D01*
X143254762Y-81980952D01*
X143254762Y-84838095D02*
X142207143Y-84838095D01*
X142016667Y-84742857D01*
X141921429Y-84552381D01*
X141921429Y-84171429D01*
X142016667Y-83980952D01*
X143159524Y-84838095D02*
X143254762Y-84647619D01*
X143254762Y-84171429D01*
X143159524Y-83980952D01*
X142969048Y-83885714D01*
X142778571Y-83885714D01*
X142588095Y-83980952D01*
X142492857Y-84171429D01*
X142492857Y-84647619D01*
X142397619Y-84838095D01*
X141921429Y-85504762D02*
X141921429Y-86266667D01*
X141254762Y-85790476D02*
X142969048Y-85790476D01*
X143159524Y-85885715D01*
X143254762Y-86076191D01*
X143254762Y-86266667D01*
X143254762Y-87790476D02*
X142207143Y-87790476D01*
X142016667Y-87695238D01*
X141921429Y-87504762D01*
X141921429Y-87123810D01*
X142016667Y-86933333D01*
X143159524Y-87790476D02*
X143254762Y-87600000D01*
X143254762Y-87123810D01*
X143159524Y-86933333D01*
X142969048Y-86838095D01*
X142778571Y-86838095D01*
X142588095Y-86933333D01*
X142492857Y-87123810D01*
X142492857Y-87600000D01*
X142397619Y-87790476D01*
X143254762Y-89028572D02*
X143159524Y-88838096D01*
X142969048Y-88742857D01*
X141254762Y-88742857D01*
X143254762Y-90076191D02*
X143159524Y-89885715D01*
X143064286Y-89790476D01*
X142873810Y-89695238D01*
X142302381Y-89695238D01*
X142111905Y-89790476D01*
X142016667Y-89885715D01*
X141921429Y-90076191D01*
X141921429Y-90361905D01*
X142016667Y-90552381D01*
X142111905Y-90647619D01*
X142302381Y-90742857D01*
X142873810Y-90742857D01*
X143064286Y-90647619D01*
X143159524Y-90552381D01*
X143254762Y-90361905D01*
X143254762Y-90076191D01*
X141921429Y-92457143D02*
X143540476Y-92457143D01*
X143730952Y-92361905D01*
X143826190Y-92266667D01*
X143921429Y-92076191D01*
X143921429Y-91790477D01*
X143826190Y-91600000D01*
X143159524Y-92457143D02*
X143254762Y-92266667D01*
X143254762Y-91885715D01*
X143159524Y-91695239D01*
X143064286Y-91600000D01*
X142873810Y-91504762D01*
X142302381Y-91504762D01*
X142111905Y-91600000D01*
X142016667Y-91695239D01*
X141921429Y-91885715D01*
X141921429Y-92266667D01*
X142016667Y-92457143D01*
X141921429Y-94266667D02*
X143540476Y-94266667D01*
X143730952Y-94171429D01*
X143826190Y-94076191D01*
X143921429Y-93885715D01*
X143921429Y-93600001D01*
X143826190Y-93409524D01*
X143159524Y-94266667D02*
X143254762Y-94076191D01*
X143254762Y-93695239D01*
X143159524Y-93504763D01*
X143064286Y-93409524D01*
X142873810Y-93314286D01*
X142302381Y-93314286D01*
X142111905Y-93409524D01*
X142016667Y-93504763D01*
X141921429Y-93695239D01*
X141921429Y-94076191D01*
X142016667Y-94266667D01*
X143159524Y-95980953D02*
X143254762Y-95790477D01*
X143254762Y-95409525D01*
X143159524Y-95219048D01*
X142969048Y-95123810D01*
X142207143Y-95123810D01*
X142016667Y-95219048D01*
X141921429Y-95409525D01*
X141921429Y-95790477D01*
X142016667Y-95980953D01*
X142207143Y-96076191D01*
X142397619Y-96076191D01*
X142588095Y-95123810D01*
X143254762Y-96933334D02*
X141921429Y-96933334D01*
X142302381Y-96933334D02*
X142111905Y-97028573D01*
X142016667Y-97123811D01*
X141921429Y-97314287D01*
X141921429Y-97504763D01*
D12*
X112252381Y-85652381D02*
X112585715Y-85176190D01*
X112823810Y-85652381D02*
X112823810Y-84652381D01*
X112442857Y-84652381D01*
X112347619Y-84700000D01*
X112300000Y-84747619D01*
X112252381Y-84842857D01*
X112252381Y-84985714D01*
X112300000Y-85080952D01*
X112347619Y-85128571D01*
X112442857Y-85176190D01*
X112823810Y-85176190D01*
X111823810Y-85128571D02*
X111490476Y-85128571D01*
X111347619Y-85652381D02*
X111823810Y-85652381D01*
X111823810Y-84652381D01*
X111347619Y-84652381D01*
X110966667Y-85604762D02*
X110823810Y-85652381D01*
X110585714Y-85652381D01*
X110490476Y-85604762D01*
X110442857Y-85557143D01*
X110395238Y-85461905D01*
X110395238Y-85366667D01*
X110442857Y-85271429D01*
X110490476Y-85223810D01*
X110585714Y-85176190D01*
X110776191Y-85128571D01*
X110871429Y-85080952D01*
X110919048Y-85033333D01*
X110966667Y-84938095D01*
X110966667Y-84842857D01*
X110919048Y-84747619D01*
X110871429Y-84700000D01*
X110776191Y-84652381D01*
X110538095Y-84652381D01*
X110395238Y-84700000D01*
X109966667Y-85128571D02*
X109633333Y-85128571D01*
X109490476Y-85652381D02*
X109966667Y-85652381D01*
X109966667Y-84652381D01*
X109490476Y-84652381D01*
X109204762Y-84652381D02*
X108633333Y-84652381D01*
X108919048Y-85652381D02*
X108919048Y-84652381D01*
D13*
X130038000Y-96108000D02*
X130038000Y-95092000D01*
X130038000Y-95092000D02*
X131562000Y-95092000D01*
X131562000Y-96108000D02*
X131562000Y-95092000D01*
X130038000Y-96108000D02*
X131562000Y-96108000D01*
D14*
X129784000Y-93441000D02*
X129784000Y-97759000D01*
X130038000Y-93187000D02*
X131562000Y-93187000D01*
X130038000Y-98013000D02*
X131562000Y-98013000D01*
X131816000Y-97759000D02*
X131816000Y-93441000D01*
X130800000Y-93822000D02*
X130800000Y-93314000D01*
X130800000Y-97378000D02*
X130800000Y-97886000D01*
X131562000Y-95600000D02*
X131816000Y-95600000D01*
X129784000Y-95600000D02*
X130038000Y-95600000D01*
X131562000Y-93187000D02*
G75*
G02X131816000Y-93441000I0J-254000D01*
G01*
X131816000Y-97759000D02*
G75*
G02X131562000Y-98013000I-254000J0D01*
G01*
X130038000Y-98013000D02*
G75*
G02X129784000Y-97759000I0J254000D01*
G01*
X129784000Y-93441000D02*
G75*
G02X130038000Y-93187000I254000J0D01*
G01*
D15*
X130673000Y-94584000D02*
G75*
G02X130927000Y-94584000I127000J0D01*
G01*
X130927000Y-96616000D02*
G75*
G02X130673000Y-96616000I-127000J0D01*
G01*
D16*
X102782643Y-67190638D02*
X102797037Y-67190638D01*
X102798730Y-67189791D01*
X102799577Y-67188944D01*
X102800423Y-67187251D01*
X102800423Y-67183864D01*
X102799577Y-67182171D01*
X102798730Y-67181324D01*
X102797037Y-67180478D01*
X102782643Y-67180478D01*
X102800423Y-67172011D02*
X102788570Y-67172011D01*
X102791957Y-67172011D02*
X102790263Y-67171164D01*
X102789417Y-67170317D01*
X102788570Y-67168624D01*
X102788570Y-67166931D01*
X102799577Y-67154230D02*
X102800423Y-67155924D01*
X102800423Y-67159310D01*
X102799577Y-67161004D01*
X102797883Y-67161850D01*
X102791110Y-67161850D01*
X102789417Y-67161004D01*
X102788570Y-67159310D01*
X102788570Y-67155924D01*
X102789417Y-67154230D01*
X102791110Y-67153384D01*
X102792803Y-67153384D01*
X102794497Y-67161850D01*
X102788570Y-67138144D02*
X102802963Y-67138144D01*
X102804657Y-67138990D01*
X102805503Y-67139837D01*
X102806350Y-67141530D01*
X102806350Y-67144070D01*
X102805503Y-67145764D01*
X102799577Y-67138144D02*
X102800423Y-67139837D01*
X102800423Y-67143224D01*
X102799577Y-67144917D01*
X102798730Y-67145764D01*
X102797037Y-67146610D01*
X102791957Y-67146610D01*
X102790263Y-67145764D01*
X102789417Y-67144917D01*
X102788570Y-67143224D01*
X102788570Y-67139837D01*
X102789417Y-67138144D01*
X102791110Y-67116130D02*
X102791110Y-67110203D01*
X102800423Y-67107663D02*
X102800423Y-67116130D01*
X102782643Y-67116130D01*
X102782643Y-67107663D01*
X102800423Y-67100043D02*
X102782643Y-67100043D01*
X102800423Y-67089883D01*
X102782643Y-67089883D01*
D17*
D12*
X128252381Y-94766667D02*
X128966667Y-94766667D01*
X129109524Y-94719047D01*
X129204762Y-94623809D01*
X129252381Y-94480952D01*
X129252381Y-94385714D01*
X129252381Y-95242857D02*
X128252381Y-95242857D01*
X128252381Y-95623810D01*
X128300000Y-95719048D01*
X128347619Y-95766667D01*
X128442857Y-95814286D01*
X128585714Y-95814286D01*
X128680952Y-95766667D01*
X128728571Y-95719048D01*
X128776190Y-95623810D01*
X128776190Y-95242857D01*
X128347619Y-96195238D02*
X128300000Y-96242857D01*
X128252381Y-96338095D01*
X128252381Y-96576191D01*
X128300000Y-96671429D01*
X128347619Y-96719048D01*
X128442857Y-96766667D01*
X128538095Y-96766667D01*
X128680952Y-96719048D01*
X129252381Y-96147619D01*
X129252381Y-96766667D01*
X120652381Y-65252381D02*
X120985715Y-64776190D01*
X121223810Y-65252381D02*
X121223810Y-64252381D01*
X120842857Y-64252381D01*
X120747619Y-64300000D01*
X120700000Y-64347619D01*
X120652381Y-64442857D01*
X120652381Y-64585714D01*
X120700000Y-64680952D01*
X120747619Y-64728571D01*
X120842857Y-64776190D01*
X121223810Y-64776190D01*
X120223810Y-64728571D02*
X119890476Y-64728571D01*
X119747619Y-65252381D02*
X120223810Y-65252381D01*
X120223810Y-64252381D01*
X119747619Y-64252381D01*
X119366667Y-65204762D02*
X119223810Y-65252381D01*
X118985714Y-65252381D01*
X118890476Y-65204762D01*
X118842857Y-65157143D01*
X118795238Y-65061905D01*
X118795238Y-64966667D01*
X118842857Y-64871429D01*
X118890476Y-64823810D01*
X118985714Y-64776190D01*
X119176191Y-64728571D01*
X119271429Y-64680952D01*
X119319048Y-64633333D01*
X119366667Y-64538095D01*
X119366667Y-64442857D01*
X119319048Y-64347619D01*
X119271429Y-64300000D01*
X119176191Y-64252381D01*
X118938095Y-64252381D01*
X118795238Y-64300000D01*
X118366667Y-64728571D02*
X118033333Y-64728571D01*
X117890476Y-65252381D02*
X118366667Y-65252381D01*
X118366667Y-64252381D01*
X117890476Y-64252381D01*
X117604762Y-64252381D02*
X117033333Y-64252381D01*
X117319048Y-65252381D02*
X117319048Y-64252381D01*
M02*
