G04 #@! TF.FileFunction,Copper,L1,Top,Signal*
%FSLAX46Y46*%
G04 Gerber Fmt 4.6, Leading zero omitted, Abs format (unit mm)*
G04 Created by KiCad (PCBNEW 4.0.0-rc1-stable) date Sa 26 Sep 2015 08:23:03 CEST*
%MOMM*%
G01*
G04 APERTURE LIST*
%ADD10C,0.100000*%
%ADD11R,2.032000X1.727200*%
%ADD12O,2.032000X1.727200*%
%ADD13C,5.000000*%
%ADD14R,1.500000X1.250000*%
%ADD15R,1.250000X1.500000*%
%ADD16R,1.600000X0.550000*%
%ADD17R,0.550000X1.600000*%
%ADD18R,1.600200X1.168400*%
%ADD19R,2.032000X2.032000*%
%ADD20O,2.032000X2.032000*%
%ADD21R,1.727200X1.727200*%
%ADD22O,1.727200X1.727200*%
%ADD23R,1.727200X2.032000*%
%ADD24O,1.727200X2.032000*%
%ADD25R,1.450000X2.000000*%
%ADD26R,0.800000X1.500000*%
%ADD27R,1.300000X1.500000*%
%ADD28R,0.650000X1.060000*%
%ADD29C,1.501140*%
%ADD30C,6.000000*%
%ADD31C,0.800000*%
%ADD32C,0.600000*%
%ADD33C,0.500000*%
%ADD34C,0.254000*%
G04 APERTURE END LIST*
D10*
D11*
X134290000Y-80480000D03*
D12*
X134290000Y-83020000D03*
X134290000Y-85560000D03*
X134290000Y-88100000D03*
X134290000Y-90640000D03*
X134290000Y-93180000D03*
X134290000Y-95720000D03*
X134290000Y-98260000D03*
D13*
X146990000Y-81160000D03*
D14*
X107650000Y-64000000D03*
X105150000Y-64000000D03*
X107650000Y-72000000D03*
X105150000Y-72000000D03*
D15*
X111600000Y-66450000D03*
X111600000Y-63950000D03*
X111600000Y-71250000D03*
X111600000Y-68750000D03*
X127600000Y-69650000D03*
X127600000Y-67150000D03*
X130400000Y-69650000D03*
X130400000Y-67150000D03*
D14*
X108750000Y-74800000D03*
X111250000Y-74800000D03*
X116050000Y-74800000D03*
X113550000Y-74800000D03*
D15*
X112800000Y-83150000D03*
X112800000Y-85650000D03*
D16*
X115350000Y-64800000D03*
X115350000Y-65600000D03*
X115350000Y-66400000D03*
X115350000Y-67200000D03*
X115350000Y-68000000D03*
X115350000Y-68800000D03*
X115350000Y-69600000D03*
X115350000Y-70400000D03*
D17*
X116800000Y-71850000D03*
X117600000Y-71850000D03*
X118400000Y-71850000D03*
X119200000Y-71850000D03*
X120000000Y-71850000D03*
X120800000Y-71850000D03*
X121600000Y-71850000D03*
X122400000Y-71850000D03*
D16*
X123850000Y-70400000D03*
X123850000Y-69600000D03*
X123850000Y-68800000D03*
X123850000Y-68000000D03*
X123850000Y-67200000D03*
X123850000Y-66400000D03*
X123850000Y-65600000D03*
X123850000Y-64800000D03*
D17*
X122400000Y-63350000D03*
X121600000Y-63350000D03*
X120800000Y-63350000D03*
X120000000Y-63350000D03*
X119200000Y-63350000D03*
X118400000Y-63350000D03*
X117600000Y-63350000D03*
X116800000Y-63350000D03*
D18*
X102800000Y-68362000D03*
X102800000Y-66838000D03*
D19*
X105080000Y-57620000D03*
D20*
X102540000Y-57620000D03*
D21*
X107620000Y-88100000D03*
D22*
X105080000Y-88100000D03*
X107620000Y-85560000D03*
X105080000Y-85560000D03*
X107620000Y-83020000D03*
X105080000Y-83020000D03*
D23*
X120320000Y-57620000D03*
D24*
X117780000Y-57620000D03*
X115240000Y-57620000D03*
D23*
X140640000Y-52540000D03*
D24*
X138100000Y-52540000D03*
X135560000Y-52540000D03*
X133020000Y-52540000D03*
X130480000Y-52540000D03*
X127940000Y-52540000D03*
X125400000Y-52540000D03*
D23*
X120320000Y-52540000D03*
D24*
X117780000Y-52540000D03*
X115240000Y-52540000D03*
X112700000Y-52540000D03*
X110160000Y-52540000D03*
X107620000Y-52540000D03*
X105080000Y-52540000D03*
X102540000Y-52540000D03*
D19*
X140640000Y-60160000D03*
D20*
X140640000Y-57620000D03*
D11*
X138100000Y-65240000D03*
D12*
X138100000Y-67780000D03*
X138100000Y-70320000D03*
X138100000Y-72860000D03*
X138100000Y-75400000D03*
D11*
X143180000Y-65240000D03*
D12*
X143180000Y-67780000D03*
X143180000Y-70320000D03*
X143180000Y-72860000D03*
X143180000Y-75400000D03*
D11*
X148260000Y-65240000D03*
D12*
X148260000Y-67780000D03*
X148260000Y-70320000D03*
X148260000Y-72860000D03*
X148260000Y-75400000D03*
D25*
X129675000Y-94150000D03*
X129675000Y-85850000D03*
X115925000Y-85850000D03*
X115925000Y-94150000D03*
D26*
X119600000Y-89250000D03*
X120700000Y-89250000D03*
X121800000Y-89250000D03*
X122900000Y-89250000D03*
X124000000Y-89250000D03*
X125100000Y-89250000D03*
X126200000Y-89250000D03*
X127300000Y-89250000D03*
D27*
X110800000Y-85750000D03*
X110800000Y-83050000D03*
X112800000Y-92650000D03*
X112800000Y-95350000D03*
X112800000Y-87850000D03*
X112800000Y-90550000D03*
X110800000Y-87850000D03*
X110800000Y-90550000D03*
X110800000Y-92650000D03*
X110800000Y-95350000D03*
D28*
X107350000Y-66900000D03*
X106400000Y-66900000D03*
X105450000Y-66900000D03*
X105450000Y-69100000D03*
X107350000Y-69100000D03*
D29*
X105159060Y-78400000D03*
X110040940Y-78400000D03*
D23*
X117780000Y-77940000D03*
D24*
X120320000Y-77940000D03*
X122860000Y-77940000D03*
X125400000Y-77940000D03*
X127940000Y-77940000D03*
X130480000Y-77940000D03*
D30*
X145000000Y-55000000D03*
X105000000Y-95000000D03*
D31*
X102800000Y-70000000D03*
X108800000Y-66800000D03*
X129600000Y-88000000D03*
X127600000Y-94000000D03*
X118000000Y-94000000D03*
X116000000Y-83600000D03*
X132400000Y-68800000D03*
X103200000Y-72000000D03*
X125200000Y-90800000D03*
X111200000Y-76400000D03*
X110000000Y-64000000D03*
X110000000Y-68800000D03*
X120800000Y-94800000D03*
X123000000Y-83200000D03*
X127600000Y-83200000D03*
X127600000Y-71200000D03*
X109600000Y-72800000D03*
D32*
X106000000Y-74800000D03*
X119200000Y-69600000D03*
X116800000Y-66400000D03*
X117600000Y-67200000D03*
X133200000Y-75200000D03*
X117600000Y-75200000D03*
X118400000Y-68000000D03*
X133200000Y-74000000D03*
X118400000Y-74000000D03*
X122400000Y-64800000D03*
X124000000Y-85600000D03*
X120400000Y-91600000D03*
X120000000Y-66800000D03*
X126400000Y-87200000D03*
X120800000Y-65600000D03*
D33*
X105080000Y-57620000D02*
X105080000Y-61430000D01*
X105080000Y-61430000D02*
X107650000Y-64000000D01*
X102800000Y-68362000D02*
X102800000Y-66838000D01*
X107350000Y-66900000D02*
X108700000Y-66900000D01*
X102800000Y-70000000D02*
X102800000Y-68362000D01*
X108700000Y-66900000D02*
X108800000Y-66800000D01*
X105450000Y-66900000D02*
X102862000Y-66900000D01*
X102862000Y-66900000D02*
X102800000Y-66838000D01*
X107350000Y-66900000D02*
X107350000Y-64300000D01*
X107350000Y-64300000D02*
X107650000Y-64000000D01*
X102540000Y-57620000D02*
X102540000Y-61390000D01*
X102540000Y-61390000D02*
X105150000Y-64000000D01*
X146990000Y-81160000D02*
X146990000Y-76670000D01*
X146990000Y-76670000D02*
X148260000Y-75400000D01*
X112800000Y-85650000D02*
X115725000Y-85650000D01*
X115725000Y-85650000D02*
X115925000Y-85850000D01*
X129675000Y-85850000D02*
X129675000Y-87925000D01*
X129675000Y-87925000D02*
X129600000Y-88000000D01*
X129675000Y-94150000D02*
X127750000Y-94150000D01*
X127750000Y-94150000D02*
X127600000Y-94000000D01*
X115925000Y-94150000D02*
X117850000Y-94150000D01*
X117850000Y-94150000D02*
X118000000Y-94000000D01*
X115925000Y-85850000D02*
X115925000Y-83675000D01*
X115925000Y-83675000D02*
X116000000Y-83600000D01*
X148260000Y-75400000D02*
X146800000Y-75400000D01*
X146800000Y-75400000D02*
X143180000Y-75400000D01*
X143180000Y-75400000D02*
X138100000Y-75400000D01*
X132400000Y-68800000D02*
X130750000Y-67150000D01*
X130750000Y-67150000D02*
X130400000Y-67150000D01*
X105150000Y-72000000D02*
X103200000Y-72000000D01*
X106400000Y-66900000D02*
X106400000Y-70750000D01*
X106400000Y-70750000D02*
X105150000Y-72000000D01*
X106400000Y-66900000D02*
X106400000Y-65250000D01*
X106400000Y-65250000D02*
X105150000Y-64000000D01*
X125100000Y-90700000D02*
X125100000Y-89250000D01*
X125200000Y-90800000D02*
X125100000Y-90700000D01*
X113550000Y-74800000D02*
X111250000Y-74800000D01*
X111250000Y-74800000D02*
X111200000Y-74850000D01*
X111200000Y-74850000D02*
X111200000Y-76400000D01*
X111600000Y-63950000D02*
X110050000Y-63950000D01*
X110050000Y-63950000D02*
X110000000Y-64000000D01*
X111600000Y-68750000D02*
X110050000Y-68750000D01*
X110050000Y-68750000D02*
X110000000Y-68800000D01*
X115350000Y-68000000D02*
X112350000Y-68000000D01*
X112350000Y-68000000D02*
X111600000Y-68750000D01*
X115350000Y-66400000D02*
X114050000Y-66400000D01*
X114050000Y-66400000D02*
X111600000Y-63950000D01*
X127600000Y-67150000D02*
X130400000Y-67150000D01*
X127550000Y-67200000D02*
X127600000Y-67150000D01*
X123850000Y-67200000D02*
X127550000Y-67200000D01*
X120800000Y-92650000D02*
X120800000Y-94800000D01*
X120950000Y-92650000D02*
X120800000Y-92650000D01*
X122900000Y-90700000D02*
X120950000Y-92650000D01*
X110800000Y-92650000D02*
X112800000Y-92650000D01*
X112800000Y-92650000D02*
X120800000Y-92650000D01*
X148260000Y-65240000D02*
X143180000Y-65240000D01*
X143180000Y-65240000D02*
X138100000Y-65240000D01*
X138100000Y-65240000D02*
X132140000Y-71200000D01*
X132140000Y-71200000D02*
X127600000Y-71200000D01*
X122900000Y-83300000D02*
X123000000Y-83200000D01*
X122900000Y-89250000D02*
X122900000Y-83300000D01*
X123000000Y-83200000D02*
X127600000Y-83200000D01*
X111600000Y-66450000D02*
X110750000Y-66450000D01*
X108800000Y-68400000D02*
X108800000Y-72000000D01*
X110750000Y-66450000D02*
X108800000Y-68400000D01*
X109600000Y-72800000D02*
X108800000Y-72000000D01*
X108800000Y-72000000D02*
X107650000Y-72000000D01*
X107350000Y-69100000D02*
X107350000Y-71700000D01*
X107350000Y-71700000D02*
X107650000Y-72000000D01*
X110800000Y-87850000D02*
X110800000Y-88000000D01*
X110800000Y-88000000D02*
X107890000Y-90910000D01*
X107890000Y-90910000D02*
X105080000Y-88100000D01*
X109630000Y-92650000D02*
X107890000Y-90910000D01*
X110800000Y-92650000D02*
X109630000Y-92650000D01*
X122900000Y-89250000D02*
X122900000Y-90700000D01*
X110800000Y-87850000D02*
X110550000Y-87850000D01*
X112800000Y-87850000D02*
X110800000Y-87850000D01*
X110800000Y-87850000D02*
X110800000Y-85750000D01*
X111600000Y-71250000D02*
X111150000Y-71250000D01*
X111150000Y-71250000D02*
X109600000Y-72800000D01*
X115350000Y-68800000D02*
X114050000Y-68800000D01*
X114050000Y-68800000D02*
X111600000Y-71250000D01*
X115350000Y-67200000D02*
X112350000Y-67200000D01*
X112350000Y-67200000D02*
X111600000Y-66450000D01*
X105080000Y-88100000D02*
X105080000Y-87880000D01*
X127600000Y-69650000D02*
X127600000Y-71200000D01*
X127550000Y-69600000D02*
X127600000Y-69650000D01*
X123850000Y-69600000D02*
X127550000Y-69600000D01*
X129150000Y-68400000D02*
X130400000Y-69650000D01*
X126400000Y-68400000D02*
X129150000Y-68400000D01*
X126000000Y-68000000D02*
X126400000Y-68400000D01*
X123850000Y-68000000D02*
X126000000Y-68000000D01*
X103200000Y-77600000D02*
X106000000Y-74800000D01*
X103200000Y-77600000D02*
X103200000Y-78600000D01*
X107620000Y-83020000D02*
X110770000Y-83020000D01*
X110770000Y-83020000D02*
X110800000Y-83050000D01*
X119200000Y-63350000D02*
X119200000Y-69600000D01*
X103200000Y-78600000D02*
X107620000Y-83020000D01*
X110800000Y-83050000D02*
X112700000Y-83050000D01*
X112700000Y-83050000D02*
X112800000Y-83150000D01*
X110770000Y-83020000D02*
X110800000Y-83050000D01*
X119200000Y-63350000D02*
X119200000Y-60000000D01*
X125400000Y-55400000D02*
X125400000Y-52540000D01*
X121600000Y-59200000D02*
X125400000Y-55400000D01*
X120000000Y-59200000D02*
X121600000Y-59200000D01*
X119200000Y-60000000D02*
X120000000Y-59200000D01*
X115350000Y-64800000D02*
X115350000Y-61350000D01*
X112700000Y-58700000D02*
X112700000Y-52540000D01*
X115350000Y-61350000D02*
X112700000Y-58700000D01*
X115350000Y-65600000D02*
X114244478Y-65600000D01*
X110160000Y-57760000D02*
X110160000Y-52540000D01*
X113200000Y-60800000D02*
X110160000Y-57760000D01*
X113200000Y-64555522D02*
X113200000Y-60800000D01*
X114244478Y-65600000D02*
X113200000Y-64555522D01*
X116800000Y-71850000D02*
X116800000Y-66400000D01*
X136400000Y-90000000D02*
X136400000Y-91070000D01*
X136400000Y-91070000D02*
X134290000Y-93180000D01*
X117600000Y-71850000D02*
X117600000Y-67200000D01*
X136400000Y-90000000D02*
X136400000Y-78400000D01*
X136400000Y-78400000D02*
X133200000Y-75200000D01*
X117600000Y-75200000D02*
X117600000Y-71850000D01*
X137600000Y-93600000D02*
X137600000Y-94950000D01*
X137600000Y-94950000D02*
X134290000Y-98260000D01*
X118400000Y-71850000D02*
X118400000Y-68000000D01*
X133200000Y-74000000D02*
X137600000Y-78400000D01*
X137600000Y-78400000D02*
X137600000Y-93600000D01*
X118400000Y-71850000D02*
X118400000Y-74000000D01*
X119200000Y-71850000D02*
X119200000Y-76520000D01*
X119200000Y-76520000D02*
X117780000Y-77940000D01*
X120000000Y-71850000D02*
X120000000Y-77620000D01*
X120000000Y-77620000D02*
X120320000Y-77940000D01*
X123850000Y-68800000D02*
X122800000Y-68800000D01*
X122400000Y-68400000D02*
X122400000Y-64800000D01*
X122800000Y-68800000D02*
X122400000Y-68400000D01*
X123850000Y-66400000D02*
X126000000Y-66400000D01*
X134780000Y-57620000D02*
X140640000Y-57620000D01*
X126000000Y-66400000D02*
X134780000Y-57620000D01*
X123850000Y-65600000D02*
X125600000Y-65600000D01*
X137580000Y-55600000D02*
X140640000Y-52540000D01*
X135600000Y-55600000D02*
X137580000Y-55600000D01*
X125600000Y-65600000D02*
X135600000Y-55600000D01*
X123850000Y-64800000D02*
X124800000Y-64800000D01*
X136240000Y-54400000D02*
X138100000Y-52540000D01*
X135200000Y-54400000D02*
X136240000Y-54400000D01*
X124800000Y-64800000D02*
X135200000Y-54400000D01*
X123850000Y-64800000D02*
X124400000Y-64800000D01*
X123850000Y-64800000D02*
X124000000Y-64800000D01*
X122400000Y-63350000D02*
X124750000Y-63350000D01*
X124750000Y-63350000D02*
X135560000Y-52540000D01*
X121600000Y-63350000D02*
X121600000Y-62000000D01*
X123960000Y-61600000D02*
X133020000Y-52540000D01*
X122000000Y-61600000D02*
X123960000Y-61600000D01*
X121600000Y-62000000D02*
X122000000Y-61600000D01*
X116800000Y-63350000D02*
X116800000Y-61600000D01*
X113600000Y-54180000D02*
X115240000Y-52540000D01*
X113600000Y-58400000D02*
X113600000Y-54180000D01*
X116800000Y-61600000D02*
X113600000Y-58400000D01*
X119600000Y-89250000D02*
X111150000Y-89250000D01*
X110800000Y-89600000D02*
X110800000Y-90550000D01*
X111150000Y-89250000D02*
X110800000Y-89600000D01*
X127300000Y-89250000D02*
X127300000Y-91900000D01*
X110800000Y-96400000D02*
X110800000Y-95350000D01*
X112000000Y-97600000D02*
X110800000Y-96400000D01*
X121600000Y-97600000D02*
X112000000Y-97600000D01*
X127300000Y-91900000D02*
X121600000Y-97600000D01*
X124000000Y-85600000D02*
X127200000Y-85600000D01*
X130480000Y-82320000D02*
X130480000Y-77940000D01*
X127200000Y-85600000D02*
X130480000Y-82320000D01*
X124000000Y-89250000D02*
X124000000Y-85600000D01*
X123850000Y-70400000D02*
X123850000Y-71310000D01*
X123850000Y-71310000D02*
X130480000Y-77940000D01*
X116050000Y-74800000D02*
X115600000Y-74800000D01*
X115600000Y-74800000D02*
X112000000Y-78400000D01*
X112000000Y-78400000D02*
X110040940Y-78400000D01*
X115350000Y-70400000D02*
X115350000Y-74100000D01*
X115350000Y-74100000D02*
X116050000Y-74800000D01*
X121800000Y-89250000D02*
X121800000Y-90200000D01*
X121800000Y-90200000D02*
X120400000Y-91600000D01*
X121800000Y-89250000D02*
X121800000Y-81540000D01*
X121800000Y-81540000D02*
X125400000Y-77940000D01*
X121600000Y-71850000D02*
X121600000Y-74140000D01*
X121600000Y-74140000D02*
X125400000Y-77940000D01*
X120320000Y-57620000D02*
X120320000Y-52540000D01*
X118400000Y-63350000D02*
X118400000Y-59540000D01*
X118400000Y-59540000D02*
X120320000Y-57620000D01*
X108750000Y-74800000D02*
X108750000Y-74809060D01*
X108750000Y-74809060D02*
X105159060Y-78400000D01*
X115350000Y-69600000D02*
X114400000Y-69600000D01*
X110800000Y-73200000D02*
X109200000Y-74800000D01*
X112000000Y-73200000D02*
X110800000Y-73200000D01*
X113200000Y-72000000D02*
X112000000Y-73200000D01*
X113200000Y-70800000D02*
X113200000Y-72000000D01*
X114400000Y-69600000D02*
X113200000Y-70800000D01*
X109200000Y-74800000D02*
X108750000Y-74800000D01*
X120700000Y-89250000D02*
X120700000Y-90100000D01*
X120250000Y-90550000D02*
X112800000Y-90550000D01*
X120700000Y-90100000D02*
X120250000Y-90550000D01*
X120700000Y-89250000D02*
X120700000Y-80100000D01*
X120700000Y-80100000D02*
X122860000Y-77940000D01*
X120800000Y-71850000D02*
X120800000Y-75880000D01*
X120800000Y-75880000D02*
X122860000Y-77940000D01*
X117780000Y-57620000D02*
X117780000Y-52540000D01*
X117600000Y-63350000D02*
X117600000Y-57800000D01*
X117600000Y-57800000D02*
X117780000Y-57620000D01*
X148260000Y-70320000D02*
X143180000Y-70320000D01*
X143180000Y-70320000D02*
X138100000Y-70320000D01*
X120000000Y-66800000D02*
X120000000Y-63350000D01*
X120000000Y-63350000D02*
X120000000Y-60400000D01*
X127940000Y-54060000D02*
X127940000Y-52540000D01*
X122000000Y-60000000D02*
X127940000Y-54060000D01*
X120400000Y-60000000D02*
X122000000Y-60000000D01*
X120000000Y-60400000D02*
X120400000Y-60000000D01*
X126200000Y-89250000D02*
X126200000Y-87400000D01*
X126200000Y-87400000D02*
X126400000Y-87200000D01*
X126200000Y-89250000D02*
X126200000Y-91400000D01*
X113850000Y-96400000D02*
X112800000Y-95350000D01*
X121200000Y-96400000D02*
X113850000Y-96400000D01*
X126200000Y-91400000D02*
X121200000Y-96400000D01*
X122400000Y-71850000D02*
X122400000Y-72400000D01*
X122400000Y-72400000D02*
X127940000Y-77940000D01*
X148260000Y-67780000D02*
X143180000Y-67780000D01*
X143180000Y-67780000D02*
X138100000Y-67780000D01*
X120800000Y-65600000D02*
X120800000Y-63350000D01*
X120800000Y-63350000D02*
X120800000Y-61200000D01*
X122220000Y-60800000D02*
X130480000Y-52540000D01*
X121200000Y-60800000D02*
X122220000Y-60800000D01*
X120800000Y-61200000D02*
X121200000Y-60800000D01*
D34*
G36*
X149290000Y-63731795D02*
X149276000Y-63728960D01*
X147244000Y-63728960D01*
X147008683Y-63773238D01*
X146792559Y-63912310D01*
X146647569Y-64124510D01*
X146600894Y-64355000D01*
X144839413Y-64355000D01*
X144799162Y-64141083D01*
X144660090Y-63924959D01*
X144447890Y-63779969D01*
X144196000Y-63728960D01*
X142164000Y-63728960D01*
X141928683Y-63773238D01*
X141712559Y-63912310D01*
X141567569Y-64124510D01*
X141520894Y-64355000D01*
X139759413Y-64355000D01*
X139719162Y-64141083D01*
X139580090Y-63924959D01*
X139367890Y-63779969D01*
X139116000Y-63728960D01*
X137084000Y-63728960D01*
X136848683Y-63773238D01*
X136632559Y-63912310D01*
X136487569Y-64124510D01*
X136436560Y-64376400D01*
X136436560Y-65651861D01*
X131773420Y-70315000D01*
X131672440Y-70315000D01*
X131672440Y-68900000D01*
X131628162Y-68664683D01*
X131489090Y-68448559D01*
X131420994Y-68402031D01*
X131563327Y-68259698D01*
X131660000Y-68026309D01*
X131660000Y-67435750D01*
X131501250Y-67277000D01*
X130527000Y-67277000D01*
X130527000Y-67297000D01*
X130273000Y-67297000D01*
X130273000Y-67277000D01*
X129298750Y-67277000D01*
X129140000Y-67435750D01*
X129140000Y-67515000D01*
X128860000Y-67515000D01*
X128860000Y-67435750D01*
X128701250Y-67277000D01*
X127727000Y-67277000D01*
X127727000Y-67297000D01*
X127473000Y-67297000D01*
X127473000Y-67277000D01*
X127453000Y-67277000D01*
X127453000Y-67023000D01*
X127473000Y-67023000D01*
X127473000Y-67003000D01*
X127727000Y-67003000D01*
X127727000Y-67023000D01*
X128701250Y-67023000D01*
X128860000Y-66864250D01*
X128860000Y-66273691D01*
X129140000Y-66273691D01*
X129140000Y-66864250D01*
X129298750Y-67023000D01*
X130273000Y-67023000D01*
X130273000Y-65923750D01*
X130527000Y-65923750D01*
X130527000Y-67023000D01*
X131501250Y-67023000D01*
X131660000Y-66864250D01*
X131660000Y-66273691D01*
X131563327Y-66040302D01*
X131384699Y-65861673D01*
X131151310Y-65765000D01*
X130685750Y-65765000D01*
X130527000Y-65923750D01*
X130273000Y-65923750D01*
X130114250Y-65765000D01*
X129648690Y-65765000D01*
X129415301Y-65861673D01*
X129236673Y-66040302D01*
X129140000Y-66273691D01*
X128860000Y-66273691D01*
X128763327Y-66040302D01*
X128584699Y-65861673D01*
X128351310Y-65765000D01*
X127886580Y-65765000D01*
X135146579Y-58505000D01*
X139251506Y-58505000D01*
X139309499Y-58591792D01*
X139172559Y-58679910D01*
X139027569Y-58892110D01*
X138976560Y-59144000D01*
X138976560Y-61176000D01*
X139020838Y-61411317D01*
X139159910Y-61627441D01*
X139372110Y-61772431D01*
X139624000Y-61823440D01*
X141656000Y-61823440D01*
X141891317Y-61779162D01*
X142107441Y-61640090D01*
X142252431Y-61427890D01*
X142303440Y-61176000D01*
X142303440Y-59144000D01*
X142259162Y-58908683D01*
X142120090Y-58692559D01*
X141971163Y-58590802D01*
X142197670Y-58251810D01*
X142323345Y-57620000D01*
X142318697Y-57596630D01*
X142582975Y-57596630D01*
X142925566Y-58071277D01*
X144258800Y-58631342D01*
X145704875Y-58638568D01*
X147043639Y-58091854D01*
X147074434Y-58071277D01*
X147417025Y-57596630D01*
X145000000Y-55179605D01*
X142582975Y-57596630D01*
X142318697Y-57596630D01*
X142262787Y-57315555D01*
X142403370Y-57417025D01*
X144820395Y-55000000D01*
X145179605Y-55000000D01*
X147596630Y-57417025D01*
X148071277Y-57074434D01*
X148631342Y-55741200D01*
X148638568Y-54295125D01*
X148091854Y-52956361D01*
X148071277Y-52925566D01*
X147596630Y-52582975D01*
X145179605Y-55000000D01*
X144820395Y-55000000D01*
X142403370Y-52582975D01*
X142151040Y-52765102D01*
X142151040Y-52403370D01*
X142582975Y-52403370D01*
X145000000Y-54820395D01*
X147417025Y-52403370D01*
X147074434Y-51928723D01*
X145741200Y-51368658D01*
X144295125Y-51361432D01*
X142956361Y-51908146D01*
X142925566Y-51928723D01*
X142582975Y-52403370D01*
X142151040Y-52403370D01*
X142151040Y-51524000D01*
X142106762Y-51288683D01*
X141967690Y-51072559D01*
X141755490Y-50927569D01*
X141503600Y-50876560D01*
X139776400Y-50876560D01*
X139541083Y-50920838D01*
X139324959Y-51059910D01*
X139179969Y-51272110D01*
X139171600Y-51313439D01*
X139159670Y-51295585D01*
X138673489Y-50970729D01*
X138100000Y-50856655D01*
X137526511Y-50970729D01*
X137040330Y-51295585D01*
X136830000Y-51610366D01*
X136619670Y-51295585D01*
X136133489Y-50970729D01*
X135560000Y-50856655D01*
X134986511Y-50970729D01*
X134500330Y-51295585D01*
X134290000Y-51610366D01*
X134079670Y-51295585D01*
X133593489Y-50970729D01*
X133020000Y-50856655D01*
X132446511Y-50970729D01*
X131960330Y-51295585D01*
X131750000Y-51610366D01*
X131539670Y-51295585D01*
X131053489Y-50970729D01*
X130480000Y-50856655D01*
X129906511Y-50970729D01*
X129420330Y-51295585D01*
X129210000Y-51610366D01*
X128999670Y-51295585D01*
X128513489Y-50970729D01*
X127940000Y-50856655D01*
X127366511Y-50970729D01*
X126880330Y-51295585D01*
X126670000Y-51610366D01*
X126459670Y-51295585D01*
X125973489Y-50970729D01*
X125400000Y-50856655D01*
X124826511Y-50970729D01*
X124340330Y-51295585D01*
X124015474Y-51781766D01*
X123901400Y-52355255D01*
X123901400Y-52724745D01*
X124015474Y-53298234D01*
X124340330Y-53784415D01*
X124515000Y-53901126D01*
X124515000Y-55033421D01*
X121831040Y-57717380D01*
X121831040Y-56604000D01*
X121786762Y-56368683D01*
X121647690Y-56152559D01*
X121435490Y-56007569D01*
X121205000Y-55960894D01*
X121205000Y-54199413D01*
X121418917Y-54159162D01*
X121635041Y-54020090D01*
X121780031Y-53807890D01*
X121831040Y-53556000D01*
X121831040Y-51524000D01*
X121786762Y-51288683D01*
X121647690Y-51072559D01*
X121435490Y-50927569D01*
X121183600Y-50876560D01*
X119456400Y-50876560D01*
X119221083Y-50920838D01*
X119004959Y-51059910D01*
X118859969Y-51272110D01*
X118851600Y-51313439D01*
X118839670Y-51295585D01*
X118353489Y-50970729D01*
X117780000Y-50856655D01*
X117206511Y-50970729D01*
X116720330Y-51295585D01*
X116510000Y-51610366D01*
X116299670Y-51295585D01*
X115813489Y-50970729D01*
X115240000Y-50856655D01*
X114666511Y-50970729D01*
X114180330Y-51295585D01*
X113970000Y-51610366D01*
X113759670Y-51295585D01*
X113273489Y-50970729D01*
X112700000Y-50856655D01*
X112126511Y-50970729D01*
X111640330Y-51295585D01*
X111430000Y-51610366D01*
X111219670Y-51295585D01*
X110733489Y-50970729D01*
X110160000Y-50856655D01*
X109586511Y-50970729D01*
X109100330Y-51295585D01*
X108890000Y-51610366D01*
X108679670Y-51295585D01*
X108193489Y-50970729D01*
X107620000Y-50856655D01*
X107046511Y-50970729D01*
X106560330Y-51295585D01*
X106350000Y-51610366D01*
X106139670Y-51295585D01*
X105653489Y-50970729D01*
X105080000Y-50856655D01*
X104506511Y-50970729D01*
X104020330Y-51295585D01*
X103810000Y-51610366D01*
X103599670Y-51295585D01*
X103113489Y-50970729D01*
X102540000Y-50856655D01*
X101966511Y-50970729D01*
X101480330Y-51295585D01*
X101155474Y-51781766D01*
X101041400Y-52355255D01*
X101041400Y-52724745D01*
X101155474Y-53298234D01*
X101480330Y-53784415D01*
X101966511Y-54109271D01*
X102540000Y-54223345D01*
X103113489Y-54109271D01*
X103599670Y-53784415D01*
X103810000Y-53469634D01*
X104020330Y-53784415D01*
X104506511Y-54109271D01*
X105080000Y-54223345D01*
X105653489Y-54109271D01*
X106139670Y-53784415D01*
X106350000Y-53469634D01*
X106560330Y-53784415D01*
X107046511Y-54109271D01*
X107620000Y-54223345D01*
X108193489Y-54109271D01*
X108679670Y-53784415D01*
X108890000Y-53469634D01*
X109100330Y-53784415D01*
X109275000Y-53901126D01*
X109275000Y-57759995D01*
X109274999Y-57760000D01*
X109299340Y-57882367D01*
X109342367Y-58098675D01*
X109440666Y-58245790D01*
X109534210Y-58385790D01*
X112315000Y-61166579D01*
X112315000Y-62565000D01*
X111885750Y-62565000D01*
X111727000Y-62723750D01*
X111727000Y-63823000D01*
X111747000Y-63823000D01*
X111747000Y-64077000D01*
X111727000Y-64077000D01*
X111727000Y-64097000D01*
X111473000Y-64097000D01*
X111473000Y-64077000D01*
X110498750Y-64077000D01*
X110340000Y-64235750D01*
X110340000Y-64826309D01*
X110436673Y-65059698D01*
X110577910Y-65200936D01*
X110523559Y-65235910D01*
X110378569Y-65448110D01*
X110330291Y-65686512D01*
X110124210Y-65824210D01*
X110124208Y-65824213D01*
X109694314Y-66254107D01*
X109677942Y-66214485D01*
X109387046Y-65923081D01*
X109006777Y-65765180D01*
X108595029Y-65764821D01*
X108235000Y-65913581D01*
X108235000Y-65272440D01*
X108400000Y-65272440D01*
X108635317Y-65228162D01*
X108851441Y-65089090D01*
X108996431Y-64876890D01*
X109047440Y-64625000D01*
X109047440Y-63375000D01*
X109003162Y-63139683D01*
X108960698Y-63073691D01*
X110340000Y-63073691D01*
X110340000Y-63664250D01*
X110498750Y-63823000D01*
X111473000Y-63823000D01*
X111473000Y-62723750D01*
X111314250Y-62565000D01*
X110848690Y-62565000D01*
X110615301Y-62661673D01*
X110436673Y-62840302D01*
X110340000Y-63073691D01*
X108960698Y-63073691D01*
X108864090Y-62923559D01*
X108651890Y-62778569D01*
X108400000Y-62727560D01*
X107629139Y-62727560D01*
X105965000Y-61063420D01*
X105965000Y-59283440D01*
X106096000Y-59283440D01*
X106331317Y-59239162D01*
X106547441Y-59100090D01*
X106692431Y-58887890D01*
X106743440Y-58636000D01*
X106743440Y-56604000D01*
X106699162Y-56368683D01*
X106560090Y-56152559D01*
X106347890Y-56007569D01*
X106096000Y-55956560D01*
X104064000Y-55956560D01*
X103828683Y-56000838D01*
X103612559Y-56139910D01*
X103501160Y-56302948D01*
X103404818Y-56213615D01*
X102922944Y-56014025D01*
X102667000Y-56133164D01*
X102667000Y-57493000D01*
X102687000Y-57493000D01*
X102687000Y-57747000D01*
X102667000Y-57747000D01*
X102667000Y-59106836D01*
X102922944Y-59225975D01*
X103404818Y-59026385D01*
X103502398Y-58935903D01*
X103599910Y-59087441D01*
X103812110Y-59232431D01*
X104064000Y-59283440D01*
X104195000Y-59283440D01*
X104195000Y-61429995D01*
X104194999Y-61430000D01*
X104241014Y-61661326D01*
X104262367Y-61768675D01*
X104454210Y-62055790D01*
X105138420Y-62740000D01*
X105022998Y-62740000D01*
X105022998Y-62898748D01*
X104864250Y-62740000D01*
X104273691Y-62740000D01*
X104040302Y-62836673D01*
X103861673Y-63015301D01*
X103765000Y-63248690D01*
X103765000Y-63714250D01*
X103923750Y-63873000D01*
X105023000Y-63873000D01*
X105023000Y-63853000D01*
X105277000Y-63853000D01*
X105277000Y-63873000D01*
X105297000Y-63873000D01*
X105297000Y-64127000D01*
X105277000Y-64127000D01*
X105277000Y-65101250D01*
X105435750Y-65260000D01*
X106026309Y-65260000D01*
X106259698Y-65163327D01*
X106400936Y-65022090D01*
X106435910Y-65076441D01*
X106465000Y-65096317D01*
X106465000Y-66064791D01*
X106428569Y-66118110D01*
X106400824Y-66255120D01*
X106378162Y-66134683D01*
X106273000Y-65971257D01*
X106273000Y-65893750D01*
X106114250Y-65735000D01*
X105948690Y-65735000D01*
X105911829Y-65750268D01*
X105775000Y-65722560D01*
X105125000Y-65722560D01*
X104889683Y-65766838D01*
X104673559Y-65905910D01*
X104599021Y-66015000D01*
X104201021Y-66015000D01*
X104064190Y-65802359D01*
X103851990Y-65657369D01*
X103600100Y-65606360D01*
X101999900Y-65606360D01*
X101764583Y-65650638D01*
X101548459Y-65789710D01*
X101403469Y-66001910D01*
X101352460Y-66253800D01*
X101352460Y-67422200D01*
X101387144Y-67606527D01*
X101352460Y-67777800D01*
X101352460Y-68946200D01*
X101396738Y-69181517D01*
X101535810Y-69397641D01*
X101748010Y-69542631D01*
X101859832Y-69565275D01*
X101765180Y-69793223D01*
X101764821Y-70204971D01*
X101922058Y-70585515D01*
X102212954Y-70876919D01*
X102593223Y-71034820D01*
X103004971Y-71035179D01*
X103385515Y-70877942D01*
X103676919Y-70587046D01*
X103834820Y-70206777D01*
X103835179Y-69795029D01*
X103741012Y-69567126D01*
X103835417Y-69549362D01*
X104051541Y-69410290D01*
X104196531Y-69198090D01*
X104247540Y-68946200D01*
X104247540Y-67785000D01*
X104598852Y-67785000D01*
X104660910Y-67881441D01*
X104836232Y-68001233D01*
X104673559Y-68105910D01*
X104528569Y-68318110D01*
X104477560Y-68570000D01*
X104477560Y-69630000D01*
X104521838Y-69865317D01*
X104660910Y-70081441D01*
X104873110Y-70226431D01*
X105125000Y-70277440D01*
X105775000Y-70277440D01*
X106010317Y-70233162D01*
X106226441Y-70094090D01*
X106371431Y-69881890D01*
X106399176Y-69744880D01*
X106421838Y-69865317D01*
X106465000Y-69932393D01*
X106465000Y-70900331D01*
X106448559Y-70910910D01*
X106402031Y-70979006D01*
X106259698Y-70836673D01*
X106026309Y-70740000D01*
X105435750Y-70740000D01*
X105277000Y-70898750D01*
X105277000Y-71873000D01*
X105297000Y-71873000D01*
X105297000Y-72127000D01*
X105277000Y-72127000D01*
X105277000Y-73101250D01*
X105435750Y-73260000D01*
X106026309Y-73260000D01*
X106259698Y-73163327D01*
X106400936Y-73022090D01*
X106435910Y-73076441D01*
X106648110Y-73221431D01*
X106900000Y-73272440D01*
X108400000Y-73272440D01*
X108635317Y-73228162D01*
X108652478Y-73217119D01*
X108722058Y-73385515D01*
X108863855Y-73527560D01*
X108000000Y-73527560D01*
X107764683Y-73571838D01*
X107548559Y-73710910D01*
X107403569Y-73923110D01*
X107352560Y-74175000D01*
X107352560Y-74954921D01*
X105292934Y-77014546D01*
X105037256Y-77014323D01*
X106408834Y-75642745D01*
X106528943Y-75593117D01*
X106792192Y-75330327D01*
X106934838Y-74986799D01*
X106935162Y-74614833D01*
X106793117Y-74271057D01*
X106530327Y-74007808D01*
X106186799Y-73865162D01*
X105814833Y-73864838D01*
X105471057Y-74006883D01*
X105207808Y-74269673D01*
X105157434Y-74390987D01*
X102574210Y-76974210D01*
X102382367Y-77261325D01*
X102382367Y-77261326D01*
X102314999Y-77600000D01*
X102315000Y-77600005D01*
X102315000Y-78599995D01*
X102314999Y-78600000D01*
X102359756Y-78825001D01*
X102382367Y-78938675D01*
X102525113Y-79152310D01*
X102574210Y-79225790D01*
X104952998Y-81604577D01*
X104952998Y-81685530D01*
X104720973Y-81565032D01*
X104191510Y-81813179D01*
X103797312Y-82245053D01*
X103625042Y-82660974D01*
X103746183Y-82893000D01*
X104953000Y-82893000D01*
X104953000Y-82873000D01*
X105207000Y-82873000D01*
X105207000Y-82893000D01*
X105227000Y-82893000D01*
X105227000Y-83147000D01*
X105207000Y-83147000D01*
X105207000Y-83167000D01*
X104953000Y-83167000D01*
X104953000Y-83147000D01*
X103746183Y-83147000D01*
X103625042Y-83379026D01*
X103797312Y-83794947D01*
X104191510Y-84226821D01*
X104314228Y-84284336D01*
X103990971Y-84500330D01*
X103666115Y-84986511D01*
X103552041Y-85560000D01*
X103666115Y-86133489D01*
X103990971Y-86619670D01*
X104305752Y-86830000D01*
X103990971Y-87040330D01*
X103666115Y-87526511D01*
X103552041Y-88100000D01*
X103666115Y-88673489D01*
X103990971Y-89159670D01*
X104477152Y-89484526D01*
X105050641Y-89598600D01*
X105109359Y-89598600D01*
X105290908Y-89562488D01*
X107264208Y-91535787D01*
X107264210Y-91535790D01*
X109004208Y-93275787D01*
X109004210Y-93275790D01*
X109196054Y-93403975D01*
X109291326Y-93467634D01*
X109523995Y-93513915D01*
X109546838Y-93635317D01*
X109685910Y-93851441D01*
X109898110Y-93996431D01*
X109911197Y-93999081D01*
X109698559Y-94135910D01*
X109553569Y-94348110D01*
X109502560Y-94600000D01*
X109502560Y-96100000D01*
X109546838Y-96335317D01*
X109685910Y-96551441D01*
X109898110Y-96696431D01*
X109977148Y-96712437D01*
X109982367Y-96738675D01*
X110011561Y-96782367D01*
X110174210Y-97025790D01*
X111374208Y-98225787D01*
X111374210Y-98225790D01*
X111661325Y-98417633D01*
X112000000Y-98485001D01*
X112000005Y-98485000D01*
X121599995Y-98485000D01*
X121600000Y-98485001D01*
X121882484Y-98428810D01*
X121938675Y-98417633D01*
X122225790Y-98225790D01*
X122225791Y-98225789D01*
X126015829Y-94435750D01*
X128315000Y-94435750D01*
X128315000Y-95276310D01*
X128411673Y-95509699D01*
X128590302Y-95688327D01*
X128823691Y-95785000D01*
X129389250Y-95785000D01*
X129548000Y-95626250D01*
X129548000Y-94277000D01*
X129802000Y-94277000D01*
X129802000Y-95626250D01*
X129960750Y-95785000D01*
X130526309Y-95785000D01*
X130759698Y-95688327D01*
X130938327Y-95509699D01*
X131035000Y-95276310D01*
X131035000Y-94435750D01*
X130876250Y-94277000D01*
X129802000Y-94277000D01*
X129548000Y-94277000D01*
X128473750Y-94277000D01*
X128315000Y-94435750D01*
X126015829Y-94435750D01*
X127427889Y-93023690D01*
X128315000Y-93023690D01*
X128315000Y-93864250D01*
X128473750Y-94023000D01*
X129548000Y-94023000D01*
X129548000Y-92673750D01*
X129802000Y-92673750D01*
X129802000Y-94023000D01*
X130876250Y-94023000D01*
X131035000Y-93864250D01*
X131035000Y-93023690D01*
X130938327Y-92790301D01*
X130759698Y-92611673D01*
X130526309Y-92515000D01*
X129960750Y-92515000D01*
X129802000Y-92673750D01*
X129548000Y-92673750D01*
X129389250Y-92515000D01*
X128823691Y-92515000D01*
X128590302Y-92611673D01*
X128411673Y-92790301D01*
X128315000Y-93023690D01*
X127427889Y-93023690D01*
X127925787Y-92525792D01*
X127925790Y-92525790D01*
X128117633Y-92238675D01*
X128185000Y-91900000D01*
X128185000Y-90414975D01*
X128296431Y-90251890D01*
X128347440Y-90000000D01*
X128347440Y-88500000D01*
X128303162Y-88264683D01*
X128164090Y-88048559D01*
X127951890Y-87903569D01*
X127700000Y-87852560D01*
X127085000Y-87852560D01*
X127085000Y-87837332D01*
X127192192Y-87730327D01*
X127334838Y-87386799D01*
X127335162Y-87014833D01*
X127193117Y-86671057D01*
X127007384Y-86485000D01*
X127199995Y-86485000D01*
X127200000Y-86485001D01*
X127482484Y-86428810D01*
X127538675Y-86417633D01*
X127825790Y-86225790D01*
X127915830Y-86135750D01*
X128315000Y-86135750D01*
X128315000Y-86976310D01*
X128411673Y-87209699D01*
X128590302Y-87388327D01*
X128823691Y-87485000D01*
X129389250Y-87485000D01*
X129548000Y-87326250D01*
X129548000Y-85977000D01*
X129802000Y-85977000D01*
X129802000Y-87326250D01*
X129960750Y-87485000D01*
X130526309Y-87485000D01*
X130759698Y-87388327D01*
X130938327Y-87209699D01*
X131035000Y-86976310D01*
X131035000Y-86135750D01*
X130876250Y-85977000D01*
X129802000Y-85977000D01*
X129548000Y-85977000D01*
X128473750Y-85977000D01*
X128315000Y-86135750D01*
X127915830Y-86135750D01*
X128401165Y-85650415D01*
X128473750Y-85723000D01*
X129548000Y-85723000D01*
X129548000Y-85703000D01*
X129802000Y-85703000D01*
X129802000Y-85723000D01*
X130876250Y-85723000D01*
X131035000Y-85564250D01*
X131035000Y-84723690D01*
X130938327Y-84490301D01*
X130759698Y-84311673D01*
X130526309Y-84215000D01*
X129960750Y-84215000D01*
X129802002Y-84373748D01*
X129802002Y-84249577D01*
X131105787Y-82945792D01*
X131105790Y-82945790D01*
X131297633Y-82658675D01*
X131365000Y-82320000D01*
X131365000Y-79301126D01*
X131539670Y-79184415D01*
X131864526Y-78698234D01*
X131978600Y-78124745D01*
X131978600Y-77755255D01*
X131864526Y-77181766D01*
X131539670Y-76695585D01*
X131053489Y-76370729D01*
X130480000Y-76256655D01*
X130119869Y-76328290D01*
X124997533Y-71205953D01*
X125101441Y-71139090D01*
X125246431Y-70926890D01*
X125297440Y-70675000D01*
X125297440Y-70485000D01*
X126343554Y-70485000D01*
X126371838Y-70635317D01*
X126510910Y-70851441D01*
X126599047Y-70911662D01*
X126565180Y-70993223D01*
X126564821Y-71404971D01*
X126722058Y-71785515D01*
X127012954Y-72076919D01*
X127393223Y-72234820D01*
X127804971Y-72235179D01*
X128168433Y-72085000D01*
X132139995Y-72085000D01*
X132140000Y-72085001D01*
X132422484Y-72028810D01*
X132478675Y-72017633D01*
X132765790Y-71825790D01*
X136482177Y-68109402D01*
X136530729Y-68353489D01*
X136855585Y-68839670D01*
X137170366Y-69050000D01*
X136855585Y-69260330D01*
X136530729Y-69746511D01*
X136416655Y-70320000D01*
X136530729Y-70893489D01*
X136855585Y-71379670D01*
X137170366Y-71590000D01*
X136855585Y-71800330D01*
X136530729Y-72286511D01*
X136416655Y-72860000D01*
X136530729Y-73433489D01*
X136855585Y-73919670D01*
X137165069Y-74126461D01*
X136749268Y-74497964D01*
X136495291Y-75025209D01*
X136492642Y-75040974D01*
X136613783Y-75273000D01*
X137973000Y-75273000D01*
X137973000Y-75253000D01*
X138227000Y-75253000D01*
X138227000Y-75273000D01*
X139586217Y-75273000D01*
X139707358Y-75040974D01*
X139704709Y-75025209D01*
X139450732Y-74497964D01*
X139034931Y-74126461D01*
X139344415Y-73919670D01*
X139669271Y-73433489D01*
X139783345Y-72860000D01*
X139669271Y-72286511D01*
X139344415Y-71800330D01*
X139029634Y-71590000D01*
X139344415Y-71379670D01*
X139461126Y-71205000D01*
X141818874Y-71205000D01*
X141935585Y-71379670D01*
X142250366Y-71590000D01*
X141935585Y-71800330D01*
X141610729Y-72286511D01*
X141496655Y-72860000D01*
X141610729Y-73433489D01*
X141935585Y-73919670D01*
X142245069Y-74126461D01*
X141829268Y-74497964D01*
X141575291Y-75025209D01*
X141572642Y-75040974D01*
X141693783Y-75273000D01*
X143053000Y-75273000D01*
X143053000Y-75253000D01*
X143307000Y-75253000D01*
X143307000Y-75273000D01*
X144666217Y-75273000D01*
X144787358Y-75040974D01*
X144784709Y-75025209D01*
X144530732Y-74497964D01*
X144114931Y-74126461D01*
X144424415Y-73919670D01*
X144749271Y-73433489D01*
X144863345Y-72860000D01*
X144749271Y-72286511D01*
X144424415Y-71800330D01*
X144109634Y-71590000D01*
X144424415Y-71379670D01*
X144541126Y-71205000D01*
X146898874Y-71205000D01*
X147015585Y-71379670D01*
X147330366Y-71590000D01*
X147015585Y-71800330D01*
X146690729Y-72286511D01*
X146576655Y-72860000D01*
X146690729Y-73433489D01*
X147015585Y-73919670D01*
X147325069Y-74126461D01*
X146909268Y-74497964D01*
X146655291Y-75025209D01*
X146652642Y-75040974D01*
X146773783Y-75273000D01*
X148133000Y-75273000D01*
X148133000Y-75253000D01*
X148387000Y-75253000D01*
X148387000Y-75273000D01*
X148407000Y-75273000D01*
X148407000Y-75527000D01*
X148387000Y-75527000D01*
X148387000Y-76740924D01*
X148621913Y-76885184D01*
X149174320Y-76691954D01*
X149290000Y-76588598D01*
X149290000Y-79146458D01*
X149225880Y-79103725D01*
X147169605Y-81160000D01*
X149225880Y-83216275D01*
X149290000Y-83173542D01*
X149290000Y-99290000D01*
X135554240Y-99290000D01*
X135859271Y-98833489D01*
X135973345Y-98260000D01*
X135901711Y-97899869D01*
X138225787Y-95575792D01*
X138225790Y-95575790D01*
X138417633Y-95288675D01*
X138428810Y-95232484D01*
X138485001Y-94950000D01*
X138485000Y-94949995D01*
X138485000Y-83395880D01*
X144933725Y-83395880D01*
X145215421Y-83818564D01*
X146367892Y-84295294D01*
X147615072Y-84294705D01*
X148764579Y-83818564D01*
X149046275Y-83395880D01*
X146990000Y-81339605D01*
X144933725Y-83395880D01*
X138485000Y-83395880D01*
X138485000Y-80537892D01*
X143854706Y-80537892D01*
X143855295Y-81785072D01*
X144331436Y-82934579D01*
X144754120Y-83216275D01*
X146810395Y-81160000D01*
X144754120Y-79103725D01*
X144331436Y-79385421D01*
X143854706Y-80537892D01*
X138485000Y-80537892D01*
X138485000Y-78924120D01*
X144933725Y-78924120D01*
X146990000Y-80980395D01*
X149046275Y-78924120D01*
X148764579Y-78501436D01*
X147612108Y-78024706D01*
X146364928Y-78025295D01*
X145215421Y-78501436D01*
X144933725Y-78924120D01*
X138485000Y-78924120D01*
X138485000Y-78400005D01*
X138485001Y-78400000D01*
X138417633Y-78061326D01*
X138417633Y-78061325D01*
X138225790Y-77774210D01*
X138225787Y-77774208D01*
X136790074Y-76338494D01*
X137185680Y-76691954D01*
X137738087Y-76885184D01*
X137973000Y-76740924D01*
X137973000Y-75527000D01*
X138227000Y-75527000D01*
X138227000Y-76740924D01*
X138461913Y-76885184D01*
X139014320Y-76691954D01*
X139450732Y-76302036D01*
X139704709Y-75774791D01*
X139707358Y-75759026D01*
X141572642Y-75759026D01*
X141575291Y-75774791D01*
X141829268Y-76302036D01*
X142265680Y-76691954D01*
X142818087Y-76885184D01*
X143053000Y-76740924D01*
X143053000Y-75527000D01*
X143307000Y-75527000D01*
X143307000Y-76740924D01*
X143541913Y-76885184D01*
X144094320Y-76691954D01*
X144530732Y-76302036D01*
X144784709Y-75774791D01*
X144787358Y-75759026D01*
X146652642Y-75759026D01*
X146655291Y-75774791D01*
X146909268Y-76302036D01*
X147345680Y-76691954D01*
X147898087Y-76885184D01*
X148133000Y-76740924D01*
X148133000Y-75527000D01*
X146773783Y-75527000D01*
X146652642Y-75759026D01*
X144787358Y-75759026D01*
X144666217Y-75527000D01*
X143307000Y-75527000D01*
X143053000Y-75527000D01*
X141693783Y-75527000D01*
X141572642Y-75759026D01*
X139707358Y-75759026D01*
X139586217Y-75527000D01*
X138227000Y-75527000D01*
X137973000Y-75527000D01*
X136613783Y-75527000D01*
X136492642Y-75759026D01*
X136495291Y-75774791D01*
X136745228Y-76293648D01*
X134042744Y-73591164D01*
X133993117Y-73471057D01*
X133730327Y-73207808D01*
X133386799Y-73065162D01*
X133014833Y-73064838D01*
X132671057Y-73206883D01*
X132407808Y-73469673D01*
X132265162Y-73813201D01*
X132264838Y-74185167D01*
X132406883Y-74528943D01*
X132477710Y-74599893D01*
X132407808Y-74669673D01*
X132265162Y-75013201D01*
X132264838Y-75385167D01*
X132406883Y-75728943D01*
X132669673Y-75992192D01*
X132790986Y-76042566D01*
X135515000Y-78766579D01*
X135515000Y-79011284D01*
X135306000Y-78968960D01*
X133274000Y-78968960D01*
X133038683Y-79013238D01*
X132822559Y-79152310D01*
X132677569Y-79364510D01*
X132626560Y-79616400D01*
X132626560Y-81343600D01*
X132670838Y-81578917D01*
X132809910Y-81795041D01*
X133022110Y-81940031D01*
X133063439Y-81948400D01*
X133045585Y-81960330D01*
X132720729Y-82446511D01*
X132606655Y-83020000D01*
X132720729Y-83593489D01*
X133045585Y-84079670D01*
X133355069Y-84286461D01*
X132939268Y-84657964D01*
X132685291Y-85185209D01*
X132682642Y-85200974D01*
X132803783Y-85433000D01*
X134163000Y-85433000D01*
X134163000Y-85413000D01*
X134417000Y-85413000D01*
X134417000Y-85433000D01*
X134437000Y-85433000D01*
X134437000Y-85687000D01*
X134417000Y-85687000D01*
X134417000Y-85707000D01*
X134163000Y-85707000D01*
X134163000Y-85687000D01*
X132803783Y-85687000D01*
X132682642Y-85919026D01*
X132685291Y-85934791D01*
X132939268Y-86462036D01*
X133355069Y-86833539D01*
X133045585Y-87040330D01*
X132720729Y-87526511D01*
X132606655Y-88100000D01*
X132720729Y-88673489D01*
X133045585Y-89159670D01*
X133360366Y-89370000D01*
X133045585Y-89580330D01*
X132720729Y-90066511D01*
X132606655Y-90640000D01*
X132720729Y-91213489D01*
X133045585Y-91699670D01*
X133360366Y-91910000D01*
X133045585Y-92120330D01*
X132720729Y-92606511D01*
X132606655Y-93180000D01*
X132720729Y-93753489D01*
X133045585Y-94239670D01*
X133355069Y-94446461D01*
X132939268Y-94817964D01*
X132685291Y-95345209D01*
X132682642Y-95360974D01*
X132803783Y-95593000D01*
X134163000Y-95593000D01*
X134163000Y-95573000D01*
X134417000Y-95573000D01*
X134417000Y-95593000D01*
X134437000Y-95593000D01*
X134437000Y-95847000D01*
X134417000Y-95847000D01*
X134417000Y-95867000D01*
X134163000Y-95867000D01*
X134163000Y-95847000D01*
X132803783Y-95847000D01*
X132682642Y-96079026D01*
X132685291Y-96094791D01*
X132939268Y-96622036D01*
X133355069Y-96993539D01*
X133045585Y-97200330D01*
X132720729Y-97686511D01*
X132606655Y-98260000D01*
X132720729Y-98833489D01*
X133025760Y-99290000D01*
X100710000Y-99290000D01*
X100710000Y-97596630D01*
X102582975Y-97596630D01*
X102925566Y-98071277D01*
X104258800Y-98631342D01*
X105704875Y-98638568D01*
X107043639Y-98091854D01*
X107074434Y-98071277D01*
X107417025Y-97596630D01*
X105000000Y-95179605D01*
X102582975Y-97596630D01*
X100710000Y-97596630D01*
X100710000Y-95704875D01*
X101361432Y-95704875D01*
X101908146Y-97043639D01*
X101928723Y-97074434D01*
X102403370Y-97417025D01*
X104820395Y-95000000D01*
X105179605Y-95000000D01*
X107596630Y-97417025D01*
X108071277Y-97074434D01*
X108631342Y-95741200D01*
X108638568Y-94295125D01*
X108091854Y-92956361D01*
X108071277Y-92925566D01*
X107596630Y-92582975D01*
X105179605Y-95000000D01*
X104820395Y-95000000D01*
X102403370Y-92582975D01*
X101928723Y-92925566D01*
X101368658Y-94258800D01*
X101361432Y-95704875D01*
X100710000Y-95704875D01*
X100710000Y-92403370D01*
X102582975Y-92403370D01*
X105000000Y-94820395D01*
X107417025Y-92403370D01*
X107074434Y-91928723D01*
X105741200Y-91368658D01*
X104295125Y-91361432D01*
X102956361Y-91908146D01*
X102925566Y-91928723D01*
X102582975Y-92403370D01*
X100710000Y-92403370D01*
X100710000Y-72285750D01*
X103765000Y-72285750D01*
X103765000Y-72751310D01*
X103861673Y-72984699D01*
X104040302Y-73163327D01*
X104273691Y-73260000D01*
X104864250Y-73260000D01*
X105023000Y-73101250D01*
X105023000Y-72127000D01*
X103923750Y-72127000D01*
X103765000Y-72285750D01*
X100710000Y-72285750D01*
X100710000Y-71248690D01*
X103765000Y-71248690D01*
X103765000Y-71714250D01*
X103923750Y-71873000D01*
X105023000Y-71873000D01*
X105023000Y-70898750D01*
X104864250Y-70740000D01*
X104273691Y-70740000D01*
X104040302Y-70836673D01*
X103861673Y-71015301D01*
X103765000Y-71248690D01*
X100710000Y-71248690D01*
X100710000Y-64285750D01*
X103765000Y-64285750D01*
X103765000Y-64751310D01*
X103861673Y-64984699D01*
X104040302Y-65163327D01*
X104273691Y-65260000D01*
X104864250Y-65260000D01*
X105023000Y-65101250D01*
X105023000Y-64127000D01*
X103923750Y-64127000D01*
X103765000Y-64285750D01*
X100710000Y-64285750D01*
X100710000Y-58002946D01*
X100934017Y-58002946D01*
X101202812Y-58588379D01*
X101675182Y-59026385D01*
X102157056Y-59225975D01*
X102413000Y-59106836D01*
X102413000Y-57747000D01*
X101052633Y-57747000D01*
X100934017Y-58002946D01*
X100710000Y-58002946D01*
X100710000Y-57237054D01*
X100934017Y-57237054D01*
X101052633Y-57493000D01*
X102413000Y-57493000D01*
X102413000Y-56133164D01*
X102157056Y-56014025D01*
X101675182Y-56213615D01*
X101202812Y-56651621D01*
X100934017Y-57237054D01*
X100710000Y-57237054D01*
X100710000Y-50710000D01*
X149290000Y-50710000D01*
X149290000Y-63731795D01*
X149290000Y-63731795D01*
G37*
X149290000Y-63731795D02*
X149276000Y-63728960D01*
X147244000Y-63728960D01*
X147008683Y-63773238D01*
X146792559Y-63912310D01*
X146647569Y-64124510D01*
X146600894Y-64355000D01*
X144839413Y-64355000D01*
X144799162Y-64141083D01*
X144660090Y-63924959D01*
X144447890Y-63779969D01*
X144196000Y-63728960D01*
X142164000Y-63728960D01*
X141928683Y-63773238D01*
X141712559Y-63912310D01*
X141567569Y-64124510D01*
X141520894Y-64355000D01*
X139759413Y-64355000D01*
X139719162Y-64141083D01*
X139580090Y-63924959D01*
X139367890Y-63779969D01*
X139116000Y-63728960D01*
X137084000Y-63728960D01*
X136848683Y-63773238D01*
X136632559Y-63912310D01*
X136487569Y-64124510D01*
X136436560Y-64376400D01*
X136436560Y-65651861D01*
X131773420Y-70315000D01*
X131672440Y-70315000D01*
X131672440Y-68900000D01*
X131628162Y-68664683D01*
X131489090Y-68448559D01*
X131420994Y-68402031D01*
X131563327Y-68259698D01*
X131660000Y-68026309D01*
X131660000Y-67435750D01*
X131501250Y-67277000D01*
X130527000Y-67277000D01*
X130527000Y-67297000D01*
X130273000Y-67297000D01*
X130273000Y-67277000D01*
X129298750Y-67277000D01*
X129140000Y-67435750D01*
X129140000Y-67515000D01*
X128860000Y-67515000D01*
X128860000Y-67435750D01*
X128701250Y-67277000D01*
X127727000Y-67277000D01*
X127727000Y-67297000D01*
X127473000Y-67297000D01*
X127473000Y-67277000D01*
X127453000Y-67277000D01*
X127453000Y-67023000D01*
X127473000Y-67023000D01*
X127473000Y-67003000D01*
X127727000Y-67003000D01*
X127727000Y-67023000D01*
X128701250Y-67023000D01*
X128860000Y-66864250D01*
X128860000Y-66273691D01*
X129140000Y-66273691D01*
X129140000Y-66864250D01*
X129298750Y-67023000D01*
X130273000Y-67023000D01*
X130273000Y-65923750D01*
X130527000Y-65923750D01*
X130527000Y-67023000D01*
X131501250Y-67023000D01*
X131660000Y-66864250D01*
X131660000Y-66273691D01*
X131563327Y-66040302D01*
X131384699Y-65861673D01*
X131151310Y-65765000D01*
X130685750Y-65765000D01*
X130527000Y-65923750D01*
X130273000Y-65923750D01*
X130114250Y-65765000D01*
X129648690Y-65765000D01*
X129415301Y-65861673D01*
X129236673Y-66040302D01*
X129140000Y-66273691D01*
X128860000Y-66273691D01*
X128763327Y-66040302D01*
X128584699Y-65861673D01*
X128351310Y-65765000D01*
X127886580Y-65765000D01*
X135146579Y-58505000D01*
X139251506Y-58505000D01*
X139309499Y-58591792D01*
X139172559Y-58679910D01*
X139027569Y-58892110D01*
X138976560Y-59144000D01*
X138976560Y-61176000D01*
X139020838Y-61411317D01*
X139159910Y-61627441D01*
X139372110Y-61772431D01*
X139624000Y-61823440D01*
X141656000Y-61823440D01*
X141891317Y-61779162D01*
X142107441Y-61640090D01*
X142252431Y-61427890D01*
X142303440Y-61176000D01*
X142303440Y-59144000D01*
X142259162Y-58908683D01*
X142120090Y-58692559D01*
X141971163Y-58590802D01*
X142197670Y-58251810D01*
X142323345Y-57620000D01*
X142318697Y-57596630D01*
X142582975Y-57596630D01*
X142925566Y-58071277D01*
X144258800Y-58631342D01*
X145704875Y-58638568D01*
X147043639Y-58091854D01*
X147074434Y-58071277D01*
X147417025Y-57596630D01*
X145000000Y-55179605D01*
X142582975Y-57596630D01*
X142318697Y-57596630D01*
X142262787Y-57315555D01*
X142403370Y-57417025D01*
X144820395Y-55000000D01*
X145179605Y-55000000D01*
X147596630Y-57417025D01*
X148071277Y-57074434D01*
X148631342Y-55741200D01*
X148638568Y-54295125D01*
X148091854Y-52956361D01*
X148071277Y-52925566D01*
X147596630Y-52582975D01*
X145179605Y-55000000D01*
X144820395Y-55000000D01*
X142403370Y-52582975D01*
X142151040Y-52765102D01*
X142151040Y-52403370D01*
X142582975Y-52403370D01*
X145000000Y-54820395D01*
X147417025Y-52403370D01*
X147074434Y-51928723D01*
X145741200Y-51368658D01*
X144295125Y-51361432D01*
X142956361Y-51908146D01*
X142925566Y-51928723D01*
X142582975Y-52403370D01*
X142151040Y-52403370D01*
X142151040Y-51524000D01*
X142106762Y-51288683D01*
X141967690Y-51072559D01*
X141755490Y-50927569D01*
X141503600Y-50876560D01*
X139776400Y-50876560D01*
X139541083Y-50920838D01*
X139324959Y-51059910D01*
X139179969Y-51272110D01*
X139171600Y-51313439D01*
X139159670Y-51295585D01*
X138673489Y-50970729D01*
X138100000Y-50856655D01*
X137526511Y-50970729D01*
X137040330Y-51295585D01*
X136830000Y-51610366D01*
X136619670Y-51295585D01*
X136133489Y-50970729D01*
X135560000Y-50856655D01*
X134986511Y-50970729D01*
X134500330Y-51295585D01*
X134290000Y-51610366D01*
X134079670Y-51295585D01*
X133593489Y-50970729D01*
X133020000Y-50856655D01*
X132446511Y-50970729D01*
X131960330Y-51295585D01*
X131750000Y-51610366D01*
X131539670Y-51295585D01*
X131053489Y-50970729D01*
X130480000Y-50856655D01*
X129906511Y-50970729D01*
X129420330Y-51295585D01*
X129210000Y-51610366D01*
X128999670Y-51295585D01*
X128513489Y-50970729D01*
X127940000Y-50856655D01*
X127366511Y-50970729D01*
X126880330Y-51295585D01*
X126670000Y-51610366D01*
X126459670Y-51295585D01*
X125973489Y-50970729D01*
X125400000Y-50856655D01*
X124826511Y-50970729D01*
X124340330Y-51295585D01*
X124015474Y-51781766D01*
X123901400Y-52355255D01*
X123901400Y-52724745D01*
X124015474Y-53298234D01*
X124340330Y-53784415D01*
X124515000Y-53901126D01*
X124515000Y-55033421D01*
X121831040Y-57717380D01*
X121831040Y-56604000D01*
X121786762Y-56368683D01*
X121647690Y-56152559D01*
X121435490Y-56007569D01*
X121205000Y-55960894D01*
X121205000Y-54199413D01*
X121418917Y-54159162D01*
X121635041Y-54020090D01*
X121780031Y-53807890D01*
X121831040Y-53556000D01*
X121831040Y-51524000D01*
X121786762Y-51288683D01*
X121647690Y-51072559D01*
X121435490Y-50927569D01*
X121183600Y-50876560D01*
X119456400Y-50876560D01*
X119221083Y-50920838D01*
X119004959Y-51059910D01*
X118859969Y-51272110D01*
X118851600Y-51313439D01*
X118839670Y-51295585D01*
X118353489Y-50970729D01*
X117780000Y-50856655D01*
X117206511Y-50970729D01*
X116720330Y-51295585D01*
X116510000Y-51610366D01*
X116299670Y-51295585D01*
X115813489Y-50970729D01*
X115240000Y-50856655D01*
X114666511Y-50970729D01*
X114180330Y-51295585D01*
X113970000Y-51610366D01*
X113759670Y-51295585D01*
X113273489Y-50970729D01*
X112700000Y-50856655D01*
X112126511Y-50970729D01*
X111640330Y-51295585D01*
X111430000Y-51610366D01*
X111219670Y-51295585D01*
X110733489Y-50970729D01*
X110160000Y-50856655D01*
X109586511Y-50970729D01*
X109100330Y-51295585D01*
X108890000Y-51610366D01*
X108679670Y-51295585D01*
X108193489Y-50970729D01*
X107620000Y-50856655D01*
X107046511Y-50970729D01*
X106560330Y-51295585D01*
X106350000Y-51610366D01*
X106139670Y-51295585D01*
X105653489Y-50970729D01*
X105080000Y-50856655D01*
X104506511Y-50970729D01*
X104020330Y-51295585D01*
X103810000Y-51610366D01*
X103599670Y-51295585D01*
X103113489Y-50970729D01*
X102540000Y-50856655D01*
X101966511Y-50970729D01*
X101480330Y-51295585D01*
X101155474Y-51781766D01*
X101041400Y-52355255D01*
X101041400Y-52724745D01*
X101155474Y-53298234D01*
X101480330Y-53784415D01*
X101966511Y-54109271D01*
X102540000Y-54223345D01*
X103113489Y-54109271D01*
X103599670Y-53784415D01*
X103810000Y-53469634D01*
X104020330Y-53784415D01*
X104506511Y-54109271D01*
X105080000Y-54223345D01*
X105653489Y-54109271D01*
X106139670Y-53784415D01*
X106350000Y-53469634D01*
X106560330Y-53784415D01*
X107046511Y-54109271D01*
X107620000Y-54223345D01*
X108193489Y-54109271D01*
X108679670Y-53784415D01*
X108890000Y-53469634D01*
X109100330Y-53784415D01*
X109275000Y-53901126D01*
X109275000Y-57759995D01*
X109274999Y-57760000D01*
X109299340Y-57882367D01*
X109342367Y-58098675D01*
X109440666Y-58245790D01*
X109534210Y-58385790D01*
X112315000Y-61166579D01*
X112315000Y-62565000D01*
X111885750Y-62565000D01*
X111727000Y-62723750D01*
X111727000Y-63823000D01*
X111747000Y-63823000D01*
X111747000Y-64077000D01*
X111727000Y-64077000D01*
X111727000Y-64097000D01*
X111473000Y-64097000D01*
X111473000Y-64077000D01*
X110498750Y-64077000D01*
X110340000Y-64235750D01*
X110340000Y-64826309D01*
X110436673Y-65059698D01*
X110577910Y-65200936D01*
X110523559Y-65235910D01*
X110378569Y-65448110D01*
X110330291Y-65686512D01*
X110124210Y-65824210D01*
X110124208Y-65824213D01*
X109694314Y-66254107D01*
X109677942Y-66214485D01*
X109387046Y-65923081D01*
X109006777Y-65765180D01*
X108595029Y-65764821D01*
X108235000Y-65913581D01*
X108235000Y-65272440D01*
X108400000Y-65272440D01*
X108635317Y-65228162D01*
X108851441Y-65089090D01*
X108996431Y-64876890D01*
X109047440Y-64625000D01*
X109047440Y-63375000D01*
X109003162Y-63139683D01*
X108960698Y-63073691D01*
X110340000Y-63073691D01*
X110340000Y-63664250D01*
X110498750Y-63823000D01*
X111473000Y-63823000D01*
X111473000Y-62723750D01*
X111314250Y-62565000D01*
X110848690Y-62565000D01*
X110615301Y-62661673D01*
X110436673Y-62840302D01*
X110340000Y-63073691D01*
X108960698Y-63073691D01*
X108864090Y-62923559D01*
X108651890Y-62778569D01*
X108400000Y-62727560D01*
X107629139Y-62727560D01*
X105965000Y-61063420D01*
X105965000Y-59283440D01*
X106096000Y-59283440D01*
X106331317Y-59239162D01*
X106547441Y-59100090D01*
X106692431Y-58887890D01*
X106743440Y-58636000D01*
X106743440Y-56604000D01*
X106699162Y-56368683D01*
X106560090Y-56152559D01*
X106347890Y-56007569D01*
X106096000Y-55956560D01*
X104064000Y-55956560D01*
X103828683Y-56000838D01*
X103612559Y-56139910D01*
X103501160Y-56302948D01*
X103404818Y-56213615D01*
X102922944Y-56014025D01*
X102667000Y-56133164D01*
X102667000Y-57493000D01*
X102687000Y-57493000D01*
X102687000Y-57747000D01*
X102667000Y-57747000D01*
X102667000Y-59106836D01*
X102922944Y-59225975D01*
X103404818Y-59026385D01*
X103502398Y-58935903D01*
X103599910Y-59087441D01*
X103812110Y-59232431D01*
X104064000Y-59283440D01*
X104195000Y-59283440D01*
X104195000Y-61429995D01*
X104194999Y-61430000D01*
X104241014Y-61661326D01*
X104262367Y-61768675D01*
X104454210Y-62055790D01*
X105138420Y-62740000D01*
X105022998Y-62740000D01*
X105022998Y-62898748D01*
X104864250Y-62740000D01*
X104273691Y-62740000D01*
X104040302Y-62836673D01*
X103861673Y-63015301D01*
X103765000Y-63248690D01*
X103765000Y-63714250D01*
X103923750Y-63873000D01*
X105023000Y-63873000D01*
X105023000Y-63853000D01*
X105277000Y-63853000D01*
X105277000Y-63873000D01*
X105297000Y-63873000D01*
X105297000Y-64127000D01*
X105277000Y-64127000D01*
X105277000Y-65101250D01*
X105435750Y-65260000D01*
X106026309Y-65260000D01*
X106259698Y-65163327D01*
X106400936Y-65022090D01*
X106435910Y-65076441D01*
X106465000Y-65096317D01*
X106465000Y-66064791D01*
X106428569Y-66118110D01*
X106400824Y-66255120D01*
X106378162Y-66134683D01*
X106273000Y-65971257D01*
X106273000Y-65893750D01*
X106114250Y-65735000D01*
X105948690Y-65735000D01*
X105911829Y-65750268D01*
X105775000Y-65722560D01*
X105125000Y-65722560D01*
X104889683Y-65766838D01*
X104673559Y-65905910D01*
X104599021Y-66015000D01*
X104201021Y-66015000D01*
X104064190Y-65802359D01*
X103851990Y-65657369D01*
X103600100Y-65606360D01*
X101999900Y-65606360D01*
X101764583Y-65650638D01*
X101548459Y-65789710D01*
X101403469Y-66001910D01*
X101352460Y-66253800D01*
X101352460Y-67422200D01*
X101387144Y-67606527D01*
X101352460Y-67777800D01*
X101352460Y-68946200D01*
X101396738Y-69181517D01*
X101535810Y-69397641D01*
X101748010Y-69542631D01*
X101859832Y-69565275D01*
X101765180Y-69793223D01*
X101764821Y-70204971D01*
X101922058Y-70585515D01*
X102212954Y-70876919D01*
X102593223Y-71034820D01*
X103004971Y-71035179D01*
X103385515Y-70877942D01*
X103676919Y-70587046D01*
X103834820Y-70206777D01*
X103835179Y-69795029D01*
X103741012Y-69567126D01*
X103835417Y-69549362D01*
X104051541Y-69410290D01*
X104196531Y-69198090D01*
X104247540Y-68946200D01*
X104247540Y-67785000D01*
X104598852Y-67785000D01*
X104660910Y-67881441D01*
X104836232Y-68001233D01*
X104673559Y-68105910D01*
X104528569Y-68318110D01*
X104477560Y-68570000D01*
X104477560Y-69630000D01*
X104521838Y-69865317D01*
X104660910Y-70081441D01*
X104873110Y-70226431D01*
X105125000Y-70277440D01*
X105775000Y-70277440D01*
X106010317Y-70233162D01*
X106226441Y-70094090D01*
X106371431Y-69881890D01*
X106399176Y-69744880D01*
X106421838Y-69865317D01*
X106465000Y-69932393D01*
X106465000Y-70900331D01*
X106448559Y-70910910D01*
X106402031Y-70979006D01*
X106259698Y-70836673D01*
X106026309Y-70740000D01*
X105435750Y-70740000D01*
X105277000Y-70898750D01*
X105277000Y-71873000D01*
X105297000Y-71873000D01*
X105297000Y-72127000D01*
X105277000Y-72127000D01*
X105277000Y-73101250D01*
X105435750Y-73260000D01*
X106026309Y-73260000D01*
X106259698Y-73163327D01*
X106400936Y-73022090D01*
X106435910Y-73076441D01*
X106648110Y-73221431D01*
X106900000Y-73272440D01*
X108400000Y-73272440D01*
X108635317Y-73228162D01*
X108652478Y-73217119D01*
X108722058Y-73385515D01*
X108863855Y-73527560D01*
X108000000Y-73527560D01*
X107764683Y-73571838D01*
X107548559Y-73710910D01*
X107403569Y-73923110D01*
X107352560Y-74175000D01*
X107352560Y-74954921D01*
X105292934Y-77014546D01*
X105037256Y-77014323D01*
X106408834Y-75642745D01*
X106528943Y-75593117D01*
X106792192Y-75330327D01*
X106934838Y-74986799D01*
X106935162Y-74614833D01*
X106793117Y-74271057D01*
X106530327Y-74007808D01*
X106186799Y-73865162D01*
X105814833Y-73864838D01*
X105471057Y-74006883D01*
X105207808Y-74269673D01*
X105157434Y-74390987D01*
X102574210Y-76974210D01*
X102382367Y-77261325D01*
X102382367Y-77261326D01*
X102314999Y-77600000D01*
X102315000Y-77600005D01*
X102315000Y-78599995D01*
X102314999Y-78600000D01*
X102359756Y-78825001D01*
X102382367Y-78938675D01*
X102525113Y-79152310D01*
X102574210Y-79225790D01*
X104952998Y-81604577D01*
X104952998Y-81685530D01*
X104720973Y-81565032D01*
X104191510Y-81813179D01*
X103797312Y-82245053D01*
X103625042Y-82660974D01*
X103746183Y-82893000D01*
X104953000Y-82893000D01*
X104953000Y-82873000D01*
X105207000Y-82873000D01*
X105207000Y-82893000D01*
X105227000Y-82893000D01*
X105227000Y-83147000D01*
X105207000Y-83147000D01*
X105207000Y-83167000D01*
X104953000Y-83167000D01*
X104953000Y-83147000D01*
X103746183Y-83147000D01*
X103625042Y-83379026D01*
X103797312Y-83794947D01*
X104191510Y-84226821D01*
X104314228Y-84284336D01*
X103990971Y-84500330D01*
X103666115Y-84986511D01*
X103552041Y-85560000D01*
X103666115Y-86133489D01*
X103990971Y-86619670D01*
X104305752Y-86830000D01*
X103990971Y-87040330D01*
X103666115Y-87526511D01*
X103552041Y-88100000D01*
X103666115Y-88673489D01*
X103990971Y-89159670D01*
X104477152Y-89484526D01*
X105050641Y-89598600D01*
X105109359Y-89598600D01*
X105290908Y-89562488D01*
X107264208Y-91535787D01*
X107264210Y-91535790D01*
X109004208Y-93275787D01*
X109004210Y-93275790D01*
X109196054Y-93403975D01*
X109291326Y-93467634D01*
X109523995Y-93513915D01*
X109546838Y-93635317D01*
X109685910Y-93851441D01*
X109898110Y-93996431D01*
X109911197Y-93999081D01*
X109698559Y-94135910D01*
X109553569Y-94348110D01*
X109502560Y-94600000D01*
X109502560Y-96100000D01*
X109546838Y-96335317D01*
X109685910Y-96551441D01*
X109898110Y-96696431D01*
X109977148Y-96712437D01*
X109982367Y-96738675D01*
X110011561Y-96782367D01*
X110174210Y-97025790D01*
X111374208Y-98225787D01*
X111374210Y-98225790D01*
X111661325Y-98417633D01*
X112000000Y-98485001D01*
X112000005Y-98485000D01*
X121599995Y-98485000D01*
X121600000Y-98485001D01*
X121882484Y-98428810D01*
X121938675Y-98417633D01*
X122225790Y-98225790D01*
X122225791Y-98225789D01*
X126015829Y-94435750D01*
X128315000Y-94435750D01*
X128315000Y-95276310D01*
X128411673Y-95509699D01*
X128590302Y-95688327D01*
X128823691Y-95785000D01*
X129389250Y-95785000D01*
X129548000Y-95626250D01*
X129548000Y-94277000D01*
X129802000Y-94277000D01*
X129802000Y-95626250D01*
X129960750Y-95785000D01*
X130526309Y-95785000D01*
X130759698Y-95688327D01*
X130938327Y-95509699D01*
X131035000Y-95276310D01*
X131035000Y-94435750D01*
X130876250Y-94277000D01*
X129802000Y-94277000D01*
X129548000Y-94277000D01*
X128473750Y-94277000D01*
X128315000Y-94435750D01*
X126015829Y-94435750D01*
X127427889Y-93023690D01*
X128315000Y-93023690D01*
X128315000Y-93864250D01*
X128473750Y-94023000D01*
X129548000Y-94023000D01*
X129548000Y-92673750D01*
X129802000Y-92673750D01*
X129802000Y-94023000D01*
X130876250Y-94023000D01*
X131035000Y-93864250D01*
X131035000Y-93023690D01*
X130938327Y-92790301D01*
X130759698Y-92611673D01*
X130526309Y-92515000D01*
X129960750Y-92515000D01*
X129802000Y-92673750D01*
X129548000Y-92673750D01*
X129389250Y-92515000D01*
X128823691Y-92515000D01*
X128590302Y-92611673D01*
X128411673Y-92790301D01*
X128315000Y-93023690D01*
X127427889Y-93023690D01*
X127925787Y-92525792D01*
X127925790Y-92525790D01*
X128117633Y-92238675D01*
X128185000Y-91900000D01*
X128185000Y-90414975D01*
X128296431Y-90251890D01*
X128347440Y-90000000D01*
X128347440Y-88500000D01*
X128303162Y-88264683D01*
X128164090Y-88048559D01*
X127951890Y-87903569D01*
X127700000Y-87852560D01*
X127085000Y-87852560D01*
X127085000Y-87837332D01*
X127192192Y-87730327D01*
X127334838Y-87386799D01*
X127335162Y-87014833D01*
X127193117Y-86671057D01*
X127007384Y-86485000D01*
X127199995Y-86485000D01*
X127200000Y-86485001D01*
X127482484Y-86428810D01*
X127538675Y-86417633D01*
X127825790Y-86225790D01*
X127915830Y-86135750D01*
X128315000Y-86135750D01*
X128315000Y-86976310D01*
X128411673Y-87209699D01*
X128590302Y-87388327D01*
X128823691Y-87485000D01*
X129389250Y-87485000D01*
X129548000Y-87326250D01*
X129548000Y-85977000D01*
X129802000Y-85977000D01*
X129802000Y-87326250D01*
X129960750Y-87485000D01*
X130526309Y-87485000D01*
X130759698Y-87388327D01*
X130938327Y-87209699D01*
X131035000Y-86976310D01*
X131035000Y-86135750D01*
X130876250Y-85977000D01*
X129802000Y-85977000D01*
X129548000Y-85977000D01*
X128473750Y-85977000D01*
X128315000Y-86135750D01*
X127915830Y-86135750D01*
X128401165Y-85650415D01*
X128473750Y-85723000D01*
X129548000Y-85723000D01*
X129548000Y-85703000D01*
X129802000Y-85703000D01*
X129802000Y-85723000D01*
X130876250Y-85723000D01*
X131035000Y-85564250D01*
X131035000Y-84723690D01*
X130938327Y-84490301D01*
X130759698Y-84311673D01*
X130526309Y-84215000D01*
X129960750Y-84215000D01*
X129802002Y-84373748D01*
X129802002Y-84249577D01*
X131105787Y-82945792D01*
X131105790Y-82945790D01*
X131297633Y-82658675D01*
X131365000Y-82320000D01*
X131365000Y-79301126D01*
X131539670Y-79184415D01*
X131864526Y-78698234D01*
X131978600Y-78124745D01*
X131978600Y-77755255D01*
X131864526Y-77181766D01*
X131539670Y-76695585D01*
X131053489Y-76370729D01*
X130480000Y-76256655D01*
X130119869Y-76328290D01*
X124997533Y-71205953D01*
X125101441Y-71139090D01*
X125246431Y-70926890D01*
X125297440Y-70675000D01*
X125297440Y-70485000D01*
X126343554Y-70485000D01*
X126371838Y-70635317D01*
X126510910Y-70851441D01*
X126599047Y-70911662D01*
X126565180Y-70993223D01*
X126564821Y-71404971D01*
X126722058Y-71785515D01*
X127012954Y-72076919D01*
X127393223Y-72234820D01*
X127804971Y-72235179D01*
X128168433Y-72085000D01*
X132139995Y-72085000D01*
X132140000Y-72085001D01*
X132422484Y-72028810D01*
X132478675Y-72017633D01*
X132765790Y-71825790D01*
X136482177Y-68109402D01*
X136530729Y-68353489D01*
X136855585Y-68839670D01*
X137170366Y-69050000D01*
X136855585Y-69260330D01*
X136530729Y-69746511D01*
X136416655Y-70320000D01*
X136530729Y-70893489D01*
X136855585Y-71379670D01*
X137170366Y-71590000D01*
X136855585Y-71800330D01*
X136530729Y-72286511D01*
X136416655Y-72860000D01*
X136530729Y-73433489D01*
X136855585Y-73919670D01*
X137165069Y-74126461D01*
X136749268Y-74497964D01*
X136495291Y-75025209D01*
X136492642Y-75040974D01*
X136613783Y-75273000D01*
X137973000Y-75273000D01*
X137973000Y-75253000D01*
X138227000Y-75253000D01*
X138227000Y-75273000D01*
X139586217Y-75273000D01*
X139707358Y-75040974D01*
X139704709Y-75025209D01*
X139450732Y-74497964D01*
X139034931Y-74126461D01*
X139344415Y-73919670D01*
X139669271Y-73433489D01*
X139783345Y-72860000D01*
X139669271Y-72286511D01*
X139344415Y-71800330D01*
X139029634Y-71590000D01*
X139344415Y-71379670D01*
X139461126Y-71205000D01*
X141818874Y-71205000D01*
X141935585Y-71379670D01*
X142250366Y-71590000D01*
X141935585Y-71800330D01*
X141610729Y-72286511D01*
X141496655Y-72860000D01*
X141610729Y-73433489D01*
X141935585Y-73919670D01*
X142245069Y-74126461D01*
X141829268Y-74497964D01*
X141575291Y-75025209D01*
X141572642Y-75040974D01*
X141693783Y-75273000D01*
X143053000Y-75273000D01*
X143053000Y-75253000D01*
X143307000Y-75253000D01*
X143307000Y-75273000D01*
X144666217Y-75273000D01*
X144787358Y-75040974D01*
X144784709Y-75025209D01*
X144530732Y-74497964D01*
X144114931Y-74126461D01*
X144424415Y-73919670D01*
X144749271Y-73433489D01*
X144863345Y-72860000D01*
X144749271Y-72286511D01*
X144424415Y-71800330D01*
X144109634Y-71590000D01*
X144424415Y-71379670D01*
X144541126Y-71205000D01*
X146898874Y-71205000D01*
X147015585Y-71379670D01*
X147330366Y-71590000D01*
X147015585Y-71800330D01*
X146690729Y-72286511D01*
X146576655Y-72860000D01*
X146690729Y-73433489D01*
X147015585Y-73919670D01*
X147325069Y-74126461D01*
X146909268Y-74497964D01*
X146655291Y-75025209D01*
X146652642Y-75040974D01*
X146773783Y-75273000D01*
X148133000Y-75273000D01*
X148133000Y-75253000D01*
X148387000Y-75253000D01*
X148387000Y-75273000D01*
X148407000Y-75273000D01*
X148407000Y-75527000D01*
X148387000Y-75527000D01*
X148387000Y-76740924D01*
X148621913Y-76885184D01*
X149174320Y-76691954D01*
X149290000Y-76588598D01*
X149290000Y-79146458D01*
X149225880Y-79103725D01*
X147169605Y-81160000D01*
X149225880Y-83216275D01*
X149290000Y-83173542D01*
X149290000Y-99290000D01*
X135554240Y-99290000D01*
X135859271Y-98833489D01*
X135973345Y-98260000D01*
X135901711Y-97899869D01*
X138225787Y-95575792D01*
X138225790Y-95575790D01*
X138417633Y-95288675D01*
X138428810Y-95232484D01*
X138485001Y-94950000D01*
X138485000Y-94949995D01*
X138485000Y-83395880D01*
X144933725Y-83395880D01*
X145215421Y-83818564D01*
X146367892Y-84295294D01*
X147615072Y-84294705D01*
X148764579Y-83818564D01*
X149046275Y-83395880D01*
X146990000Y-81339605D01*
X144933725Y-83395880D01*
X138485000Y-83395880D01*
X138485000Y-80537892D01*
X143854706Y-80537892D01*
X143855295Y-81785072D01*
X144331436Y-82934579D01*
X144754120Y-83216275D01*
X146810395Y-81160000D01*
X144754120Y-79103725D01*
X144331436Y-79385421D01*
X143854706Y-80537892D01*
X138485000Y-80537892D01*
X138485000Y-78924120D01*
X144933725Y-78924120D01*
X146990000Y-80980395D01*
X149046275Y-78924120D01*
X148764579Y-78501436D01*
X147612108Y-78024706D01*
X146364928Y-78025295D01*
X145215421Y-78501436D01*
X144933725Y-78924120D01*
X138485000Y-78924120D01*
X138485000Y-78400005D01*
X138485001Y-78400000D01*
X138417633Y-78061326D01*
X138417633Y-78061325D01*
X138225790Y-77774210D01*
X138225787Y-77774208D01*
X136790074Y-76338494D01*
X137185680Y-76691954D01*
X137738087Y-76885184D01*
X137973000Y-76740924D01*
X137973000Y-75527000D01*
X138227000Y-75527000D01*
X138227000Y-76740924D01*
X138461913Y-76885184D01*
X139014320Y-76691954D01*
X139450732Y-76302036D01*
X139704709Y-75774791D01*
X139707358Y-75759026D01*
X141572642Y-75759026D01*
X141575291Y-75774791D01*
X141829268Y-76302036D01*
X142265680Y-76691954D01*
X142818087Y-76885184D01*
X143053000Y-76740924D01*
X143053000Y-75527000D01*
X143307000Y-75527000D01*
X143307000Y-76740924D01*
X143541913Y-76885184D01*
X144094320Y-76691954D01*
X144530732Y-76302036D01*
X144784709Y-75774791D01*
X144787358Y-75759026D01*
X146652642Y-75759026D01*
X146655291Y-75774791D01*
X146909268Y-76302036D01*
X147345680Y-76691954D01*
X147898087Y-76885184D01*
X148133000Y-76740924D01*
X148133000Y-75527000D01*
X146773783Y-75527000D01*
X146652642Y-75759026D01*
X144787358Y-75759026D01*
X144666217Y-75527000D01*
X143307000Y-75527000D01*
X143053000Y-75527000D01*
X141693783Y-75527000D01*
X141572642Y-75759026D01*
X139707358Y-75759026D01*
X139586217Y-75527000D01*
X138227000Y-75527000D01*
X137973000Y-75527000D01*
X136613783Y-75527000D01*
X136492642Y-75759026D01*
X136495291Y-75774791D01*
X136745228Y-76293648D01*
X134042744Y-73591164D01*
X133993117Y-73471057D01*
X133730327Y-73207808D01*
X133386799Y-73065162D01*
X133014833Y-73064838D01*
X132671057Y-73206883D01*
X132407808Y-73469673D01*
X132265162Y-73813201D01*
X132264838Y-74185167D01*
X132406883Y-74528943D01*
X132477710Y-74599893D01*
X132407808Y-74669673D01*
X132265162Y-75013201D01*
X132264838Y-75385167D01*
X132406883Y-75728943D01*
X132669673Y-75992192D01*
X132790986Y-76042566D01*
X135515000Y-78766579D01*
X135515000Y-79011284D01*
X135306000Y-78968960D01*
X133274000Y-78968960D01*
X133038683Y-79013238D01*
X132822559Y-79152310D01*
X132677569Y-79364510D01*
X132626560Y-79616400D01*
X132626560Y-81343600D01*
X132670838Y-81578917D01*
X132809910Y-81795041D01*
X133022110Y-81940031D01*
X133063439Y-81948400D01*
X133045585Y-81960330D01*
X132720729Y-82446511D01*
X132606655Y-83020000D01*
X132720729Y-83593489D01*
X133045585Y-84079670D01*
X133355069Y-84286461D01*
X132939268Y-84657964D01*
X132685291Y-85185209D01*
X132682642Y-85200974D01*
X132803783Y-85433000D01*
X134163000Y-85433000D01*
X134163000Y-85413000D01*
X134417000Y-85413000D01*
X134417000Y-85433000D01*
X134437000Y-85433000D01*
X134437000Y-85687000D01*
X134417000Y-85687000D01*
X134417000Y-85707000D01*
X134163000Y-85707000D01*
X134163000Y-85687000D01*
X132803783Y-85687000D01*
X132682642Y-85919026D01*
X132685291Y-85934791D01*
X132939268Y-86462036D01*
X133355069Y-86833539D01*
X133045585Y-87040330D01*
X132720729Y-87526511D01*
X132606655Y-88100000D01*
X132720729Y-88673489D01*
X133045585Y-89159670D01*
X133360366Y-89370000D01*
X133045585Y-89580330D01*
X132720729Y-90066511D01*
X132606655Y-90640000D01*
X132720729Y-91213489D01*
X133045585Y-91699670D01*
X133360366Y-91910000D01*
X133045585Y-92120330D01*
X132720729Y-92606511D01*
X132606655Y-93180000D01*
X132720729Y-93753489D01*
X133045585Y-94239670D01*
X133355069Y-94446461D01*
X132939268Y-94817964D01*
X132685291Y-95345209D01*
X132682642Y-95360974D01*
X132803783Y-95593000D01*
X134163000Y-95593000D01*
X134163000Y-95573000D01*
X134417000Y-95573000D01*
X134417000Y-95593000D01*
X134437000Y-95593000D01*
X134437000Y-95847000D01*
X134417000Y-95847000D01*
X134417000Y-95867000D01*
X134163000Y-95867000D01*
X134163000Y-95847000D01*
X132803783Y-95847000D01*
X132682642Y-96079026D01*
X132685291Y-96094791D01*
X132939268Y-96622036D01*
X133355069Y-96993539D01*
X133045585Y-97200330D01*
X132720729Y-97686511D01*
X132606655Y-98260000D01*
X132720729Y-98833489D01*
X133025760Y-99290000D01*
X100710000Y-99290000D01*
X100710000Y-97596630D01*
X102582975Y-97596630D01*
X102925566Y-98071277D01*
X104258800Y-98631342D01*
X105704875Y-98638568D01*
X107043639Y-98091854D01*
X107074434Y-98071277D01*
X107417025Y-97596630D01*
X105000000Y-95179605D01*
X102582975Y-97596630D01*
X100710000Y-97596630D01*
X100710000Y-95704875D01*
X101361432Y-95704875D01*
X101908146Y-97043639D01*
X101928723Y-97074434D01*
X102403370Y-97417025D01*
X104820395Y-95000000D01*
X105179605Y-95000000D01*
X107596630Y-97417025D01*
X108071277Y-97074434D01*
X108631342Y-95741200D01*
X108638568Y-94295125D01*
X108091854Y-92956361D01*
X108071277Y-92925566D01*
X107596630Y-92582975D01*
X105179605Y-95000000D01*
X104820395Y-95000000D01*
X102403370Y-92582975D01*
X101928723Y-92925566D01*
X101368658Y-94258800D01*
X101361432Y-95704875D01*
X100710000Y-95704875D01*
X100710000Y-92403370D01*
X102582975Y-92403370D01*
X105000000Y-94820395D01*
X107417025Y-92403370D01*
X107074434Y-91928723D01*
X105741200Y-91368658D01*
X104295125Y-91361432D01*
X102956361Y-91908146D01*
X102925566Y-91928723D01*
X102582975Y-92403370D01*
X100710000Y-92403370D01*
X100710000Y-72285750D01*
X103765000Y-72285750D01*
X103765000Y-72751310D01*
X103861673Y-72984699D01*
X104040302Y-73163327D01*
X104273691Y-73260000D01*
X104864250Y-73260000D01*
X105023000Y-73101250D01*
X105023000Y-72127000D01*
X103923750Y-72127000D01*
X103765000Y-72285750D01*
X100710000Y-72285750D01*
X100710000Y-71248690D01*
X103765000Y-71248690D01*
X103765000Y-71714250D01*
X103923750Y-71873000D01*
X105023000Y-71873000D01*
X105023000Y-70898750D01*
X104864250Y-70740000D01*
X104273691Y-70740000D01*
X104040302Y-70836673D01*
X103861673Y-71015301D01*
X103765000Y-71248690D01*
X100710000Y-71248690D01*
X100710000Y-64285750D01*
X103765000Y-64285750D01*
X103765000Y-64751310D01*
X103861673Y-64984699D01*
X104040302Y-65163327D01*
X104273691Y-65260000D01*
X104864250Y-65260000D01*
X105023000Y-65101250D01*
X105023000Y-64127000D01*
X103923750Y-64127000D01*
X103765000Y-64285750D01*
X100710000Y-64285750D01*
X100710000Y-58002946D01*
X100934017Y-58002946D01*
X101202812Y-58588379D01*
X101675182Y-59026385D01*
X102157056Y-59225975D01*
X102413000Y-59106836D01*
X102413000Y-57747000D01*
X101052633Y-57747000D01*
X100934017Y-58002946D01*
X100710000Y-58002946D01*
X100710000Y-57237054D01*
X100934017Y-57237054D01*
X101052633Y-57493000D01*
X102413000Y-57493000D01*
X102413000Y-56133164D01*
X102157056Y-56014025D01*
X101675182Y-56213615D01*
X101202812Y-56651621D01*
X100934017Y-57237054D01*
X100710000Y-57237054D01*
X100710000Y-50710000D01*
X149290000Y-50710000D01*
X149290000Y-63731795D01*
G36*
X114565000Y-93864250D02*
X114723750Y-94023000D01*
X115798000Y-94023000D01*
X115798000Y-94003000D01*
X116052000Y-94003000D01*
X116052000Y-94023000D01*
X117126250Y-94023000D01*
X117285000Y-93864250D01*
X117285000Y-93535000D01*
X119915000Y-93535000D01*
X119915000Y-94232415D01*
X119765180Y-94593223D01*
X119764821Y-95004971D01*
X119922058Y-95385515D01*
X120051317Y-95515000D01*
X117183026Y-95515000D01*
X117188327Y-95509699D01*
X117285000Y-95276310D01*
X117285000Y-94435750D01*
X117126250Y-94277000D01*
X116052000Y-94277000D01*
X116052000Y-94297000D01*
X115798000Y-94297000D01*
X115798000Y-94277000D01*
X114723750Y-94277000D01*
X114565000Y-94435750D01*
X114565000Y-95276310D01*
X114661673Y-95509699D01*
X114666974Y-95515000D01*
X114216579Y-95515000D01*
X114097440Y-95395861D01*
X114097440Y-94600000D01*
X114053162Y-94364683D01*
X113914090Y-94148559D01*
X113701890Y-94003569D01*
X113688803Y-94000919D01*
X113901441Y-93864090D01*
X114046431Y-93651890D01*
X114070102Y-93535000D01*
X114565000Y-93535000D01*
X114565000Y-93864250D01*
X114565000Y-93864250D01*
G37*
X114565000Y-93864250D02*
X114723750Y-94023000D01*
X115798000Y-94023000D01*
X115798000Y-94003000D01*
X116052000Y-94003000D01*
X116052000Y-94023000D01*
X117126250Y-94023000D01*
X117285000Y-93864250D01*
X117285000Y-93535000D01*
X119915000Y-93535000D01*
X119915000Y-94232415D01*
X119765180Y-94593223D01*
X119764821Y-95004971D01*
X119922058Y-95385515D01*
X120051317Y-95515000D01*
X117183026Y-95515000D01*
X117188327Y-95509699D01*
X117285000Y-95276310D01*
X117285000Y-94435750D01*
X117126250Y-94277000D01*
X116052000Y-94277000D01*
X116052000Y-94297000D01*
X115798000Y-94297000D01*
X115798000Y-94277000D01*
X114723750Y-94277000D01*
X114565000Y-94435750D01*
X114565000Y-95276310D01*
X114661673Y-95509699D01*
X114666974Y-95515000D01*
X114216579Y-95515000D01*
X114097440Y-95395861D01*
X114097440Y-94600000D01*
X114053162Y-94364683D01*
X113914090Y-94148559D01*
X113701890Y-94003569D01*
X113688803Y-94000919D01*
X113901441Y-93864090D01*
X114046431Y-93651890D01*
X114070102Y-93535000D01*
X114565000Y-93535000D01*
X114565000Y-93864250D01*
G36*
X125607808Y-86669673D02*
X125548296Y-86812994D01*
X125382367Y-87061325D01*
X125382367Y-87061326D01*
X125314999Y-87400000D01*
X125315000Y-87400005D01*
X125315000Y-87935750D01*
X125227000Y-88023750D01*
X125227000Y-88213818D01*
X125203569Y-88248110D01*
X125152560Y-88500000D01*
X125152560Y-90000000D01*
X125196838Y-90235317D01*
X125227000Y-90282190D01*
X125227000Y-90476250D01*
X125315000Y-90564250D01*
X125315000Y-91033421D01*
X121811266Y-94537154D01*
X121685000Y-94231567D01*
X121685000Y-93166580D01*
X123525787Y-91325792D01*
X123525790Y-91325790D01*
X123717633Y-91038675D01*
X123785000Y-90700000D01*
X123785000Y-90647440D01*
X124400000Y-90647440D01*
X124540087Y-90621081D01*
X124573691Y-90635000D01*
X124814250Y-90635000D01*
X124973000Y-90476250D01*
X124973000Y-90286182D01*
X124996431Y-90251890D01*
X125047440Y-90000000D01*
X125047440Y-88500000D01*
X125003162Y-88264683D01*
X124973000Y-88217810D01*
X124973000Y-88023750D01*
X124885000Y-87935750D01*
X124885000Y-86485000D01*
X125792804Y-86485000D01*
X125607808Y-86669673D01*
X125607808Y-86669673D01*
G37*
X125607808Y-86669673D02*
X125548296Y-86812994D01*
X125382367Y-87061325D01*
X125382367Y-87061326D01*
X125314999Y-87400000D01*
X125315000Y-87400005D01*
X125315000Y-87935750D01*
X125227000Y-88023750D01*
X125227000Y-88213818D01*
X125203569Y-88248110D01*
X125152560Y-88500000D01*
X125152560Y-90000000D01*
X125196838Y-90235317D01*
X125227000Y-90282190D01*
X125227000Y-90476250D01*
X125315000Y-90564250D01*
X125315000Y-91033421D01*
X121811266Y-94537154D01*
X121685000Y-94231567D01*
X121685000Y-93166580D01*
X123525787Y-91325792D01*
X123525790Y-91325790D01*
X123717633Y-91038675D01*
X123785000Y-90700000D01*
X123785000Y-90647440D01*
X124400000Y-90647440D01*
X124540087Y-90621081D01*
X124573691Y-90635000D01*
X124814250Y-90635000D01*
X124973000Y-90476250D01*
X124973000Y-90286182D01*
X124996431Y-90251890D01*
X125047440Y-90000000D01*
X125047440Y-88500000D01*
X125003162Y-88264683D01*
X124973000Y-88217810D01*
X124973000Y-88023750D01*
X124885000Y-87935750D01*
X124885000Y-86485000D01*
X125792804Y-86485000D01*
X125607808Y-86669673D01*
G36*
X114298110Y-71271431D02*
X114465000Y-71305227D01*
X114465000Y-73556026D01*
X114426309Y-73540000D01*
X113835750Y-73540000D01*
X113677000Y-73698750D01*
X113677000Y-74673000D01*
X113697000Y-74673000D01*
X113697000Y-74927000D01*
X113677000Y-74927000D01*
X113677000Y-74947000D01*
X113423000Y-74947000D01*
X113423000Y-74927000D01*
X111377000Y-74927000D01*
X111377000Y-75901250D01*
X111535750Y-76060000D01*
X112126309Y-76060000D01*
X112359698Y-75963327D01*
X112400000Y-75923025D01*
X112440302Y-75963327D01*
X112673691Y-76060000D01*
X113088420Y-76060000D01*
X111633420Y-77515000D01*
X111115267Y-77515000D01*
X110826827Y-77226056D01*
X110317756Y-77014671D01*
X109766542Y-77014190D01*
X109257103Y-77224686D01*
X108866996Y-77614113D01*
X108655611Y-78123184D01*
X108655130Y-78674398D01*
X108865626Y-79183837D01*
X109255053Y-79573944D01*
X109764124Y-79785329D01*
X110315338Y-79785810D01*
X110824777Y-79575314D01*
X111115598Y-79285000D01*
X111999995Y-79285000D01*
X112000000Y-79285001D01*
X112297667Y-79225790D01*
X112338675Y-79217633D01*
X112625790Y-79025790D01*
X112625791Y-79025789D01*
X115579139Y-76072440D01*
X116800000Y-76072440D01*
X117035317Y-76028162D01*
X117082767Y-75997629D01*
X117413201Y-76134838D01*
X117785167Y-76135162D01*
X118128943Y-75993117D01*
X118315000Y-75807384D01*
X118315000Y-76153421D01*
X118191861Y-76276560D01*
X116916400Y-76276560D01*
X116681083Y-76320838D01*
X116464959Y-76459910D01*
X116319969Y-76672110D01*
X116268960Y-76924000D01*
X116268960Y-78956000D01*
X116313238Y-79191317D01*
X116452310Y-79407441D01*
X116664510Y-79552431D01*
X116916400Y-79603440D01*
X118643600Y-79603440D01*
X118878917Y-79559162D01*
X119095041Y-79420090D01*
X119240031Y-79207890D01*
X119248400Y-79166561D01*
X119260330Y-79184415D01*
X119746511Y-79509271D01*
X120015087Y-79562694D01*
X119882367Y-79761325D01*
X119882367Y-79761326D01*
X119814999Y-80100000D01*
X119815000Y-80100005D01*
X119815000Y-87852560D01*
X119200000Y-87852560D01*
X118964683Y-87896838D01*
X118748559Y-88035910D01*
X118603569Y-88248110D01*
X118579898Y-88365000D01*
X114097440Y-88365000D01*
X114097440Y-87100000D01*
X114053162Y-86864683D01*
X113972052Y-86738634D01*
X114060000Y-86526309D01*
X114060000Y-86135750D01*
X114565000Y-86135750D01*
X114565000Y-86976310D01*
X114661673Y-87209699D01*
X114840302Y-87388327D01*
X115073691Y-87485000D01*
X115639250Y-87485000D01*
X115798000Y-87326250D01*
X115798000Y-85977000D01*
X116052000Y-85977000D01*
X116052000Y-87326250D01*
X116210750Y-87485000D01*
X116776309Y-87485000D01*
X117009698Y-87388327D01*
X117188327Y-87209699D01*
X117285000Y-86976310D01*
X117285000Y-86135750D01*
X117126250Y-85977000D01*
X116052000Y-85977000D01*
X115798000Y-85977000D01*
X114723750Y-85977000D01*
X114565000Y-86135750D01*
X114060000Y-86135750D01*
X114060000Y-85935750D01*
X113901250Y-85777000D01*
X112927000Y-85777000D01*
X112927000Y-85797000D01*
X112673000Y-85797000D01*
X112673000Y-85777000D01*
X112653000Y-85777000D01*
X112653000Y-85523000D01*
X112673000Y-85523000D01*
X112673000Y-85503000D01*
X112927000Y-85503000D01*
X112927000Y-85523000D01*
X113901250Y-85523000D01*
X114060000Y-85364250D01*
X114060000Y-84773691D01*
X114039289Y-84723690D01*
X114565000Y-84723690D01*
X114565000Y-85564250D01*
X114723750Y-85723000D01*
X115798000Y-85723000D01*
X115798000Y-84373750D01*
X116052000Y-84373750D01*
X116052000Y-85723000D01*
X117126250Y-85723000D01*
X117285000Y-85564250D01*
X117285000Y-84723690D01*
X117188327Y-84490301D01*
X117009698Y-84311673D01*
X116776309Y-84215000D01*
X116210750Y-84215000D01*
X116052000Y-84373750D01*
X115798000Y-84373750D01*
X115639250Y-84215000D01*
X115073691Y-84215000D01*
X114840302Y-84311673D01*
X114661673Y-84490301D01*
X114565000Y-84723690D01*
X114039289Y-84723690D01*
X113963327Y-84540302D01*
X113822090Y-84399064D01*
X113876441Y-84364090D01*
X114021431Y-84151890D01*
X114072440Y-83900000D01*
X114072440Y-82400000D01*
X114028162Y-82164683D01*
X113889090Y-81948559D01*
X113676890Y-81803569D01*
X113425000Y-81752560D01*
X112175000Y-81752560D01*
X111939683Y-81796838D01*
X111887520Y-81830404D01*
X111701890Y-81703569D01*
X111450000Y-81652560D01*
X110150000Y-81652560D01*
X109914683Y-81696838D01*
X109698559Y-81835910D01*
X109553569Y-82048110D01*
X109535973Y-82135000D01*
X108825740Y-82135000D01*
X108709029Y-81960330D01*
X108222848Y-81635474D01*
X107649359Y-81521400D01*
X107590641Y-81521400D01*
X107409092Y-81557512D01*
X105577764Y-79726184D01*
X105942897Y-79575314D01*
X106333004Y-79185887D01*
X106544389Y-78676816D01*
X106544748Y-78265892D01*
X108738199Y-76072440D01*
X109500000Y-76072440D01*
X109735317Y-76028162D01*
X109951441Y-75889090D01*
X109997969Y-75820994D01*
X110140302Y-75963327D01*
X110373691Y-76060000D01*
X110964250Y-76060000D01*
X111123000Y-75901250D01*
X111123000Y-74927000D01*
X111103000Y-74927000D01*
X111103000Y-74673000D01*
X111123000Y-74673000D01*
X111123000Y-74653000D01*
X111377000Y-74653000D01*
X111377000Y-74673000D01*
X113423000Y-74673000D01*
X113423000Y-73698750D01*
X113264250Y-73540000D01*
X112911580Y-73540000D01*
X113825787Y-72625792D01*
X113825790Y-72625790D01*
X114017633Y-72338675D01*
X114022342Y-72315000D01*
X114085001Y-72000000D01*
X114085000Y-71999995D01*
X114085000Y-71166580D01*
X114109215Y-71142365D01*
X114298110Y-71271431D01*
X114298110Y-71271431D01*
G37*
X114298110Y-71271431D02*
X114465000Y-71305227D01*
X114465000Y-73556026D01*
X114426309Y-73540000D01*
X113835750Y-73540000D01*
X113677000Y-73698750D01*
X113677000Y-74673000D01*
X113697000Y-74673000D01*
X113697000Y-74927000D01*
X113677000Y-74927000D01*
X113677000Y-74947000D01*
X113423000Y-74947000D01*
X113423000Y-74927000D01*
X111377000Y-74927000D01*
X111377000Y-75901250D01*
X111535750Y-76060000D01*
X112126309Y-76060000D01*
X112359698Y-75963327D01*
X112400000Y-75923025D01*
X112440302Y-75963327D01*
X112673691Y-76060000D01*
X113088420Y-76060000D01*
X111633420Y-77515000D01*
X111115267Y-77515000D01*
X110826827Y-77226056D01*
X110317756Y-77014671D01*
X109766542Y-77014190D01*
X109257103Y-77224686D01*
X108866996Y-77614113D01*
X108655611Y-78123184D01*
X108655130Y-78674398D01*
X108865626Y-79183837D01*
X109255053Y-79573944D01*
X109764124Y-79785329D01*
X110315338Y-79785810D01*
X110824777Y-79575314D01*
X111115598Y-79285000D01*
X111999995Y-79285000D01*
X112000000Y-79285001D01*
X112297667Y-79225790D01*
X112338675Y-79217633D01*
X112625790Y-79025790D01*
X112625791Y-79025789D01*
X115579139Y-76072440D01*
X116800000Y-76072440D01*
X117035317Y-76028162D01*
X117082767Y-75997629D01*
X117413201Y-76134838D01*
X117785167Y-76135162D01*
X118128943Y-75993117D01*
X118315000Y-75807384D01*
X118315000Y-76153421D01*
X118191861Y-76276560D01*
X116916400Y-76276560D01*
X116681083Y-76320838D01*
X116464959Y-76459910D01*
X116319969Y-76672110D01*
X116268960Y-76924000D01*
X116268960Y-78956000D01*
X116313238Y-79191317D01*
X116452310Y-79407441D01*
X116664510Y-79552431D01*
X116916400Y-79603440D01*
X118643600Y-79603440D01*
X118878917Y-79559162D01*
X119095041Y-79420090D01*
X119240031Y-79207890D01*
X119248400Y-79166561D01*
X119260330Y-79184415D01*
X119746511Y-79509271D01*
X120015087Y-79562694D01*
X119882367Y-79761325D01*
X119882367Y-79761326D01*
X119814999Y-80100000D01*
X119815000Y-80100005D01*
X119815000Y-87852560D01*
X119200000Y-87852560D01*
X118964683Y-87896838D01*
X118748559Y-88035910D01*
X118603569Y-88248110D01*
X118579898Y-88365000D01*
X114097440Y-88365000D01*
X114097440Y-87100000D01*
X114053162Y-86864683D01*
X113972052Y-86738634D01*
X114060000Y-86526309D01*
X114060000Y-86135750D01*
X114565000Y-86135750D01*
X114565000Y-86976310D01*
X114661673Y-87209699D01*
X114840302Y-87388327D01*
X115073691Y-87485000D01*
X115639250Y-87485000D01*
X115798000Y-87326250D01*
X115798000Y-85977000D01*
X116052000Y-85977000D01*
X116052000Y-87326250D01*
X116210750Y-87485000D01*
X116776309Y-87485000D01*
X117009698Y-87388327D01*
X117188327Y-87209699D01*
X117285000Y-86976310D01*
X117285000Y-86135750D01*
X117126250Y-85977000D01*
X116052000Y-85977000D01*
X115798000Y-85977000D01*
X114723750Y-85977000D01*
X114565000Y-86135750D01*
X114060000Y-86135750D01*
X114060000Y-85935750D01*
X113901250Y-85777000D01*
X112927000Y-85777000D01*
X112927000Y-85797000D01*
X112673000Y-85797000D01*
X112673000Y-85777000D01*
X112653000Y-85777000D01*
X112653000Y-85523000D01*
X112673000Y-85523000D01*
X112673000Y-85503000D01*
X112927000Y-85503000D01*
X112927000Y-85523000D01*
X113901250Y-85523000D01*
X114060000Y-85364250D01*
X114060000Y-84773691D01*
X114039289Y-84723690D01*
X114565000Y-84723690D01*
X114565000Y-85564250D01*
X114723750Y-85723000D01*
X115798000Y-85723000D01*
X115798000Y-84373750D01*
X116052000Y-84373750D01*
X116052000Y-85723000D01*
X117126250Y-85723000D01*
X117285000Y-85564250D01*
X117285000Y-84723690D01*
X117188327Y-84490301D01*
X117009698Y-84311673D01*
X116776309Y-84215000D01*
X116210750Y-84215000D01*
X116052000Y-84373750D01*
X115798000Y-84373750D01*
X115639250Y-84215000D01*
X115073691Y-84215000D01*
X114840302Y-84311673D01*
X114661673Y-84490301D01*
X114565000Y-84723690D01*
X114039289Y-84723690D01*
X113963327Y-84540302D01*
X113822090Y-84399064D01*
X113876441Y-84364090D01*
X114021431Y-84151890D01*
X114072440Y-83900000D01*
X114072440Y-82400000D01*
X114028162Y-82164683D01*
X113889090Y-81948559D01*
X113676890Y-81803569D01*
X113425000Y-81752560D01*
X112175000Y-81752560D01*
X111939683Y-81796838D01*
X111887520Y-81830404D01*
X111701890Y-81703569D01*
X111450000Y-81652560D01*
X110150000Y-81652560D01*
X109914683Y-81696838D01*
X109698559Y-81835910D01*
X109553569Y-82048110D01*
X109535973Y-82135000D01*
X108825740Y-82135000D01*
X108709029Y-81960330D01*
X108222848Y-81635474D01*
X107649359Y-81521400D01*
X107590641Y-81521400D01*
X107409092Y-81557512D01*
X105577764Y-79726184D01*
X105942897Y-79575314D01*
X106333004Y-79185887D01*
X106544389Y-78676816D01*
X106544748Y-78265892D01*
X108738199Y-76072440D01*
X109500000Y-76072440D01*
X109735317Y-76028162D01*
X109951441Y-75889090D01*
X109997969Y-75820994D01*
X110140302Y-75963327D01*
X110373691Y-76060000D01*
X110964250Y-76060000D01*
X111123000Y-75901250D01*
X111123000Y-74927000D01*
X111103000Y-74927000D01*
X111103000Y-74673000D01*
X111123000Y-74673000D01*
X111123000Y-74653000D01*
X111377000Y-74653000D01*
X111377000Y-74673000D01*
X113423000Y-74673000D01*
X113423000Y-73698750D01*
X113264250Y-73540000D01*
X112911580Y-73540000D01*
X113825787Y-72625792D01*
X113825790Y-72625790D01*
X114017633Y-72338675D01*
X114022342Y-72315000D01*
X114085001Y-72000000D01*
X114085000Y-71999995D01*
X114085000Y-71166580D01*
X114109215Y-71142365D01*
X114298110Y-71271431D01*
G36*
X110340000Y-68464250D02*
X110498750Y-68623000D01*
X111473000Y-68623000D01*
X111473000Y-68603000D01*
X111727000Y-68603000D01*
X111727000Y-68623000D01*
X111747000Y-68623000D01*
X111747000Y-68877000D01*
X111727000Y-68877000D01*
X111727000Y-68897000D01*
X111473000Y-68897000D01*
X111473000Y-68877000D01*
X110498750Y-68877000D01*
X110340000Y-69035750D01*
X110340000Y-69626309D01*
X110436673Y-69859698D01*
X110577910Y-70000936D01*
X110523559Y-70035910D01*
X110378569Y-70248110D01*
X110327560Y-70500000D01*
X110327560Y-70820861D01*
X109685000Y-71463420D01*
X109685000Y-68766580D01*
X110340000Y-68111580D01*
X110340000Y-68464250D01*
X110340000Y-68464250D01*
G37*
X110340000Y-68464250D02*
X110498750Y-68623000D01*
X111473000Y-68623000D01*
X111473000Y-68603000D01*
X111727000Y-68603000D01*
X111727000Y-68623000D01*
X111747000Y-68623000D01*
X111747000Y-68877000D01*
X111727000Y-68877000D01*
X111727000Y-68897000D01*
X111473000Y-68897000D01*
X111473000Y-68877000D01*
X110498750Y-68877000D01*
X110340000Y-69035750D01*
X110340000Y-69626309D01*
X110436673Y-69859698D01*
X110577910Y-70000936D01*
X110523559Y-70035910D01*
X110378569Y-70248110D01*
X110327560Y-70500000D01*
X110327560Y-70820861D01*
X109685000Y-71463420D01*
X109685000Y-68766580D01*
X110340000Y-68111580D01*
X110340000Y-68464250D01*
G36*
X116720330Y-53784415D02*
X116895000Y-53901126D01*
X116895000Y-56258874D01*
X116720330Y-56375585D01*
X116513539Y-56685069D01*
X116142036Y-56269268D01*
X115614791Y-56015291D01*
X115599026Y-56012642D01*
X115367000Y-56133783D01*
X115367000Y-57493000D01*
X115387000Y-57493000D01*
X115387000Y-57747000D01*
X115367000Y-57747000D01*
X115367000Y-57767000D01*
X115113000Y-57767000D01*
X115113000Y-57747000D01*
X115093000Y-57747000D01*
X115093000Y-57493000D01*
X115113000Y-57493000D01*
X115113000Y-56133783D01*
X114880974Y-56012642D01*
X114865209Y-56015291D01*
X114485000Y-56198440D01*
X114485000Y-54546580D01*
X114879869Y-54151711D01*
X115240000Y-54223345D01*
X115813489Y-54109271D01*
X116299670Y-53784415D01*
X116510000Y-53469634D01*
X116720330Y-53784415D01*
X116720330Y-53784415D01*
G37*
X116720330Y-53784415D02*
X116895000Y-53901126D01*
X116895000Y-56258874D01*
X116720330Y-56375585D01*
X116513539Y-56685069D01*
X116142036Y-56269268D01*
X115614791Y-56015291D01*
X115599026Y-56012642D01*
X115367000Y-56133783D01*
X115367000Y-57493000D01*
X115387000Y-57493000D01*
X115387000Y-57747000D01*
X115367000Y-57747000D01*
X115367000Y-57767000D01*
X115113000Y-57767000D01*
X115113000Y-57747000D01*
X115093000Y-57747000D01*
X115093000Y-57493000D01*
X115113000Y-57493000D01*
X115113000Y-56133783D01*
X114880974Y-56012642D01*
X114865209Y-56015291D01*
X114485000Y-56198440D01*
X114485000Y-54546580D01*
X114879869Y-54151711D01*
X115240000Y-54223345D01*
X115813489Y-54109271D01*
X116299670Y-53784415D01*
X116510000Y-53469634D01*
X116720330Y-53784415D01*
M02*
