G04 #@! TF.FileFunction,Legend,Bot*
%FSLAX46Y46*%
G04 Gerber Fmt 4.6, Leading zero omitted, Abs format (unit mm)*
G04 Created by KiCad (PCBNEW 4.0.0-rc1-stable) date Sa 26 Sep 2015 08:23:03 CEST*
%MOMM*%
G01*
G04 APERTURE LIST*
%ADD10C,0.100000*%
%ADD11C,0.300000*%
%ADD12C,0.066040*%
%ADD13C,0.152400*%
%ADD14C,1.270000*%
%ADD15C,0.010000*%
%ADD16C,1.000000*%
%ADD17C,0.004445*%
%ADD18C,0.088900*%
%ADD19C,0.150000*%
%ADD20C,0.500000*%
G04 APERTURE END LIST*
D10*
D11*
X134757143Y-54900001D02*
X137185714Y-54900001D01*
X137471429Y-55042858D01*
X137614286Y-55185715D01*
X137757143Y-55471429D01*
X137757143Y-56042858D01*
X137614286Y-56328572D01*
X137471429Y-56471429D01*
X137185714Y-56614286D01*
X134757143Y-56614286D01*
X137757143Y-59614286D02*
X137757143Y-57900001D01*
X137757143Y-58757143D02*
X134757143Y-58757143D01*
X135185714Y-58471429D01*
X135471429Y-58185715D01*
X135614286Y-57900001D01*
X137757143Y-62328572D02*
X137757143Y-60900001D01*
X134757143Y-60900001D01*
X137404762Y-83028570D02*
X139023810Y-83028570D01*
X139214286Y-83123809D01*
X139309524Y-83219047D01*
X139404762Y-83409523D01*
X139404762Y-83790475D01*
X139309524Y-83980951D01*
X139214286Y-84076190D01*
X139023810Y-84171428D01*
X137404762Y-84171428D01*
X138071429Y-85980951D02*
X139690476Y-85980951D01*
X139880952Y-85885713D01*
X139976190Y-85790475D01*
X140071429Y-85599999D01*
X140071429Y-85314285D01*
X139976190Y-85123808D01*
X139309524Y-85980951D02*
X139404762Y-85790475D01*
X139404762Y-85409523D01*
X139309524Y-85219047D01*
X139214286Y-85123808D01*
X139023810Y-85028570D01*
X138452381Y-85028570D01*
X138261905Y-85123808D01*
X138166667Y-85219047D01*
X138071429Y-85409523D01*
X138071429Y-85790475D01*
X138166667Y-85980951D01*
X139404762Y-87219047D02*
X139309524Y-87028571D01*
X139214286Y-86933332D01*
X139023810Y-86838094D01*
X138452381Y-86838094D01*
X138261905Y-86933332D01*
X138166667Y-87028571D01*
X138071429Y-87219047D01*
X138071429Y-87504761D01*
X138166667Y-87695237D01*
X138261905Y-87790475D01*
X138452381Y-87885713D01*
X139023810Y-87885713D01*
X139214286Y-87790475D01*
X139309524Y-87695237D01*
X139404762Y-87504761D01*
X139404762Y-87219047D01*
X139309524Y-89504761D02*
X139404762Y-89314285D01*
X139404762Y-88933333D01*
X139309524Y-88742856D01*
X139119048Y-88647618D01*
X138357143Y-88647618D01*
X138166667Y-88742856D01*
X138071429Y-88933333D01*
X138071429Y-89314285D01*
X138166667Y-89504761D01*
X138357143Y-89599999D01*
X138547619Y-89599999D01*
X138738095Y-88647618D01*
X139309524Y-90361904D02*
X139404762Y-90552381D01*
X139404762Y-90933333D01*
X139309524Y-91123809D01*
X139119048Y-91219047D01*
X139023810Y-91219047D01*
X138833333Y-91123809D01*
X138738095Y-90933333D01*
X138738095Y-90647619D01*
X138642857Y-90457142D01*
X138452381Y-90361904D01*
X138357143Y-90361904D01*
X138166667Y-90457142D01*
X138071429Y-90647619D01*
X138071429Y-90933333D01*
X138166667Y-91123809D01*
X139309524Y-91980952D02*
X139404762Y-92266667D01*
X139404762Y-92742857D01*
X139309524Y-92933333D01*
X139214286Y-93028571D01*
X139023810Y-93123810D01*
X138833333Y-93123810D01*
X138642857Y-93028571D01*
X138547619Y-92933333D01*
X138452381Y-92742857D01*
X138357143Y-92361905D01*
X138261905Y-92171429D01*
X138166667Y-92076190D01*
X137976190Y-91980952D01*
X137785714Y-91980952D01*
X137595238Y-92076190D01*
X137500000Y-92171429D01*
X137404762Y-92361905D01*
X137404762Y-92838095D01*
X137500000Y-93123810D01*
X139404762Y-93980952D02*
X137404762Y-93980952D01*
X138642857Y-94171429D02*
X139404762Y-94742857D01*
X138071429Y-94742857D02*
X138833333Y-93980952D01*
X138071429Y-95409524D02*
X139404762Y-95885715D01*
X138071429Y-96361905D02*
X139404762Y-95885715D01*
X139880952Y-95695239D01*
X139976190Y-95600000D01*
X140071429Y-95409524D01*
X142504762Y-81980952D02*
X140504762Y-81980952D01*
X140504762Y-82457143D01*
X140600000Y-82742857D01*
X140790476Y-82933333D01*
X140980952Y-83028572D01*
X141361905Y-83123810D01*
X141647619Y-83123810D01*
X142028571Y-83028572D01*
X142219048Y-82933333D01*
X142409524Y-82742857D01*
X142504762Y-82457143D01*
X142504762Y-81980952D01*
X142504762Y-84838095D02*
X141457143Y-84838095D01*
X141266667Y-84742857D01*
X141171429Y-84552381D01*
X141171429Y-84171429D01*
X141266667Y-83980952D01*
X142409524Y-84838095D02*
X142504762Y-84647619D01*
X142504762Y-84171429D01*
X142409524Y-83980952D01*
X142219048Y-83885714D01*
X142028571Y-83885714D01*
X141838095Y-83980952D01*
X141742857Y-84171429D01*
X141742857Y-84647619D01*
X141647619Y-84838095D01*
X141171429Y-85504762D02*
X141171429Y-86266667D01*
X140504762Y-85790476D02*
X142219048Y-85790476D01*
X142409524Y-85885715D01*
X142504762Y-86076191D01*
X142504762Y-86266667D01*
X142504762Y-87790476D02*
X141457143Y-87790476D01*
X141266667Y-87695238D01*
X141171429Y-87504762D01*
X141171429Y-87123810D01*
X141266667Y-86933333D01*
X142409524Y-87790476D02*
X142504762Y-87600000D01*
X142504762Y-87123810D01*
X142409524Y-86933333D01*
X142219048Y-86838095D01*
X142028571Y-86838095D01*
X141838095Y-86933333D01*
X141742857Y-87123810D01*
X141742857Y-87600000D01*
X141647619Y-87790476D01*
X142504762Y-89028572D02*
X142409524Y-88838096D01*
X142219048Y-88742857D01*
X140504762Y-88742857D01*
X142504762Y-90076191D02*
X142409524Y-89885715D01*
X142314286Y-89790476D01*
X142123810Y-89695238D01*
X141552381Y-89695238D01*
X141361905Y-89790476D01*
X141266667Y-89885715D01*
X141171429Y-90076191D01*
X141171429Y-90361905D01*
X141266667Y-90552381D01*
X141361905Y-90647619D01*
X141552381Y-90742857D01*
X142123810Y-90742857D01*
X142314286Y-90647619D01*
X142409524Y-90552381D01*
X142504762Y-90361905D01*
X142504762Y-90076191D01*
X141171429Y-92457143D02*
X142790476Y-92457143D01*
X142980952Y-92361905D01*
X143076190Y-92266667D01*
X143171429Y-92076191D01*
X143171429Y-91790477D01*
X143076190Y-91600000D01*
X142409524Y-92457143D02*
X142504762Y-92266667D01*
X142504762Y-91885715D01*
X142409524Y-91695239D01*
X142314286Y-91600000D01*
X142123810Y-91504762D01*
X141552381Y-91504762D01*
X141361905Y-91600000D01*
X141266667Y-91695239D01*
X141171429Y-91885715D01*
X141171429Y-92266667D01*
X141266667Y-92457143D01*
X141171429Y-94266667D02*
X142790476Y-94266667D01*
X142980952Y-94171429D01*
X143076190Y-94076191D01*
X143171429Y-93885715D01*
X143171429Y-93600001D01*
X143076190Y-93409524D01*
X142409524Y-94266667D02*
X142504762Y-94076191D01*
X142504762Y-93695239D01*
X142409524Y-93504763D01*
X142314286Y-93409524D01*
X142123810Y-93314286D01*
X141552381Y-93314286D01*
X141361905Y-93409524D01*
X141266667Y-93504763D01*
X141171429Y-93695239D01*
X141171429Y-94076191D01*
X141266667Y-94266667D01*
X142409524Y-95980953D02*
X142504762Y-95790477D01*
X142504762Y-95409525D01*
X142409524Y-95219048D01*
X142219048Y-95123810D01*
X141457143Y-95123810D01*
X141266667Y-95219048D01*
X141171429Y-95409525D01*
X141171429Y-95790477D01*
X141266667Y-95980953D01*
X141457143Y-96076191D01*
X141647619Y-96076191D01*
X141838095Y-95123810D01*
X142504762Y-96933334D02*
X141171429Y-96933334D01*
X141552381Y-96933334D02*
X141361905Y-97028573D01*
X141266667Y-97123811D01*
X141171429Y-97314287D01*
X141171429Y-97504763D01*
X143604762Y-87980952D02*
X145604762Y-88647619D01*
X143604762Y-89314286D01*
X143795238Y-89885714D02*
X143700000Y-89980952D01*
X143604762Y-90171429D01*
X143604762Y-90647619D01*
X143700000Y-90838095D01*
X143795238Y-90933333D01*
X143985714Y-91028572D01*
X144176190Y-91028572D01*
X144461905Y-90933333D01*
X145604762Y-89790476D01*
X145604762Y-91028572D01*
D12*
X129708000Y-97562000D02*
X128692000Y-97562000D01*
X128692000Y-97562000D02*
X128692000Y-96038000D01*
X129708000Y-96038000D02*
X128692000Y-96038000D01*
X129708000Y-97562000D02*
X129708000Y-96038000D01*
D13*
X127041000Y-97816000D02*
X131359000Y-97816000D01*
X126787000Y-97562000D02*
X126787000Y-96038000D01*
X131613000Y-97562000D02*
X131613000Y-96038000D01*
X131359000Y-95784000D02*
X127041000Y-95784000D01*
X127422000Y-96800000D02*
X126914000Y-96800000D01*
X130978000Y-96800000D02*
X131486000Y-96800000D01*
X129200000Y-96038000D02*
X129200000Y-95784000D01*
X129200000Y-97816000D02*
X129200000Y-97562000D01*
X126787000Y-96038000D02*
G75*
G02X127041000Y-95784000I254000J0D01*
G01*
X131359000Y-95784000D02*
G75*
G02X131613000Y-96038000I0J-254000D01*
G01*
X131613000Y-97562000D02*
G75*
G02X131359000Y-97816000I-254000J0D01*
G01*
X127041000Y-97816000D02*
G75*
G02X126787000Y-97562000I0J254000D01*
G01*
D14*
X128184000Y-96927000D02*
G75*
G02X128184000Y-96673000I0J127000D01*
G01*
X130216000Y-96673000D02*
G75*
G02X130216000Y-96927000I0J-127000D01*
G01*
D15*
G36*
X120198876Y-96491865D02*
X120199022Y-96623708D01*
X120199297Y-96737005D01*
X120199724Y-96833073D01*
X120200329Y-96913225D01*
X120201135Y-96978777D01*
X120202168Y-97031044D01*
X120203453Y-97071340D01*
X120205013Y-97100981D01*
X120206874Y-97121282D01*
X120209060Y-97133558D01*
X120211597Y-97139123D01*
X120213833Y-97139653D01*
X120225539Y-97132492D01*
X120252639Y-97114479D01*
X120293203Y-97086937D01*
X120345303Y-97051192D01*
X120407010Y-97008569D01*
X120476394Y-96960394D01*
X120551527Y-96907992D01*
X120579111Y-96888698D01*
X120929387Y-96643500D01*
X120929387Y-96203001D01*
X125095664Y-92504460D01*
X125351775Y-92277091D01*
X125603904Y-92053236D01*
X125851588Y-91833303D01*
X126094366Y-91617706D01*
X126331776Y-91406855D01*
X126563354Y-91201161D01*
X126788640Y-91001034D01*
X127007171Y-90806887D01*
X127218484Y-90619129D01*
X127422117Y-90438172D01*
X127617608Y-90264427D01*
X127804495Y-90098305D01*
X127982315Y-89940217D01*
X128150607Y-89790574D01*
X128308908Y-89649787D01*
X128456755Y-89518266D01*
X128593688Y-89396424D01*
X128719242Y-89284670D01*
X128832957Y-89183417D01*
X128934369Y-89093074D01*
X129023018Y-89014053D01*
X129098439Y-88946765D01*
X129160172Y-88891622D01*
X129207754Y-88849033D01*
X129240722Y-88819410D01*
X129258615Y-88803163D01*
X129261942Y-88799971D01*
X129254100Y-88792644D01*
X129230882Y-88771672D01*
X129192751Y-88737467D01*
X129140168Y-88690439D01*
X129073595Y-88631000D01*
X128993496Y-88559560D01*
X128900332Y-88476531D01*
X128794566Y-88382324D01*
X128676659Y-88277349D01*
X128547074Y-88162018D01*
X128406273Y-88036741D01*
X128254719Y-87901931D01*
X128092873Y-87757996D01*
X127921198Y-87605350D01*
X127740156Y-87444402D01*
X127550209Y-87275564D01*
X127351820Y-87099246D01*
X127145451Y-86915860D01*
X126931563Y-86725817D01*
X126710620Y-86529527D01*
X126483083Y-86327403D01*
X126249415Y-86119854D01*
X126010078Y-85907291D01*
X125765533Y-85690126D01*
X125516245Y-85468770D01*
X125262673Y-85243634D01*
X125095664Y-85095366D01*
X120929387Y-81396708D01*
X120929387Y-80956500D01*
X120579111Y-80711303D01*
X120502403Y-80657721D01*
X120430760Y-80607897D01*
X120366110Y-80563157D01*
X120310382Y-80524824D01*
X120265507Y-80494226D01*
X120233413Y-80472687D01*
X120216030Y-80461533D01*
X120213767Y-80460323D01*
X120210942Y-80461503D01*
X120208504Y-80468246D01*
X120206434Y-80481868D01*
X120204712Y-80503687D01*
X120203317Y-80535019D01*
X120202228Y-80577183D01*
X120201426Y-80631495D01*
X120200891Y-80699273D01*
X120200601Y-80781834D01*
X120200537Y-80880495D01*
X120200678Y-80996574D01*
X120201004Y-81131387D01*
X120201413Y-81262080D01*
X120204126Y-82069618D01*
X124391579Y-85431030D01*
X124653742Y-85641493D01*
X124911744Y-85848643D01*
X125165094Y-86052087D01*
X125413300Y-86251430D01*
X125655872Y-86446276D01*
X125892318Y-86636230D01*
X126122149Y-86820898D01*
X126344872Y-86999884D01*
X126559996Y-87172794D01*
X126767032Y-87339232D01*
X126965487Y-87498803D01*
X127154871Y-87651112D01*
X127334693Y-87795765D01*
X127504461Y-87932366D01*
X127663686Y-88060520D01*
X127811875Y-88179833D01*
X127948538Y-88289908D01*
X128073184Y-88390352D01*
X128185321Y-88480769D01*
X128284460Y-88560764D01*
X128370108Y-88629942D01*
X128441775Y-88687908D01*
X128498970Y-88734267D01*
X128541202Y-88768624D01*
X128567979Y-88790584D01*
X128578812Y-88799752D01*
X128579033Y-88800007D01*
X128570856Y-88807044D01*
X128546655Y-88826939D01*
X128506918Y-88859295D01*
X128452138Y-88903719D01*
X128382805Y-88959815D01*
X128299410Y-89027189D01*
X128202444Y-89105445D01*
X128092398Y-89194189D01*
X127969761Y-89293026D01*
X127835026Y-89401560D01*
X127688683Y-89519398D01*
X127531223Y-89646144D01*
X127363137Y-89781403D01*
X127184915Y-89924780D01*
X126997048Y-90075881D01*
X126800028Y-90234310D01*
X126594345Y-90399672D01*
X126380489Y-90571573D01*
X126158952Y-90749618D01*
X125930225Y-90933412D01*
X125694797Y-91122560D01*
X125453161Y-91316667D01*
X125205807Y-91515338D01*
X124953226Y-91718178D01*
X124695908Y-91924793D01*
X124434345Y-92134786D01*
X124388932Y-92171243D01*
X120198832Y-95534913D01*
X120198832Y-96340161D01*
X120198876Y-96491865D01*
X120198876Y-96491865D01*
G37*
X120198876Y-96491865D02*
X120199022Y-96623708D01*
X120199297Y-96737005D01*
X120199724Y-96833073D01*
X120200329Y-96913225D01*
X120201135Y-96978777D01*
X120202168Y-97031044D01*
X120203453Y-97071340D01*
X120205013Y-97100981D01*
X120206874Y-97121282D01*
X120209060Y-97133558D01*
X120211597Y-97139123D01*
X120213833Y-97139653D01*
X120225539Y-97132492D01*
X120252639Y-97114479D01*
X120293203Y-97086937D01*
X120345303Y-97051192D01*
X120407010Y-97008569D01*
X120476394Y-96960394D01*
X120551527Y-96907992D01*
X120579111Y-96888698D01*
X120929387Y-96643500D01*
X120929387Y-96203001D01*
X125095664Y-92504460D01*
X125351775Y-92277091D01*
X125603904Y-92053236D01*
X125851588Y-91833303D01*
X126094366Y-91617706D01*
X126331776Y-91406855D01*
X126563354Y-91201161D01*
X126788640Y-91001034D01*
X127007171Y-90806887D01*
X127218484Y-90619129D01*
X127422117Y-90438172D01*
X127617608Y-90264427D01*
X127804495Y-90098305D01*
X127982315Y-89940217D01*
X128150607Y-89790574D01*
X128308908Y-89649787D01*
X128456755Y-89518266D01*
X128593688Y-89396424D01*
X128719242Y-89284670D01*
X128832957Y-89183417D01*
X128934369Y-89093074D01*
X129023018Y-89014053D01*
X129098439Y-88946765D01*
X129160172Y-88891622D01*
X129207754Y-88849033D01*
X129240722Y-88819410D01*
X129258615Y-88803163D01*
X129261942Y-88799971D01*
X129254100Y-88792644D01*
X129230882Y-88771672D01*
X129192751Y-88737467D01*
X129140168Y-88690439D01*
X129073595Y-88631000D01*
X128993496Y-88559560D01*
X128900332Y-88476531D01*
X128794566Y-88382324D01*
X128676659Y-88277349D01*
X128547074Y-88162018D01*
X128406273Y-88036741D01*
X128254719Y-87901931D01*
X128092873Y-87757996D01*
X127921198Y-87605350D01*
X127740156Y-87444402D01*
X127550209Y-87275564D01*
X127351820Y-87099246D01*
X127145451Y-86915860D01*
X126931563Y-86725817D01*
X126710620Y-86529527D01*
X126483083Y-86327403D01*
X126249415Y-86119854D01*
X126010078Y-85907291D01*
X125765533Y-85690126D01*
X125516245Y-85468770D01*
X125262673Y-85243634D01*
X125095664Y-85095366D01*
X120929387Y-81396708D01*
X120929387Y-80956500D01*
X120579111Y-80711303D01*
X120502403Y-80657721D01*
X120430760Y-80607897D01*
X120366110Y-80563157D01*
X120310382Y-80524824D01*
X120265507Y-80494226D01*
X120233413Y-80472687D01*
X120216030Y-80461533D01*
X120213767Y-80460323D01*
X120210942Y-80461503D01*
X120208504Y-80468246D01*
X120206434Y-80481868D01*
X120204712Y-80503687D01*
X120203317Y-80535019D01*
X120202228Y-80577183D01*
X120201426Y-80631495D01*
X120200891Y-80699273D01*
X120200601Y-80781834D01*
X120200537Y-80880495D01*
X120200678Y-80996574D01*
X120201004Y-81131387D01*
X120201413Y-81262080D01*
X120204126Y-82069618D01*
X124391579Y-85431030D01*
X124653742Y-85641493D01*
X124911744Y-85848643D01*
X125165094Y-86052087D01*
X125413300Y-86251430D01*
X125655872Y-86446276D01*
X125892318Y-86636230D01*
X126122149Y-86820898D01*
X126344872Y-86999884D01*
X126559996Y-87172794D01*
X126767032Y-87339232D01*
X126965487Y-87498803D01*
X127154871Y-87651112D01*
X127334693Y-87795765D01*
X127504461Y-87932366D01*
X127663686Y-88060520D01*
X127811875Y-88179833D01*
X127948538Y-88289908D01*
X128073184Y-88390352D01*
X128185321Y-88480769D01*
X128284460Y-88560764D01*
X128370108Y-88629942D01*
X128441775Y-88687908D01*
X128498970Y-88734267D01*
X128541202Y-88768624D01*
X128567979Y-88790584D01*
X128578812Y-88799752D01*
X128579033Y-88800007D01*
X128570856Y-88807044D01*
X128546655Y-88826939D01*
X128506918Y-88859295D01*
X128452138Y-88903719D01*
X128382805Y-88959815D01*
X128299410Y-89027189D01*
X128202444Y-89105445D01*
X128092398Y-89194189D01*
X127969761Y-89293026D01*
X127835026Y-89401560D01*
X127688683Y-89519398D01*
X127531223Y-89646144D01*
X127363137Y-89781403D01*
X127184915Y-89924780D01*
X126997048Y-90075881D01*
X126800028Y-90234310D01*
X126594345Y-90399672D01*
X126380489Y-90571573D01*
X126158952Y-90749618D01*
X125930225Y-90933412D01*
X125694797Y-91122560D01*
X125453161Y-91316667D01*
X125205807Y-91515338D01*
X124953226Y-91718178D01*
X124695908Y-91924793D01*
X124434345Y-92134786D01*
X124388932Y-92171243D01*
X120198832Y-95534913D01*
X120198832Y-96340161D01*
X120198876Y-96491865D01*
G36*
X122086892Y-87261233D02*
X122120418Y-87383269D01*
X122171667Y-87507681D01*
X122240962Y-87637215D01*
X122309702Y-87746520D01*
X122340145Y-87791368D01*
X122378681Y-87846775D01*
X122420778Y-87906295D01*
X122461909Y-87963483D01*
X122469681Y-87974156D01*
X122532404Y-88060850D01*
X122583912Y-88133919D01*
X122626144Y-88196334D01*
X122661039Y-88251066D01*
X122690537Y-88301085D01*
X122716575Y-88349362D01*
X122723667Y-88363283D01*
X122773123Y-88473826D01*
X122805195Y-88576122D01*
X122820253Y-88673462D01*
X122818668Y-88769139D01*
X122800811Y-88866442D01*
X122785985Y-88916466D01*
X122767719Y-88967037D01*
X122746584Y-89015011D01*
X122720304Y-89064446D01*
X122686605Y-89119399D01*
X122643211Y-89183928D01*
X122607896Y-89234098D01*
X122467361Y-89442581D01*
X122346400Y-89646091D01*
X122245311Y-89844112D01*
X122219453Y-89901126D01*
X122168174Y-90026460D01*
X122130808Y-90139241D01*
X122106899Y-90242472D01*
X122095993Y-90339156D01*
X122097633Y-90432295D01*
X122111366Y-90524893D01*
X122119548Y-90560122D01*
X122140224Y-90631308D01*
X122166435Y-90701689D01*
X122199518Y-90773553D01*
X122240809Y-90849189D01*
X122291644Y-90930885D01*
X122353361Y-91020931D01*
X122427294Y-91121615D01*
X122510600Y-91229888D01*
X122591473Y-91334587D01*
X122659161Y-91425506D01*
X122714740Y-91504517D01*
X122759290Y-91573489D01*
X122793888Y-91634293D01*
X122819614Y-91688801D01*
X122837544Y-91738882D01*
X122848757Y-91786408D01*
X122853734Y-91825244D01*
X122851415Y-91908032D01*
X122829487Y-91984258D01*
X122804144Y-92032083D01*
X122791786Y-92055637D01*
X122775404Y-92092145D01*
X122756880Y-92136733D01*
X122738097Y-92184528D01*
X122720939Y-92230657D01*
X122707289Y-92270246D01*
X122699030Y-92298424D01*
X122697442Y-92308216D01*
X122704438Y-92305965D01*
X122723701Y-92290824D01*
X122752807Y-92265154D01*
X122789332Y-92231317D01*
X122830852Y-92191672D01*
X122874943Y-92148580D01*
X122919181Y-92104403D01*
X122961141Y-92061501D01*
X122998400Y-92022234D01*
X123028533Y-91988964D01*
X123043669Y-91971030D01*
X123148131Y-91827870D01*
X123231671Y-91683785D01*
X123294543Y-91538169D01*
X123336997Y-91390416D01*
X123359285Y-91239920D01*
X123361494Y-91206639D01*
X123362158Y-91092057D01*
X123350646Y-90986987D01*
X123325761Y-90882834D01*
X123309552Y-90833033D01*
X123291613Y-90784938D01*
X123270827Y-90736158D01*
X123245713Y-90683893D01*
X123214790Y-90625345D01*
X123176578Y-90557714D01*
X123129595Y-90478199D01*
X123072362Y-90384003D01*
X123069922Y-90380026D01*
X122999171Y-90262369D01*
X122940168Y-90158540D01*
X122891653Y-90065661D01*
X122852367Y-89980851D01*
X122821049Y-89901231D01*
X122796439Y-89823920D01*
X122777277Y-89746040D01*
X122765514Y-89684288D01*
X122753085Y-89580446D01*
X122752409Y-89480088D01*
X122764209Y-89380762D01*
X122789213Y-89280012D01*
X122828146Y-89175384D01*
X122881734Y-89064424D01*
X122950703Y-88944676D01*
X123012945Y-88847645D01*
X123120894Y-88676933D01*
X123210675Y-88516600D01*
X123282400Y-88366334D01*
X123336180Y-88225824D01*
X123372127Y-88094761D01*
X123390353Y-87972832D01*
X123390969Y-87859727D01*
X123385287Y-87810046D01*
X123357502Y-87689229D01*
X123311592Y-87563986D01*
X123249048Y-87437871D01*
X123186248Y-87336074D01*
X123163433Y-87303644D01*
X123130236Y-87258308D01*
X123089425Y-87203757D01*
X123043772Y-87143679D01*
X122996046Y-87081764D01*
X122975930Y-87055947D01*
X122890678Y-86945351D01*
X122818802Y-86848273D01*
X122759276Y-86762705D01*
X122711075Y-86686639D01*
X122673174Y-86618069D01*
X122644547Y-86554986D01*
X122624169Y-86495384D01*
X122611014Y-86437254D01*
X122604059Y-86378590D01*
X122602251Y-86324302D01*
X122606602Y-86261582D01*
X122618743Y-86185794D01*
X122637302Y-86102964D01*
X122660908Y-86019116D01*
X122688190Y-85940274D01*
X122691675Y-85931361D01*
X122704805Y-85894740D01*
X122712945Y-85860712D01*
X122717194Y-85822052D01*
X122718656Y-85771538D01*
X122718716Y-85754016D01*
X122717981Y-85708829D01*
X122715995Y-85672760D01*
X122713088Y-85650223D01*
X122710569Y-85644852D01*
X122702268Y-85653326D01*
X122684526Y-85676859D01*
X122659234Y-85712620D01*
X122628280Y-85757777D01*
X122593552Y-85809500D01*
X122556938Y-85864958D01*
X122520328Y-85921318D01*
X122485611Y-85975749D01*
X122454674Y-86025422D01*
X122435132Y-86057774D01*
X122398798Y-86121619D01*
X122358583Y-86196620D01*
X122316782Y-86278098D01*
X122275689Y-86361375D01*
X122237600Y-86441772D01*
X122204809Y-86514612D01*
X122179611Y-86575216D01*
X122173795Y-86590528D01*
X122123554Y-86741897D01*
X122089419Y-86881905D01*
X122071716Y-87013298D01*
X122070766Y-87138825D01*
X122086892Y-87261233D01*
X122086892Y-87261233D01*
G37*
X122086892Y-87261233D02*
X122120418Y-87383269D01*
X122171667Y-87507681D01*
X122240962Y-87637215D01*
X122309702Y-87746520D01*
X122340145Y-87791368D01*
X122378681Y-87846775D01*
X122420778Y-87906295D01*
X122461909Y-87963483D01*
X122469681Y-87974156D01*
X122532404Y-88060850D01*
X122583912Y-88133919D01*
X122626144Y-88196334D01*
X122661039Y-88251066D01*
X122690537Y-88301085D01*
X122716575Y-88349362D01*
X122723667Y-88363283D01*
X122773123Y-88473826D01*
X122805195Y-88576122D01*
X122820253Y-88673462D01*
X122818668Y-88769139D01*
X122800811Y-88866442D01*
X122785985Y-88916466D01*
X122767719Y-88967037D01*
X122746584Y-89015011D01*
X122720304Y-89064446D01*
X122686605Y-89119399D01*
X122643211Y-89183928D01*
X122607896Y-89234098D01*
X122467361Y-89442581D01*
X122346400Y-89646091D01*
X122245311Y-89844112D01*
X122219453Y-89901126D01*
X122168174Y-90026460D01*
X122130808Y-90139241D01*
X122106899Y-90242472D01*
X122095993Y-90339156D01*
X122097633Y-90432295D01*
X122111366Y-90524893D01*
X122119548Y-90560122D01*
X122140224Y-90631308D01*
X122166435Y-90701689D01*
X122199518Y-90773553D01*
X122240809Y-90849189D01*
X122291644Y-90930885D01*
X122353361Y-91020931D01*
X122427294Y-91121615D01*
X122510600Y-91229888D01*
X122591473Y-91334587D01*
X122659161Y-91425506D01*
X122714740Y-91504517D01*
X122759290Y-91573489D01*
X122793888Y-91634293D01*
X122819614Y-91688801D01*
X122837544Y-91738882D01*
X122848757Y-91786408D01*
X122853734Y-91825244D01*
X122851415Y-91908032D01*
X122829487Y-91984258D01*
X122804144Y-92032083D01*
X122791786Y-92055637D01*
X122775404Y-92092145D01*
X122756880Y-92136733D01*
X122738097Y-92184528D01*
X122720939Y-92230657D01*
X122707289Y-92270246D01*
X122699030Y-92298424D01*
X122697442Y-92308216D01*
X122704438Y-92305965D01*
X122723701Y-92290824D01*
X122752807Y-92265154D01*
X122789332Y-92231317D01*
X122830852Y-92191672D01*
X122874943Y-92148580D01*
X122919181Y-92104403D01*
X122961141Y-92061501D01*
X122998400Y-92022234D01*
X123028533Y-91988964D01*
X123043669Y-91971030D01*
X123148131Y-91827870D01*
X123231671Y-91683785D01*
X123294543Y-91538169D01*
X123336997Y-91390416D01*
X123359285Y-91239920D01*
X123361494Y-91206639D01*
X123362158Y-91092057D01*
X123350646Y-90986987D01*
X123325761Y-90882834D01*
X123309552Y-90833033D01*
X123291613Y-90784938D01*
X123270827Y-90736158D01*
X123245713Y-90683893D01*
X123214790Y-90625345D01*
X123176578Y-90557714D01*
X123129595Y-90478199D01*
X123072362Y-90384003D01*
X123069922Y-90380026D01*
X122999171Y-90262369D01*
X122940168Y-90158540D01*
X122891653Y-90065661D01*
X122852367Y-89980851D01*
X122821049Y-89901231D01*
X122796439Y-89823920D01*
X122777277Y-89746040D01*
X122765514Y-89684288D01*
X122753085Y-89580446D01*
X122752409Y-89480088D01*
X122764209Y-89380762D01*
X122789213Y-89280012D01*
X122828146Y-89175384D01*
X122881734Y-89064424D01*
X122950703Y-88944676D01*
X123012945Y-88847645D01*
X123120894Y-88676933D01*
X123210675Y-88516600D01*
X123282400Y-88366334D01*
X123336180Y-88225824D01*
X123372127Y-88094761D01*
X123390353Y-87972832D01*
X123390969Y-87859727D01*
X123385287Y-87810046D01*
X123357502Y-87689229D01*
X123311592Y-87563986D01*
X123249048Y-87437871D01*
X123186248Y-87336074D01*
X123163433Y-87303644D01*
X123130236Y-87258308D01*
X123089425Y-87203757D01*
X123043772Y-87143679D01*
X122996046Y-87081764D01*
X122975930Y-87055947D01*
X122890678Y-86945351D01*
X122818802Y-86848273D01*
X122759276Y-86762705D01*
X122711075Y-86686639D01*
X122673174Y-86618069D01*
X122644547Y-86554986D01*
X122624169Y-86495384D01*
X122611014Y-86437254D01*
X122604059Y-86378590D01*
X122602251Y-86324302D01*
X122606602Y-86261582D01*
X122618743Y-86185794D01*
X122637302Y-86102964D01*
X122660908Y-86019116D01*
X122688190Y-85940274D01*
X122691675Y-85931361D01*
X122704805Y-85894740D01*
X122712945Y-85860712D01*
X122717194Y-85822052D01*
X122718656Y-85771538D01*
X122718716Y-85754016D01*
X122717981Y-85708829D01*
X122715995Y-85672760D01*
X122713088Y-85650223D01*
X122710569Y-85644852D01*
X122702268Y-85653326D01*
X122684526Y-85676859D01*
X122659234Y-85712620D01*
X122628280Y-85757777D01*
X122593552Y-85809500D01*
X122556938Y-85864958D01*
X122520328Y-85921318D01*
X122485611Y-85975749D01*
X122454674Y-86025422D01*
X122435132Y-86057774D01*
X122398798Y-86121619D01*
X122358583Y-86196620D01*
X122316782Y-86278098D01*
X122275689Y-86361375D01*
X122237600Y-86441772D01*
X122204809Y-86514612D01*
X122179611Y-86575216D01*
X122173795Y-86590528D01*
X122123554Y-86741897D01*
X122089419Y-86881905D01*
X122071716Y-87013298D01*
X122070766Y-87138825D01*
X122086892Y-87261233D01*
G36*
X120196745Y-88694965D02*
X120220410Y-88835259D01*
X120263881Y-88978860D01*
X120319828Y-89112339D01*
X120345431Y-89164568D01*
X120373489Y-89216868D01*
X120405550Y-89271621D01*
X120443163Y-89331209D01*
X120487876Y-89398013D01*
X120541238Y-89474417D01*
X120604796Y-89562801D01*
X120674233Y-89657594D01*
X120754303Y-89767613D01*
X120821546Y-89863431D01*
X120876909Y-89946934D01*
X120921337Y-90020005D01*
X120955780Y-90084527D01*
X120981182Y-90142383D01*
X120998492Y-90195459D01*
X121008655Y-90245636D01*
X121012621Y-90294799D01*
X121012204Y-90329860D01*
X121007409Y-90382382D01*
X120996869Y-90429688D01*
X120978663Y-90475703D01*
X120950875Y-90524352D01*
X120911586Y-90579560D01*
X120858878Y-90645254D01*
X120856957Y-90647562D01*
X120732220Y-90805164D01*
X120616079Y-90967479D01*
X120511518Y-91130038D01*
X120421518Y-91288369D01*
X120394949Y-91340078D01*
X120329512Y-91485332D01*
X120280761Y-91624958D01*
X120248996Y-91757634D01*
X120234515Y-91882036D01*
X120237616Y-91996842D01*
X120240938Y-92022349D01*
X120254798Y-92096249D01*
X120274146Y-92167141D01*
X120300290Y-92237423D01*
X120334536Y-92309493D01*
X120378192Y-92385749D01*
X120432563Y-92468587D01*
X120498958Y-92560406D01*
X120578682Y-92663604D01*
X120615844Y-92710156D01*
X120694220Y-92808783D01*
X120759732Y-92894121D01*
X120813865Y-92968457D01*
X120858103Y-93034076D01*
X120893930Y-93093263D01*
X120922831Y-93148303D01*
X120946290Y-93201483D01*
X120961481Y-93242318D01*
X120990029Y-93356991D01*
X120997886Y-93475687D01*
X120985045Y-93598432D01*
X120951495Y-93725248D01*
X120897228Y-93856160D01*
X120822237Y-93991191D01*
X120726511Y-94130367D01*
X120610041Y-94273710D01*
X120565588Y-94323539D01*
X120514128Y-94379974D01*
X120542305Y-94416915D01*
X120561130Y-94439406D01*
X120575320Y-94452498D01*
X120578509Y-94453856D01*
X120589283Y-94446029D01*
X120611860Y-94423841D01*
X120644531Y-94389235D01*
X120685586Y-94344155D01*
X120733314Y-94290541D01*
X120786005Y-94230337D01*
X120841948Y-94165486D01*
X120899435Y-94097929D01*
X120956754Y-94029610D01*
X121012196Y-93962470D01*
X121025931Y-93945644D01*
X121155234Y-93783205D01*
X121268335Y-93633317D01*
X121365630Y-93495386D01*
X121447519Y-93368816D01*
X121514397Y-93253013D01*
X121566663Y-93147381D01*
X121580827Y-93114520D01*
X121609579Y-93028264D01*
X121624582Y-92939548D01*
X121625752Y-92845461D01*
X121613003Y-92743092D01*
X121586251Y-92629532D01*
X121564644Y-92558493D01*
X121546211Y-92504408D01*
X121526256Y-92451714D01*
X121503636Y-92398222D01*
X121477205Y-92341742D01*
X121445822Y-92280088D01*
X121408340Y-92211069D01*
X121363617Y-92132497D01*
X121310509Y-92042185D01*
X121247871Y-91937943D01*
X121193932Y-91849271D01*
X121103646Y-91697829D01*
X121026666Y-91561038D01*
X120963092Y-91439110D01*
X120913023Y-91332259D01*
X120876557Y-91240698D01*
X120853794Y-91164642D01*
X120844833Y-91104302D01*
X120844685Y-91096831D01*
X120846734Y-91059723D01*
X120853961Y-91024347D01*
X120867990Y-90987398D01*
X120890443Y-90945570D01*
X120922943Y-90895557D01*
X120967111Y-90834054D01*
X120986299Y-90808307D01*
X121093374Y-90661600D01*
X121193965Y-90515844D01*
X121286846Y-90373108D01*
X121370794Y-90235459D01*
X121444585Y-90104966D01*
X121506995Y-89983697D01*
X121556800Y-89873720D01*
X121587909Y-89791842D01*
X121613117Y-89691561D01*
X121625051Y-89583247D01*
X121623184Y-89475348D01*
X121612360Y-89399536D01*
X121596411Y-89330966D01*
X121577025Y-89264727D01*
X121553014Y-89198459D01*
X121523190Y-89129806D01*
X121486365Y-89056408D01*
X121441350Y-88975908D01*
X121386957Y-88885946D01*
X121321998Y-88784165D01*
X121245284Y-88668207D01*
X121239598Y-88659728D01*
X121165229Y-88548307D01*
X121101826Y-88451818D01*
X121048030Y-88367971D01*
X121002483Y-88294475D01*
X120963827Y-88229043D01*
X120930704Y-88169383D01*
X120901756Y-88113206D01*
X120875625Y-88058224D01*
X120854508Y-88010468D01*
X120831460Y-87955102D01*
X120816219Y-87913354D01*
X120807289Y-87879821D01*
X120803171Y-87849100D01*
X120802334Y-87822266D01*
X120805826Y-87763128D01*
X120817179Y-87705087D01*
X120837711Y-87645118D01*
X120868738Y-87580198D01*
X120911578Y-87507303D01*
X120967548Y-87423409D01*
X120989811Y-87391830D01*
X121090560Y-87248056D01*
X121178987Y-87116386D01*
X121257179Y-86993411D01*
X121327226Y-86875722D01*
X121391219Y-86759911D01*
X121451246Y-86642568D01*
X121459947Y-86624810D01*
X121505240Y-86528693D01*
X121540134Y-86446566D01*
X121565738Y-86374643D01*
X121583162Y-86309141D01*
X121593516Y-86246273D01*
X121597908Y-86182255D01*
X121598239Y-86153064D01*
X121595785Y-86076247D01*
X121588388Y-86002100D01*
X121575217Y-85928555D01*
X121555440Y-85853549D01*
X121528227Y-85775014D01*
X121492747Y-85690887D01*
X121448168Y-85599100D01*
X121393659Y-85497588D01*
X121328390Y-85384286D01*
X121251529Y-85257129D01*
X121212269Y-85193764D01*
X121121545Y-85045498D01*
X121042410Y-84910378D01*
X120975274Y-84789152D01*
X120920548Y-84682570D01*
X120878639Y-84591379D01*
X120866579Y-84561980D01*
X120846782Y-84501053D01*
X120836564Y-84440244D01*
X120836356Y-84376651D01*
X120846588Y-84307373D01*
X120867692Y-84229506D01*
X120900100Y-84140149D01*
X120944240Y-84036400D01*
X120944838Y-84035066D01*
X120974396Y-83965888D01*
X120994320Y-83910927D01*
X121005910Y-83866265D01*
X121009708Y-83839642D01*
X121015407Y-83776115D01*
X120966202Y-83829054D01*
X120844858Y-83965669D01*
X120730099Y-84106834D01*
X120623542Y-84250077D01*
X120526807Y-84392921D01*
X120441510Y-84532893D01*
X120369268Y-84667518D01*
X120311701Y-84794322D01*
X120280956Y-84877241D01*
X120253093Y-84970432D01*
X120233991Y-85057939D01*
X120224230Y-85141706D01*
X120224388Y-85223679D01*
X120235046Y-85305803D01*
X120256783Y-85390023D01*
X120290179Y-85478284D01*
X120335813Y-85572530D01*
X120394266Y-85674708D01*
X120466116Y-85786762D01*
X120551944Y-85910637D01*
X120614781Y-85997435D01*
X120676986Y-86082531D01*
X120728139Y-86153317D01*
X120769983Y-86212352D01*
X120804262Y-86262198D01*
X120832721Y-86305414D01*
X120857102Y-86344563D01*
X120879149Y-86382204D01*
X120890184Y-86401876D01*
X120952269Y-86528688D01*
X120994553Y-86649728D01*
X121017225Y-86766212D01*
X121020471Y-86879357D01*
X121004481Y-86990381D01*
X120989503Y-87044935D01*
X120971401Y-87097122D01*
X120950688Y-87145923D01*
X120925497Y-87194246D01*
X120893963Y-87244999D01*
X120854218Y-87301089D01*
X120804398Y-87365424D01*
X120742635Y-87440912D01*
X120711685Y-87477829D01*
X120622293Y-87590011D01*
X120535676Y-87710390D01*
X120454889Y-87834168D01*
X120382989Y-87956548D01*
X120323032Y-88072733D01*
X120299290Y-88125131D01*
X120244160Y-88273061D01*
X120208664Y-88415952D01*
X120192845Y-88555891D01*
X120196745Y-88694965D01*
X120196745Y-88694965D01*
G37*
X120196745Y-88694965D02*
X120220410Y-88835259D01*
X120263881Y-88978860D01*
X120319828Y-89112339D01*
X120345431Y-89164568D01*
X120373489Y-89216868D01*
X120405550Y-89271621D01*
X120443163Y-89331209D01*
X120487876Y-89398013D01*
X120541238Y-89474417D01*
X120604796Y-89562801D01*
X120674233Y-89657594D01*
X120754303Y-89767613D01*
X120821546Y-89863431D01*
X120876909Y-89946934D01*
X120921337Y-90020005D01*
X120955780Y-90084527D01*
X120981182Y-90142383D01*
X120998492Y-90195459D01*
X121008655Y-90245636D01*
X121012621Y-90294799D01*
X121012204Y-90329860D01*
X121007409Y-90382382D01*
X120996869Y-90429688D01*
X120978663Y-90475703D01*
X120950875Y-90524352D01*
X120911586Y-90579560D01*
X120858878Y-90645254D01*
X120856957Y-90647562D01*
X120732220Y-90805164D01*
X120616079Y-90967479D01*
X120511518Y-91130038D01*
X120421518Y-91288369D01*
X120394949Y-91340078D01*
X120329512Y-91485332D01*
X120280761Y-91624958D01*
X120248996Y-91757634D01*
X120234515Y-91882036D01*
X120237616Y-91996842D01*
X120240938Y-92022349D01*
X120254798Y-92096249D01*
X120274146Y-92167141D01*
X120300290Y-92237423D01*
X120334536Y-92309493D01*
X120378192Y-92385749D01*
X120432563Y-92468587D01*
X120498958Y-92560406D01*
X120578682Y-92663604D01*
X120615844Y-92710156D01*
X120694220Y-92808783D01*
X120759732Y-92894121D01*
X120813865Y-92968457D01*
X120858103Y-93034076D01*
X120893930Y-93093263D01*
X120922831Y-93148303D01*
X120946290Y-93201483D01*
X120961481Y-93242318D01*
X120990029Y-93356991D01*
X120997886Y-93475687D01*
X120985045Y-93598432D01*
X120951495Y-93725248D01*
X120897228Y-93856160D01*
X120822237Y-93991191D01*
X120726511Y-94130367D01*
X120610041Y-94273710D01*
X120565588Y-94323539D01*
X120514128Y-94379974D01*
X120542305Y-94416915D01*
X120561130Y-94439406D01*
X120575320Y-94452498D01*
X120578509Y-94453856D01*
X120589283Y-94446029D01*
X120611860Y-94423841D01*
X120644531Y-94389235D01*
X120685586Y-94344155D01*
X120733314Y-94290541D01*
X120786005Y-94230337D01*
X120841948Y-94165486D01*
X120899435Y-94097929D01*
X120956754Y-94029610D01*
X121012196Y-93962470D01*
X121025931Y-93945644D01*
X121155234Y-93783205D01*
X121268335Y-93633317D01*
X121365630Y-93495386D01*
X121447519Y-93368816D01*
X121514397Y-93253013D01*
X121566663Y-93147381D01*
X121580827Y-93114520D01*
X121609579Y-93028264D01*
X121624582Y-92939548D01*
X121625752Y-92845461D01*
X121613003Y-92743092D01*
X121586251Y-92629532D01*
X121564644Y-92558493D01*
X121546211Y-92504408D01*
X121526256Y-92451714D01*
X121503636Y-92398222D01*
X121477205Y-92341742D01*
X121445822Y-92280088D01*
X121408340Y-92211069D01*
X121363617Y-92132497D01*
X121310509Y-92042185D01*
X121247871Y-91937943D01*
X121193932Y-91849271D01*
X121103646Y-91697829D01*
X121026666Y-91561038D01*
X120963092Y-91439110D01*
X120913023Y-91332259D01*
X120876557Y-91240698D01*
X120853794Y-91164642D01*
X120844833Y-91104302D01*
X120844685Y-91096831D01*
X120846734Y-91059723D01*
X120853961Y-91024347D01*
X120867990Y-90987398D01*
X120890443Y-90945570D01*
X120922943Y-90895557D01*
X120967111Y-90834054D01*
X120986299Y-90808307D01*
X121093374Y-90661600D01*
X121193965Y-90515844D01*
X121286846Y-90373108D01*
X121370794Y-90235459D01*
X121444585Y-90104966D01*
X121506995Y-89983697D01*
X121556800Y-89873720D01*
X121587909Y-89791842D01*
X121613117Y-89691561D01*
X121625051Y-89583247D01*
X121623184Y-89475348D01*
X121612360Y-89399536D01*
X121596411Y-89330966D01*
X121577025Y-89264727D01*
X121553014Y-89198459D01*
X121523190Y-89129806D01*
X121486365Y-89056408D01*
X121441350Y-88975908D01*
X121386957Y-88885946D01*
X121321998Y-88784165D01*
X121245284Y-88668207D01*
X121239598Y-88659728D01*
X121165229Y-88548307D01*
X121101826Y-88451818D01*
X121048030Y-88367971D01*
X121002483Y-88294475D01*
X120963827Y-88229043D01*
X120930704Y-88169383D01*
X120901756Y-88113206D01*
X120875625Y-88058224D01*
X120854508Y-88010468D01*
X120831460Y-87955102D01*
X120816219Y-87913354D01*
X120807289Y-87879821D01*
X120803171Y-87849100D01*
X120802334Y-87822266D01*
X120805826Y-87763128D01*
X120817179Y-87705087D01*
X120837711Y-87645118D01*
X120868738Y-87580198D01*
X120911578Y-87507303D01*
X120967548Y-87423409D01*
X120989811Y-87391830D01*
X121090560Y-87248056D01*
X121178987Y-87116386D01*
X121257179Y-86993411D01*
X121327226Y-86875722D01*
X121391219Y-86759911D01*
X121451246Y-86642568D01*
X121459947Y-86624810D01*
X121505240Y-86528693D01*
X121540134Y-86446566D01*
X121565738Y-86374643D01*
X121583162Y-86309141D01*
X121593516Y-86246273D01*
X121597908Y-86182255D01*
X121598239Y-86153064D01*
X121595785Y-86076247D01*
X121588388Y-86002100D01*
X121575217Y-85928555D01*
X121555440Y-85853549D01*
X121528227Y-85775014D01*
X121492747Y-85690887D01*
X121448168Y-85599100D01*
X121393659Y-85497588D01*
X121328390Y-85384286D01*
X121251529Y-85257129D01*
X121212269Y-85193764D01*
X121121545Y-85045498D01*
X121042410Y-84910378D01*
X120975274Y-84789152D01*
X120920548Y-84682570D01*
X120878639Y-84591379D01*
X120866579Y-84561980D01*
X120846782Y-84501053D01*
X120836564Y-84440244D01*
X120836356Y-84376651D01*
X120846588Y-84307373D01*
X120867692Y-84229506D01*
X120900100Y-84140149D01*
X120944240Y-84036400D01*
X120944838Y-84035066D01*
X120974396Y-83965888D01*
X120994320Y-83910927D01*
X121005910Y-83866265D01*
X121009708Y-83839642D01*
X121015407Y-83776115D01*
X120966202Y-83829054D01*
X120844858Y-83965669D01*
X120730099Y-84106834D01*
X120623542Y-84250077D01*
X120526807Y-84392921D01*
X120441510Y-84532893D01*
X120369268Y-84667518D01*
X120311701Y-84794322D01*
X120280956Y-84877241D01*
X120253093Y-84970432D01*
X120233991Y-85057939D01*
X120224230Y-85141706D01*
X120224388Y-85223679D01*
X120235046Y-85305803D01*
X120256783Y-85390023D01*
X120290179Y-85478284D01*
X120335813Y-85572530D01*
X120394266Y-85674708D01*
X120466116Y-85786762D01*
X120551944Y-85910637D01*
X120614781Y-85997435D01*
X120676986Y-86082531D01*
X120728139Y-86153317D01*
X120769983Y-86212352D01*
X120804262Y-86262198D01*
X120832721Y-86305414D01*
X120857102Y-86344563D01*
X120879149Y-86382204D01*
X120890184Y-86401876D01*
X120952269Y-86528688D01*
X120994553Y-86649728D01*
X121017225Y-86766212D01*
X121020471Y-86879357D01*
X121004481Y-86990381D01*
X120989503Y-87044935D01*
X120971401Y-87097122D01*
X120950688Y-87145923D01*
X120925497Y-87194246D01*
X120893963Y-87244999D01*
X120854218Y-87301089D01*
X120804398Y-87365424D01*
X120742635Y-87440912D01*
X120711685Y-87477829D01*
X120622293Y-87590011D01*
X120535676Y-87710390D01*
X120454889Y-87834168D01*
X120382989Y-87956548D01*
X120323032Y-88072733D01*
X120299290Y-88125131D01*
X120244160Y-88273061D01*
X120208664Y-88415952D01*
X120192845Y-88555891D01*
X120196745Y-88694965D01*
G36*
X111571276Y-85898544D02*
X111571739Y-85899912D01*
X111581337Y-85927445D01*
X111747630Y-85934342D01*
X111815528Y-85936862D01*
X111886044Y-85938974D01*
X111951923Y-85940493D01*
X112005909Y-85941232D01*
X112017738Y-85941274D01*
X112121555Y-85941309D01*
X112149096Y-86001467D01*
X112176637Y-86061624D01*
X112163789Y-86220697D01*
X112151045Y-86348669D01*
X112134446Y-86459838D01*
X112113065Y-86558372D01*
X112085976Y-86648439D01*
X112052253Y-86734208D01*
X112047009Y-86745978D01*
X112000913Y-86843914D01*
X111946578Y-86952573D01*
X111887586Y-87065110D01*
X111827521Y-87174679D01*
X111773618Y-87268287D01*
X111748402Y-87312150D01*
X111728487Y-87349339D01*
X111715724Y-87376201D01*
X111711964Y-87389083D01*
X111712193Y-87389504D01*
X111728508Y-87391809D01*
X111761139Y-87384325D01*
X111808134Y-87367974D01*
X111867543Y-87343678D01*
X111937413Y-87312358D01*
X112015794Y-87274935D01*
X112100734Y-87232331D01*
X112190282Y-87185467D01*
X112282486Y-87135266D01*
X112375395Y-87082648D01*
X112431450Y-87049837D01*
X112510538Y-87001750D01*
X112573240Y-86960764D01*
X112622293Y-86924887D01*
X112660432Y-86892125D01*
X112688730Y-86862443D01*
X112715031Y-86829143D01*
X112747206Y-86784414D01*
X112783276Y-86731441D01*
X112821259Y-86673408D01*
X112859174Y-86613500D01*
X112895041Y-86554901D01*
X112926879Y-86500795D01*
X112952706Y-86454368D01*
X112970542Y-86418804D01*
X112978407Y-86397287D01*
X112978510Y-86396582D01*
X112979580Y-86371823D01*
X112974439Y-86349363D01*
X112960770Y-86325403D01*
X112936260Y-86296145D01*
X112898594Y-86257788D01*
X112887106Y-86246581D01*
X112848333Y-86207375D01*
X112812885Y-86168713D01*
X112785065Y-86135452D01*
X112770684Y-86115150D01*
X112755710Y-86083323D01*
X112744060Y-86046800D01*
X112736976Y-86011677D01*
X112735699Y-85984053D01*
X112741165Y-85970204D01*
X112752991Y-85969618D01*
X112784302Y-85969711D01*
X112833419Y-85970440D01*
X112898666Y-85971764D01*
X112978364Y-85973642D01*
X113070835Y-85976032D01*
X113174400Y-85978892D01*
X113287382Y-85982182D01*
X113408103Y-85985859D01*
X113528553Y-85989678D01*
X113655700Y-85993776D01*
X113777168Y-85997675D01*
X113891220Y-86001319D01*
X113996122Y-86004655D01*
X114090138Y-86007627D01*
X114171532Y-86010181D01*
X114238568Y-86012262D01*
X114289513Y-86013815D01*
X114322629Y-86014786D01*
X114335869Y-86015118D01*
X114364985Y-86015424D01*
X114364949Y-86224531D01*
X114363039Y-86373053D01*
X114357170Y-86503166D01*
X114347056Y-86617313D01*
X114332406Y-86717943D01*
X114312934Y-86807498D01*
X114288351Y-86888426D01*
X114285839Y-86895476D01*
X114252901Y-86977148D01*
X114208180Y-87073103D01*
X114153006Y-87181000D01*
X114088708Y-87298496D01*
X114016616Y-87423249D01*
X113938061Y-87552917D01*
X113854372Y-87685157D01*
X113766881Y-87817626D01*
X113738693Y-87859103D01*
X113694246Y-87925134D01*
X113662151Y-87975384D01*
X113641831Y-88010845D01*
X113632710Y-88032508D01*
X113633211Y-88040698D01*
X113649945Y-88044093D01*
X113683358Y-88039830D01*
X113730700Y-88028661D01*
X113789218Y-88011342D01*
X113856159Y-87988626D01*
X113928771Y-87961269D01*
X113941475Y-87956213D01*
X114039395Y-87915187D01*
X114143229Y-87868518D01*
X114250697Y-87817469D01*
X114359518Y-87763302D01*
X114467411Y-87707279D01*
X114572095Y-87650663D01*
X114671289Y-87594716D01*
X114762713Y-87540700D01*
X114844085Y-87489878D01*
X114913126Y-87443513D01*
X114967553Y-87402866D01*
X115005086Y-87369200D01*
X115008273Y-87365770D01*
X115046600Y-87319063D01*
X115088731Y-87260265D01*
X115132783Y-87192775D01*
X115176873Y-87119992D01*
X115219116Y-87045318D01*
X115257630Y-86972151D01*
X115290532Y-86903892D01*
X115315936Y-86843940D01*
X115331961Y-86795695D01*
X115336308Y-86773630D01*
X115337023Y-86741896D01*
X115331162Y-86709098D01*
X115317487Y-86673248D01*
X115294762Y-86632359D01*
X115261749Y-86584441D01*
X115217212Y-86527506D01*
X115159915Y-86459566D01*
X115095191Y-86385995D01*
X115053929Y-86338825D01*
X115014726Y-86292404D01*
X114981225Y-86251157D01*
X114957068Y-86219507D01*
X114951349Y-86211297D01*
X114925444Y-86166558D01*
X114910582Y-86127995D01*
X114907694Y-86099006D01*
X114916420Y-86083705D01*
X114930514Y-86081611D01*
X114963775Y-86080136D01*
X115014393Y-86079240D01*
X115080561Y-86078886D01*
X115160467Y-86079035D01*
X115252304Y-86079649D01*
X115354261Y-86080691D01*
X115464530Y-86082122D01*
X115581301Y-86083905D01*
X115702766Y-86086000D01*
X115827115Y-86088371D01*
X115952538Y-86090979D01*
X116077227Y-86093785D01*
X116199372Y-86096752D01*
X116317164Y-86099843D01*
X116428794Y-86103017D01*
X116532452Y-86106239D01*
X116626330Y-86109469D01*
X116708618Y-86112669D01*
X116777507Y-86115802D01*
X116831187Y-86118829D01*
X116867851Y-86121712D01*
X116885687Y-86124414D01*
X116887092Y-86125177D01*
X116889936Y-86141049D01*
X116891224Y-86175098D01*
X116891105Y-86224395D01*
X116889731Y-86286012D01*
X116887252Y-86357018D01*
X116883818Y-86434484D01*
X116879580Y-86515482D01*
X116874689Y-86597082D01*
X116869294Y-86676354D01*
X116863547Y-86750370D01*
X116857597Y-86816201D01*
X116851596Y-86870916D01*
X116847128Y-86903046D01*
X116833982Y-86979403D01*
X116819608Y-87048282D01*
X116802733Y-87113231D01*
X116782084Y-87177798D01*
X116756387Y-87245532D01*
X116724368Y-87319980D01*
X116684756Y-87404691D01*
X116636276Y-87503212D01*
X116620431Y-87534765D01*
X116448045Y-87855717D01*
X116258998Y-88166871D01*
X116140631Y-88344684D01*
X116102488Y-88400699D01*
X116068459Y-88451644D01*
X116040400Y-88494662D01*
X116020165Y-88526896D01*
X116009610Y-88545489D01*
X116008598Y-88548018D01*
X116012032Y-88565499D01*
X116032798Y-88574078D01*
X116069251Y-88574254D01*
X116119749Y-88566526D01*
X116182649Y-88551394D01*
X116256308Y-88529357D01*
X116339082Y-88500914D01*
X116429328Y-88466564D01*
X116525404Y-88426806D01*
X116625666Y-88382140D01*
X116728470Y-88333065D01*
X116747919Y-88323402D01*
X116873790Y-88258751D01*
X116993088Y-88194123D01*
X117103902Y-88130710D01*
X117204322Y-88069704D01*
X117292438Y-88012295D01*
X117366338Y-87959676D01*
X117424111Y-87913038D01*
X117457282Y-87881003D01*
X117506227Y-87823846D01*
X117561622Y-87752614D01*
X117621469Y-87670435D01*
X117683769Y-87580439D01*
X117746524Y-87485755D01*
X117807736Y-87389512D01*
X117865406Y-87294840D01*
X117917537Y-87204866D01*
X117962129Y-87122721D01*
X117997186Y-87051534D01*
X118017110Y-87004342D01*
X118028125Y-86964839D01*
X118030049Y-86926029D01*
X118021811Y-86886321D01*
X118002335Y-86844122D01*
X117970549Y-86797842D01*
X117925379Y-86745889D01*
X117865752Y-86686670D01*
X117790593Y-86618595D01*
X117710712Y-86550063D01*
X117625312Y-86476576D01*
X117554472Y-86412381D01*
X117498820Y-86358103D01*
X117458985Y-86314372D01*
X117435595Y-86281813D01*
X117430386Y-86270313D01*
X117428440Y-86242507D01*
X117434836Y-86207955D01*
X117435917Y-86204531D01*
X117443536Y-86176269D01*
X117441986Y-86158709D01*
X117432558Y-86145167D01*
X117429749Y-86141187D01*
X117430227Y-86137910D01*
X117435579Y-86135332D01*
X117447393Y-86133451D01*
X117467256Y-86132265D01*
X117496757Y-86131769D01*
X117537481Y-86131963D01*
X117591018Y-86132843D01*
X117658953Y-86134407D01*
X117742876Y-86136652D01*
X117844373Y-86139576D01*
X117965032Y-86143175D01*
X117999968Y-86144228D01*
X118113825Y-86147612D01*
X118224965Y-86150816D01*
X118330905Y-86153775D01*
X118429162Y-86156425D01*
X118517250Y-86158699D01*
X118592688Y-86160533D01*
X118652990Y-86161863D01*
X118695672Y-86162622D01*
X118707928Y-86162757D01*
X118831656Y-86163652D01*
X118898508Y-86211376D01*
X118964145Y-86255579D01*
X119017324Y-86284962D01*
X119060139Y-86300094D01*
X119094680Y-86301541D01*
X119123039Y-86289871D01*
X119138343Y-86276396D01*
X119162678Y-86243011D01*
X119190814Y-86192551D01*
X119221461Y-86128495D01*
X119253331Y-86054322D01*
X119285137Y-85973511D01*
X119315591Y-85889542D01*
X119343403Y-85805894D01*
X119367285Y-85726046D01*
X119385950Y-85653479D01*
X119398109Y-85591670D01*
X119401322Y-85566146D01*
X119404331Y-85529244D01*
X119403711Y-85508145D01*
X119398032Y-85497594D01*
X119385864Y-85492332D01*
X119380899Y-85491041D01*
X119355085Y-85491184D01*
X119312549Y-85499608D01*
X119255832Y-85515798D01*
X119251035Y-85517324D01*
X119192252Y-85534326D01*
X119135163Y-85546355D01*
X119071668Y-85554848D01*
X119009025Y-85560186D01*
X118955652Y-85563501D01*
X118886656Y-85567048D01*
X118804084Y-85570768D01*
X118709982Y-85574605D01*
X118606398Y-85578503D01*
X118495376Y-85582403D01*
X118378965Y-85586249D01*
X118259209Y-85589985D01*
X118138155Y-85593553D01*
X118017850Y-85596896D01*
X117900341Y-85599958D01*
X117787672Y-85602681D01*
X117681892Y-85605009D01*
X117585046Y-85606885D01*
X117499180Y-85608252D01*
X117426342Y-85609052D01*
X117368576Y-85609230D01*
X117327931Y-85608728D01*
X117306743Y-85607530D01*
X117271158Y-85598778D01*
X117253711Y-85582862D01*
X117252971Y-85556780D01*
X117265717Y-85521441D01*
X117281958Y-85490852D01*
X117304920Y-85457366D01*
X117336143Y-85419356D01*
X117377165Y-85375193D01*
X117429524Y-85323252D01*
X117494760Y-85261903D01*
X117574409Y-85189520D01*
X117607326Y-85160075D01*
X117710185Y-85067543D01*
X117797685Y-84986921D01*
X117871044Y-84916941D01*
X117931482Y-84856335D01*
X117980216Y-84803838D01*
X118018464Y-84758182D01*
X118047446Y-84718101D01*
X118068379Y-84682326D01*
X118070154Y-84678779D01*
X118088207Y-84638318D01*
X118097794Y-84603551D01*
X118098608Y-84569214D01*
X118090343Y-84530044D01*
X118072693Y-84480781D01*
X118056331Y-84441528D01*
X118009200Y-84337076D01*
X117955963Y-84228628D01*
X117898122Y-84118614D01*
X117837183Y-84009464D01*
X117774649Y-83903607D01*
X117712024Y-83803473D01*
X117650811Y-83711491D01*
X117592515Y-83630091D01*
X117538639Y-83561703D01*
X117490687Y-83508755D01*
X117463589Y-83483919D01*
X117438088Y-83464892D01*
X117396857Y-83436513D01*
X117342320Y-83400333D01*
X117276901Y-83357899D01*
X117203023Y-83310762D01*
X117123112Y-83260471D01*
X117039590Y-83208574D01*
X116954883Y-83156622D01*
X116890162Y-83117427D01*
X116744420Y-83030862D01*
X116606444Y-82951215D01*
X116477181Y-82878941D01*
X116357575Y-82814493D01*
X116248572Y-82758323D01*
X116151118Y-82710884D01*
X116066159Y-82672629D01*
X115994640Y-82644011D01*
X115937507Y-82625483D01*
X115895705Y-82617498D01*
X115870180Y-82620509D01*
X115864017Y-82625944D01*
X115866996Y-82638651D01*
X115880503Y-82664394D01*
X115902308Y-82699309D01*
X115927396Y-82735679D01*
X116030974Y-82883582D01*
X116137605Y-83042967D01*
X116243900Y-83208448D01*
X116346471Y-83374637D01*
X116441930Y-83536146D01*
X116526889Y-83687587D01*
X116531833Y-83696707D01*
X116606442Y-83837515D01*
X116669987Y-83964417D01*
X116723660Y-84080774D01*
X116768650Y-84189949D01*
X116806148Y-84295306D01*
X116837346Y-84400206D01*
X116863433Y-84508013D01*
X116885600Y-84622089D01*
X116905039Y-84745796D01*
X116906201Y-84753998D01*
X116916700Y-84835635D01*
X116926851Y-84927637D01*
X116936261Y-85025148D01*
X116944531Y-85123313D01*
X116951268Y-85217276D01*
X116956075Y-85302181D01*
X116958556Y-85373172D01*
X116958808Y-85399520D01*
X116955854Y-85466431D01*
X116945912Y-85517847D01*
X116926973Y-85558855D01*
X116897028Y-85594543D01*
X116873751Y-85614868D01*
X116836164Y-85645128D01*
X115720424Y-85681903D01*
X115568565Y-85686853D01*
X115422694Y-85691501D01*
X115284202Y-85695809D01*
X115154476Y-85699737D01*
X115034907Y-85703248D01*
X114926882Y-85706303D01*
X114831792Y-85708864D01*
X114751025Y-85710891D01*
X114685971Y-85712347D01*
X114638018Y-85713193D01*
X114608555Y-85713391D01*
X114598971Y-85712963D01*
X114600222Y-85701210D01*
X114609568Y-85677156D01*
X114619092Y-85657523D01*
X114635974Y-85633026D01*
X114668491Y-85594389D01*
X114716581Y-85541682D01*
X114780177Y-85474973D01*
X114859217Y-85394333D01*
X114923292Y-85330039D01*
X115010930Y-85241923D01*
X115084154Y-85166697D01*
X115144153Y-85102933D01*
X115192119Y-85049209D01*
X115229241Y-85004098D01*
X115256710Y-84966177D01*
X115275716Y-84934019D01*
X115287451Y-84906200D01*
X115291927Y-84888812D01*
X115290661Y-84856049D01*
X115278626Y-84808989D01*
X115257320Y-84750592D01*
X115228246Y-84683817D01*
X115192904Y-84611625D01*
X115152794Y-84536975D01*
X115109417Y-84462829D01*
X115064274Y-84392146D01*
X115018867Y-84327886D01*
X114987082Y-84287535D01*
X114958626Y-84256720D01*
X114922983Y-84224709D01*
X114878138Y-84190104D01*
X114822078Y-84151510D01*
X114752787Y-84107531D01*
X114668253Y-84056770D01*
X114582034Y-84006746D01*
X114479962Y-83949721D01*
X114375462Y-83894131D01*
X114270351Y-83840740D01*
X114166451Y-83790313D01*
X114065581Y-83743614D01*
X113969560Y-83701408D01*
X113880208Y-83664459D01*
X113799345Y-83633532D01*
X113728791Y-83609392D01*
X113670365Y-83592802D01*
X113625887Y-83584527D01*
X113597176Y-83585332D01*
X113589079Y-83589595D01*
X113586088Y-83603533D01*
X113597714Y-83627292D01*
X113607191Y-83640872D01*
X113633715Y-83678175D01*
X113669051Y-83729763D01*
X113710796Y-83791961D01*
X113756547Y-83861092D01*
X113803902Y-83933481D01*
X113850458Y-84005451D01*
X113893812Y-84073327D01*
X113931562Y-84133432D01*
X113961304Y-84182089D01*
X113965051Y-84188384D01*
X114037977Y-84315647D01*
X114104940Y-84440796D01*
X114164547Y-84560898D01*
X114215402Y-84673022D01*
X114256109Y-84774233D01*
X114285205Y-84861359D01*
X114300422Y-84921692D01*
X114315079Y-84994033D01*
X114328877Y-85075323D01*
X114341516Y-85162504D01*
X114352696Y-85252515D01*
X114362119Y-85342297D01*
X114369485Y-85428790D01*
X114374495Y-85508935D01*
X114376849Y-85579673D01*
X114376248Y-85637944D01*
X114372393Y-85680688D01*
X114367305Y-85700438D01*
X114359961Y-85715085D01*
X114349982Y-85723790D01*
X114332292Y-85728136D01*
X114301816Y-85729708D01*
X114272604Y-85729993D01*
X114248353Y-85730414D01*
X114204864Y-85731490D01*
X114144065Y-85733161D01*
X114067882Y-85735370D01*
X113978242Y-85738059D01*
X113877070Y-85741169D01*
X113766293Y-85744641D01*
X113647839Y-85748418D01*
X113523632Y-85752440D01*
X113433263Y-85755406D01*
X113287965Y-85760060D01*
X113155225Y-85764030D01*
X113036099Y-85767295D01*
X112931646Y-85769835D01*
X112842921Y-85771627D01*
X112770983Y-85772652D01*
X112716888Y-85772888D01*
X112681694Y-85772314D01*
X112666458Y-85770910D01*
X112665987Y-85770654D01*
X112660272Y-85755801D01*
X112655114Y-85726169D01*
X112651622Y-85688150D01*
X112651604Y-85687823D01*
X112651587Y-85639681D01*
X112658625Y-85596629D01*
X112674557Y-85555155D01*
X112701222Y-85511744D01*
X112740461Y-85462883D01*
X112794112Y-85405059D01*
X112806090Y-85392766D01*
X112857326Y-85338497D01*
X112893880Y-85295336D01*
X112915062Y-85264139D01*
X112920037Y-85251837D01*
X112921288Y-85231191D01*
X112915084Y-85207908D01*
X112899814Y-85179285D01*
X112873867Y-85142616D01*
X112835634Y-85095196D01*
X112806068Y-85060391D01*
X112743662Y-84989003D01*
X112690344Y-84931120D01*
X112642437Y-84883353D01*
X112596261Y-84842312D01*
X112548140Y-84804608D01*
X112494394Y-84766852D01*
X112469805Y-84750521D01*
X112363407Y-84681726D01*
X112260760Y-84617266D01*
X112163401Y-84557990D01*
X112072867Y-84504743D01*
X111990693Y-84458374D01*
X111918417Y-84419729D01*
X111857575Y-84389654D01*
X111809703Y-84368997D01*
X111776339Y-84358604D01*
X111759474Y-84359013D01*
X111761389Y-84369665D01*
X111771761Y-84396474D01*
X111789389Y-84436751D01*
X111813071Y-84487809D01*
X111841605Y-84546961D01*
X111861401Y-84586914D01*
X111923983Y-84713117D01*
X111980178Y-84828780D01*
X112029334Y-84932490D01*
X112070801Y-85022837D01*
X112103927Y-85098409D01*
X112128061Y-85157796D01*
X112139452Y-85189579D01*
X112162031Y-85274027D01*
X112181429Y-85379214D01*
X112197658Y-85505216D01*
X112206171Y-85594260D01*
X112211541Y-85662627D01*
X112213279Y-85712879D01*
X112209789Y-85747978D01*
X112199476Y-85770886D01*
X112180747Y-85784564D01*
X112152007Y-85791976D01*
X112111660Y-85796083D01*
X112096961Y-85797119D01*
X112056782Y-85799457D01*
X112001017Y-85802133D01*
X111935248Y-85804908D01*
X111865056Y-85807543D01*
X111813338Y-85809269D01*
X111749928Y-85811522D01*
X111692943Y-85814043D01*
X111646121Y-85816627D01*
X111613201Y-85819069D01*
X111598251Y-85821059D01*
X111577532Y-85837021D01*
X111567741Y-85865228D01*
X111571276Y-85898544D01*
X111571276Y-85898544D01*
G37*
X111571276Y-85898544D02*
X111571739Y-85899912D01*
X111581337Y-85927445D01*
X111747630Y-85934342D01*
X111815528Y-85936862D01*
X111886044Y-85938974D01*
X111951923Y-85940493D01*
X112005909Y-85941232D01*
X112017738Y-85941274D01*
X112121555Y-85941309D01*
X112149096Y-86001467D01*
X112176637Y-86061624D01*
X112163789Y-86220697D01*
X112151045Y-86348669D01*
X112134446Y-86459838D01*
X112113065Y-86558372D01*
X112085976Y-86648439D01*
X112052253Y-86734208D01*
X112047009Y-86745978D01*
X112000913Y-86843914D01*
X111946578Y-86952573D01*
X111887586Y-87065110D01*
X111827521Y-87174679D01*
X111773618Y-87268287D01*
X111748402Y-87312150D01*
X111728487Y-87349339D01*
X111715724Y-87376201D01*
X111711964Y-87389083D01*
X111712193Y-87389504D01*
X111728508Y-87391809D01*
X111761139Y-87384325D01*
X111808134Y-87367974D01*
X111867543Y-87343678D01*
X111937413Y-87312358D01*
X112015794Y-87274935D01*
X112100734Y-87232331D01*
X112190282Y-87185467D01*
X112282486Y-87135266D01*
X112375395Y-87082648D01*
X112431450Y-87049837D01*
X112510538Y-87001750D01*
X112573240Y-86960764D01*
X112622293Y-86924887D01*
X112660432Y-86892125D01*
X112688730Y-86862443D01*
X112715031Y-86829143D01*
X112747206Y-86784414D01*
X112783276Y-86731441D01*
X112821259Y-86673408D01*
X112859174Y-86613500D01*
X112895041Y-86554901D01*
X112926879Y-86500795D01*
X112952706Y-86454368D01*
X112970542Y-86418804D01*
X112978407Y-86397287D01*
X112978510Y-86396582D01*
X112979580Y-86371823D01*
X112974439Y-86349363D01*
X112960770Y-86325403D01*
X112936260Y-86296145D01*
X112898594Y-86257788D01*
X112887106Y-86246581D01*
X112848333Y-86207375D01*
X112812885Y-86168713D01*
X112785065Y-86135452D01*
X112770684Y-86115150D01*
X112755710Y-86083323D01*
X112744060Y-86046800D01*
X112736976Y-86011677D01*
X112735699Y-85984053D01*
X112741165Y-85970204D01*
X112752991Y-85969618D01*
X112784302Y-85969711D01*
X112833419Y-85970440D01*
X112898666Y-85971764D01*
X112978364Y-85973642D01*
X113070835Y-85976032D01*
X113174400Y-85978892D01*
X113287382Y-85982182D01*
X113408103Y-85985859D01*
X113528553Y-85989678D01*
X113655700Y-85993776D01*
X113777168Y-85997675D01*
X113891220Y-86001319D01*
X113996122Y-86004655D01*
X114090138Y-86007627D01*
X114171532Y-86010181D01*
X114238568Y-86012262D01*
X114289513Y-86013815D01*
X114322629Y-86014786D01*
X114335869Y-86015118D01*
X114364985Y-86015424D01*
X114364949Y-86224531D01*
X114363039Y-86373053D01*
X114357170Y-86503166D01*
X114347056Y-86617313D01*
X114332406Y-86717943D01*
X114312934Y-86807498D01*
X114288351Y-86888426D01*
X114285839Y-86895476D01*
X114252901Y-86977148D01*
X114208180Y-87073103D01*
X114153006Y-87181000D01*
X114088708Y-87298496D01*
X114016616Y-87423249D01*
X113938061Y-87552917D01*
X113854372Y-87685157D01*
X113766881Y-87817626D01*
X113738693Y-87859103D01*
X113694246Y-87925134D01*
X113662151Y-87975384D01*
X113641831Y-88010845D01*
X113632710Y-88032508D01*
X113633211Y-88040698D01*
X113649945Y-88044093D01*
X113683358Y-88039830D01*
X113730700Y-88028661D01*
X113789218Y-88011342D01*
X113856159Y-87988626D01*
X113928771Y-87961269D01*
X113941475Y-87956213D01*
X114039395Y-87915187D01*
X114143229Y-87868518D01*
X114250697Y-87817469D01*
X114359518Y-87763302D01*
X114467411Y-87707279D01*
X114572095Y-87650663D01*
X114671289Y-87594716D01*
X114762713Y-87540700D01*
X114844085Y-87489878D01*
X114913126Y-87443513D01*
X114967553Y-87402866D01*
X115005086Y-87369200D01*
X115008273Y-87365770D01*
X115046600Y-87319063D01*
X115088731Y-87260265D01*
X115132783Y-87192775D01*
X115176873Y-87119992D01*
X115219116Y-87045318D01*
X115257630Y-86972151D01*
X115290532Y-86903892D01*
X115315936Y-86843940D01*
X115331961Y-86795695D01*
X115336308Y-86773630D01*
X115337023Y-86741896D01*
X115331162Y-86709098D01*
X115317487Y-86673248D01*
X115294762Y-86632359D01*
X115261749Y-86584441D01*
X115217212Y-86527506D01*
X115159915Y-86459566D01*
X115095191Y-86385995D01*
X115053929Y-86338825D01*
X115014726Y-86292404D01*
X114981225Y-86251157D01*
X114957068Y-86219507D01*
X114951349Y-86211297D01*
X114925444Y-86166558D01*
X114910582Y-86127995D01*
X114907694Y-86099006D01*
X114916420Y-86083705D01*
X114930514Y-86081611D01*
X114963775Y-86080136D01*
X115014393Y-86079240D01*
X115080561Y-86078886D01*
X115160467Y-86079035D01*
X115252304Y-86079649D01*
X115354261Y-86080691D01*
X115464530Y-86082122D01*
X115581301Y-86083905D01*
X115702766Y-86086000D01*
X115827115Y-86088371D01*
X115952538Y-86090979D01*
X116077227Y-86093785D01*
X116199372Y-86096752D01*
X116317164Y-86099843D01*
X116428794Y-86103017D01*
X116532452Y-86106239D01*
X116626330Y-86109469D01*
X116708618Y-86112669D01*
X116777507Y-86115802D01*
X116831187Y-86118829D01*
X116867851Y-86121712D01*
X116885687Y-86124414D01*
X116887092Y-86125177D01*
X116889936Y-86141049D01*
X116891224Y-86175098D01*
X116891105Y-86224395D01*
X116889731Y-86286012D01*
X116887252Y-86357018D01*
X116883818Y-86434484D01*
X116879580Y-86515482D01*
X116874689Y-86597082D01*
X116869294Y-86676354D01*
X116863547Y-86750370D01*
X116857597Y-86816201D01*
X116851596Y-86870916D01*
X116847128Y-86903046D01*
X116833982Y-86979403D01*
X116819608Y-87048282D01*
X116802733Y-87113231D01*
X116782084Y-87177798D01*
X116756387Y-87245532D01*
X116724368Y-87319980D01*
X116684756Y-87404691D01*
X116636276Y-87503212D01*
X116620431Y-87534765D01*
X116448045Y-87855717D01*
X116258998Y-88166871D01*
X116140631Y-88344684D01*
X116102488Y-88400699D01*
X116068459Y-88451644D01*
X116040400Y-88494662D01*
X116020165Y-88526896D01*
X116009610Y-88545489D01*
X116008598Y-88548018D01*
X116012032Y-88565499D01*
X116032798Y-88574078D01*
X116069251Y-88574254D01*
X116119749Y-88566526D01*
X116182649Y-88551394D01*
X116256308Y-88529357D01*
X116339082Y-88500914D01*
X116429328Y-88466564D01*
X116525404Y-88426806D01*
X116625666Y-88382140D01*
X116728470Y-88333065D01*
X116747919Y-88323402D01*
X116873790Y-88258751D01*
X116993088Y-88194123D01*
X117103902Y-88130710D01*
X117204322Y-88069704D01*
X117292438Y-88012295D01*
X117366338Y-87959676D01*
X117424111Y-87913038D01*
X117457282Y-87881003D01*
X117506227Y-87823846D01*
X117561622Y-87752614D01*
X117621469Y-87670435D01*
X117683769Y-87580439D01*
X117746524Y-87485755D01*
X117807736Y-87389512D01*
X117865406Y-87294840D01*
X117917537Y-87204866D01*
X117962129Y-87122721D01*
X117997186Y-87051534D01*
X118017110Y-87004342D01*
X118028125Y-86964839D01*
X118030049Y-86926029D01*
X118021811Y-86886321D01*
X118002335Y-86844122D01*
X117970549Y-86797842D01*
X117925379Y-86745889D01*
X117865752Y-86686670D01*
X117790593Y-86618595D01*
X117710712Y-86550063D01*
X117625312Y-86476576D01*
X117554472Y-86412381D01*
X117498820Y-86358103D01*
X117458985Y-86314372D01*
X117435595Y-86281813D01*
X117430386Y-86270313D01*
X117428440Y-86242507D01*
X117434836Y-86207955D01*
X117435917Y-86204531D01*
X117443536Y-86176269D01*
X117441986Y-86158709D01*
X117432558Y-86145167D01*
X117429749Y-86141187D01*
X117430227Y-86137910D01*
X117435579Y-86135332D01*
X117447393Y-86133451D01*
X117467256Y-86132265D01*
X117496757Y-86131769D01*
X117537481Y-86131963D01*
X117591018Y-86132843D01*
X117658953Y-86134407D01*
X117742876Y-86136652D01*
X117844373Y-86139576D01*
X117965032Y-86143175D01*
X117999968Y-86144228D01*
X118113825Y-86147612D01*
X118224965Y-86150816D01*
X118330905Y-86153775D01*
X118429162Y-86156425D01*
X118517250Y-86158699D01*
X118592688Y-86160533D01*
X118652990Y-86161863D01*
X118695672Y-86162622D01*
X118707928Y-86162757D01*
X118831656Y-86163652D01*
X118898508Y-86211376D01*
X118964145Y-86255579D01*
X119017324Y-86284962D01*
X119060139Y-86300094D01*
X119094680Y-86301541D01*
X119123039Y-86289871D01*
X119138343Y-86276396D01*
X119162678Y-86243011D01*
X119190814Y-86192551D01*
X119221461Y-86128495D01*
X119253331Y-86054322D01*
X119285137Y-85973511D01*
X119315591Y-85889542D01*
X119343403Y-85805894D01*
X119367285Y-85726046D01*
X119385950Y-85653479D01*
X119398109Y-85591670D01*
X119401322Y-85566146D01*
X119404331Y-85529244D01*
X119403711Y-85508145D01*
X119398032Y-85497594D01*
X119385864Y-85492332D01*
X119380899Y-85491041D01*
X119355085Y-85491184D01*
X119312549Y-85499608D01*
X119255832Y-85515798D01*
X119251035Y-85517324D01*
X119192252Y-85534326D01*
X119135163Y-85546355D01*
X119071668Y-85554848D01*
X119009025Y-85560186D01*
X118955652Y-85563501D01*
X118886656Y-85567048D01*
X118804084Y-85570768D01*
X118709982Y-85574605D01*
X118606398Y-85578503D01*
X118495376Y-85582403D01*
X118378965Y-85586249D01*
X118259209Y-85589985D01*
X118138155Y-85593553D01*
X118017850Y-85596896D01*
X117900341Y-85599958D01*
X117787672Y-85602681D01*
X117681892Y-85605009D01*
X117585046Y-85606885D01*
X117499180Y-85608252D01*
X117426342Y-85609052D01*
X117368576Y-85609230D01*
X117327931Y-85608728D01*
X117306743Y-85607530D01*
X117271158Y-85598778D01*
X117253711Y-85582862D01*
X117252971Y-85556780D01*
X117265717Y-85521441D01*
X117281958Y-85490852D01*
X117304920Y-85457366D01*
X117336143Y-85419356D01*
X117377165Y-85375193D01*
X117429524Y-85323252D01*
X117494760Y-85261903D01*
X117574409Y-85189520D01*
X117607326Y-85160075D01*
X117710185Y-85067543D01*
X117797685Y-84986921D01*
X117871044Y-84916941D01*
X117931482Y-84856335D01*
X117980216Y-84803838D01*
X118018464Y-84758182D01*
X118047446Y-84718101D01*
X118068379Y-84682326D01*
X118070154Y-84678779D01*
X118088207Y-84638318D01*
X118097794Y-84603551D01*
X118098608Y-84569214D01*
X118090343Y-84530044D01*
X118072693Y-84480781D01*
X118056331Y-84441528D01*
X118009200Y-84337076D01*
X117955963Y-84228628D01*
X117898122Y-84118614D01*
X117837183Y-84009464D01*
X117774649Y-83903607D01*
X117712024Y-83803473D01*
X117650811Y-83711491D01*
X117592515Y-83630091D01*
X117538639Y-83561703D01*
X117490687Y-83508755D01*
X117463589Y-83483919D01*
X117438088Y-83464892D01*
X117396857Y-83436513D01*
X117342320Y-83400333D01*
X117276901Y-83357899D01*
X117203023Y-83310762D01*
X117123112Y-83260471D01*
X117039590Y-83208574D01*
X116954883Y-83156622D01*
X116890162Y-83117427D01*
X116744420Y-83030862D01*
X116606444Y-82951215D01*
X116477181Y-82878941D01*
X116357575Y-82814493D01*
X116248572Y-82758323D01*
X116151118Y-82710884D01*
X116066159Y-82672629D01*
X115994640Y-82644011D01*
X115937507Y-82625483D01*
X115895705Y-82617498D01*
X115870180Y-82620509D01*
X115864017Y-82625944D01*
X115866996Y-82638651D01*
X115880503Y-82664394D01*
X115902308Y-82699309D01*
X115927396Y-82735679D01*
X116030974Y-82883582D01*
X116137605Y-83042967D01*
X116243900Y-83208448D01*
X116346471Y-83374637D01*
X116441930Y-83536146D01*
X116526889Y-83687587D01*
X116531833Y-83696707D01*
X116606442Y-83837515D01*
X116669987Y-83964417D01*
X116723660Y-84080774D01*
X116768650Y-84189949D01*
X116806148Y-84295306D01*
X116837346Y-84400206D01*
X116863433Y-84508013D01*
X116885600Y-84622089D01*
X116905039Y-84745796D01*
X116906201Y-84753998D01*
X116916700Y-84835635D01*
X116926851Y-84927637D01*
X116936261Y-85025148D01*
X116944531Y-85123313D01*
X116951268Y-85217276D01*
X116956075Y-85302181D01*
X116958556Y-85373172D01*
X116958808Y-85399520D01*
X116955854Y-85466431D01*
X116945912Y-85517847D01*
X116926973Y-85558855D01*
X116897028Y-85594543D01*
X116873751Y-85614868D01*
X116836164Y-85645128D01*
X115720424Y-85681903D01*
X115568565Y-85686853D01*
X115422694Y-85691501D01*
X115284202Y-85695809D01*
X115154476Y-85699737D01*
X115034907Y-85703248D01*
X114926882Y-85706303D01*
X114831792Y-85708864D01*
X114751025Y-85710891D01*
X114685971Y-85712347D01*
X114638018Y-85713193D01*
X114608555Y-85713391D01*
X114598971Y-85712963D01*
X114600222Y-85701210D01*
X114609568Y-85677156D01*
X114619092Y-85657523D01*
X114635974Y-85633026D01*
X114668491Y-85594389D01*
X114716581Y-85541682D01*
X114780177Y-85474973D01*
X114859217Y-85394333D01*
X114923292Y-85330039D01*
X115010930Y-85241923D01*
X115084154Y-85166697D01*
X115144153Y-85102933D01*
X115192119Y-85049209D01*
X115229241Y-85004098D01*
X115256710Y-84966177D01*
X115275716Y-84934019D01*
X115287451Y-84906200D01*
X115291927Y-84888812D01*
X115290661Y-84856049D01*
X115278626Y-84808989D01*
X115257320Y-84750592D01*
X115228246Y-84683817D01*
X115192904Y-84611625D01*
X115152794Y-84536975D01*
X115109417Y-84462829D01*
X115064274Y-84392146D01*
X115018867Y-84327886D01*
X114987082Y-84287535D01*
X114958626Y-84256720D01*
X114922983Y-84224709D01*
X114878138Y-84190104D01*
X114822078Y-84151510D01*
X114752787Y-84107531D01*
X114668253Y-84056770D01*
X114582034Y-84006746D01*
X114479962Y-83949721D01*
X114375462Y-83894131D01*
X114270351Y-83840740D01*
X114166451Y-83790313D01*
X114065581Y-83743614D01*
X113969560Y-83701408D01*
X113880208Y-83664459D01*
X113799345Y-83633532D01*
X113728791Y-83609392D01*
X113670365Y-83592802D01*
X113625887Y-83584527D01*
X113597176Y-83585332D01*
X113589079Y-83589595D01*
X113586088Y-83603533D01*
X113597714Y-83627292D01*
X113607191Y-83640872D01*
X113633715Y-83678175D01*
X113669051Y-83729763D01*
X113710796Y-83791961D01*
X113756547Y-83861092D01*
X113803902Y-83933481D01*
X113850458Y-84005451D01*
X113893812Y-84073327D01*
X113931562Y-84133432D01*
X113961304Y-84182089D01*
X113965051Y-84188384D01*
X114037977Y-84315647D01*
X114104940Y-84440796D01*
X114164547Y-84560898D01*
X114215402Y-84673022D01*
X114256109Y-84774233D01*
X114285205Y-84861359D01*
X114300422Y-84921692D01*
X114315079Y-84994033D01*
X114328877Y-85075323D01*
X114341516Y-85162504D01*
X114352696Y-85252515D01*
X114362119Y-85342297D01*
X114369485Y-85428790D01*
X114374495Y-85508935D01*
X114376849Y-85579673D01*
X114376248Y-85637944D01*
X114372393Y-85680688D01*
X114367305Y-85700438D01*
X114359961Y-85715085D01*
X114349982Y-85723790D01*
X114332292Y-85728136D01*
X114301816Y-85729708D01*
X114272604Y-85729993D01*
X114248353Y-85730414D01*
X114204864Y-85731490D01*
X114144065Y-85733161D01*
X114067882Y-85735370D01*
X113978242Y-85738059D01*
X113877070Y-85741169D01*
X113766293Y-85744641D01*
X113647839Y-85748418D01*
X113523632Y-85752440D01*
X113433263Y-85755406D01*
X113287965Y-85760060D01*
X113155225Y-85764030D01*
X113036099Y-85767295D01*
X112931646Y-85769835D01*
X112842921Y-85771627D01*
X112770983Y-85772652D01*
X112716888Y-85772888D01*
X112681694Y-85772314D01*
X112666458Y-85770910D01*
X112665987Y-85770654D01*
X112660272Y-85755801D01*
X112655114Y-85726169D01*
X112651622Y-85688150D01*
X112651604Y-85687823D01*
X112651587Y-85639681D01*
X112658625Y-85596629D01*
X112674557Y-85555155D01*
X112701222Y-85511744D01*
X112740461Y-85462883D01*
X112794112Y-85405059D01*
X112806090Y-85392766D01*
X112857326Y-85338497D01*
X112893880Y-85295336D01*
X112915062Y-85264139D01*
X112920037Y-85251837D01*
X112921288Y-85231191D01*
X112915084Y-85207908D01*
X112899814Y-85179285D01*
X112873867Y-85142616D01*
X112835634Y-85095196D01*
X112806068Y-85060391D01*
X112743662Y-84989003D01*
X112690344Y-84931120D01*
X112642437Y-84883353D01*
X112596261Y-84842312D01*
X112548140Y-84804608D01*
X112494394Y-84766852D01*
X112469805Y-84750521D01*
X112363407Y-84681726D01*
X112260760Y-84617266D01*
X112163401Y-84557990D01*
X112072867Y-84504743D01*
X111990693Y-84458374D01*
X111918417Y-84419729D01*
X111857575Y-84389654D01*
X111809703Y-84368997D01*
X111776339Y-84358604D01*
X111759474Y-84359013D01*
X111761389Y-84369665D01*
X111771761Y-84396474D01*
X111789389Y-84436751D01*
X111813071Y-84487809D01*
X111841605Y-84546961D01*
X111861401Y-84586914D01*
X111923983Y-84713117D01*
X111980178Y-84828780D01*
X112029334Y-84932490D01*
X112070801Y-85022837D01*
X112103927Y-85098409D01*
X112128061Y-85157796D01*
X112139452Y-85189579D01*
X112162031Y-85274027D01*
X112181429Y-85379214D01*
X112197658Y-85505216D01*
X112206171Y-85594260D01*
X112211541Y-85662627D01*
X112213279Y-85712879D01*
X112209789Y-85747978D01*
X112199476Y-85770886D01*
X112180747Y-85784564D01*
X112152007Y-85791976D01*
X112111660Y-85796083D01*
X112096961Y-85797119D01*
X112056782Y-85799457D01*
X112001017Y-85802133D01*
X111935248Y-85804908D01*
X111865056Y-85807543D01*
X111813338Y-85809269D01*
X111749928Y-85811522D01*
X111692943Y-85814043D01*
X111646121Y-85816627D01*
X111613201Y-85819069D01*
X111598251Y-85821059D01*
X111577532Y-85837021D01*
X111567741Y-85865228D01*
X111571276Y-85898544D01*
G36*
X111558312Y-93118728D02*
X111584795Y-93120146D01*
X111624317Y-93117569D01*
X111673100Y-93111465D01*
X111727366Y-93102302D01*
X111783340Y-93090549D01*
X111834676Y-93077403D01*
X111976439Y-93033111D01*
X112107316Y-92982882D01*
X112237507Y-92922705D01*
X112269689Y-92906386D01*
X112334616Y-92872052D01*
X112384464Y-92842767D01*
X112423494Y-92814955D01*
X112455967Y-92785041D01*
X112486146Y-92749451D01*
X112518290Y-92704611D01*
X112528845Y-92688983D01*
X112559867Y-92640061D01*
X112593777Y-92582172D01*
X112628956Y-92518563D01*
X112663786Y-92452482D01*
X112696648Y-92387177D01*
X112725922Y-92325895D01*
X112749990Y-92271884D01*
X112767232Y-92228392D01*
X112776030Y-92198667D01*
X112776823Y-92191523D01*
X112775299Y-92175013D01*
X112769215Y-92158363D01*
X112756304Y-92138438D01*
X112734299Y-92112106D01*
X112700933Y-92076230D01*
X112670902Y-92045099D01*
X112614933Y-91985002D01*
X112574024Y-91934638D01*
X112546345Y-91890967D01*
X112530070Y-91850947D01*
X112523369Y-91811536D01*
X112522950Y-91798979D01*
X112522717Y-91753981D01*
X112562421Y-91754217D01*
X112581481Y-91754635D01*
X112619213Y-91755731D01*
X112673128Y-91757422D01*
X112740737Y-91759626D01*
X112819550Y-91762263D01*
X112907078Y-91765251D01*
X113000832Y-91768507D01*
X113036223Y-91769750D01*
X113154316Y-91773682D01*
X113286654Y-91777692D01*
X113426893Y-91781615D01*
X113568689Y-91785284D01*
X113705696Y-91788530D01*
X113831569Y-91791189D01*
X113896971Y-91792395D01*
X114323622Y-91799743D01*
X114349319Y-91830282D01*
X114369659Y-91860149D01*
X114384295Y-91896431D01*
X114393947Y-91942691D01*
X114399332Y-92002492D01*
X114401169Y-92079395D01*
X114401185Y-92087495D01*
X114392430Y-92244173D01*
X114365605Y-92402261D01*
X114320099Y-92565298D01*
X114317288Y-92573747D01*
X114299955Y-92620890D01*
X114273809Y-92685542D01*
X114239502Y-92766268D01*
X114197687Y-92861635D01*
X114149016Y-92970209D01*
X114094142Y-93090556D01*
X114033715Y-93221242D01*
X113968390Y-93360833D01*
X113898817Y-93507895D01*
X113825649Y-93660995D01*
X113773181Y-93769875D01*
X113742716Y-93833478D01*
X113715626Y-93891173D01*
X113693215Y-93940088D01*
X113676787Y-93977354D01*
X113667645Y-94000102D01*
X113666194Y-94005453D01*
X113674882Y-94016706D01*
X113700617Y-94016265D01*
X113742909Y-94004300D01*
X113801264Y-93980981D01*
X113875190Y-93946478D01*
X113955451Y-93905571D01*
X114085960Y-93833001D01*
X114222023Y-93750106D01*
X114359800Y-93659633D01*
X114495454Y-93564332D01*
X114625146Y-93466952D01*
X114745037Y-93370240D01*
X114851289Y-93276947D01*
X114905121Y-93225518D01*
X114963693Y-93162765D01*
X115021726Y-93090518D01*
X115082847Y-93004187D01*
X115098304Y-92980976D01*
X115146988Y-92904958D01*
X115193136Y-92828828D01*
X115235342Y-92755250D01*
X115272204Y-92686886D01*
X115302318Y-92626399D01*
X115324278Y-92576452D01*
X115336683Y-92539709D01*
X115338958Y-92524496D01*
X115334421Y-92492914D01*
X115320072Y-92458134D01*
X115294540Y-92418339D01*
X115256454Y-92371714D01*
X115204445Y-92316444D01*
X115137141Y-92250712D01*
X115120273Y-92234786D01*
X115052994Y-92171346D01*
X114999471Y-92120200D01*
X114957832Y-92079354D01*
X114926206Y-92046812D01*
X114902723Y-92020577D01*
X114885510Y-91998654D01*
X114872698Y-91979048D01*
X114862414Y-91959763D01*
X114862406Y-91959746D01*
X114846589Y-91922364D01*
X114842831Y-91895653D01*
X114850998Y-91872970D01*
X114860394Y-91859964D01*
X114879355Y-91836549D01*
X115440073Y-91848297D01*
X115615711Y-91852090D01*
X115786439Y-91855999D01*
X115950689Y-91859977D01*
X116106891Y-91863979D01*
X116253475Y-91867958D01*
X116388873Y-91871869D01*
X116511515Y-91875666D01*
X116619832Y-91879303D01*
X116712253Y-91882734D01*
X116787209Y-91885913D01*
X116843132Y-91888795D01*
X116858399Y-91889757D01*
X116964276Y-91896916D01*
X116961248Y-91955148D01*
X116958250Y-91997617D01*
X116953013Y-92056316D01*
X116946066Y-92126480D01*
X116937935Y-92203345D01*
X116929146Y-92282147D01*
X116920228Y-92358122D01*
X116911707Y-92426505D01*
X116904109Y-92482531D01*
X116899762Y-92511005D01*
X116869220Y-92676977D01*
X116835083Y-92824663D01*
X116796686Y-92956748D01*
X116771260Y-93029805D01*
X116749622Y-93083750D01*
X116718697Y-93154553D01*
X116679348Y-93240487D01*
X116632438Y-93339824D01*
X116578828Y-93450836D01*
X116519380Y-93571797D01*
X116454957Y-93700978D01*
X116386422Y-93836654D01*
X116314635Y-93977095D01*
X116240460Y-94120574D01*
X116164759Y-94265366D01*
X116088393Y-94409741D01*
X116012226Y-94551972D01*
X116002326Y-94570321D01*
X115958525Y-94652259D01*
X115920908Y-94724300D01*
X115890278Y-94784816D01*
X115867438Y-94832177D01*
X115853190Y-94864753D01*
X115848337Y-94880915D01*
X115848680Y-94882192D01*
X115866356Y-94886417D01*
X115900023Y-94879811D01*
X115948031Y-94863256D01*
X116008733Y-94837636D01*
X116080478Y-94803835D01*
X116161619Y-94762736D01*
X116250505Y-94715223D01*
X116345489Y-94662179D01*
X116444921Y-94604487D01*
X116547152Y-94543031D01*
X116650533Y-94478694D01*
X116753416Y-94412360D01*
X116854152Y-94344913D01*
X116863693Y-94338381D01*
X116998354Y-94243913D01*
X117115587Y-94156973D01*
X117217107Y-94076047D01*
X117304632Y-93999616D01*
X117379880Y-93926165D01*
X117444566Y-93854176D01*
X117500409Y-93782133D01*
X117512005Y-93765653D01*
X117552198Y-93705618D01*
X117598316Y-93633561D01*
X117648911Y-93552003D01*
X117702538Y-93463468D01*
X117757750Y-93370476D01*
X117813100Y-93275551D01*
X117867142Y-93181215D01*
X117918429Y-93089990D01*
X117965515Y-93004397D01*
X118006954Y-92926960D01*
X118041298Y-92860201D01*
X118067103Y-92806641D01*
X118081570Y-92772501D01*
X118092163Y-92735570D01*
X118094937Y-92699508D01*
X118088834Y-92662965D01*
X118072797Y-92624588D01*
X118045766Y-92583027D01*
X118006684Y-92536928D01*
X117954492Y-92484940D01*
X117888133Y-92425712D01*
X117806548Y-92357891D01*
X117708680Y-92280126D01*
X117676608Y-92255138D01*
X117590561Y-92186761D01*
X117516800Y-92124889D01*
X117456407Y-92070542D01*
X117410466Y-92024741D01*
X117380060Y-91988507D01*
X117366271Y-91962858D01*
X117366238Y-91962729D01*
X117362045Y-91945314D01*
X117360647Y-91931607D01*
X117364198Y-91921165D01*
X117374852Y-91913546D01*
X117394761Y-91908307D01*
X117426080Y-91905004D01*
X117470962Y-91903195D01*
X117531561Y-91902438D01*
X117610029Y-91902289D01*
X117660088Y-91902306D01*
X117738304Y-91902749D01*
X117833124Y-91903969D01*
X117939997Y-91905866D01*
X118054369Y-91908343D01*
X118171688Y-91911300D01*
X118287401Y-91914641D01*
X118393622Y-91918147D01*
X118838307Y-91933892D01*
X118912421Y-91985393D01*
X118967297Y-92022363D01*
X119009417Y-92047663D01*
X119042382Y-92063073D01*
X119069792Y-92070373D01*
X119086827Y-92071614D01*
X119108323Y-92068506D01*
X119125959Y-92056187D01*
X119145564Y-92030159D01*
X119150515Y-92022470D01*
X119176491Y-91976141D01*
X119204236Y-91917218D01*
X119232961Y-91848340D01*
X119261881Y-91772148D01*
X119290206Y-91691280D01*
X119317149Y-91608377D01*
X119341923Y-91526080D01*
X119363739Y-91447026D01*
X119381811Y-91373858D01*
X119395350Y-91309213D01*
X119403569Y-91255733D01*
X119405681Y-91216057D01*
X119400897Y-91192825D01*
X119398842Y-91190184D01*
X119376209Y-91182382D01*
X119343920Y-91193301D01*
X119302118Y-91222890D01*
X119300774Y-91224019D01*
X119233052Y-91271173D01*
X119158293Y-91302716D01*
X119087119Y-91318906D01*
X119059468Y-91321915D01*
X119012772Y-91325296D01*
X118949154Y-91328977D01*
X118870741Y-91332889D01*
X118779658Y-91336960D01*
X118678029Y-91341121D01*
X118567980Y-91345301D01*
X118451636Y-91349430D01*
X118331121Y-91353437D01*
X118208562Y-91357251D01*
X118086083Y-91360803D01*
X117965809Y-91364022D01*
X117849865Y-91366837D01*
X117740377Y-91369179D01*
X117639469Y-91370976D01*
X117549267Y-91372158D01*
X117471896Y-91372655D01*
X117464920Y-91372665D01*
X117395378Y-91372596D01*
X117344027Y-91372068D01*
X117307884Y-91370782D01*
X117283964Y-91368443D01*
X117269285Y-91364756D01*
X117260861Y-91359424D01*
X117255709Y-91352150D01*
X117255569Y-91351889D01*
X117249495Y-91330892D01*
X117253100Y-91306651D01*
X117267419Y-91278046D01*
X117293490Y-91243955D01*
X117332347Y-91203260D01*
X117385027Y-91154840D01*
X117452565Y-91097575D01*
X117535997Y-91030345D01*
X117597578Y-90982065D01*
X117702063Y-90899507D01*
X117789840Y-90827089D01*
X117862050Y-90763559D01*
X117919835Y-90707662D01*
X117964336Y-90658146D01*
X117996694Y-90613758D01*
X118018050Y-90573243D01*
X118029546Y-90535348D01*
X118032417Y-90504512D01*
X118030578Y-90481009D01*
X118024186Y-90453941D01*
X118011924Y-90419742D01*
X117992479Y-90374848D01*
X117964534Y-90315695D01*
X117957099Y-90300382D01*
X117891978Y-90172083D01*
X117823465Y-90046995D01*
X117753276Y-89927800D01*
X117683127Y-89817180D01*
X117614732Y-89717817D01*
X117549808Y-89632395D01*
X117490069Y-89563595D01*
X117477953Y-89551118D01*
X117401083Y-89481746D01*
X117306746Y-89409748D01*
X117198166Y-89336996D01*
X117078570Y-89265364D01*
X116951183Y-89196725D01*
X116819228Y-89132951D01*
X116685931Y-89075916D01*
X116609587Y-89046775D01*
X116523862Y-89017940D01*
X116437305Y-88993124D01*
X116352253Y-88972610D01*
X116271046Y-88956682D01*
X116196022Y-88945622D01*
X116129521Y-88939713D01*
X116073880Y-88939237D01*
X116031439Y-88944477D01*
X116004536Y-88955717D01*
X115995498Y-88972530D01*
X116001940Y-88988296D01*
X116018388Y-89012827D01*
X116030810Y-89028378D01*
X116123470Y-89144119D01*
X116219640Y-89276305D01*
X116317047Y-89421057D01*
X116413420Y-89574498D01*
X116506486Y-89732748D01*
X116593972Y-89891930D01*
X116673605Y-90048165D01*
X116743115Y-90197574D01*
X116800227Y-90336279D01*
X116805800Y-90351105D01*
X116859264Y-90515432D01*
X116901852Y-90689372D01*
X116932300Y-90866183D01*
X116949348Y-91039124D01*
X116952600Y-91135296D01*
X116952898Y-91194280D01*
X116952369Y-91236214D01*
X116950392Y-91265221D01*
X116946343Y-91285427D01*
X116939599Y-91300955D01*
X116929537Y-91315930D01*
X116924267Y-91322923D01*
X116897210Y-91354042D01*
X116867172Y-91382478D01*
X116860723Y-91387649D01*
X116826601Y-91413675D01*
X116016656Y-91424814D01*
X115880774Y-91426735D01*
X115746009Y-91428739D01*
X115614627Y-91430787D01*
X115488894Y-91432840D01*
X115371078Y-91434856D01*
X115263445Y-91436798D01*
X115168260Y-91438625D01*
X115087792Y-91440297D01*
X115024305Y-91441776D01*
X114985411Y-91442849D01*
X114764110Y-91449746D01*
X114771003Y-91415284D01*
X114781904Y-91385082D01*
X114804758Y-91345681D01*
X114840367Y-91296015D01*
X114889530Y-91235020D01*
X114953048Y-91161631D01*
X115006006Y-91102835D01*
X115094179Y-91005194D01*
X115168120Y-90920986D01*
X115228765Y-90848870D01*
X115277053Y-90787507D01*
X115313922Y-90735555D01*
X115340308Y-90691673D01*
X115357149Y-90654522D01*
X115365384Y-90622760D01*
X115365949Y-90595047D01*
X115365131Y-90589329D01*
X115354703Y-90555078D01*
X115333703Y-90506809D01*
X115303962Y-90447665D01*
X115267314Y-90380791D01*
X115225590Y-90309330D01*
X115180622Y-90236426D01*
X115134243Y-90165224D01*
X115088284Y-90098866D01*
X115047372Y-90044060D01*
X114999291Y-89984664D01*
X114956891Y-89938235D01*
X114914622Y-89899788D01*
X114866937Y-89864338D01*
X114808286Y-89826899D01*
X114800305Y-89822070D01*
X114679762Y-89753204D01*
X114552955Y-89687645D01*
X114422847Y-89626528D01*
X114292399Y-89570990D01*
X114164574Y-89522167D01*
X114042335Y-89481195D01*
X113928644Y-89449211D01*
X113826465Y-89427351D01*
X113744445Y-89417108D01*
X113700051Y-89415382D01*
X113668113Y-89416750D01*
X113652697Y-89421012D01*
X113652209Y-89421608D01*
X113655398Y-89433741D01*
X113668575Y-89459839D01*
X113689776Y-89496384D01*
X113717037Y-89539861D01*
X113725430Y-89552707D01*
X113819302Y-89699370D01*
X113910369Y-89849822D01*
X113996993Y-90000984D01*
X114077532Y-90149779D01*
X114150348Y-90293128D01*
X114213799Y-90427952D01*
X114266247Y-90551174D01*
X114288942Y-90610505D01*
X114319039Y-90696781D01*
X114348638Y-90788685D01*
X114376892Y-90882954D01*
X114402951Y-90976328D01*
X114425971Y-91065546D01*
X114445103Y-91147346D01*
X114459499Y-91218466D01*
X114468314Y-91275645D01*
X114470784Y-91310456D01*
X114464158Y-91358648D01*
X114442974Y-91413069D01*
X114437898Y-91423176D01*
X114404935Y-91487092D01*
X114281729Y-91493448D01*
X114234087Y-91495625D01*
X114170811Y-91498081D01*
X114093763Y-91500770D01*
X114004802Y-91503647D01*
X113905789Y-91506667D01*
X113798584Y-91509785D01*
X113685048Y-91512954D01*
X113567040Y-91516129D01*
X113446421Y-91519266D01*
X113325051Y-91522319D01*
X113204791Y-91525242D01*
X113087501Y-91527989D01*
X112975041Y-91530517D01*
X112869272Y-91532778D01*
X112772053Y-91534728D01*
X112685246Y-91536322D01*
X112610710Y-91537514D01*
X112550306Y-91538258D01*
X112505894Y-91538510D01*
X112479334Y-91538223D01*
X112472206Y-91537595D01*
X112468275Y-91523765D01*
X112465494Y-91495082D01*
X112464485Y-91459289D01*
X112466463Y-91418852D01*
X112473442Y-91381558D01*
X112486991Y-91345183D01*
X112508679Y-91307505D01*
X112540075Y-91266302D01*
X112582747Y-91219350D01*
X112638265Y-91164427D01*
X112708197Y-91099311D01*
X112737132Y-91073010D01*
X112778668Y-91033857D01*
X112812792Y-90998642D01*
X112836557Y-90970584D01*
X112847008Y-90952938D01*
X112848819Y-90926475D01*
X112842340Y-90890840D01*
X112826808Y-90843498D01*
X112801463Y-90781917D01*
X112783889Y-90742852D01*
X112738127Y-90647946D01*
X112691634Y-90560181D01*
X112646834Y-90483914D01*
X112606688Y-90424229D01*
X112574308Y-90387847D01*
X112529962Y-90351094D01*
X112471714Y-90312734D01*
X112397624Y-90271533D01*
X112305753Y-90226255D01*
X112269765Y-90209548D01*
X112192414Y-90175826D01*
X112111539Y-90143650D01*
X112029487Y-90113668D01*
X111948606Y-90086525D01*
X111871241Y-90062869D01*
X111799741Y-90043345D01*
X111736452Y-90028599D01*
X111683720Y-90019278D01*
X111643894Y-90016029D01*
X111619319Y-90019497D01*
X111612171Y-90028458D01*
X111617789Y-90040567D01*
X111633302Y-90066945D01*
X111656699Y-90104349D01*
X111685970Y-90149537D01*
X111705714Y-90179334D01*
X111787324Y-90304156D01*
X111864404Y-90427295D01*
X111935520Y-90546231D01*
X111999239Y-90658443D01*
X112054126Y-90761409D01*
X112098749Y-90852608D01*
X112130226Y-90925795D01*
X112145656Y-90974581D01*
X112161056Y-91040402D01*
X112175708Y-91119129D01*
X112188894Y-91206634D01*
X112199897Y-91298787D01*
X112205503Y-91358800D01*
X112210008Y-91417418D01*
X112212125Y-91459186D01*
X112211725Y-91488310D01*
X112208676Y-91508994D01*
X112202851Y-91525444D01*
X112200198Y-91530851D01*
X112188279Y-91550114D01*
X112173708Y-91559861D01*
X112149300Y-91563380D01*
X112128052Y-91563860D01*
X112070542Y-91565209D01*
X112008969Y-91568120D01*
X111947307Y-91572238D01*
X111889534Y-91577207D01*
X111839623Y-91582669D01*
X111801551Y-91588270D01*
X111779294Y-91593653D01*
X111776001Y-91595398D01*
X111763811Y-91617159D01*
X111761177Y-91647669D01*
X111768775Y-91676453D01*
X111770570Y-91679553D01*
X111785591Y-91686811D01*
X111820033Y-91693522D01*
X111872144Y-91699512D01*
X111940174Y-91704608D01*
X112022370Y-91708639D01*
X112086559Y-91710712D01*
X112106910Y-91713052D01*
X112121339Y-91721868D01*
X112134669Y-91741817D01*
X112148535Y-91770564D01*
X112161533Y-91803030D01*
X112168531Y-91833840D01*
X112169206Y-91867230D01*
X112163235Y-91907438D01*
X112150295Y-91958701D01*
X112130061Y-92025255D01*
X112128787Y-92029263D01*
X112045750Y-92263429D01*
X111950541Y-92481500D01*
X111842202Y-92685344D01*
X111719771Y-92876830D01*
X111632485Y-92995162D01*
X111600987Y-93036361D01*
X111574889Y-93071897D01*
X111556663Y-93098300D01*
X111548782Y-93112098D01*
X111548645Y-93112847D01*
X111558312Y-93118728D01*
X111558312Y-93118728D01*
G37*
X111558312Y-93118728D02*
X111584795Y-93120146D01*
X111624317Y-93117569D01*
X111673100Y-93111465D01*
X111727366Y-93102302D01*
X111783340Y-93090549D01*
X111834676Y-93077403D01*
X111976439Y-93033111D01*
X112107316Y-92982882D01*
X112237507Y-92922705D01*
X112269689Y-92906386D01*
X112334616Y-92872052D01*
X112384464Y-92842767D01*
X112423494Y-92814955D01*
X112455967Y-92785041D01*
X112486146Y-92749451D01*
X112518290Y-92704611D01*
X112528845Y-92688983D01*
X112559867Y-92640061D01*
X112593777Y-92582172D01*
X112628956Y-92518563D01*
X112663786Y-92452482D01*
X112696648Y-92387177D01*
X112725922Y-92325895D01*
X112749990Y-92271884D01*
X112767232Y-92228392D01*
X112776030Y-92198667D01*
X112776823Y-92191523D01*
X112775299Y-92175013D01*
X112769215Y-92158363D01*
X112756304Y-92138438D01*
X112734299Y-92112106D01*
X112700933Y-92076230D01*
X112670902Y-92045099D01*
X112614933Y-91985002D01*
X112574024Y-91934638D01*
X112546345Y-91890967D01*
X112530070Y-91850947D01*
X112523369Y-91811536D01*
X112522950Y-91798979D01*
X112522717Y-91753981D01*
X112562421Y-91754217D01*
X112581481Y-91754635D01*
X112619213Y-91755731D01*
X112673128Y-91757422D01*
X112740737Y-91759626D01*
X112819550Y-91762263D01*
X112907078Y-91765251D01*
X113000832Y-91768507D01*
X113036223Y-91769750D01*
X113154316Y-91773682D01*
X113286654Y-91777692D01*
X113426893Y-91781615D01*
X113568689Y-91785284D01*
X113705696Y-91788530D01*
X113831569Y-91791189D01*
X113896971Y-91792395D01*
X114323622Y-91799743D01*
X114349319Y-91830282D01*
X114369659Y-91860149D01*
X114384295Y-91896431D01*
X114393947Y-91942691D01*
X114399332Y-92002492D01*
X114401169Y-92079395D01*
X114401185Y-92087495D01*
X114392430Y-92244173D01*
X114365605Y-92402261D01*
X114320099Y-92565298D01*
X114317288Y-92573747D01*
X114299955Y-92620890D01*
X114273809Y-92685542D01*
X114239502Y-92766268D01*
X114197687Y-92861635D01*
X114149016Y-92970209D01*
X114094142Y-93090556D01*
X114033715Y-93221242D01*
X113968390Y-93360833D01*
X113898817Y-93507895D01*
X113825649Y-93660995D01*
X113773181Y-93769875D01*
X113742716Y-93833478D01*
X113715626Y-93891173D01*
X113693215Y-93940088D01*
X113676787Y-93977354D01*
X113667645Y-94000102D01*
X113666194Y-94005453D01*
X113674882Y-94016706D01*
X113700617Y-94016265D01*
X113742909Y-94004300D01*
X113801264Y-93980981D01*
X113875190Y-93946478D01*
X113955451Y-93905571D01*
X114085960Y-93833001D01*
X114222023Y-93750106D01*
X114359800Y-93659633D01*
X114495454Y-93564332D01*
X114625146Y-93466952D01*
X114745037Y-93370240D01*
X114851289Y-93276947D01*
X114905121Y-93225518D01*
X114963693Y-93162765D01*
X115021726Y-93090518D01*
X115082847Y-93004187D01*
X115098304Y-92980976D01*
X115146988Y-92904958D01*
X115193136Y-92828828D01*
X115235342Y-92755250D01*
X115272204Y-92686886D01*
X115302318Y-92626399D01*
X115324278Y-92576452D01*
X115336683Y-92539709D01*
X115338958Y-92524496D01*
X115334421Y-92492914D01*
X115320072Y-92458134D01*
X115294540Y-92418339D01*
X115256454Y-92371714D01*
X115204445Y-92316444D01*
X115137141Y-92250712D01*
X115120273Y-92234786D01*
X115052994Y-92171346D01*
X114999471Y-92120200D01*
X114957832Y-92079354D01*
X114926206Y-92046812D01*
X114902723Y-92020577D01*
X114885510Y-91998654D01*
X114872698Y-91979048D01*
X114862414Y-91959763D01*
X114862406Y-91959746D01*
X114846589Y-91922364D01*
X114842831Y-91895653D01*
X114850998Y-91872970D01*
X114860394Y-91859964D01*
X114879355Y-91836549D01*
X115440073Y-91848297D01*
X115615711Y-91852090D01*
X115786439Y-91855999D01*
X115950689Y-91859977D01*
X116106891Y-91863979D01*
X116253475Y-91867958D01*
X116388873Y-91871869D01*
X116511515Y-91875666D01*
X116619832Y-91879303D01*
X116712253Y-91882734D01*
X116787209Y-91885913D01*
X116843132Y-91888795D01*
X116858399Y-91889757D01*
X116964276Y-91896916D01*
X116961248Y-91955148D01*
X116958250Y-91997617D01*
X116953013Y-92056316D01*
X116946066Y-92126480D01*
X116937935Y-92203345D01*
X116929146Y-92282147D01*
X116920228Y-92358122D01*
X116911707Y-92426505D01*
X116904109Y-92482531D01*
X116899762Y-92511005D01*
X116869220Y-92676977D01*
X116835083Y-92824663D01*
X116796686Y-92956748D01*
X116771260Y-93029805D01*
X116749622Y-93083750D01*
X116718697Y-93154553D01*
X116679348Y-93240487D01*
X116632438Y-93339824D01*
X116578828Y-93450836D01*
X116519380Y-93571797D01*
X116454957Y-93700978D01*
X116386422Y-93836654D01*
X116314635Y-93977095D01*
X116240460Y-94120574D01*
X116164759Y-94265366D01*
X116088393Y-94409741D01*
X116012226Y-94551972D01*
X116002326Y-94570321D01*
X115958525Y-94652259D01*
X115920908Y-94724300D01*
X115890278Y-94784816D01*
X115867438Y-94832177D01*
X115853190Y-94864753D01*
X115848337Y-94880915D01*
X115848680Y-94882192D01*
X115866356Y-94886417D01*
X115900023Y-94879811D01*
X115948031Y-94863256D01*
X116008733Y-94837636D01*
X116080478Y-94803835D01*
X116161619Y-94762736D01*
X116250505Y-94715223D01*
X116345489Y-94662179D01*
X116444921Y-94604487D01*
X116547152Y-94543031D01*
X116650533Y-94478694D01*
X116753416Y-94412360D01*
X116854152Y-94344913D01*
X116863693Y-94338381D01*
X116998354Y-94243913D01*
X117115587Y-94156973D01*
X117217107Y-94076047D01*
X117304632Y-93999616D01*
X117379880Y-93926165D01*
X117444566Y-93854176D01*
X117500409Y-93782133D01*
X117512005Y-93765653D01*
X117552198Y-93705618D01*
X117598316Y-93633561D01*
X117648911Y-93552003D01*
X117702538Y-93463468D01*
X117757750Y-93370476D01*
X117813100Y-93275551D01*
X117867142Y-93181215D01*
X117918429Y-93089990D01*
X117965515Y-93004397D01*
X118006954Y-92926960D01*
X118041298Y-92860201D01*
X118067103Y-92806641D01*
X118081570Y-92772501D01*
X118092163Y-92735570D01*
X118094937Y-92699508D01*
X118088834Y-92662965D01*
X118072797Y-92624588D01*
X118045766Y-92583027D01*
X118006684Y-92536928D01*
X117954492Y-92484940D01*
X117888133Y-92425712D01*
X117806548Y-92357891D01*
X117708680Y-92280126D01*
X117676608Y-92255138D01*
X117590561Y-92186761D01*
X117516800Y-92124889D01*
X117456407Y-92070542D01*
X117410466Y-92024741D01*
X117380060Y-91988507D01*
X117366271Y-91962858D01*
X117366238Y-91962729D01*
X117362045Y-91945314D01*
X117360647Y-91931607D01*
X117364198Y-91921165D01*
X117374852Y-91913546D01*
X117394761Y-91908307D01*
X117426080Y-91905004D01*
X117470962Y-91903195D01*
X117531561Y-91902438D01*
X117610029Y-91902289D01*
X117660088Y-91902306D01*
X117738304Y-91902749D01*
X117833124Y-91903969D01*
X117939997Y-91905866D01*
X118054369Y-91908343D01*
X118171688Y-91911300D01*
X118287401Y-91914641D01*
X118393622Y-91918147D01*
X118838307Y-91933892D01*
X118912421Y-91985393D01*
X118967297Y-92022363D01*
X119009417Y-92047663D01*
X119042382Y-92063073D01*
X119069792Y-92070373D01*
X119086827Y-92071614D01*
X119108323Y-92068506D01*
X119125959Y-92056187D01*
X119145564Y-92030159D01*
X119150515Y-92022470D01*
X119176491Y-91976141D01*
X119204236Y-91917218D01*
X119232961Y-91848340D01*
X119261881Y-91772148D01*
X119290206Y-91691280D01*
X119317149Y-91608377D01*
X119341923Y-91526080D01*
X119363739Y-91447026D01*
X119381811Y-91373858D01*
X119395350Y-91309213D01*
X119403569Y-91255733D01*
X119405681Y-91216057D01*
X119400897Y-91192825D01*
X119398842Y-91190184D01*
X119376209Y-91182382D01*
X119343920Y-91193301D01*
X119302118Y-91222890D01*
X119300774Y-91224019D01*
X119233052Y-91271173D01*
X119158293Y-91302716D01*
X119087119Y-91318906D01*
X119059468Y-91321915D01*
X119012772Y-91325296D01*
X118949154Y-91328977D01*
X118870741Y-91332889D01*
X118779658Y-91336960D01*
X118678029Y-91341121D01*
X118567980Y-91345301D01*
X118451636Y-91349430D01*
X118331121Y-91353437D01*
X118208562Y-91357251D01*
X118086083Y-91360803D01*
X117965809Y-91364022D01*
X117849865Y-91366837D01*
X117740377Y-91369179D01*
X117639469Y-91370976D01*
X117549267Y-91372158D01*
X117471896Y-91372655D01*
X117464920Y-91372665D01*
X117395378Y-91372596D01*
X117344027Y-91372068D01*
X117307884Y-91370782D01*
X117283964Y-91368443D01*
X117269285Y-91364756D01*
X117260861Y-91359424D01*
X117255709Y-91352150D01*
X117255569Y-91351889D01*
X117249495Y-91330892D01*
X117253100Y-91306651D01*
X117267419Y-91278046D01*
X117293490Y-91243955D01*
X117332347Y-91203260D01*
X117385027Y-91154840D01*
X117452565Y-91097575D01*
X117535997Y-91030345D01*
X117597578Y-90982065D01*
X117702063Y-90899507D01*
X117789840Y-90827089D01*
X117862050Y-90763559D01*
X117919835Y-90707662D01*
X117964336Y-90658146D01*
X117996694Y-90613758D01*
X118018050Y-90573243D01*
X118029546Y-90535348D01*
X118032417Y-90504512D01*
X118030578Y-90481009D01*
X118024186Y-90453941D01*
X118011924Y-90419742D01*
X117992479Y-90374848D01*
X117964534Y-90315695D01*
X117957099Y-90300382D01*
X117891978Y-90172083D01*
X117823465Y-90046995D01*
X117753276Y-89927800D01*
X117683127Y-89817180D01*
X117614732Y-89717817D01*
X117549808Y-89632395D01*
X117490069Y-89563595D01*
X117477953Y-89551118D01*
X117401083Y-89481746D01*
X117306746Y-89409748D01*
X117198166Y-89336996D01*
X117078570Y-89265364D01*
X116951183Y-89196725D01*
X116819228Y-89132951D01*
X116685931Y-89075916D01*
X116609587Y-89046775D01*
X116523862Y-89017940D01*
X116437305Y-88993124D01*
X116352253Y-88972610D01*
X116271046Y-88956682D01*
X116196022Y-88945622D01*
X116129521Y-88939713D01*
X116073880Y-88939237D01*
X116031439Y-88944477D01*
X116004536Y-88955717D01*
X115995498Y-88972530D01*
X116001940Y-88988296D01*
X116018388Y-89012827D01*
X116030810Y-89028378D01*
X116123470Y-89144119D01*
X116219640Y-89276305D01*
X116317047Y-89421057D01*
X116413420Y-89574498D01*
X116506486Y-89732748D01*
X116593972Y-89891930D01*
X116673605Y-90048165D01*
X116743115Y-90197574D01*
X116800227Y-90336279D01*
X116805800Y-90351105D01*
X116859264Y-90515432D01*
X116901852Y-90689372D01*
X116932300Y-90866183D01*
X116949348Y-91039124D01*
X116952600Y-91135296D01*
X116952898Y-91194280D01*
X116952369Y-91236214D01*
X116950392Y-91265221D01*
X116946343Y-91285427D01*
X116939599Y-91300955D01*
X116929537Y-91315930D01*
X116924267Y-91322923D01*
X116897210Y-91354042D01*
X116867172Y-91382478D01*
X116860723Y-91387649D01*
X116826601Y-91413675D01*
X116016656Y-91424814D01*
X115880774Y-91426735D01*
X115746009Y-91428739D01*
X115614627Y-91430787D01*
X115488894Y-91432840D01*
X115371078Y-91434856D01*
X115263445Y-91436798D01*
X115168260Y-91438625D01*
X115087792Y-91440297D01*
X115024305Y-91441776D01*
X114985411Y-91442849D01*
X114764110Y-91449746D01*
X114771003Y-91415284D01*
X114781904Y-91385082D01*
X114804758Y-91345681D01*
X114840367Y-91296015D01*
X114889530Y-91235020D01*
X114953048Y-91161631D01*
X115006006Y-91102835D01*
X115094179Y-91005194D01*
X115168120Y-90920986D01*
X115228765Y-90848870D01*
X115277053Y-90787507D01*
X115313922Y-90735555D01*
X115340308Y-90691673D01*
X115357149Y-90654522D01*
X115365384Y-90622760D01*
X115365949Y-90595047D01*
X115365131Y-90589329D01*
X115354703Y-90555078D01*
X115333703Y-90506809D01*
X115303962Y-90447665D01*
X115267314Y-90380791D01*
X115225590Y-90309330D01*
X115180622Y-90236426D01*
X115134243Y-90165224D01*
X115088284Y-90098866D01*
X115047372Y-90044060D01*
X114999291Y-89984664D01*
X114956891Y-89938235D01*
X114914622Y-89899788D01*
X114866937Y-89864338D01*
X114808286Y-89826899D01*
X114800305Y-89822070D01*
X114679762Y-89753204D01*
X114552955Y-89687645D01*
X114422847Y-89626528D01*
X114292399Y-89570990D01*
X114164574Y-89522167D01*
X114042335Y-89481195D01*
X113928644Y-89449211D01*
X113826465Y-89427351D01*
X113744445Y-89417108D01*
X113700051Y-89415382D01*
X113668113Y-89416750D01*
X113652697Y-89421012D01*
X113652209Y-89421608D01*
X113655398Y-89433741D01*
X113668575Y-89459839D01*
X113689776Y-89496384D01*
X113717037Y-89539861D01*
X113725430Y-89552707D01*
X113819302Y-89699370D01*
X113910369Y-89849822D01*
X113996993Y-90000984D01*
X114077532Y-90149779D01*
X114150348Y-90293128D01*
X114213799Y-90427952D01*
X114266247Y-90551174D01*
X114288942Y-90610505D01*
X114319039Y-90696781D01*
X114348638Y-90788685D01*
X114376892Y-90882954D01*
X114402951Y-90976328D01*
X114425971Y-91065546D01*
X114445103Y-91147346D01*
X114459499Y-91218466D01*
X114468314Y-91275645D01*
X114470784Y-91310456D01*
X114464158Y-91358648D01*
X114442974Y-91413069D01*
X114437898Y-91423176D01*
X114404935Y-91487092D01*
X114281729Y-91493448D01*
X114234087Y-91495625D01*
X114170811Y-91498081D01*
X114093763Y-91500770D01*
X114004802Y-91503647D01*
X113905789Y-91506667D01*
X113798584Y-91509785D01*
X113685048Y-91512954D01*
X113567040Y-91516129D01*
X113446421Y-91519266D01*
X113325051Y-91522319D01*
X113204791Y-91525242D01*
X113087501Y-91527989D01*
X112975041Y-91530517D01*
X112869272Y-91532778D01*
X112772053Y-91534728D01*
X112685246Y-91536322D01*
X112610710Y-91537514D01*
X112550306Y-91538258D01*
X112505894Y-91538510D01*
X112479334Y-91538223D01*
X112472206Y-91537595D01*
X112468275Y-91523765D01*
X112465494Y-91495082D01*
X112464485Y-91459289D01*
X112466463Y-91418852D01*
X112473442Y-91381558D01*
X112486991Y-91345183D01*
X112508679Y-91307505D01*
X112540075Y-91266302D01*
X112582747Y-91219350D01*
X112638265Y-91164427D01*
X112708197Y-91099311D01*
X112737132Y-91073010D01*
X112778668Y-91033857D01*
X112812792Y-90998642D01*
X112836557Y-90970584D01*
X112847008Y-90952938D01*
X112848819Y-90926475D01*
X112842340Y-90890840D01*
X112826808Y-90843498D01*
X112801463Y-90781917D01*
X112783889Y-90742852D01*
X112738127Y-90647946D01*
X112691634Y-90560181D01*
X112646834Y-90483914D01*
X112606688Y-90424229D01*
X112574308Y-90387847D01*
X112529962Y-90351094D01*
X112471714Y-90312734D01*
X112397624Y-90271533D01*
X112305753Y-90226255D01*
X112269765Y-90209548D01*
X112192414Y-90175826D01*
X112111539Y-90143650D01*
X112029487Y-90113668D01*
X111948606Y-90086525D01*
X111871241Y-90062869D01*
X111799741Y-90043345D01*
X111736452Y-90028599D01*
X111683720Y-90019278D01*
X111643894Y-90016029D01*
X111619319Y-90019497D01*
X111612171Y-90028458D01*
X111617789Y-90040567D01*
X111633302Y-90066945D01*
X111656699Y-90104349D01*
X111685970Y-90149537D01*
X111705714Y-90179334D01*
X111787324Y-90304156D01*
X111864404Y-90427295D01*
X111935520Y-90546231D01*
X111999239Y-90658443D01*
X112054126Y-90761409D01*
X112098749Y-90852608D01*
X112130226Y-90925795D01*
X112145656Y-90974581D01*
X112161056Y-91040402D01*
X112175708Y-91119129D01*
X112188894Y-91206634D01*
X112199897Y-91298787D01*
X112205503Y-91358800D01*
X112210008Y-91417418D01*
X112212125Y-91459186D01*
X112211725Y-91488310D01*
X112208676Y-91508994D01*
X112202851Y-91525444D01*
X112200198Y-91530851D01*
X112188279Y-91550114D01*
X112173708Y-91559861D01*
X112149300Y-91563380D01*
X112128052Y-91563860D01*
X112070542Y-91565209D01*
X112008969Y-91568120D01*
X111947307Y-91572238D01*
X111889534Y-91577207D01*
X111839623Y-91582669D01*
X111801551Y-91588270D01*
X111779294Y-91593653D01*
X111776001Y-91595398D01*
X111763811Y-91617159D01*
X111761177Y-91647669D01*
X111768775Y-91676453D01*
X111770570Y-91679553D01*
X111785591Y-91686811D01*
X111820033Y-91693522D01*
X111872144Y-91699512D01*
X111940174Y-91704608D01*
X112022370Y-91708639D01*
X112086559Y-91710712D01*
X112106910Y-91713052D01*
X112121339Y-91721868D01*
X112134669Y-91741817D01*
X112148535Y-91770564D01*
X112161533Y-91803030D01*
X112168531Y-91833840D01*
X112169206Y-91867230D01*
X112163235Y-91907438D01*
X112150295Y-91958701D01*
X112130061Y-92025255D01*
X112128787Y-92029263D01*
X112045750Y-92263429D01*
X111950541Y-92481500D01*
X111842202Y-92685344D01*
X111719771Y-92876830D01*
X111632485Y-92995162D01*
X111600987Y-93036361D01*
X111574889Y-93071897D01*
X111556663Y-93098300D01*
X111548782Y-93112098D01*
X111548645Y-93112847D01*
X111558312Y-93118728D01*
D16*
X116200000Y-67600000D02*
X123200000Y-67600000D01*
X126200000Y-75100000D02*
X121200000Y-70100000D01*
X121200000Y-70100000D02*
X121200000Y-60100000D01*
X136200000Y-65100000D02*
X131200000Y-60100000D01*
X131200000Y-60100000D02*
X121200000Y-60100000D01*
X121200000Y-60100000D02*
X126200000Y-65100000D01*
X136200000Y-75100000D02*
X136200000Y-65100000D01*
X136200000Y-65100000D02*
X126200000Y-65100000D01*
X126200000Y-65100000D02*
X126200000Y-75100000D01*
X126200000Y-75100000D02*
X136200000Y-75100000D01*
X116200000Y-67600000D02*
G75*
G03X116200000Y-67600000I-7500000J0D01*
G01*
D17*
X102782643Y-67190638D02*
X102797037Y-67190638D01*
X102798730Y-67189791D01*
X102799577Y-67188944D01*
X102800423Y-67187251D01*
X102800423Y-67183864D01*
X102799577Y-67182171D01*
X102798730Y-67181324D01*
X102797037Y-67180478D01*
X102782643Y-67180478D01*
X102800423Y-67172011D02*
X102788570Y-67172011D01*
X102791957Y-67172011D02*
X102790263Y-67171164D01*
X102789417Y-67170317D01*
X102788570Y-67168624D01*
X102788570Y-67166931D01*
X102799577Y-67154230D02*
X102800423Y-67155924D01*
X102800423Y-67159310D01*
X102799577Y-67161004D01*
X102797883Y-67161850D01*
X102791110Y-67161850D01*
X102789417Y-67161004D01*
X102788570Y-67159310D01*
X102788570Y-67155924D01*
X102789417Y-67154230D01*
X102791110Y-67153384D01*
X102792803Y-67153384D01*
X102794497Y-67161850D01*
X102788570Y-67138144D02*
X102802963Y-67138144D01*
X102804657Y-67138990D01*
X102805503Y-67139837D01*
X102806350Y-67141530D01*
X102806350Y-67144070D01*
X102805503Y-67145764D01*
X102799577Y-67138144D02*
X102800423Y-67139837D01*
X102800423Y-67143224D01*
X102799577Y-67144917D01*
X102798730Y-67145764D01*
X102797037Y-67146610D01*
X102791957Y-67146610D01*
X102790263Y-67145764D01*
X102789417Y-67144917D01*
X102788570Y-67143224D01*
X102788570Y-67139837D01*
X102789417Y-67138144D01*
X102791110Y-67116130D02*
X102791110Y-67110203D01*
X102800423Y-67107663D02*
X102800423Y-67116130D01*
X102782643Y-67116130D01*
X102782643Y-67107663D01*
X102800423Y-67100043D02*
X102782643Y-67100043D01*
X102800423Y-67089883D01*
X102782643Y-67089883D01*
D18*
D19*
X130033333Y-98252381D02*
X130033333Y-98966667D01*
X130080953Y-99109524D01*
X130176191Y-99204762D01*
X130319048Y-99252381D01*
X130414286Y-99252381D01*
X129557143Y-99252381D02*
X129557143Y-98252381D01*
X129176190Y-98252381D01*
X129080952Y-98300000D01*
X129033333Y-98347619D01*
X128985714Y-98442857D01*
X128985714Y-98585714D01*
X129033333Y-98680952D01*
X129080952Y-98728571D01*
X129176190Y-98776190D01*
X129557143Y-98776190D01*
X128604762Y-98347619D02*
X128557143Y-98300000D01*
X128461905Y-98252381D01*
X128223809Y-98252381D01*
X128128571Y-98300000D01*
X128080952Y-98347619D01*
X128033333Y-98442857D01*
X128033333Y-98538095D01*
X128080952Y-98680952D01*
X128652381Y-99252381D01*
X128033333Y-99252381D01*
D20*
X128461905Y-66052381D02*
X133461905Y-67719048D01*
X128461905Y-69385715D01*
X128938095Y-70814286D02*
X128700000Y-71052381D01*
X128461905Y-71528572D01*
X128461905Y-72719048D01*
X128700000Y-73195238D01*
X128938095Y-73433334D01*
X129414286Y-73671429D01*
X129890476Y-73671429D01*
X130604762Y-73433334D01*
X133461905Y-70576191D01*
X133461905Y-73671429D01*
X113211905Y-64921428D02*
X113330952Y-65278571D01*
X113330952Y-65873809D01*
X113211905Y-66111905D01*
X113092857Y-66230952D01*
X112854762Y-66350000D01*
X112616667Y-66350000D01*
X112378571Y-66230952D01*
X112259524Y-66111905D01*
X112140476Y-65873809D01*
X112021429Y-65397619D01*
X111902381Y-65159524D01*
X111783333Y-65040476D01*
X111545238Y-64921428D01*
X111307143Y-64921428D01*
X111069048Y-65040476D01*
X110950000Y-65159524D01*
X110830952Y-65397619D01*
X110830952Y-65992857D01*
X110950000Y-66350000D01*
X113330952Y-67421428D02*
X110830952Y-67421428D01*
X112378571Y-67659523D02*
X113330952Y-68373809D01*
X111664286Y-68373809D02*
X112616667Y-67421428D01*
X111664286Y-69207143D02*
X113330952Y-69802381D01*
X111664286Y-70397619D02*
X113330952Y-69802381D01*
X113926190Y-69564286D01*
X114045238Y-69445238D01*
X114164286Y-69207143D01*
X105830952Y-62540476D02*
X107854762Y-62540476D01*
X108092857Y-62659524D01*
X108211905Y-62778571D01*
X108330952Y-63016667D01*
X108330952Y-63492857D01*
X108211905Y-63730952D01*
X108092857Y-63850000D01*
X107854762Y-63969048D01*
X105830952Y-63969048D01*
X106664286Y-66230953D02*
X108688095Y-66230953D01*
X108926190Y-66111905D01*
X109045238Y-65992857D01*
X109164286Y-65754762D01*
X109164286Y-65397619D01*
X109045238Y-65159524D01*
X108211905Y-66230953D02*
X108330952Y-65992857D01*
X108330952Y-65516667D01*
X108211905Y-65278572D01*
X108092857Y-65159524D01*
X107854762Y-65040476D01*
X107140476Y-65040476D01*
X106902381Y-65159524D01*
X106783333Y-65278572D01*
X106664286Y-65516667D01*
X106664286Y-65992857D01*
X106783333Y-66230953D01*
X108330952Y-67778572D02*
X108211905Y-67540477D01*
X108092857Y-67421429D01*
X107854762Y-67302381D01*
X107140476Y-67302381D01*
X106902381Y-67421429D01*
X106783333Y-67540477D01*
X106664286Y-67778572D01*
X106664286Y-68135715D01*
X106783333Y-68373810D01*
X106902381Y-68492858D01*
X107140476Y-68611905D01*
X107854762Y-68611905D01*
X108092857Y-68492858D01*
X108211905Y-68373810D01*
X108330952Y-68135715D01*
X108330952Y-67778572D01*
X108211905Y-70635715D02*
X108330952Y-70397620D01*
X108330952Y-69921429D01*
X108211905Y-69683334D01*
X107973810Y-69564286D01*
X107021429Y-69564286D01*
X106783333Y-69683334D01*
X106664286Y-69921429D01*
X106664286Y-70397620D01*
X106783333Y-70635715D01*
X107021429Y-70754763D01*
X107259524Y-70754763D01*
X107497619Y-69564286D01*
X108211905Y-71707143D02*
X108330952Y-71945239D01*
X108330952Y-72421429D01*
X108211905Y-72659524D01*
X107973810Y-72778572D01*
X107854762Y-72778572D01*
X107616667Y-72659524D01*
X107497619Y-72421429D01*
X107497619Y-72064286D01*
X107378571Y-71826191D01*
X107140476Y-71707143D01*
X107021429Y-71707143D01*
X106783333Y-71826191D01*
X106664286Y-72064286D01*
X106664286Y-72421429D01*
X106783333Y-72659524D01*
M02*
