M48
METRIC,TZ
T1C0.400
T2C0.600
T3C0.800
T4C1.016
T5C2.700
T6C3.000
%
G90
G05
T1
X116800Y-66400
X117600Y-67200
X117600Y-75200
X118400Y-68000
X118400Y-74000
X119200Y-65600
X120000Y-66800
X120400Y-91600
X120800Y-65600
X122400Y-64800
X124000Y-85600
X126400Y-87200
X133200Y-74000
X133200Y-75200
T2
X102800Y-70000
X103200Y-72000
X108800Y-66800
X109600Y-72800
X110000Y-64000
X110000Y-68800
X111200Y-76400
X116000Y-83600
X118000Y-94000
X120800Y-94400
X123000Y-83200
X125200Y-90800
X127600Y-71200
X127600Y-83200
X127600Y-94000
X129600Y-88000
X132400Y-68800
T3
X105159Y-78400
X110041Y-78400
T4
X102540Y-52540
X105080Y-52540
X105080Y-60160
X105080Y-83020
X105080Y-85560
X105080Y-88100
X107620Y-52540
X107620Y-60160
X107620Y-83020
X107620Y-85560
X107620Y-88100
X110160Y-52540
X112700Y-52540
X115240Y-52540
X115240Y-57620
X117780Y-52540
X117780Y-57620
X117780Y-77940
X120320Y-52540
X120320Y-57620
X120320Y-77940
X122860Y-77940
X125400Y-52540
X125400Y-77940
X127940Y-52540
X127940Y-77940
X130480Y-52540
X130480Y-77940
X133020Y-52540
X134290Y-80480
X134290Y-83020
X134290Y-85560
X134290Y-88100
X134290Y-90640
X134290Y-93180
X134290Y-95720
X134290Y-98260
X135560Y-52540
X138100Y-52540
X138100Y-65240
X138100Y-67780
X138100Y-70320
X138100Y-72860
X138100Y-75400
X140640Y-52540
X140640Y-57620
X140640Y-60160
X143180Y-65240
X143180Y-67780
X143180Y-70320
X143180Y-72860
X143180Y-75400
X148260Y-65240
X148260Y-67780
X148260Y-70320
X148260Y-72860
X148260Y-75400
T5
X105000Y-95000
X145000Y-55000
T6
X146990Y-81160
T0
M30
