G04 #@! TF.FileFunction,Legend,Bot*
%FSLAX46Y46*%
G04 Gerber Fmt 4.6, Leading zero omitted, Abs format (unit mm)*
G04 Created by KiCad (PCBNEW 0.201508170901+6097~28~ubuntu14.04.1-product) date So 05 Jun 2016 18:44:43 CEST*
%MOMM*%
G01*
G04 APERTURE LIST*
%ADD10C,0.100000*%
%ADD11C,0.004445*%
%ADD12C,0.088900*%
G04 APERTURE END LIST*
D10*
D11*
X14777843Y-12350799D02*
X14777843Y-12342333D01*
X14782923Y-12352493D02*
X14765143Y-12346566D01*
X14782923Y-12340639D01*
X14765143Y-12331326D02*
X14765143Y-12329633D01*
X14765990Y-12327939D01*
X14766837Y-12327093D01*
X14768530Y-12326246D01*
X14771917Y-12325399D01*
X14776150Y-12325399D01*
X14779537Y-12326246D01*
X14781230Y-12327093D01*
X14782077Y-12327939D01*
X14782923Y-12329633D01*
X14782923Y-12331326D01*
X14782077Y-12333019D01*
X14781230Y-12333866D01*
X14779537Y-12334713D01*
X14776150Y-12335559D01*
X14771917Y-12335559D01*
X14768530Y-12334713D01*
X14766837Y-12333866D01*
X14765990Y-12333019D01*
X14765143Y-12331326D01*
D12*
D11*
X11602843Y-12350799D02*
X11602843Y-12342333D01*
X11607923Y-12352493D02*
X11590143Y-12346566D01*
X11607923Y-12340639D01*
X11607923Y-12325399D02*
X11607923Y-12335559D01*
X11607923Y-12330479D02*
X11590143Y-12330479D01*
X11592683Y-12332173D01*
X11594377Y-12333866D01*
X11595223Y-12335559D01*
D12*
D11*
X8427843Y-12350799D02*
X8427843Y-12342333D01*
X8432923Y-12352493D02*
X8415143Y-12346566D01*
X8432923Y-12340639D01*
X8416837Y-12335559D02*
X8415990Y-12334713D01*
X8415143Y-12333019D01*
X8415143Y-12328786D01*
X8415990Y-12327093D01*
X8416837Y-12326246D01*
X8418530Y-12325399D01*
X8420223Y-12325399D01*
X8422763Y-12326246D01*
X8432923Y-12336406D01*
X8432923Y-12325399D01*
D12*
M02*
