M48
METRIC,TZ
T1C0.400
%
G90
G05
T1
X1130Y-11030
X1130Y-13570
X1130Y-14205
X1765Y-11030
X1765Y-13570
X1765Y-14205
X2400Y-11030
X2400Y-13570
X2400Y-14205
X3035Y-11030
X3035Y-13570
X3035Y-14205
X3670Y-11030
X3670Y-13570
X3670Y-14205
X4305Y-11030
X4305Y-13570
X4305Y-14205
X4940Y-11030
X4940Y-11665
X4940Y-12300
X4940Y-12935
X4940Y-13570
X4940Y-14205
X8432Y-9442
X10338Y-10713
X10655Y-4680
X10655Y-5315
X10655Y-5950
X10655Y-6585
X10655Y-7220
X10655Y-7855
X10655Y-8490
X11290Y-4680
X11290Y-5315
X11290Y-5950
X11290Y-6585
X11290Y-7220
X11290Y-7855
X11290Y-8490
X11925Y-4680
X11925Y-5315
X11925Y-5950
X11925Y-6585
X11925Y-7220
X11925Y-7855
X11925Y-8490
X12560Y-4680
X12560Y-5315
X12560Y-5950
X12560Y-6585
X12560Y-7220
X12560Y-7855
X12560Y-8490
X13195Y-4680
X13195Y-5315
X13195Y-5950
X13195Y-6585
X13195Y-7220
X13195Y-7855
X13195Y-8490
X16052Y-10713
T0
M30
