G04 #@! TF.FileFunction,Legend,Top*
%FSLAX46Y46*%
G04 Gerber Fmt 4.6, Leading zero omitted, Abs format (unit mm)*
G04 Created by KiCad (PCBNEW 0.201508170901+6097~28~ubuntu14.04.1-product) date So 05 Jun 2016 18:44:43 CEST*
%MOMM*%
G01*
G04 APERTURE LIST*
%ADD10C,0.100000*%
%ADD11C,0.152400*%
%ADD12C,0.150000*%
%ADD13C,0.066040*%
%ADD14C,1.270000*%
G04 APERTURE END LIST*
D10*
D11*
X10155467Y-12880571D02*
X10155467Y-12493523D01*
X10387695Y-12957980D02*
X9574895Y-12687047D01*
X10387695Y-12416114D01*
X9652305Y-12183885D02*
X9613600Y-12145180D01*
X9574895Y-12067771D01*
X9574895Y-11874247D01*
X9613600Y-11796837D01*
X9652305Y-11758133D01*
X9729714Y-11719428D01*
X9807124Y-11719428D01*
X9923238Y-11758133D01*
X10387695Y-12222590D01*
X10387695Y-11719428D01*
X13330467Y-12880571D02*
X13330467Y-12493523D01*
X13562695Y-12957980D02*
X12749895Y-12687047D01*
X13562695Y-12416114D01*
X13562695Y-11719428D02*
X13562695Y-12183885D01*
X13562695Y-11951656D02*
X12749895Y-11951656D01*
X12866010Y-12029066D01*
X12943419Y-12106475D01*
X12982124Y-12183885D01*
X16505467Y-12880571D02*
X16505467Y-12493523D01*
X16737695Y-12957980D02*
X15924895Y-12687047D01*
X16737695Y-12416114D01*
X15924895Y-11990361D02*
X15924895Y-11912952D01*
X15963600Y-11835542D01*
X16002305Y-11796837D01*
X16079714Y-11758133D01*
X16234533Y-11719428D01*
X16428057Y-11719428D01*
X16582876Y-11758133D01*
X16660286Y-11796837D01*
X16698990Y-11835542D01*
X16737695Y-11912952D01*
X16737695Y-11990361D01*
X16698990Y-12067771D01*
X16660286Y-12106475D01*
X16582876Y-12145180D01*
X16428057Y-12183885D01*
X16234533Y-12183885D01*
X16079714Y-12145180D01*
X16002305Y-12106475D01*
X15963600Y-12067771D01*
X15924895Y-11990361D01*
X1780724Y-10623600D02*
X1703315Y-10584895D01*
X1587200Y-10584895D01*
X1471086Y-10623600D01*
X1393677Y-10701010D01*
X1354972Y-10778419D01*
X1316267Y-10933238D01*
X1316267Y-11049352D01*
X1354972Y-11204171D01*
X1393677Y-11281581D01*
X1471086Y-11358990D01*
X1587200Y-11397695D01*
X1664610Y-11397695D01*
X1780724Y-11358990D01*
X1819429Y-11320286D01*
X1819429Y-11049352D01*
X1664610Y-11049352D01*
X2167772Y-11397695D02*
X2167772Y-10584895D01*
X2632229Y-11397695D01*
X2632229Y-10584895D01*
X3019277Y-11397695D02*
X3019277Y-10584895D01*
X3212801Y-10584895D01*
X3328915Y-10623600D01*
X3406324Y-10701010D01*
X3445029Y-10778419D01*
X3483734Y-10933238D01*
X3483734Y-11049352D01*
X3445029Y-11204171D01*
X3406324Y-11281581D01*
X3328915Y-11358990D01*
X3212801Y-11397695D01*
X3019277Y-11397695D01*
X1548495Y-8044895D02*
X1703314Y-8044895D01*
X1780723Y-8083600D01*
X1858133Y-8161010D01*
X1896838Y-8315829D01*
X1896838Y-8586762D01*
X1858133Y-8741581D01*
X1780723Y-8818990D01*
X1703314Y-8857695D01*
X1548495Y-8857695D01*
X1471085Y-8818990D01*
X1393676Y-8741581D01*
X1354971Y-8586762D01*
X1354971Y-8315829D01*
X1393676Y-8161010D01*
X1471085Y-8083600D01*
X1548495Y-8044895D01*
X2245181Y-8780286D02*
X2283886Y-8818990D01*
X2245181Y-8857695D01*
X2206476Y-8818990D01*
X2245181Y-8780286D01*
X2245181Y-8857695D01*
X2593524Y-8818990D02*
X2709638Y-8857695D01*
X2903162Y-8857695D01*
X2980572Y-8818990D01*
X3019276Y-8780286D01*
X3057981Y-8702876D01*
X3057981Y-8625467D01*
X3019276Y-8548057D01*
X2980572Y-8509352D01*
X2903162Y-8470648D01*
X2748343Y-8431943D01*
X2670934Y-8393238D01*
X2632229Y-8354533D01*
X2593524Y-8277124D01*
X2593524Y-8199714D01*
X2632229Y-8122305D01*
X2670934Y-8083600D01*
X2748343Y-8044895D01*
X2941867Y-8044895D01*
X3057981Y-8083600D01*
X3406324Y-8780286D02*
X3445029Y-8818990D01*
X3406324Y-8857695D01*
X3367619Y-8818990D01*
X3406324Y-8780286D01*
X3406324Y-8857695D01*
X1432381Y-6278990D02*
X1548495Y-6317695D01*
X1742019Y-6317695D01*
X1819429Y-6278990D01*
X1858133Y-6240286D01*
X1896838Y-6162876D01*
X1896838Y-6085467D01*
X1858133Y-6008057D01*
X1819429Y-5969352D01*
X1742019Y-5930648D01*
X1587200Y-5891943D01*
X1509791Y-5853238D01*
X1471086Y-5814533D01*
X1432381Y-5737124D01*
X1432381Y-5659714D01*
X1471086Y-5582305D01*
X1509791Y-5543600D01*
X1587200Y-5504895D01*
X1780724Y-5504895D01*
X1896838Y-5543600D01*
X2709638Y-6240286D02*
X2670933Y-6278990D01*
X2554819Y-6317695D01*
X2477409Y-6317695D01*
X2361295Y-6278990D01*
X2283886Y-6201581D01*
X2245181Y-6124171D01*
X2206476Y-5969352D01*
X2206476Y-5853238D01*
X2245181Y-5698419D01*
X2283886Y-5621010D01*
X2361295Y-5543600D01*
X2477409Y-5504895D01*
X2554819Y-5504895D01*
X2670933Y-5543600D01*
X2709638Y-5582305D01*
X3445028Y-6317695D02*
X3057981Y-6317695D01*
X3057981Y-5504895D01*
X1413029Y-3738990D02*
X1529143Y-3777695D01*
X1722667Y-3777695D01*
X1800077Y-3738990D01*
X1838781Y-3700286D01*
X1877486Y-3622876D01*
X1877486Y-3545467D01*
X1838781Y-3468057D01*
X1800077Y-3429352D01*
X1722667Y-3390648D01*
X1567848Y-3351943D01*
X1490439Y-3313238D01*
X1451734Y-3274533D01*
X1413029Y-3197124D01*
X1413029Y-3119714D01*
X1451734Y-3042305D01*
X1490439Y-3003600D01*
X1567848Y-2964895D01*
X1761372Y-2964895D01*
X1877486Y-3003600D01*
X2225829Y-3777695D02*
X2225829Y-2964895D01*
X2419353Y-2964895D01*
X2535467Y-3003600D01*
X2612876Y-3081010D01*
X2651581Y-3158419D01*
X2690286Y-3313238D01*
X2690286Y-3429352D01*
X2651581Y-3584171D01*
X2612876Y-3661581D01*
X2535467Y-3738990D01*
X2419353Y-3777695D01*
X2225829Y-3777695D01*
X2999924Y-3545467D02*
X3386972Y-3545467D01*
X2922515Y-3777695D02*
X3193448Y-2964895D01*
X3464381Y-3777695D01*
X1393676Y-424895D02*
X1896838Y-424895D01*
X1625905Y-734533D01*
X1742019Y-734533D01*
X1819429Y-773238D01*
X1858133Y-811943D01*
X1896838Y-889352D01*
X1896838Y-1082876D01*
X1858133Y-1160286D01*
X1819429Y-1198990D01*
X1742019Y-1237695D01*
X1509791Y-1237695D01*
X1432381Y-1198990D01*
X1393676Y-1160286D01*
X2129067Y-424895D02*
X2400000Y-1237695D01*
X2670933Y-424895D01*
X2864457Y-424895D02*
X3367619Y-424895D01*
X3096686Y-734533D01*
X3212800Y-734533D01*
X3290210Y-773238D01*
X3328914Y-811943D01*
X3367619Y-889352D01*
X3367619Y-1082876D01*
X3328914Y-1160286D01*
X3290210Y-1198990D01*
X3212800Y-1237695D01*
X2980572Y-1237695D01*
X2903162Y-1198990D01*
X2864457Y-1160286D01*
D12*
X14211000Y-4045000D02*
X14211000Y-9125000D01*
X14211000Y-9125000D02*
X9639000Y-9125000D01*
X9639000Y-9125000D02*
X9639000Y-4045000D01*
X9639000Y-4045000D02*
X14211000Y-4045000D01*
X12687000Y-4045000D02*
X12687000Y-4553000D01*
X12687000Y-4553000D02*
X11417000Y-4553000D01*
X11417000Y-4553000D02*
X11417000Y-4045000D01*
X13965000Y-2990000D02*
X14965000Y-2990000D01*
X14965000Y-1290000D02*
X13965000Y-1290000D01*
D13*
X15544500Y-12808000D02*
X15544500Y-11792000D01*
X15544500Y-11792000D02*
X14020500Y-11792000D01*
X14020500Y-12808000D02*
X14020500Y-11792000D01*
X15544500Y-12808000D02*
X14020500Y-12808000D01*
D11*
X15798500Y-10141000D02*
X15798500Y-14459000D01*
X15544500Y-9887000D02*
X14020500Y-9887000D01*
X15544500Y-14713000D02*
X14020500Y-14713000D01*
X13766500Y-14459000D02*
X13766500Y-10141000D01*
X14782500Y-10522000D02*
X14782500Y-10014000D01*
X14782500Y-14078000D02*
X14782500Y-14586000D01*
X14020500Y-12300000D02*
X13766500Y-12300000D01*
X15798500Y-12300000D02*
X15544500Y-12300000D01*
X14020500Y-9887000D02*
G75*
G03X13766500Y-10141000I0J-254000D01*
G01*
X13766500Y-14459000D02*
G75*
G03X14020500Y-14713000I254000J0D01*
G01*
X15544500Y-14713000D02*
G75*
G03X15798500Y-14459000I0J254000D01*
G01*
X15798500Y-10141000D02*
G75*
G03X15544500Y-9887000I-254000J0D01*
G01*
D14*
X14909500Y-11284000D02*
G75*
G03X14655500Y-11284000I-127000J0D01*
G01*
X14655500Y-13316000D02*
G75*
G03X14909500Y-13316000I127000J0D01*
G01*
D13*
X12369500Y-12808000D02*
X12369500Y-11792000D01*
X12369500Y-11792000D02*
X10845500Y-11792000D01*
X10845500Y-12808000D02*
X10845500Y-11792000D01*
X12369500Y-12808000D02*
X10845500Y-12808000D01*
D11*
X12623500Y-10141000D02*
X12623500Y-14459000D01*
X12369500Y-9887000D02*
X10845500Y-9887000D01*
X12369500Y-14713000D02*
X10845500Y-14713000D01*
X10591500Y-14459000D02*
X10591500Y-10141000D01*
X11607500Y-10522000D02*
X11607500Y-10014000D01*
X11607500Y-14078000D02*
X11607500Y-14586000D01*
X10845500Y-12300000D02*
X10591500Y-12300000D01*
X12623500Y-12300000D02*
X12369500Y-12300000D01*
X10845500Y-9887000D02*
G75*
G03X10591500Y-10141000I0J-254000D01*
G01*
X10591500Y-14459000D02*
G75*
G03X10845500Y-14713000I254000J0D01*
G01*
X12369500Y-14713000D02*
G75*
G03X12623500Y-14459000I0J254000D01*
G01*
X12623500Y-10141000D02*
G75*
G03X12369500Y-9887000I-254000J0D01*
G01*
D14*
X11734500Y-11284000D02*
G75*
G03X11480500Y-11284000I-127000J0D01*
G01*
X11480500Y-13316000D02*
G75*
G03X11734500Y-13316000I127000J0D01*
G01*
D13*
X9194500Y-12808000D02*
X9194500Y-11792000D01*
X9194500Y-11792000D02*
X7670500Y-11792000D01*
X7670500Y-12808000D02*
X7670500Y-11792000D01*
X9194500Y-12808000D02*
X7670500Y-12808000D01*
D11*
X9448500Y-10141000D02*
X9448500Y-14459000D01*
X9194500Y-9887000D02*
X7670500Y-9887000D01*
X9194500Y-14713000D02*
X7670500Y-14713000D01*
X7416500Y-14459000D02*
X7416500Y-10141000D01*
X8432500Y-10522000D02*
X8432500Y-10014000D01*
X8432500Y-14078000D02*
X8432500Y-14586000D01*
X7670500Y-12300000D02*
X7416500Y-12300000D01*
X9448500Y-12300000D02*
X9194500Y-12300000D01*
X7670500Y-9887000D02*
G75*
G03X7416500Y-10141000I0J-254000D01*
G01*
X7416500Y-14459000D02*
G75*
G03X7670500Y-14713000I254000J0D01*
G01*
X9194500Y-14713000D02*
G75*
G03X9448500Y-14459000I0J254000D01*
G01*
X9448500Y-10141000D02*
G75*
G03X9194500Y-9887000I-254000J0D01*
G01*
D14*
X8559500Y-11284000D02*
G75*
G03X8305500Y-11284000I-127000J0D01*
G01*
X8305500Y-13316000D02*
G75*
G03X8559500Y-13316000I127000J0D01*
G01*
D12*
X7085000Y-7572500D02*
X7085000Y-8772500D01*
X5335000Y-8772500D02*
X5335000Y-7572500D01*
X5335000Y-4010000D02*
X5335000Y-2810000D01*
X7085000Y-2810000D02*
X7085000Y-4010000D01*
X10302500Y-3015000D02*
X9102500Y-3015000D01*
X9102500Y-1265000D02*
X10302500Y-1265000D01*
X17457381Y-7799285D02*
X17457381Y-8275476D01*
X16457381Y-8275476D01*
X17457381Y-7465952D02*
X16457381Y-7465952D01*
X17171667Y-7132618D01*
X16457381Y-6799285D01*
X17457381Y-6799285D01*
X16457381Y-6418333D02*
X16457381Y-5751666D01*
X17457381Y-6180238D01*
X16457381Y-4894523D02*
X16457381Y-5370714D01*
X16933571Y-5418333D01*
X16885952Y-5370714D01*
X16838333Y-5275476D01*
X16838333Y-5037380D01*
X16885952Y-4942142D01*
X16933571Y-4894523D01*
X17028810Y-4846904D01*
X17266905Y-4846904D01*
X17362143Y-4894523D01*
X17409762Y-4942142D01*
X17457381Y-5037380D01*
X17457381Y-5275476D01*
X17409762Y-5370714D01*
X17362143Y-5418333D01*
X1423810Y-14339881D02*
X1423810Y-13339881D01*
X1852381Y-13435119D02*
X1900000Y-13387500D01*
X1995238Y-13339881D01*
X2233334Y-13339881D01*
X2328572Y-13387500D01*
X2376191Y-13435119D01*
X2423810Y-13530357D01*
X2423810Y-13625595D01*
X2376191Y-13768452D01*
X1804762Y-14339881D01*
X2423810Y-14339881D01*
X3423810Y-14244643D02*
X3376191Y-14292262D01*
X3233334Y-14339881D01*
X3138096Y-14339881D01*
X2995238Y-14292262D01*
X2900000Y-14197024D01*
X2852381Y-14101786D01*
X2804762Y-13911310D01*
X2804762Y-13768452D01*
X2852381Y-13577976D01*
X2900000Y-13482738D01*
X2995238Y-13387500D01*
X3138096Y-13339881D01*
X3233334Y-13339881D01*
X3376191Y-13387500D01*
X3423810Y-13435119D01*
M02*
