G04 #@! TF.FileFunction,Copper,L1,Top,Signal*
%FSLAX46Y46*%
G04 Gerber Fmt 4.6, Leading zero omitted, Abs format (unit mm)*
G04 Created by KiCad (PCBNEW 0.201508170901+6097~28~ubuntu14.04.1-product) date So 05 Jun 2016 18:44:43 CEST*
%MOMM*%
G01*
G04 APERTURE LIST*
%ADD10C,0.100000*%
%ADD11R,1.143000X0.508000*%
%ADD12R,1.500000X1.250000*%
%ADD13R,1.600200X1.168400*%
%ADD14R,1.300000X1.500000*%
%ADD15R,1.500000X1.300000*%
%ADD16R,4.000000X1.000000*%
%ADD17C,0.600000*%
%ADD18C,0.508000*%
%ADD19C,0.254000*%
%ADD20C,0.304800*%
G04 APERTURE END LIST*
D10*
D11*
X15100000Y-4680000D03*
X15100000Y-5950000D03*
X15100000Y-7220000D03*
X15100000Y-8490000D03*
X8750000Y-8490000D03*
X8750000Y-7220000D03*
X8750000Y-5950000D03*
X8750000Y-4680000D03*
D12*
X15715000Y-2140000D03*
X13215000Y-2140000D03*
D13*
X14782500Y-13824000D03*
X14782500Y-12300000D03*
X14782500Y-10776000D03*
X11607500Y-13824000D03*
X11607500Y-12300000D03*
X11607500Y-10776000D03*
X8432500Y-13824000D03*
X8432500Y-12300000D03*
X8432500Y-10776000D03*
D14*
X6210000Y-9522500D03*
X6210000Y-6822500D03*
X6210000Y-2060000D03*
X6210000Y-4760000D03*
D15*
X8352500Y-2140000D03*
X11052500Y-2140000D03*
D16*
X2400000Y-12300000D03*
X2400000Y-9760000D03*
X2400000Y-7220000D03*
X2400000Y-4680000D03*
X2400000Y-2140000D03*
D17*
X16052500Y-10712500D03*
X8432500Y-9442500D03*
X10337500Y-10712500D03*
X10655000Y-8490000D03*
X11925000Y-8490000D03*
X13195000Y-8490000D03*
X13195000Y-7855000D03*
X12560000Y-8490000D03*
X11290000Y-8490000D03*
X11290000Y-7855000D03*
X12560000Y-7855000D03*
X13195000Y-7220000D03*
X11925000Y-7855000D03*
X10655000Y-7855000D03*
X11290000Y-7220000D03*
X12560000Y-7220000D03*
X13195000Y-6585000D03*
X11925000Y-7220000D03*
X10655000Y-7220000D03*
X11290000Y-6585000D03*
X12560000Y-6585000D03*
X13195000Y-5950000D03*
X11925000Y-6585000D03*
X10655000Y-6585000D03*
X11290000Y-5950000D03*
X12560000Y-5950000D03*
X13195000Y-5315000D03*
X11925000Y-5950000D03*
X10655000Y-5950000D03*
X10655000Y-5315000D03*
X11925000Y-5315000D03*
X13195000Y-4680000D03*
X12560000Y-5315000D03*
X11290000Y-5315000D03*
X11290000Y-4680000D03*
X12560000Y-4680000D03*
X11925000Y-4680000D03*
X10655000Y-4680000D03*
X4940000Y-12935000D03*
X1765000Y-14205000D03*
X3035000Y-14205000D03*
X4305000Y-14205000D03*
X4940000Y-13570000D03*
X4940000Y-14205000D03*
X3670000Y-14205000D03*
X2400000Y-14205000D03*
X1130000Y-14205000D03*
X1765000Y-13570000D03*
X3035000Y-13570000D03*
X4305000Y-13570000D03*
X4940000Y-12300000D03*
X3670000Y-13570000D03*
X2400000Y-13570000D03*
X1130000Y-13570000D03*
X1765000Y-11030000D03*
X3035000Y-11030000D03*
X4305000Y-11030000D03*
X4940000Y-11665000D03*
X4940000Y-11030000D03*
X3670000Y-11030000D03*
X2400000Y-11030000D03*
X1130000Y-11030000D03*
D18*
X14782500Y-13824000D02*
X11607500Y-13824000D01*
X16116000Y-13824000D02*
X14782500Y-13824000D01*
X17322500Y-3727500D02*
X17322500Y-4641444D01*
X17322500Y-4641444D02*
X17322500Y-12617500D01*
X15100000Y-4680000D02*
X17283944Y-4680000D01*
X17283944Y-4680000D02*
X17322500Y-4641444D01*
X8432500Y-13824000D02*
X7099000Y-13824000D01*
X6210000Y-12935000D02*
X6210000Y-9522500D01*
X7099000Y-13824000D02*
X6210000Y-12935000D01*
X15715000Y-2140000D02*
X15735000Y-2140000D01*
X15735000Y-2140000D02*
X17322500Y-3727500D01*
X17322500Y-12617500D02*
X16116000Y-13824000D01*
X11607500Y-13824000D02*
X8432500Y-13824000D01*
X8352500Y-2140000D02*
X8432500Y-2140000D01*
X8432500Y-2140000D02*
X9702500Y-870000D01*
X14445000Y-870000D02*
X15715000Y-2140000D01*
X9702500Y-870000D02*
X14445000Y-870000D01*
X6210000Y-2060000D02*
X8272500Y-2060000D01*
X8272500Y-2060000D02*
X8352500Y-2140000D01*
X6210000Y-2060000D02*
X2480000Y-2060000D01*
X2480000Y-2060000D02*
X2400000Y-2140000D01*
X8432500Y-2060000D02*
X8352500Y-2140000D01*
X2400000Y-2140000D02*
X3352500Y-2140000D01*
D19*
X16052500Y-10712500D02*
X14846000Y-10712500D01*
X14846000Y-10712500D02*
X14782500Y-10776000D01*
X8432500Y-10776000D02*
X8432500Y-9442500D01*
X10337500Y-10712500D02*
X11544000Y-10712500D01*
X11544000Y-10712500D02*
X11607500Y-10776000D01*
D18*
X8750000Y-8490000D02*
X10655000Y-8490000D01*
X11290000Y-8490000D02*
X11925000Y-8490000D01*
X12560000Y-8490000D02*
X13195000Y-8490000D01*
X13195000Y-8490000D02*
X13195000Y-7855000D01*
X11925000Y-8490000D02*
X12560000Y-8490000D01*
X10655000Y-8490000D02*
X11290000Y-8490000D01*
X10655000Y-7855000D02*
X11290000Y-7855000D01*
X11925000Y-7855000D02*
X12560000Y-7855000D01*
X13195000Y-7855000D02*
X13195000Y-7220000D01*
X12560000Y-7855000D02*
X13195000Y-7855000D01*
X11290000Y-7855000D02*
X11925000Y-7855000D01*
X10655000Y-7220000D02*
X11290000Y-7220000D01*
X11925000Y-7220000D02*
X12560000Y-7220000D01*
X13195000Y-7220000D02*
X13195000Y-6585000D01*
X12560000Y-7220000D02*
X13195000Y-7220000D01*
X11290000Y-7220000D02*
X11925000Y-7220000D01*
X10655000Y-6585000D02*
X11290000Y-6585000D01*
X11925000Y-6585000D02*
X12560000Y-6585000D01*
X13195000Y-6585000D02*
X13195000Y-5950000D01*
X12560000Y-6585000D02*
X13195000Y-6585000D01*
X11290000Y-6585000D02*
X11925000Y-6585000D01*
X10655000Y-5950000D02*
X11290000Y-5950000D01*
X11925000Y-5950000D02*
X12560000Y-5950000D01*
X13195000Y-5950000D02*
X13195000Y-5315000D01*
X12560000Y-5950000D02*
X13195000Y-5950000D01*
X11290000Y-5950000D02*
X11925000Y-5950000D01*
X11925000Y-5315000D02*
X10655000Y-5315000D01*
X12560000Y-5315000D02*
X13195000Y-5315000D01*
X13195000Y-4680000D02*
X13195000Y-5315000D01*
X11925000Y-5315000D02*
X12560000Y-5315000D01*
X10655000Y-5315000D02*
X11290000Y-5315000D01*
X10655000Y-4680000D02*
X11290000Y-4680000D01*
X11925000Y-4680000D02*
X12560000Y-4680000D01*
X13215000Y-4660000D02*
X13215000Y-2140000D01*
X13215000Y-4660000D02*
X13195000Y-4680000D01*
X12560000Y-4680000D02*
X13195000Y-4680000D01*
X11290000Y-4680000D02*
X11925000Y-4680000D01*
X1130000Y-14205000D02*
X1765000Y-14205000D01*
X2400000Y-14205000D02*
X3035000Y-14205000D01*
X3670000Y-14205000D02*
X4305000Y-14205000D01*
X4940000Y-14205000D02*
X4940000Y-13570000D01*
X4305000Y-14205000D02*
X4940000Y-14205000D01*
X3035000Y-14205000D02*
X3670000Y-14205000D01*
X1765000Y-14205000D02*
X2400000Y-14205000D01*
X1130000Y-13570000D02*
X1765000Y-13570000D01*
X2400000Y-13570000D02*
X3035000Y-13570000D01*
X3670000Y-13570000D02*
X4305000Y-13570000D01*
X4940000Y-13570000D02*
X4940000Y-12935000D01*
X4940000Y-12935000D02*
X4940000Y-12300000D01*
X4305000Y-13570000D02*
X4940000Y-13570000D01*
X3035000Y-13570000D02*
X3670000Y-13570000D01*
X1765000Y-13570000D02*
X2400000Y-13570000D01*
X1130000Y-11030000D02*
X1765000Y-11030000D01*
X2400000Y-11030000D02*
X3035000Y-11030000D01*
X3670000Y-11030000D02*
X4305000Y-11030000D01*
X4940000Y-11030000D02*
X4940000Y-11665000D01*
X4940000Y-12300000D02*
X2400000Y-12300000D01*
X4940000Y-11665000D02*
X4940000Y-12300000D01*
X4305000Y-11030000D02*
X4940000Y-11030000D01*
X3035000Y-11030000D02*
X3670000Y-11030000D01*
X1765000Y-11030000D02*
X2400000Y-11030000D01*
D19*
X14782500Y-12300000D02*
X16687500Y-12300000D01*
X15684202Y-5950000D02*
X15100000Y-5950000D01*
X16687500Y-6953298D02*
X15684202Y-5950000D01*
X16687500Y-12300000D02*
X16687500Y-6953298D01*
D20*
X15100000Y-7220000D02*
X15417500Y-7220000D01*
X15417500Y-7220000D02*
X16052500Y-7855000D01*
X16052500Y-7855000D02*
X16052500Y-9125000D01*
X16052500Y-9125000D02*
X15417500Y-9760000D01*
X15417500Y-9760000D02*
X13830000Y-9760000D01*
X13830000Y-9760000D02*
X13195000Y-10395000D01*
X13195000Y-10395000D02*
X13195000Y-12300000D01*
X13195000Y-12300000D02*
X11607500Y-12300000D01*
D19*
X8432500Y-12300000D02*
X10020000Y-12300000D01*
X10020000Y-11327698D02*
X9702500Y-11010198D01*
X9702500Y-11010198D02*
X9702500Y-10077500D01*
X10020000Y-12300000D02*
X10020000Y-11327698D01*
X9702500Y-10077500D02*
X10337500Y-9442500D01*
X10337500Y-9442500D02*
X13195000Y-9442500D01*
X13195000Y-9442500D02*
X14147500Y-8490000D01*
X14147500Y-8490000D02*
X15100000Y-8490000D01*
D20*
X8750000Y-7220000D02*
X6607500Y-7220000D01*
X6607500Y-7220000D02*
X6210000Y-6822500D01*
X6210000Y-6822500D02*
X5972500Y-6822500D01*
X5972500Y-6822500D02*
X4940000Y-7855000D01*
X4940000Y-7855000D02*
X4940000Y-9442500D01*
X4940000Y-9442500D02*
X4622500Y-9760000D01*
X4622500Y-9760000D02*
X2400000Y-9760000D01*
X6210000Y-4760000D02*
X5177500Y-4760000D01*
X4622500Y-7220000D02*
X2400000Y-7220000D01*
X4940000Y-6902500D02*
X4622500Y-7220000D01*
X4940000Y-4997500D02*
X4940000Y-6902500D01*
X5177500Y-4760000D02*
X4940000Y-4997500D01*
X8750000Y-5950000D02*
X7400000Y-5950000D01*
X7400000Y-5950000D02*
X6210000Y-4760000D01*
X8750000Y-4680000D02*
X8750000Y-3410000D01*
X9067500Y-3410000D02*
X8750000Y-3410000D01*
X9067500Y-3410000D02*
X9782500Y-3410000D01*
X9782500Y-3410000D02*
X11052500Y-2140000D01*
X8750000Y-3410000D02*
X6845000Y-3410000D01*
X5575000Y-3410000D02*
X4305000Y-4680000D01*
X6845000Y-3410000D02*
X5575000Y-3410000D01*
X4305000Y-4680000D02*
X2400000Y-4680000D01*
D19*
G36*
X5448000Y-14395500D02*
X622000Y-14395500D01*
X622000Y-10839500D01*
X5448000Y-10839500D01*
X5448000Y-14395500D01*
X5448000Y-14395500D01*
G37*
X5448000Y-14395500D02*
X622000Y-14395500D01*
X622000Y-10839500D01*
X5448000Y-10839500D01*
X5448000Y-14395500D01*
G36*
X13703000Y-8287922D02*
X13005622Y-8985300D01*
X10337500Y-8985300D01*
X10273652Y-8998000D01*
X10147000Y-8998000D01*
X10147000Y-4172000D01*
X13703000Y-4172000D01*
X13703000Y-8287922D01*
X13703000Y-8287922D01*
G37*
X13703000Y-8287922D02*
X13005622Y-8985300D01*
X10337500Y-8985300D01*
X10273652Y-8998000D01*
X10147000Y-8998000D01*
X10147000Y-4172000D01*
X13703000Y-4172000D01*
X13703000Y-8287922D01*
M02*
